<?xml version="1.0" encoding="iso-8859-1"?>
<!-- Generator: Adobe Illustrator 19.0.0, SVG Export Plug-In . SVG Version: 6.00 Build 0)  -->
<svg version="1.1" id="Layer_1" xmlns="http://www.w3.org/2000/svg" xmlns:xlink="http://www.w3.org/1999/xlink" x="0px" y="0px"
	 viewBox="0 0 512.001 512.001" style="enable-background:new 0 0 512.001 512.001;" xml:space="preserve">
<g>
	<polyline style="fill:#707487;" points="279.353,71.621 320.123,440.244 256.121,504.486 191.879,440.485 231.262,71.711 	"/>
	<path style="fill:#707487;" d="M287.338,55.575c0.017,8.817-7.184,16.044-16,16.06l-32.061,0.06
		c-8.817,0.017-16.044-7.184-16.06-16l-0.06-32.061c-0.017-8.817,7.184-16.044,16-16.06l32.061-0.06
		c8.817-0.017,16.043,7.184,16.06,16L287.338,55.575z"/>
</g>
<path d="M327.591,439.417L287.074,73.074c4.784-4.322,7.792-10.573,7.779-17.512l0,0l0,0l-0.06-32.061
	C294.767,10.542,284.205,0,271.203,0l-32.061,0.061c-6.271,0.012-12.174,2.477-16.622,6.941c-4.447,4.464-6.89,10.377-6.878,16.648
	l0.06,32.061c0.013,6.933,3.046,13.173,7.845,17.479l-39.14,366.498c-0.241,2.263,0.556,4.515,2.168,6.122l64.243,64
	c1.467,1.461,3.384,2.191,5.303,2.191c1.928,0,3.855-0.737,5.323-2.211l64-64.242C327.053,443.935,327.841,441.681,327.591,439.417z
	 M296.102,453.708l-88.647-88.313l1.813-16.98l96.227,95.865L296.102,453.708z M276.102,473.784l-70.965-70.698
	c-0.482-0.48-1.016-0.873-1.58-1.195l1.85-17.322l80.087,79.786L276.102,473.784z M306.33,383.896l-91.153-90.81l1.813-16.98
	l87.004,86.677L306.33,383.896z M213.13,312.26l93.598,93.247c0.644,0.641,1.378,1.133,2.157,1.493l2.417,21.85l-98.284-97.916
	c-0.529-0.527-1.118-0.955-1.743-1.291L213.13,312.26z M220.897,258.783c-0.575-0.573-1.221-1.03-1.909-1.378l1.864-17.453
	l78.171,77.878l2.335,21.112L220.897,258.783z M222.9,220.777l1.813-16.98l69.339,69.079l2.335,21.113L222.9,220.777z
	 M226.76,184.622l1.813-16.98l60.506,60.278l2.335,21.113L226.76,184.622z M230.622,148.469l1.813-16.98l51.673,51.479l2.335,21.113
	L230.622,148.469z M281.471,159.126l-46.988-46.812l1.813-16.98l42.84,42.679L281.471,159.126z M239.247,71.696v-7.514
	c-4.687,0-8.507-3.813-8.516-8.5l-0.011-5.905l14.447,14.393l-5.904,0.011L239.247,71.696z M276.5,114.172l-35.098-34.965
	l29.95-0.056c0.426-0.001,0.849-0.014,1.269-0.038L276.5,114.172z M271.247,15.029c4.687,0,8.508,3.813,8.516,8.5l0.026,13.919
	L257.31,15.055L271.247,15.029z M233.168,17.608c0.956-0.96,2.096-1.657,3.332-2.073l42.888,42.727
	c-0.412,1.238-1.105,2.381-2.061,3.339c-1.614,1.62-3.746,2.515-6.003,2.52l-4.903,0.009L230.68,28.523l-0.009-4.903
	C230.666,21.365,231.554,19.228,233.168,17.608z M256.101,493.86l-56.368-56.156l1.813-16.98l63.948,63.708L256.101,493.86z"/>
<g>
</g>
<g>
</g>
<g>
</g>
<g>
</g>
<g>
</g>
<g>
</g>
<g>
</g>
<g>
</g>
<g>
</g>
<g>
</g>
<g>
</g>
<g>
</g>
<g>
</g>
<g>
</g>
<g>
</g>
</svg>
