<?xml version="1.0" encoding="iso-8859-1"?>
<!-- Generator: Adobe Illustrator 19.0.0, SVG Export Plug-In . SVG Version: 6.00 Build 0)  -->
<svg version="1.1" id="Layer_1" xmlns="http://www.w3.org/2000/svg" xmlns:xlink="http://www.w3.org/1999/xlink" x="0px" y="0px"
	 viewBox="0 0 512 512" style="enable-background:new 0 0 512 512;" xml:space="preserve">
<path style="fill:#9B5A50;" d="M455.956,63.391h-0.001H455.956c17.62-0.033,32.063,14.356,32.096,31.976l0.286,152.197
	l0.316,168.165c0.033,17.62-14.356,32.063-31.976,32.096l-416.471,0.782c-17.62,0.033-32.063-14.356-32.096-31.976L7.509,96.27
	C7.476,78.65,21.865,64.207,39.485,64.174L455.956,63.391"/>
<path style="fill:#AA6455;" d="M7.509,96.27c0.033,17.693,14.403,32.009,32.096,31.976l416.471-0.783
	c17.62-0.033,32.063,14.356,32.096,31.976l0.241,128.173l0.241,128.117c0.033,17.62-14.356,32.063-31.976,32.096l-416.471,0.782
	c-17.62,0.033-32.063-14.356-32.096-31.976L7.509,96.27"/>
<path style="fill:#915046;" d="M7.592,141.31c0.026,13.774,13.613,24.913,30.348,24.882l393.914-0.741
	c16.666-0.031,30.322,16.671,30.348,30.387l0.187,94.274l0.187,95.942c0.026,13.717-13.588,28.758-30.254,28.79l-393.914,0.741
	c-16.666,0.031-30.322-11.166-30.348-24.882L7.592,141.31"/>
<path style="fill:#AA6455;" d="M7.66,171.339c0.021,11.06,13.001,18.524,28.992,18.494l387.102-0.708
	c15.925-0.03,18.28,10.434,18.301,21.448l0.15,80.119l0.15,80.084c0.021,11.013-7.683,22.552-23.608,22.582l-381.719,0.708
	c-15.925,0.03-28.972-11.459-28.992-22.472L7.66,171.339"/>
<g>
	<path style="fill:#915046;" d="M483.958,99.47c-7.483-7.454-17.382-11.557-27.882-11.557c-0.025,0-0.051,0-0.076,0L39.534,88.697
		c-4.147,0.006-7.504,3.373-7.497,7.521c0.006,4.143,3.367,7.496,7.509,7.496c0.004,0,0.008,0,0.012,0l416.474-0.783
		c0.016,0,0.031,0,0.047,0c6.498,0,14.73,2.139,19.735,5.811c11.032,8.09,12.3,26.167,12.3,26.167s0.01,0,0.015,0l0,0l-0.057-30.635
		C486.837,102.584,485.469,100.975,483.958,99.47z"/>
	<path style="fill:#915046;" d="M384.386,335.848l104.118-0.195c8.847-0.017,16.005-7.202,15.988-16.048l-0.12-64.087
		c-0.017-8.847-7.201-16.005-16.048-15.988l-104.118,0.195c-13.27,0.025-24.007,10.802-23.982,24.072l0.09,48.068
		C360.338,325.136,371.116,335.874,384.386,335.848z"/>
</g>
<circle style="fill:#FFD782;" cx="416.742" cy="287.946" r="16.018"/>
<path d="M399.954,103.036c0.005,0,0.01,0,0.015,0l16.016-0.03c4.147-0.008,7.502-3.376,7.494-7.524
	c-0.008-4.142-3.368-7.493-7.509-7.493c-0.005,0-0.01,0-0.015,0l-16.016,0.03c-4.147,0.008-7.502,3.376-7.494,7.524
	C392.454,99.683,395.813,103.036,399.954,103.036z"/>
<path d="M39.545,103.714c0.005,0,0.01,0,0.015,0l328.371-0.617c4.147-0.008,7.503-3.376,7.494-7.523
	c-0.008-4.143-3.368-7.494-7.508-7.494c-0.005,0-0.01,0-0.015,0L39.531,88.697c-4.147,0.008-7.502,3.376-7.494,7.523
	C32.044,100.361,35.404,103.714,39.545,103.714z"/>
<path d="M512,319.592l-0.12-64.088c-0.02-10.331-6.745-19.119-16.06-22.252l-0.138-73.828l0,0l-0.121-64.072
	c-0.041-21.782-17.771-39.471-39.544-39.471c-0.019,0-0.041,0-0.061,0c-0.005,0-0.01,0-0.015,0l-416.47,0.783
	c-10.528,0.019-20.441,4.162-27.914,11.662C4.086,75.828-0.019,85.756,0,96.283v0.001v0.001l0,0l0,0l0.603,320.361
	c0.02,10.528,4.162,20.441,11.662,27.915c7.483,7.454,17.382,11.557,27.881,11.557c0.025,0,0.051,0,0.076,0l416.471-0.783
	c21.806-0.041,39.512-17.814,39.471-39.619l-0.139-73.793c3.398-1.147,6.511-3.068,9.116-5.683
	C509.576,331.788,512.012,325.875,512,319.592z M22.196,78.926c4.641-4.659,10.786-7.232,17.303-7.244L455.97,70.9
	c0.016,0,0.031,0,0.047,0c13.502,0,24.502,10.973,24.527,24.481l0.002,1.065c-6.963-5.526-15.494-8.533-24.468-8.533
	c-0.025,0-0.051,0-0.076,0l-8.005,0.016c-4.147,0.008-7.503,3.376-7.493,7.524c0.008,4.143,3.368,7.493,7.508,7.493
	c0.005,0,0.01,0,0.015,0l8.005-0.016c0.016,0,0.031,0,0.047,0c6.498,0,12.635,2.549,17.283,7.179
	c4.659,4.642,7.232,10.786,7.244,17.303c0,0.002,0,0.003,0,0.005l0.002,1.052c-6.738-5.324-15.236-8.514-24.469-8.514
	c-0.024,0-0.052,0-0.076,0l-416.471,0.782c-0.016,0-0.032,0-0.047,0c-13.503,0-24.502-10.972-24.527-24.481
	C15.005,89.741,17.554,83.585,22.196,78.926z M456.664,440.317L40.194,441.1c-0.016,0-0.031,0-0.046,0
	c-6.499,0-12.636-2.549-17.284-7.179c-4.659-4.642-7.232-10.786-7.244-17.303l-0.544-289.377c6.738,5.324,15.236,8.514,24.468,8.514
	c0.019,0,0.041,0,0.061,0c0.005,0,0.01,0,0.015,0l416.471-0.782c0.016,0,0.031,0,0.047,0c13.503,0,24.502,10.972,24.528,24.481
	l0.136,72.582l-96.608,0.181c-8.424,0.016-16.337,3.311-22.282,9.279c-5.946,5.968-9.21,13.893-9.195,22.316l0.09,48.069
	c0.033,17.355,14.178,31.475,31.534,31.476c0.005,0,0.057,0,0.062,0l96.609-0.181l0.136,72.568
	C481.171,429.267,470.189,440.292,456.664,440.317z M494.502,325.641c-1.605,1.61-3.739,2.5-6.013,2.504l-104.118,0.195
	l-0.033,7.508v-7.508c-9.09-0.001-16.5-7.396-16.518-16.487l-0.09-48.069c-0.008-4.413,1.702-8.565,4.816-11.69
	c3.114-3.126,7.258-4.852,11.671-4.86l104.011-0.195c0.031,0,0.061,0.005,0.092,0.005c0.005,0,0.01,0,0.015,0
	c0.019,0,0.037-0.003,0.056-0.003c4.665,0.021,8.462,3.821,8.471,8.491l0.12,64.088C496.987,321.892,496.106,324.03,494.502,325.641
	z"/>
<path d="M432.35,280.181c-0.005,0-0.01,0-0.015,0c-4.147,0.008-7.503,3.376-7.495,7.523c0.004,2.274-0.877,4.411-2.481,6.022
	c-1.605,1.61-3.739,2.5-6.013,2.504c-2.224,0.012-4.412-0.877-6.022-2.482c-1.61-1.604-2.5-3.738-2.504-6.012
	c-0.009-4.693,3.801-8.518,8.494-8.527c4.147-0.008,7.502-3.376,7.494-7.523c-0.008-4.143-3.368-7.494-7.509-7.494
	c-0.005,0-0.01,0-0.015,0c-12.973,0.024-23.507,10.598-23.483,23.571c0.012,6.284,2.47,12.189,6.922,16.623
	c4.442,4.425,10.336,6.86,16.603,6.86c0.015,0,0.03,0,0.045,0c6.284-0.012,12.187-2.47,16.623-6.922
	c4.435-4.451,6.871-10.365,6.86-16.648C439.85,283.534,436.491,280.181,432.35,280.181z"/>
<g>
</g>
<g>
</g>
<g>
</g>
<g>
</g>
<g>
</g>
<g>
</g>
<g>
</g>
<g>
</g>
<g>
</g>
<g>
</g>
<g>
</g>
<g>
</g>
<g>
</g>
<g>
</g>
<g>
</g>
</svg>
