<?xml version="1.0" encoding="iso-8859-1"?>
<!-- Generator: Adobe Illustrator 19.0.0, SVG Export Plug-In . SVG Version: 6.00 Build 0)  -->
<svg version="1.1" id="Layer_1" xmlns="http://www.w3.org/2000/svg" xmlns:xlink="http://www.w3.org/1999/xlink" x="0px" y="0px"
	 viewBox="0 0 512 512" style="enable-background:new 0 0 512 512;" xml:space="preserve">
<path style="fill:#EFF2FA;" d="M488.268,462.758c-0.058-30.861-19.573-63.769-53.157-73.109l-67.154-13.915l-19.071-28.799
	c-2.741-3.64-7.961-4.264-11.483-1.372l-81.509,70.431l0,0l0,0l-81.773-70.124c-3.532-2.878-8.75-2.235-11.478,1.416l-18.962,28.87
	l-67.101,14.167c-33.549,9.467-52.94,42.448-52.883,73.309l0.037,19.867c0.022,11.62,10.798,21.021,24.07,20.995l184.225-0.346
	l48.059-0.09l184.225-0.346c13.271-0.025,24.012-9.465,23.99-21.086L488.268,462.758z"/>
<g>
	<path style="fill:#E4EAF6;" d="M82.163,448.236l-42.78-31.873c-10.218,13.771-15.715,30.821-15.685,47.269l0.037,19.867
		c0.022,11.62,10.798,21.021,24.07,20.995l49.623-0.094v-22.522C97.429,469.044,91.879,456.813,82.163,448.236z"/>
	<path style="fill:#E4EAF6;" d="M488.305,482.625l-0.037-19.867c-0.037-19.71-8.023-40.246-22.53-54.952l-40.134,40.43
		c-9.716,8.577-15.265,20.808-15.265,33.643v21.933l53.976-0.101C477.587,503.686,488.327,494.246,488.305,482.625z"/>
	<path style="fill:#E4EAF6;" d="M231.911,440.069l23.985-24.075l-81.773-70.124c-3.532-2.878-8.75-2.235-11.478,1.416l-18.962,28.87
		l64.244,87.988L231.911,440.069z"/>
	<path style="fill:#E4EAF6;" d="M304.044,463.963l63.913-88.229l-19.071-28.799c-2.741-3.64-7.961-4.264-11.483-1.372
		l-81.509,70.431l24.075,23.985L304.044,463.963z"/>
</g>
<polyline style="fill:#5B5D6E;" points="270.904,461.882 240.868,460.881 232.032,504.148 280.09,504.058 270.904,461.882 "/>
<path style="fill:#515262;" d="M231.925,448.079c0.017,8.81,7.239,16.006,16.05,15.99l16.019-0.03
	c8.81-0.017,16.006-7.239,15.989-16.05l-0.015-8.01l-24.075-23.985l-23.985,24.075L231.925,448.079z"/>
<path style="fill:#707487;" d="M279.773,335.854c0.025,13.271-10.713,24.049-23.984,24.074
	c-13.271,0.025-24.049-10.713-24.074-23.984"/>
<path style="fill:#AFB9D2;" d="M303.681,268.817l0.075,42.964c0.025,13.216-10.768,24.049-23.983,24.074l-48.057,0.09
	c-13.216,0.025-24.049-10.768-24.074-23.984l-0.075-45.147"/>
<circle style="fill:#FFF5C8;" cx="255.386" cy="143.671" r="136.162"/>
<circle style="fill:#FFFAE1;" cx="257.879" cy="135.972" r="101.731"/>
<path d="M495.769,462.743c-0.032-17.138-5.474-34.488-15.321-48.854c-10.761-15.699-25.745-26.582-43.332-31.472
	c-0.161-0.045-0.324-0.084-0.489-0.119l-64.121-13.286l-17.363-26.219c-0.083-0.126-0.171-0.25-0.262-0.37
	c-2.916-3.873-7.553-6.185-12.404-6.185c-3.578,0-7.074,1.252-9.844,3.527c-0.048,0.04-0.096,0.08-0.144,0.121l-76.615,66.202
	l-76.863-65.913c-0.048-0.041-0.096-0.081-0.145-0.121c-2.761-2.251-6.24-3.489-9.798-3.489c-4.874,0-9.523,2.329-12.438,6.231
	c-0.091,0.121-0.177,0.245-0.26,0.371l-17.264,26.284l-64.071,13.527c-0.164,0.035-0.326,0.075-0.488,0.121
	c-17.568,4.958-32.511,15.896-43.213,31.635c-9.794,14.404-15.169,31.774-15.138,48.912l0.038,19.865
	c0.015,7.816,3.438,15.1,9.638,20.508C31.775,509.168,39.545,512,47.758,512c0.022,0,0.045,0,0.067,0l184.181-0.346
	c0.011,0,0.021,0.001,0.032,0.001c0.013,0,0.026-0.001,0.039-0.001l47.969-0.09c0.011,0,0.022,0.001,0.033,0.001
	c0.01,0,0.021-0.001,0.031-0.001l184.209-0.346c8.239-0.015,16.024-2.878,21.922-8.063c6.18-5.432,9.576-12.728,9.561-20.545
	L495.769,462.743z M342.201,351.344c0.125-0.089,0.442-0.126,0.621,0.04l15.999,24.161l-55.703,76.895l-36.189-36.054
	L342.201,351.344z M247.946,471.576c0.014,0,0.03,0,0.044,0l16.019-0.03c0.619-0.001,1.23-0.034,1.838-0.082l5.069,25.099
	l-29.738,0.056l4.975-25.117C246.745,471.546,247.342,471.576,247.946,471.576z M272.475,448.002
	c0.009,4.693-3.802,8.517-8.494,8.526l-16.019,0.03c-0.005,0-0.01,0-0.016,0c-4.686,0-8.502-3.808-8.51-8.494l-0.009-4.899
	l16.489-16.551l16.551,16.489L272.475,448.002z M168.727,351.711c0.176-0.167,0.491-0.136,0.621-0.043l75.518,64.759l-18.27,18.339
	c-0.002,0.002-0.004,0.004-0.007,0.006l-17.778,17.845l-55.992-76.686L168.727,351.711z M47.799,496.982c-0.013,0-0.026,0-0.039,0
	c-4.583,0-8.849-1.52-12.013-4.28c-2.89-2.522-4.486-5.796-4.492-9.219l-0.038-19.865c-0.049-26.103,16.139-57.109,47.177-65.999
	l62.093-13.11l61.378,84.062c1.295,1.773,3.301,2.891,5.491,3.06c0.192,0.015,0.383,0.021,0.574,0.021
	c1.988,0,3.905-0.79,5.319-2.21l12.787-12.835c1.322,3.371,3.395,6.367,6.019,8.774l-6.192,31.266L47.799,496.982z M476.33,491.873
	c-3.164,2.78-7.438,4.317-12.036,4.325l-178.063,0.334l-6.31-31.244c2.614-2.418,4.678-5.42,5.986-8.796l12.836,12.787
	c1.414,1.408,3.321,2.19,5.299,2.19c0.2,0,0.4-0.008,0.602-0.024c2.19-0.176,4.192-1.302,5.48-3.08l61.062-84.292l62.141,12.876
	c31.071,8.774,47.375,39.718,47.424,65.821l0.037,19.866C480.795,486.06,479.212,489.341,476.33,491.873z"/>
<path d="M200.067,276.249l0.067,35.728c0.028,15.064,10.67,27.669,24.82,30.751c1.283,5.837,4.198,11.196,8.533,15.515
	c5.954,5.932,13.855,9.196,22.256,9.196c0.02,0,0.041,0,0.061,0c8.424-0.016,16.337-3.312,22.283-9.279
	c4.319-4.335,7.215-9.706,8.475-15.547c5.816-1.288,11.165-4.208,15.487-8.547c5.958-5.981,9.231-13.9,9.216-22.298l-0.067-35.631
	c16.979-7.156,32.571-17.618,45.967-31.064c27.085-27.186,41.962-63.294,41.889-101.67C398.905,64.33,334.457,0,255.388,0h-0.275
	c-79.22,0.149-143.549,64.721-143.401,143.941C111.825,203.425,148.327,254.562,200.067,276.249z M255.776,352.419
	c-4.421-0.027-8.564-1.702-11.69-4.817c-1.244-1.241-2.256-2.648-3.037-4.167l29.406-0.056
	C267.724,348.727,262.179,352.407,255.776,352.419z M296.247,311.795c0.008,4.386-1.71,8.531-4.838,11.67
	c-3.128,3.139-7.265,4.872-11.651,4.881l-48.057,0.09c-0.01,0-0.021,0-0.031,0c-9.094,0-16.502-7.39-16.52-16.489l-0.057-30.37
	c12.79,3.745,26.306,5.765,40.284,5.765h0.276c13.926-0.026,27.542-2.029,40.537-5.858L296.247,311.795z M238.848,269.92
	l-24.423-90.89c3.343,2.002,7.895,4.237,15.303,4.237c0.023,0,0.046,0,0.069,0c8.556-0.017,13.307-2.996,16.776-5.171
	c2.851-1.788,4.572-2.868,8.824-2.876c4.269,0.037,5.995,1.066,8.862,2.845c3.471,2.155,8.221,5.105,16.742,5.105
	c0.023,0,0.047,0,0.07,0c7.482-0.014,12.056-2.289,15.409-4.313l-24.086,91c-0.122,0.462-0.193,0.923-0.227,1.383
	c-5.442,0.705-10.964,1.074-16.542,1.084h-0.248c-5.52,0-10.959-0.35-16.298-1.029C239.043,270.838,238.971,270.379,238.848,269.92z
	 M255.141,15.018h0.247c70.803,0,128.514,57.606,128.647,128.412c0.065,34.364-13.257,66.697-37.511,91.042
	c-16.335,16.398-36.317,27.84-58.121,33.589l30.32-114.553c1.061-4.009-1.329-8.119-5.338-9.18c-4.009-1.062-8.12,1.329-9.18,5.338
	l-2.881,10.887c-5.329,0.911-8.763,3.051-11.432,4.722c-2.859,1.791-4.585,2.871-8.851,2.878c-4.258,0.005-5.995-1.065-8.862-2.845
	c-3.471-2.156-8.222-5.105-16.742-5.105c-0.023,0-0.047,0-0.07,0c-8.556,0.016-13.307,2.996-16.776,5.171
	c-2.852,1.789-4.573,2.868-8.824,2.876c-4.292-0.016-5.975-1.065-8.831-2.842c-2.672-1.662-6.093-3.77-11.428-4.669l-2.926-10.89
	c-1.076-4.005-5.195-6.378-9.2-5.303c-4.005,1.076-6.38,5.195-5.303,9.2l30.739,114.394
	c-55.119-14.448-95.976-64.664-96.088-124.227C126.597,72.974,184.202,15.152,255.141,15.018z"/>
<path d="M292.413,54.405c23.312,9.683,42.293,28.581,52.076,51.852c1.208,2.872,3.993,4.6,6.925,4.6c0.97,0,1.956-0.189,2.906-0.589
	c3.823-1.607,5.619-6.009,4.012-9.833c-11.301-26.882-33.229-48.715-60.16-59.9c-3.831-1.591-8.224,0.224-9.815,4.054
	C286.769,48.42,288.584,52.814,292.413,54.405z"/>
<g>
</g>
<g>
</g>
<g>
</g>
<g>
</g>
<g>
</g>
<g>
</g>
<g>
</g>
<g>
</g>
<g>
</g>
<g>
</g>
<g>
</g>
<g>
</g>
<g>
</g>
<g>
</g>
<g>
</g>
</svg>
