<?xml version="1.0" encoding="iso-8859-1"?>
<!-- Generator: Adobe Illustrator 19.0.0, SVG Export Plug-In . SVG Version: 6.00 Build 0)  -->
<svg version="1.1" id="Layer_1" xmlns="http://www.w3.org/2000/svg" xmlns:xlink="http://www.w3.org/1999/xlink" x="0px" y="0px"
	 viewBox="0 0 512 512" style="enable-background:new 0 0 512 512;" xml:space="preserve">
<g>
	<path style="fill:#E6AF78;" d="M146.6,182.348c-2.629-0.751-10.845-3.73-10.857-10.331l-0.061-19.368l-64.501,0.14l0.012,19.369
		c0.011,5.819-6.358,8.844-9.668,10.002l42.011,25.72L146.6,182.348z"/>
	<path style="fill:#E6AF78;" d="M135.743,172.016l-0.051-16.214c-8.471,16.468-25.62,27.74-45.414,27.74
		c-7.951,0-15.478-1.819-22.187-5.062c-2.088,1.87-4.773,3.051-6.566,3.679l42.011,25.72l43.065-25.531
		C143.972,181.597,135.755,178.618,135.743,172.016z"/>
</g>
<path style="fill:#D29B6E;" d="M135.693,155.802l-0.01-3.153l-64.501,0.14l0.012,19.369c0.005,2.667-1.335,4.741-3.102,6.323
	c6.71,3.242,14.235,5.062,22.187,5.062C110.072,183.542,127.222,172.269,135.693,155.802z"/>
<path style="fill:#785550;" d="M151.401,31.61c-24.404,3.533-56.438-19.414-80.29,0.15c-14.444,0.027-23.626,11.547-23.597,26.901
	c0.027,14.471,8.017,43.192,8.017,43.192l0.015,7.755c-0.027-14.085,8.249-37.792,8.249-37.792
	c41.406-0.078,75.499,11.758,87.714,16.602l-0.001-0.751l0.001,0.751c0.885,0.351,1.65,0.664,2.299,0.934
	C160.343,61.367,154.326,38.223,151.401,31.61z"/>
<path style="fill:#F0C087;" d="M55.544,109.607c0.056,29.981,21.192,57.947,48.004,57.897c26.811-0.051,48.059-26.577,48.003-56.558
	l-0.042-22.529c-12.215-4.845-46.309-16.681-87.714-16.602C63.794,71.815,55.517,95.522,55.544,109.607z"/>
<path style="fill:#E6AF78;" d="M72.852,116.553c-0.817-38.933,5.655-36.974,5.655-36.974c11.752-2.712,29.176-2.019,48.214,0.729
	c-16.376-4.392-38.364-8.539-62.928-8.493c0,0-8.275,23.707-8.249,37.792c0.052,27.823,18.264,53.896,42.314,57.466
	C87.441,158.845,73.343,139.991,72.852,116.553z"/>
<path style="fill:#B4E1FA;" d="M199.714,221.902c-0.025-13.436-8.522-27.763-23.143-31.829l-29.965-7.723
	c-0.001,0-0.003-0.001-0.004-0.001l-43.065,25.531l-42.011-25.72c-0.447,0.156-0.843,0.281-1.155,0.371l-29.936,7.835
	c-14.607,4.122-23.048,18.481-23.023,31.916l0.016,8.649c0.009,5.059,4.701,9.152,10.479,9.141l171.379-0.341
	c5.778-0.011,10.454-4.121,10.445-9.18L199.714,221.902z"/>
<g>
	<path style="fill:#A0D2F0;" d="M42.419,239.599v-9.641c0-4.938-2.238-9.644-6.157-12.944l-20.556-17.146
		c-5.386,6.273-8.31,14.503-8.295,22.414l0.016,8.649c0.006,3.423,2.16,6.399,5.34,7.966c1.334,0.444,2.62,0.703,3.666,0.703
		L42.419,239.599L42.419,239.599z"/>
	<path style="fill:#A0D2F0;" d="M199.73,230.551l-0.016-8.649c-0.013-6.903-2.267-14.038-6.435-19.899l-18.485,15.012
		c-3.919,3.3-6.157,8.006-6.157,12.944v9.641h22.331C195.941,238.884,199.738,235.107,199.73,230.551z"/>
</g>
<path style="fill:#694B4B;" d="M151.401,31.61c-10.596,1.534-22.631-1.924-34.809-4.727c-15.87-3.653-31.985-6.193-45.482,4.877
	c-0.115,0-0.226,0.007-0.34,0.009c-1.672,1.726,1.491,6.626,1.491,6.626S65.92,41.398,63.25,53.41
	c-1.46,6.573-1.068,13.619,0.987,18.408c18.796,0.003,36.064,2.452,50.448,5.576c17.149,3.723,30.203,8.399,36.821,11.024
	c0.885,0.351,1.65,0.664,2.299,0.934C160.343,61.367,154.326,38.223,151.401,31.61z"/>
<g>
	<path style="fill:#E6AF78;" d="M449.907,429.686c-2.629-0.751-10.845-3.73-10.857-10.331l-0.061-19.368l-64.501,0.14l0.012,19.369
		c0.011,5.819-6.358,8.844-9.668,10.002l42.011,25.72L449.907,429.686z"/>
	<path style="fill:#E6AF78;" d="M439.05,419.355l-0.051-16.214c-8.471,16.468-25.62,27.74-45.414,27.74
		c-7.951,0-15.478-1.819-22.188-5.062c-2.088,1.87-4.773,3.051-6.566,3.679l42.011,25.72l43.065-25.531
		C447.279,428.935,439.062,425.957,439.05,419.355z"/>
</g>
<path style="fill:#D29B6E;" d="M439,403.14l-0.01-3.153l-64.501,0.14l0.012,19.369c0.005,2.667-1.335,4.741-3.102,6.323
	c6.71,3.242,14.235,5.062,22.188,5.062C413.379,430.88,430.529,419.608,439,403.14z"/>
<path style="fill:#785550;" d="M454.708,278.948c-24.404,3.533-56.438-19.414-80.29,0.15c-14.444,0.027-23.626,11.547-23.597,26.901
	c0.027,14.471,8.017,43.192,8.017,43.192l0.015,7.755c-0.027-14.085,8.249-37.792,8.249-37.792
	c41.406-0.078,75.499,11.758,87.714,16.602l-0.001-0.751l0.001,0.751c0.885,0.351,1.65,0.664,2.299,0.934
	C463.65,308.706,457.633,285.561,454.708,278.948z"/>
<path style="fill:#F0C087;" d="M358.852,356.946c0.056,29.981,21.192,57.947,48.004,57.897
	c26.811-0.051,48.059-26.577,48.003-56.558l-0.042-22.529c-12.215-4.845-46.309-16.681-87.714-16.602
	C367.101,319.153,358.825,342.86,358.852,356.946z"/>
<path style="fill:#E6AF78;" d="M376.159,363.892c-0.817-38.933,5.655-36.974,5.655-36.974c11.752-2.712,29.176-2.019,48.214,0.729
	c-16.376-4.392-38.364-8.539-62.928-8.493c0,0-8.275,23.707-8.249,37.792c0.052,27.823,18.263,53.896,42.314,57.466
	C390.748,406.183,376.651,387.329,376.159,363.892z"/>
<path style="fill:#EFF2FA;" d="M503.021,469.239c-0.025-13.436-8.522-27.763-23.143-31.829l-29.965-7.723
	c-0.001,0-0.003-0.001-0.004-0.001l-43.065,25.531l-42.011-25.72c-0.447,0.156-0.843,0.281-1.155,0.371l-29.936,7.835
	c-14.607,4.122-23.048,18.481-23.023,31.916l0.016,8.649c0.009,5.059,4.701,9.152,10.479,9.141l171.379-0.341
	c5.778-0.011,10.454-4.121,10.445-9.18L503.021,469.239z"/>
<g>
	<path style="fill:#E4EAF6;" d="M345.727,486.936v-9.641c0-4.938-2.238-9.644-6.157-12.944l-20.555-17.145
		c-5.386,6.273-8.31,14.503-8.295,22.414l0.016,8.649c0.006,3.423,2.16,6.4,5.34,7.966c1.334,0.444,2.62,0.703,3.666,0.703h25.985
		V486.936z"/>
	<path style="fill:#E4EAF6;" d="M503.037,477.889l-0.016-8.649c-0.013-6.903-2.267-14.038-6.435-19.899l-18.485,15.012
		c-3.919,3.3-6.157,8.006-6.157,12.944v9.641h22.331C499.248,486.222,503.045,482.446,503.037,477.889z"/>
</g>
<path style="fill:#694B4B;" d="M454.708,278.948c-10.596,1.534-22.631-1.924-34.809-4.727c-15.87-3.653-31.985-6.193-45.482,4.877
	c-0.115,0-0.226,0.007-0.34,0.009c-1.672,1.726,1.491,6.626,1.491,6.626s-6.339,3.003-9.009,15.015
	c-1.461,6.573-1.068,13.619,0.987,18.408c18.796,0.003,36.064,2.452,50.448,5.576c17.149,3.723,30.203,8.399,36.821,11.024
	c0.885,0.351,1.65,0.664,2.299,0.934C463.65,308.706,457.633,285.561,454.708,278.948z"/>
<path d="M511.984,469.765c-0.029-15.452-9.874-33.824-28.634-39.042c-0.046-0.013-0.092-0.025-0.138-0.037l-29.854-7.694
	c-2.87-0.839-5.105-2.407-5.33-3.111l-0.052-16.513c0.063-0.075,0.129-0.145,0.192-0.22c10.131-12.155,15.694-27.893,15.663-44.315
	l-0.023-12.159c10.132-33.15,2.921-61.843-0.768-70.182c-0.011-0.024-0.024-0.046-0.035-0.07c-0.069-0.152-0.146-0.3-0.225-0.447
	c-0.041-0.077-0.081-0.156-0.125-0.231c-0.074-0.127-0.155-0.249-0.236-0.371c-0.059-0.089-0.117-0.18-0.179-0.266
	c-0.07-0.096-0.146-0.187-0.22-0.279c-0.082-0.102-0.162-0.205-0.249-0.302c-0.064-0.072-0.134-0.139-0.201-0.208
	c-0.103-0.106-0.205-0.213-0.313-0.313c-0.066-0.061-0.136-0.116-0.205-0.174c-0.114-0.098-0.227-0.196-0.346-0.286
	c-0.083-0.063-0.171-0.12-0.257-0.179c-0.108-0.075-0.215-0.152-0.327-0.221c-0.115-0.071-0.234-0.133-0.353-0.198
	c-0.088-0.048-0.174-0.099-0.264-0.144c-0.148-0.073-0.3-0.137-0.453-0.2c-0.066-0.027-0.13-0.058-0.196-0.083
	c-0.168-0.064-0.339-0.118-0.513-0.17c-0.057-0.017-0.112-0.038-0.17-0.053c-0.167-0.046-0.336-0.082-0.508-0.116
	c-0.069-0.014-0.138-0.032-0.208-0.044c-0.149-0.025-0.3-0.042-0.452-0.059c-0.097-0.011-0.193-0.024-0.291-0.031
	c-0.123-0.009-0.248-0.01-0.373-0.012c-0.129-0.003-0.258-0.007-0.388-0.003c-0.1,0.003-0.201,0.013-0.302,0.02
	c-0.154,0.011-0.307,0.022-0.461,0.043c-0.029,0.004-0.057,0.004-0.086,0.008c-7.808,1.139-17.269-1.115-27.285-3.494
	c-17.564-4.171-37.379-8.867-54.62,3.692c-16.641,1.396-28.428,15.391-28.393,34.293l0,0l0,0
	c0.026,13.903,6.565,38.817,8.017,44.184l0.013,6.752c0.032,17.215,6.041,33.112,15.635,44.925l0.013,17.623
	c-0.224,0.683-2.453,2.26-5.319,3.108l-29.825,7.806c-0.046,0.013-0.092,0.024-0.138,0.038
	c-18.741,5.287-28.517,23.697-28.487,39.148l0.016,8.648c0.008,4.575,2.067,8.99,5.648,12.114c3.341,2.915,7.713,4.52,12.314,4.52
	c0.012,0,0.025,0,0.037,0l85.479-0.17c0.059,0.001,0.117,0.009,0.176,0.009c0.005,0,0.01,0,0.015,0c0.062,0,0.122-0.008,0.184-0.01
	l85.487-0.17c4.614-0.009,8.994-1.63,12.334-4.565c3.569-3.138,5.611-7.561,5.603-12.135L511.984,469.765z M408.334,447.023
	l-28.548-17.055c2.255-2.685,3.713-5.984,3.705-9.927l-0.003-4.324c7.507,4.572,15.936,7.186,24.773,7.186c0.027,0,0.056,0,0.083,0
	c8.701-0.017,17.081-2.369,24.654-6.784l0.012,3.802c0.008,4.057,1.555,7.431,3.929,10.147L408.334,447.023z M375.915,287.187
	c0.028,0,0.055-0.004,0.084-0.004c0.218-0.002,0.436-0.012,0.655-0.034c0.081-0.008,0.159-0.023,0.239-0.034
	c0.163-0.022,0.326-0.043,0.488-0.076c0.101-0.02,0.2-0.048,0.299-0.073c0.137-0.033,0.275-0.065,0.411-0.106
	c0.11-0.033,0.216-0.075,0.323-0.113c0.122-0.043,0.245-0.084,0.365-0.134c0.116-0.048,0.228-0.105,0.341-0.159
	c0.107-0.051,0.215-0.099,0.32-0.155c0.129-0.069,0.251-0.146,0.375-0.223c0.085-0.052,0.171-0.1,0.255-0.155
	c0.157-0.105,0.307-0.22,0.455-0.336c0.044-0.034,0.09-0.063,0.134-0.099c11.954-9.803,27.367-6.145,43.683-2.271
	c8.72,2.07,17.675,4.197,26.34,4.197c0.092,0,0.184-0.004,0.276-0.004c2.174,7.791,4.389,21.95,2.036,38.834
	c-12.603-4.62-43.245-14.022-83.929-14.022c-0.165,0-0.33,0-0.495,0c-0.018,0-0.035,0.002-0.053,0.003
	c-0.176,0.001-0.35,0.013-0.526,0.027c-0.079,0.006-0.158,0.009-0.236,0.017c-0.146,0.017-0.289,0.042-0.433,0.067
	c-0.105,0.018-0.211,0.032-0.315,0.054c-0.1,0.022-0.198,0.051-0.298,0.077c-0.141,0.037-0.284,0.071-0.422,0.115
	c-0.056,0.018-0.11,0.042-0.165,0.061c-0.175,0.061-0.349,0.123-0.518,0.196c-0.034,0.015-0.067,0.033-0.101,0.048
	c-0.184,0.083-0.367,0.17-0.544,0.267c-0.058,0.032-0.112,0.07-0.169,0.104c-0.147,0.086-0.295,0.172-0.435,0.269
	c-0.114,0.078-0.222,0.165-0.333,0.25c-0.078,0.06-0.159,0.115-0.234,0.178c-0.136,0.113-0.265,0.236-0.394,0.359
	c-0.044,0.042-0.092,0.081-0.135,0.125c-0.119,0.12-0.23,0.248-0.341,0.376c-0.048,0.055-0.1,0.107-0.146,0.165
	c-0.087,0.106-0.166,0.22-0.247,0.331c-0.065,0.089-0.133,0.175-0.194,0.267c-0.057,0.085-0.107,0.176-0.16,0.265
	c-0.077,0.127-0.155,0.254-0.225,0.386c-0.036,0.068-0.067,0.141-0.101,0.21c-0.077,0.158-0.152,0.317-0.219,0.481
	c-0.007,0.017-0.016,0.032-0.022,0.049c-0.05,0.125-0.257,0.658-0.573,1.501c-0.728-4.509-1.208-8.696-1.214-11.909
	C359.8,297.638,364.006,287.209,375.915,287.187z M367.841,354.767c0,0,0-0.003,0-0.005c-0.015-8.147,3.453-20.096,5.979-27.475
	c36.919,0.74,64.701,9.629,74.962,13.43l0.009,4.785c0,0.029,0,0.058,0,0.086l0.025,13.275c0.05,26.532-18.496,48.982-40.498,49.024
	c-0.018,0-0.036,0-0.055,0c-21.486,0-40.366-23.53-40.417-50.391L367.841,354.767z M322.694,480.439c-0.002,0-0.005,0-0.008,0
	c-0.956,0-1.846-0.298-2.443-0.819c-0.151-0.131-0.503-0.477-0.503-0.826l-0.016-8.649c-0.019-9.775,5.982-21.368,17.485-24.651
	l27.322-7.15l36.29,21.681l0.038,20.259L322.694,480.439z M496.485,479.27c-0.597,0.525-1.489,0.826-2.449,0.828l-78.162,0.155
	l-0.038-20.221l36.691-21.748l26.864,6.923c11.517,3.239,17.56,14.811,17.579,24.587l0.016,8.648
	C496.986,478.792,496.635,479.138,496.485,479.27z"/>
<path d="M103.67,247.667c0.005,0,0.01,0,0.015,0c0.065,0,0.129-0.008,0.194-0.01l85.477-0.169c4.614-0.009,8.994-1.63,12.333-4.566
	c3.569-3.137,5.611-7.561,5.603-12.134l-0.016-8.649c-0.029-15.452-9.874-33.823-28.634-39.041
	c-0.046-0.013-0.092-0.025-0.138-0.037l-29.856-7.696c-2.869-0.837-5.104-2.404-5.328-3.109l-0.052-16.514
	c0.063-0.075,0.129-0.144,0.192-0.219c10.131-12.156,15.694-27.894,15.663-44.316l-0.023-12.158
	c10.132-33.15,2.921-61.843-0.768-70.182c-0.01-0.023-0.023-0.044-0.034-0.067c-0.071-0.156-0.149-0.306-0.229-0.456
	c-0.04-0.074-0.077-0.149-0.119-0.222c-0.077-0.131-0.16-0.257-0.244-0.382c-0.057-0.085-0.111-0.172-0.171-0.254
	c-0.074-0.101-0.154-0.197-0.232-0.294c-0.078-0.097-0.154-0.194-0.236-0.286c-0.07-0.078-0.145-0.151-0.218-0.226
	c-0.097-0.101-0.194-0.202-0.296-0.296c-0.072-0.066-0.149-0.127-0.223-0.19c-0.108-0.092-0.215-0.186-0.328-0.271
	c-0.089-0.068-0.183-0.128-0.275-0.191c-0.103-0.071-0.204-0.144-0.31-0.209c-0.12-0.074-0.244-0.14-0.368-0.207
	c-0.083-0.045-0.165-0.094-0.25-0.136c-0.151-0.075-0.307-0.14-0.463-0.205c-0.062-0.026-0.123-0.055-0.186-0.079
	c-0.168-0.064-0.341-0.119-0.515-0.171c-0.056-0.017-0.112-0.038-0.169-0.053c-0.165-0.046-0.334-0.081-0.504-0.116
	c-0.071-0.014-0.141-0.032-0.212-0.044c-0.147-0.025-0.297-0.042-0.447-0.058c-0.098-0.011-0.196-0.025-0.295-0.032
	c-0.123-0.009-0.248-0.01-0.372-0.012c-0.129-0.003-0.258-0.007-0.388-0.003c-0.102,0.003-0.205,0.013-0.308,0.02
	c-0.15,0.011-0.301,0.022-0.451,0.042c-0.031,0.004-0.06,0.004-0.091,0.008c-7.809,1.136-17.268-1.116-27.285-3.494
	c-17.565-4.171-37.381-8.866-54.62,3.692c-16.641,1.395-28.429,15.39-28.394,34.292l0,0l0,0c0.026,13.904,6.565,38.818,8.017,44.184
	l0.013,6.752c0.03,16.238,5.726,32.601,15.626,44.897c0.003,0.004,0.006,0.007,0.009,0.011l0.013,17.642
	c-0.224,0.684-2.453,2.26-5.319,3.107l-29.826,7.807c-0.046,0.013-0.092,0.024-0.138,0.038C9.746,188.688-0.029,207.097,0,222.548
	l0.016,8.648c0.008,4.575,2.067,8.99,5.649,12.114c3.341,2.915,7.713,4.519,12.313,4.519c0.012,0,0.025,0,0.037,0l85.47-0.169
	C103.547,247.66,103.608,247.667,103.67,247.667z M128.292,168.492l0.012,3.803c0.008,4.057,1.554,7.431,3.928,10.147
	l-28.606,16.956l-28.547-17.055c2.254-2.685,3.712-5.984,3.704-9.927l-0.003-4.254c7.616,4.646,16.037,7.114,24.768,7.114
	c0.029,0,0.059,0,0.088,0C112.338,175.258,120.719,172.907,128.292,168.492z M192.26,222.168l0.016,8.649
	c0,0.35-0.349,0.696-0.501,0.828c-0.597,0.525-1.489,0.826-2.449,0.828l-78.162,0.155l-0.038-20.22l36.69-21.748l26.866,6.924
	C186.199,200.822,192.242,212.393,192.26,222.168z M71.207,39.562c0.093,0,0.184-0.011,0.276-0.015
	c0.149-0.005,0.298-0.009,0.446-0.023c0.123-0.012,0.242-0.034,0.364-0.051c0.121-0.018,0.243-0.032,0.364-0.056
	c0.132-0.026,0.26-0.062,0.389-0.095c0.108-0.027,0.216-0.051,0.323-0.083c0.133-0.041,0.261-0.089,0.391-0.137
	c0.1-0.037,0.202-0.069,0.301-0.111c0.134-0.055,0.262-0.119,0.392-0.182c0.091-0.044,0.183-0.084,0.273-0.132
	c0.14-0.075,0.273-0.159,0.407-0.242c0.075-0.046,0.152-0.088,0.226-0.138c0.16-0.107,0.312-0.224,0.463-0.342
	c0.042-0.033,0.087-0.061,0.128-0.095c11.955-9.806,27.367-6.146,43.683-2.271c8.72,2.07,17.676,4.197,26.339,4.197
	c0.092,0,0.184-0.004,0.276-0.004c2.174,7.791,4.389,21.949,2.036,38.833c-12.603-4.62-43.245-14.022-83.93-14.022
	c-0.165,0-0.33,0-0.496,0c-0.02,0-0.039,0.003-0.058,0.003c-0.167,0.002-0.333,0.014-0.499,0.026
	c-0.088,0.006-0.176,0.009-0.263,0.019c-0.134,0.015-0.266,0.04-0.398,0.062c-0.117,0.02-0.235,0.036-0.35,0.06
	c-0.086,0.019-0.169,0.044-0.254,0.066c-0.156,0.04-0.312,0.078-0.464,0.126c-0.039,0.013-0.077,0.029-0.116,0.042
	c-0.192,0.065-0.382,0.134-0.567,0.214c-0.013,0.006-0.026,0.013-0.04,0.019c-0.206,0.091-0.408,0.188-0.604,0.296
	c-0.036,0.02-0.07,0.044-0.105,0.064c-0.17,0.098-0.338,0.198-0.5,0.308c-0.099,0.067-0.191,0.143-0.286,0.215
	c-0.093,0.071-0.19,0.137-0.28,0.212c-0.129,0.107-0.251,0.225-0.373,0.341c-0.051,0.048-0.105,0.093-0.154,0.143
	c-0.116,0.117-0.224,0.242-0.332,0.367c-0.051,0.059-0.105,0.113-0.154,0.173c-0.085,0.104-0.163,0.216-0.242,0.326
	c-0.066,0.091-0.136,0.179-0.198,0.272c-0.056,0.084-0.105,0.174-0.158,0.261c-0.078,0.128-0.157,0.256-0.227,0.389
	c-0.036,0.068-0.067,0.141-0.101,0.21c-0.077,0.158-0.152,0.317-0.219,0.481c-0.007,0.017-0.016,0.032-0.022,0.049
	c-0.05,0.125-0.257,0.658-0.572,1.501c-0.728-4.508-1.208-8.696-1.214-11.908C55.092,50.012,59.298,39.584,71.207,39.562z
	 M63.138,109.87l-0.005-2.73v-0.006c-0.015-8.148,3.455-20.101,5.98-27.48c36.916,0.722,64.698,9.627,74.96,13.433l0.009,4.788
	c0,0.029,0,0.058,0,0.086l0.025,13.273c0.024,12.719-4.416,25.357-12.182,34.674c-7.696,9.235-17.752,14.331-28.317,14.351
	c-0.02,0-0.039,0-0.058,0c-10.398,0-20.378-5.283-28.107-14.883C67.648,135.695,63.162,122.753,63.138,109.87z M17.986,232.813
	c-0.002,0-0.005,0-0.008,0c-0.957,0-1.847-0.298-2.443-0.818c-0.151-0.132-0.503-0.476-0.503-0.826l-0.017-8.65
	c-0.019-9.775,5.981-21.369,17.486-24.651l27.321-7.151l36.29,21.682l0.038,20.258L17.986,232.813z"/>
<path d="M193.928,97.93c19.706-7.006,40.405-10.579,61.523-10.618c0.119,0,0.232,0,0.352,0c87.017,0,161.644,60.875,180.217,144.268
	l-22.1-15.249c-3.412-2.355-8.089-1.497-10.444,1.915c-2.354,3.413-1.497,8.089,1.916,10.444l37.279,25.721
	c1.262,0.871,2.752,1.328,4.263,1.328c0.451,0,0.905-0.041,1.355-0.123c1.959-0.359,3.694-1.482,4.825-3.121l25.72-37.279
	c2.354-3.412,1.497-8.088-1.916-10.443c-3.413-2.355-8.089-1.498-10.444,1.916l-15.594,22.601
	C431.164,138.6,350.242,72.296,255.803,72.296c-0.123,0-0.258,0-0.38,0c-22.827,0.043-45.21,3.907-66.525,11.487
	c-3.906,1.389-5.947,5.682-4.559,9.589C185.727,97.278,190.022,99.323,193.928,97.93z"/>
<path d="M279.236,455.128c-7.605,0.963-15.374,1.458-23.09,1.473c-0.118,0-0.234,0-0.352,0
	c-95.864,0-174.945-73.467-183.802-167.127l21.668,17.412c3.232,2.597,7.958,2.083,10.555-1.15c2.597-3.232,2.082-7.957-1.15-10.555
	l-32.76-26.323c-1.252-2.404-3.762-4.047-6.658-4.047c-0.005,0-0.01,0-0.015,0c-1.51,0.003-2.91,0.455-4.086,1.223
	c-0.895,0.473-1.696,1.124-2.342,1.929L28.833,303.27c-2.597,3.232-2.082,7.957,1.15,10.555c1.386,1.113,3.047,1.655,4.698,1.655
	c2.197,0,4.374-0.959,5.858-2.806l16.59-20.647c4.551,45.884,24.661,88.41,57.754,121.377
	c37.691,37.551,87.716,58.214,140.906,58.214c0.127,0,0.259,0,0.386,0c8.336-0.016,16.73-0.552,24.947-1.593
	c4.113-0.522,7.026-4.277,6.506-8.392C287.106,457.521,283.347,454.603,279.236,455.128z"/>
<g>
</g>
<g>
</g>
<g>
</g>
<g>
</g>
<g>
</g>
<g>
</g>
<g>
</g>
<g>
</g>
<g>
</g>
<g>
</g>
<g>
</g>
<g>
</g>
<g>
</g>
<g>
</g>
<g>
</g>
</svg>
