<?xml version="1.0" encoding="iso-8859-1"?>
<!-- Generator: Adobe Illustrator 19.0.0, SVG Export Plug-In . SVG Version: 6.00 Build 0)  -->
<svg version="1.1" id="Layer_1" xmlns="http://www.w3.org/2000/svg" xmlns:xlink="http://www.w3.org/1999/xlink" x="0px" y="0px"
	 viewBox="0 0 512 512" style="enable-background:new 0 0 512 512;" xml:space="preserve">
<path style="fill:#C7CFE2;" d="M504.495,431.65c0.033,17.612-14.349,32.048-31.961,32.081l-432.285,0.813
	c-17.612,0.033-32.048-14.349-32.081-31.961L7.505,80.35c-0.033-17.612,14.35-32.048,31.961-32.081l432.285-0.813
	c17.612-0.033,32.048,14.349,32.081,31.961L504.495,431.65z"/>
<path style="fill:#707487;" d="M471.751,47.456L39.466,48.269C21.855,48.302,7.472,62.739,7.505,80.35l0.204,108.442h496.33
	l-0.205-109.375C503.8,61.806,489.363,47.423,471.751,47.456z"/>
<path style="fill:#5B5D6E;" d="M119.88,240.245c0.017,8.806-7.175,16.024-15.981,16.041l-16.011,0.03
	c-8.806,0.017-16.025-7.175-16.041-15.981l-0.03-16.011c-0.017-8.806,7.175-16.025,15.981-16.041l16.011-0.03
	c8.806-0.017,16.025,7.175,16.041,15.981L119.88,240.245z"/>
<g>
	<path style="fill:#8F96AC;" d="M199.933,240.095c0.017,8.806-7.175,16.025-15.981,16.041l-16.011,0.03
		c-8.806,0.017-16.025-7.175-16.041-15.981l-0.03-16.011c-0.017-8.806,7.175-16.025,15.981-16.041l16.011-0.03
		c8.806-0.017,16.025,7.175,16.041,15.981L199.933,240.095z"/>
	<path style="fill:#8F96AC;" d="M279.985,239.944c0.017,8.806-7.175,16.025-15.981,16.041l-16.011,0.03
		c-8.806,0.017-16.025-7.175-16.041-15.981l-0.03-16.011c-0.017-8.806,7.175-16.025,15.981-16.041l16.011-0.03
		c8.806-0.017,16.025,7.175,16.041,15.981L279.985,239.944z"/>
	<path style="fill:#8F96AC;" d="M360.038,239.794c0.017,8.806-7.175,16.025-15.981,16.041l-16.011,0.03
		c-8.806,0.017-16.024-7.175-16.041-15.981l-0.03-16.011c-0.017-8.806,7.175-16.025,15.981-16.041l16.011-0.03
		c8.806-0.017,16.024,7.175,16.041,15.981L360.038,239.794z"/>
</g>
<g>
	<path style="fill:#5B5D6E;" d="M440.091,239.644c0.017,8.806-7.175,16.025-15.981,16.041l-16.011,0.03
		c-8.806,0.017-16.025-7.175-16.041-15.981l-0.03-16.011c-0.017-8.806,7.175-16.025,15.981-16.041l16.011-0.03
		c8.806-0.017,16.025,7.175,16.041,15.981L440.091,239.644z"/>
	<path style="fill:#5B5D6E;" d="M120.031,320.298c0.017,8.806-7.175,16.025-15.981,16.041l-16.011,0.03
		c-8.806,0.017-16.025-7.175-16.041-15.981l-0.03-16.011c-0.017-8.806,7.175-16.024,15.981-16.041l16.011-0.03
		c8.806-0.017,16.025,7.175,16.041,15.981L120.031,320.298z"/>
</g>
<g>
	<path style="fill:#8F96AC;" d="M200.084,320.148c0.017,8.806-7.175,16.024-15.981,16.041l-16.011,0.03
		c-8.806,0.017-16.025-7.175-16.041-15.981l-0.03-16.011c-0.017-8.806,7.175-16.024,15.981-16.041l16.011-0.03
		c8.806-0.017,16.025,7.175,16.041,15.981L200.084,320.148z"/>
	<path style="fill:#8F96AC;" d="M280.137,319.997c0.017,8.806-7.175,16.024-15.981,16.041l-16.011,0.03
		c-8.806,0.017-16.025-7.175-16.041-15.981l-0.03-16.011c-0.017-8.806,7.175-16.025,15.981-16.041l16.011-0.03
		c8.806-0.017,16.024,7.175,16.041,15.981L280.137,319.997z"/>
	<path style="fill:#8F96AC;" d="M360.19,319.847c0.017,8.806-7.175,16.025-15.981,16.041l-16.011,0.03
		c-8.806,0.017-16.024-7.175-16.041-15.981l-0.03-16.011c-0.017-8.806,7.175-16.025,15.981-16.041l16.011-0.03
		c8.806-0.017,16.025,7.175,16.041,15.981L360.19,319.847z"/>
</g>
<path style="fill:#5B5D6E;" d="M440.243,319.696c0.017,8.806-7.175,16.025-15.981,16.041l-16.011,0.03
	c-8.806,0.017-16.025-7.175-16.041-15.981l-0.03-16.011c-0.017-8.806,7.175-16.024,15.981-16.041l16.011-0.03
	c8.806-0.017,16.025,7.175,16.041,15.981L440.243,319.696z"/>
<path style="fill:#FF6464;" d="M120.181,400.351c0.017,8.806-7.175,16.024-15.981,16.041l-16.011,0.03
	c-8.806,0.017-16.025-7.175-16.041-15.981l-0.03-16.011c-0.017-8.806,7.175-16.025,15.981-16.041l16.011-0.03
	c8.806-0.017,16.025,7.175,16.041,15.981L120.181,400.351z"/>
<g>
	<path style="fill:#8F96AC;" d="M200.234,400.2c0.017,8.806-7.175,16.025-15.981,16.041l-16.011,0.03
		c-8.806,0.017-16.025-7.175-16.041-15.981l-0.03-16.011c-0.017-8.806,7.175-16.025,15.981-16.041l16.011-0.03
		c8.806-0.017,16.025,7.175,16.041,15.981L200.234,400.2z"/>
	<path style="fill:#8F96AC;" d="M280.287,400.05c0.017,8.806-7.175,16.025-15.981,16.041l-16.011,0.03
		c-8.806,0.017-16.025-7.175-16.041-15.981l-0.03-16.011c-0.017-8.806,7.175-16.024,15.981-16.041l16.011-0.03
		c8.806-0.017,16.025,7.175,16.041,15.981L280.287,400.05z"/>
</g>
<g>
	<path style="fill:#5B5D6E;" d="M360.34,399.9c0.017,8.806-7.175,16.024-15.981,16.041l-16.011,0.03
		c-8.806,0.017-16.025-7.175-16.041-15.981l-0.03-16.011c-0.017-8.806,7.175-16.024,15.981-16.041l16.011-0.03
		c8.806-0.017,16.025,7.175,16.041,15.981L360.34,399.9z"/>
	<path style="fill:#5B5D6E;" d="M440.393,399.749c0.017,8.806-7.175,16.024-15.981,16.041l-16.011,0.03
		c-8.806,0.017-16.025-7.175-16.041-15.981l-0.03-16.011c-0.017-8.806,7.175-16.025,15.981-16.041l16.011-0.03
		c8.806-0.017,16.024,7.175,16.041,15.981L440.393,399.749z"/>
</g>
<path style="fill:#D7DEED;" d="M439.851,111.559c-0.017-8.806-7.235-15.997-16.041-15.981L87.588,96.21
	c-8.806,0.017-15.997,7.235-15.981,16.041l0.06,32.021c0.017,8.806,7.235,15.997,16.041,15.981l336.222-0.632
	c8.806-0.017,15.997-7.235,15.981-16.041L439.851,111.559z"/>
<path d="M511.338,79.403c-0.041-21.753-17.772-39.452-39.6-39.452L39.452,40.764c-10.523,0.02-20.431,4.16-27.899,11.657
	C4.083,59.918-0.02,69.842,0,80.364l0.662,352.233c0.041,21.753,17.772,39.452,39.525,39.452c0.005,0,0.07,0,0.075,0l432.286-0.813
	c21.794-0.041,39.492-17.806,39.451-39.6L511.338,79.403z M472.52,456.226l-432.286,0.813l-0.047,7.505v-7.505
	c-13.492,0-24.49-10.977-24.515-24.47L15.01,80.336c-0.012-6.513,2.536-12.664,7.176-17.321c4.639-4.657,10.781-7.229,17.294-7.241
	l432.331-0.813c13.493,0,24.491,10.977,24.516,24.47l0.662,352.233C497.015,445.183,486.038,456.201,472.52,456.226z"/>
<path d="M87.858,263.821c0.004,0,0.04,0,0.044,0l16.011-0.03c6.263-0.012,12.159-2.474,16.601-6.933
	c4.442-4.459,6.882-10.364,6.871-16.627l-0.03-16.011c-0.024-12.943-10.573-23.472-23.56-23.472l-16.011,0.03
	c-6.263,0.012-12.159,2.474-16.601,6.933c-4.442,4.459-6.882,10.364-6.871,16.627l0.03,16.011
	C64.368,253.292,74.917,263.821,87.858,263.821z M81.816,218.306c1.612-1.618,3.742-2.512,5.997-2.517l16.027-0.03
	c4.681,0,8.497,3.809,8.506,8.49l0.03,16.011c0.004,2.253-0.882,4.387-2.494,6.005s-3.742,2.512-5.997,2.517l-16.011,0.03
	l-0.016,7.505v-7.505c-4.681,0-8.497-3.809-8.506-8.49l-0.03-16.011C79.319,222.057,80.204,219.924,81.816,218.306z"/>
<path d="M167.911,263.671c0.004,0,0.04,0,0.044,0l16.011-0.03c12.967-0.024,23.496-10.593,23.472-23.56l-0.03-16.011
	c-0.024-12.943-10.574-23.472-23.56-23.472l-16.011,0.03c-12.967,0.024-23.496,10.593-23.472,23.56l0.03,16.01
	C144.421,253.141,154.969,263.671,167.911,263.671z M167.865,215.639l16.027-0.03c4.681,0,8.498,3.809,8.506,8.49l0.03,16.011
	c0.009,4.69-3.8,8.513-8.49,8.522l-16.011,0.03l-0.016,7.505v-7.505c-4.681,0-8.497-3.809-8.506-8.49l-0.03-16.011
	C159.368,219.47,163.175,215.648,167.865,215.639z"/>
<path d="M247.964,263.521c0.004,0,0.04,0,0.044,0l16.011-0.03c12.967-0.024,23.496-10.593,23.472-23.56l-0.03-16.011
	c-0.024-12.943-10.573-23.473-23.56-23.473l-16.011,0.03c-12.967,0.024-23.496,10.593-23.472,23.56l0.03,16.011
	C224.474,252.992,235.023,263.521,247.964,263.521z M247.918,215.489l16.027-0.03c4.681,0,8.497,3.809,8.506,8.49l0.03,16.011
	c0.009,4.69-3.799,8.513-8.49,8.522l-16.011,0.03l-0.016,7.505v-7.505c-4.681,0-8.497-3.809-8.506-8.49l-0.03-16.011
	C239.421,219.32,243.228,215.497,247.918,215.489z"/>
<path d="M328.017,263.369c0.004,0,0.04,0,0.044,0l16.011-0.03c6.263-0.012,12.159-2.474,16.601-6.933
	c4.442-4.459,6.882-10.364,6.871-16.627l-0.03-16.011c-0.024-12.943-10.573-23.472-23.56-23.472l-16.011,0.03
	c-6.263,0.012-12.159,2.474-16.601,6.933c-4.442,4.459-6.882,10.364-6.871,16.628l0.03,16.011
	C304.527,252.84,315.076,263.369,328.017,263.369z M328.017,250.488l0.012-0.012l-0.012,5.389V250.488z M350.041,245.813
	c-1.612,1.618-3.742,2.512-5.997,2.517l-13.903,0.026l22.367-22.45l0.026,13.903C352.538,242.062,351.652,244.195,350.041,245.813z
	 M321.975,217.854c1.612-1.618,3.741-2.512,5.996-2.517l13.902-0.026l-22.366,22.45l-0.026-13.902
	C319.478,221.605,320.363,219.472,321.975,217.854z"/>
<path d="M408.07,263.219c0.004,0,0.04,0,0.044,0l16.011-0.03c6.263-0.011,12.159-2.474,16.602-6.933
	c4.442-4.459,6.882-10.364,6.87-16.627l-0.03-16.011c-0.024-12.943-10.573-23.472-23.56-23.472l-16.011,0.03
	c-12.967,0.024-23.496,10.593-23.472,23.56l0.03,16.011C384.58,252.69,395.128,263.219,408.07,263.219z M408.07,250.338l0.012-0.012
	l-0.012,5.388V250.338z M430.093,245.663c-1.612,1.618-3.741,2.512-5.996,2.516l-13.902,0.026l22.366-22.45l0.026,13.902
	C432.59,241.912,431.705,244.045,430.093,245.663z M408.024,215.188l13.902-0.026l-22.365,22.45l-0.026-13.902
	C399.526,219.019,403.334,215.197,408.024,215.188z"/>
<path d="M88.009,343.874c0.004,0,0.04,0,0.044,0l16.011-0.03c12.967-0.024,23.496-10.593,23.472-23.56l-0.03-16.011
	c-0.024-12.943-10.573-23.472-23.56-23.472l-16.011,0.03c-6.263,0.012-12.159,2.474-16.601,6.933
	c-4.442,4.459-6.882,10.364-6.871,16.627l0.03,16.011C64.519,333.345,75.068,343.874,88.009,343.874z M81.967,298.359
	c1.612-1.618,3.742-2.512,5.997-2.517l16.027-0.03c4.681,0,8.497,3.809,8.506,8.49l0.03,16.011c0.009,4.691-3.8,8.514-8.49,8.523
	l-16.011,0.03l-0.016,7.505v-7.505c-4.681,0-8.497-3.809-8.506-8.49l-0.03-16.011C79.47,302.109,80.355,299.977,81.967,298.359z"/>
<path d="M168.062,343.724c0.005,0,0.039,0,0.044,0l16.011-0.03c12.967-0.024,23.496-10.593,23.472-23.56l-0.03-16.011
	c-0.024-12.943-10.573-23.472-23.56-23.472l-16.011,0.03c-6.263,0.012-12.159,2.474-16.601,6.933s-6.882,10.364-6.871,16.627
	l0.03,16.011C144.571,333.194,155.121,343.724,168.062,343.724z M162.02,298.208c1.612-1.618,3.741-2.512,5.996-2.517l16.027-0.03
	c4.681,0,8.497,3.809,8.506,8.49l0.03,16.011c0.009,4.69-3.8,8.513-8.49,8.522l-16.011,0.03l-0.016,7.505v-7.505
	c-4.681,0-8.498-3.809-8.506-8.49l-0.03-16.011C159.523,301.959,160.408,299.827,162.02,298.208z"/>
<path d="M248.115,343.574c0.005,0,0.039,0,0.044,0l16.011-0.03c12.967-0.024,23.496-10.593,23.472-23.56l-0.03-16.01
	c-0.024-12.943-10.572-23.473-23.56-23.473l-16.011,0.03c-6.263,0.012-12.159,2.474-16.601,6.933
	c-4.442,4.459-6.882,10.364-6.871,16.627l0.03,16.011C224.624,333.044,235.174,343.574,248.115,343.574z M242.073,298.057
	c1.612-1.618,3.741-2.512,5.996-2.517l16.027-0.03c4.681,0,8.497,3.809,8.506,8.49l0.03,16.011c0.009,4.69-3.8,8.513-8.49,8.522
	l-16.01,0.03l-0.016,7.505v-7.505c-4.681,0-8.498-3.809-8.506-8.49l-0.03-16.011C239.576,301.809,240.461,299.675,242.073,298.057z"
	/>
<path d="M328.167,343.422c0.004,0,0.04,0,0.044,0l16.011-0.03c6.263-0.012,12.159-2.474,16.601-6.933
	c4.442-4.459,6.882-10.364,6.871-16.627l-0.03-16.011c-0.024-12.943-10.573-23.472-23.56-23.472l-16.011,0.03
	c-6.263,0.012-12.159,2.474-16.601,6.933c-4.442,4.459-6.882,10.364-6.871,16.627l0.03,16.011
	C304.677,332.893,315.226,343.422,328.167,343.422z M328.167,330.541l0.012-0.012l-0.012,5.389V330.541z M350.191,325.866
	c-1.612,1.618-3.742,2.512-5.997,2.517l-13.903,0.026l22.367-22.45l0.026,13.903C352.689,322.115,351.803,324.248,350.191,325.866z
	 M322.125,297.907c1.612-1.618,3.742-2.512,5.997-2.517l13.903-0.026l-22.367,22.45l-0.026-13.903
	C319.628,301.658,320.513,299.525,322.125,297.907z"/>
<path d="M408.22,343.272c0.004,0,0.04,0,0.044,0l16.011-0.03c6.263-0.012,12.159-2.474,16.601-6.933
	c4.442-4.459,6.882-10.364,6.871-16.627l-0.03-16.011c-0.024-12.943-10.573-23.472-23.56-23.472l-16.011,0.03
	c-12.967,0.024-23.496,10.593-23.472,23.56l0.03,16.011C384.73,332.742,395.278,343.272,408.22,343.272z M408.22,330.391
	l0.012-0.012l-0.012,5.389V330.391z M430.244,325.716c-1.612,1.618-3.741,2.512-5.996,2.517l-13.902,0.026l22.366-22.45
	l0.026,13.902C432.742,321.964,431.855,324.098,430.244,325.716z M408.174,295.241l13.902-0.026l-22.366,22.45l-0.026-13.902
	C399.677,299.072,403.484,295.25,408.174,295.241z"/>
<path d="M104.096,360.855l-16.011,0.03c-6.263,0.012-12.159,2.474-16.601,6.933c-4.442,4.459-6.882,10.364-6.87,16.627l0.03,16.011
	c0.024,12.943,10.573,23.472,23.516,23.472c0.004,0,0.04,0,0.044,0l16.011-0.03c12.967-0.024,23.496-10.593,23.472-23.56
	l-0.03-16.011C127.632,371.384,117.083,360.855,104.096,360.855z M104.186,408.887l-16.011,0.03l-0.016,7.505v-7.505
	c-4.681,0-8.497-3.809-8.506-8.49l-0.03-16.011c-0.004-2.254,0.882-4.387,2.494-6.005s3.741-2.512,5.996-2.517l16.027-0.03
	c4.681,0,8.497,3.809,8.506,8.49l0.03,16.011C112.685,405.055,108.876,408.878,104.186,408.887z"/>
<path d="M184.149,360.705l-16.011,0.03c-6.263,0.012-12.159,2.474-16.601,6.933c-4.442,4.459-6.882,10.364-6.87,16.627l0.03,16.011
	c0.024,12.943,10.573,23.472,23.516,23.472c0.004,0,0.04,0,0.044,0l16.011-0.03c12.967-0.024,23.496-10.593,23.472-23.56
	l-0.03-16.011C207.685,371.234,197.136,360.705,184.149,360.705z M184.239,408.737l-16.011,0.03l-0.016,7.505v-7.505
	c-4.681,0-8.497-3.809-8.506-8.49l-0.03-16.011c-0.004-2.254,0.882-4.387,2.494-6.005s3.741-2.512,5.996-2.517l16.027-0.03
	c4.681,0,8.497,3.809,8.506,8.49l0.03,16.011C192.738,404.905,188.929,408.728,184.239,408.737z"/>
<path d="M264.202,360.554l-16.011,0.03c-6.263,0.012-12.159,2.474-16.601,6.933s-6.882,10.364-6.87,16.627l0.03,16.011
	c0.024,12.943,10.573,23.472,23.516,23.472c0.004,0,0.04,0,0.044,0l16.011-0.03c12.967-0.024,23.496-10.593,23.472-23.56
	l-0.03-16.011C287.737,371.083,277.189,360.554,264.202,360.554z M264.292,408.586l-16.011,0.03l-0.016,7.505v-7.505
	c-4.681,0-8.497-3.809-8.506-8.49l-0.03-16.011c-0.004-2.254,0.882-4.387,2.494-6.005s3.741-2.512,5.996-2.517l16.027-0.03
	c4.681,0,8.497,3.809,8.506,8.49l0.03,16.011C272.791,404.754,268.982,408.577,264.292,408.586z"/>
<path d="M344.255,360.404l-16.011,0.03c-6.264,0.011-12.16,2.474-16.602,6.933c-4.442,4.459-6.882,10.364-6.871,16.627l0.03,16.011
	c0.024,12.943,10.573,23.472,23.516,23.472c0.004,0,0.04,0,0.044,0l16.011-0.03c6.263-0.012,12.159-2.474,16.601-6.933
	c4.442-4.459,6.882-10.364,6.871-16.628l-0.03-16.011C367.79,370.933,357.241,360.404,344.255,360.404z M322.276,377.959
	c1.612-1.618,3.741-2.512,5.996-2.516l13.902-0.026l-22.366,22.45l-0.026-13.902C319.778,381.711,320.664,379.578,322.276,377.959z
	 M328.318,410.594l0.012-0.012l-0.012,5.388V410.594z M350.341,405.919c-1.612,1.618-3.742,2.512-5.996,2.517l-13.902,0.026
	l22.366-22.45l0.026,13.902C352.84,402.168,351.953,404.301,350.341,405.919z"/>
<path d="M424.307,360.253l-16.011,0.03c-6.263,0.011-12.159,2.474-16.602,6.933c-4.442,4.459-6.882,10.364-6.87,16.627l0.03,16.011
	c0.024,12.943,10.572,23.472,23.516,23.472c0.004,0,0.04,0,0.044,0l16.011-0.03c12.967-0.024,23.496-10.593,23.472-23.56
	l-0.03-16.011C447.843,370.782,437.294,360.253,424.307,360.253z M402.329,377.809c1.612-1.618,3.741-2.512,5.996-2.516
	l13.902-0.026l-22.365,22.45l-0.026-13.902C399.831,381.561,400.717,379.428,402.329,377.809z M408.371,410.444l0.012-0.012
	l-0.012,5.388V410.444z M424.398,408.284l-13.902,0.026l22.366-22.45l0.026,13.902C432.896,404.453,429.088,408.276,424.398,408.284
	z"/>
<path d="M87.678,167.757c0.004,0,0.04,0,0.044,0l336.223-0.631c12.967-0.024,23.496-10.593,23.472-23.56l-0.06-32.021
	c-0.024-12.943-10.573-23.472-23.56-23.472L87.574,88.705c-6.263,0.012-12.159,2.474-16.601,6.933s-6.882,10.364-6.87,16.627
	l0.06,32.021C64.188,157.228,74.737,167.757,87.678,167.757z M81.606,106.231c1.612-1.618,3.741-2.512,5.996-2.517l336.239-0.631
	c4.681,0,8.497,3.809,8.506,8.49l0.06,32.021c0.009,4.69-3.799,8.513-8.49,8.522l-336.223,0.631l-0.016,7.505v-7.505
	c-4.681,0-8.497-3.809-8.506-8.49l-0.06-32.021C79.108,109.983,79.994,107.85,81.606,106.231z"/>
<path d="M103.674,143.712c0.005,0,0.01,0,0.015,0c4.145-0.008,7.499-3.374,7.491-7.519l-0.03-16.011
	c-0.008-4.14-3.366-7.491-7.505-7.491c-0.005,0-0.01,0-0.015,0c-4.145,0.008-7.499,3.374-7.491,7.519l0.03,16.011
	C96.177,140.361,99.535,143.712,103.674,143.712z"/>
<path d="M135.695,143.651c0.005,0,0.01,0,0.015,0c4.145-0.008,7.499-3.374,7.491-7.519l-0.03-16.011
	c-0.008-4.145-3.417-7.512-7.519-7.491c-4.145,0.008-7.499,3.374-7.491,7.519l0.03,16.011
	C128.198,140.3,131.556,143.651,135.695,143.651z"/>
<path d="M167.716,143.591c0.005,0,0.01,0,0.015,0c4.145-0.008,7.499-3.374,7.491-7.519l-0.03-16.011
	c-0.008-4.14-3.366-7.491-7.505-7.491c-0.005,0-0.01,0-0.015,0c-4.145,0.008-7.499,3.374-7.491,7.519l0.03,16.011
	C160.219,140.24,163.577,143.591,167.716,143.591z"/>
<path d="M199.737,143.531c0.005,0,0.01,0,0.015,0c4.145-0.008,7.499-3.374,7.491-7.519l-0.03-16.011
	c-0.008-4.14-3.366-7.491-7.505-7.491c-0.005,0-0.01,0-0.015,0c-4.145,0.008-7.499,3.374-7.491,7.519l0.03,16.011
	C192.24,140.18,195.599,143.531,199.737,143.531z"/>
<path d="M231.759,143.471c0.005,0,0.01,0,0.015,0c4.145-0.008,7.499-3.374,7.491-7.519l-0.03-16.011
	c-0.008-4.14-3.366-7.491-7.505-7.491c-0.005,0-0.01,0-0.015,0c-4.145,0.008-7.499,3.374-7.491,7.519l0.03,16.011
	C224.262,140.12,227.62,143.471,231.759,143.471z"/>
<g>
</g>
<g>
</g>
<g>
</g>
<g>
</g>
<g>
</g>
<g>
</g>
<g>
</g>
<g>
</g>
<g>
</g>
<g>
</g>
<g>
</g>
<g>
</g>
<g>
</g>
<g>
</g>
<g>
</g>
</svg>
