<?xml version="1.0" encoding="iso-8859-1"?>
<!-- Generator: Adobe Illustrator 19.0.0, SVG Export Plug-In . SVG Version: 6.00 Build 0)  -->
<svg version="1.1" id="Layer_1" xmlns="http://www.w3.org/2000/svg" xmlns:xlink="http://www.w3.org/1999/xlink" x="0px" y="0px"
	 viewBox="0 0 512 512" style="enable-background:new 0 0 512 512;" xml:space="preserve">
<rect x="111.416" y="8.076" style="fill:#EFF2FA;" width="288.815" height="495.046"/>
<path style="fill:#AFB9D2;" d="M376.501,471.942l24.017-0.045c8.844-0.017,16.026,7.139,16.043,15.982l0.03,16.012l-320.249,0.601
	l-0.03-16.012c-0.017-8.844,7.139-16.025,15.982-16.042l184.147-0.346"/>
<path style="fill:#78D2BE;" d="M287.768,119.833l0.15,80.062l80.062-0.15C367.898,155.528,331.985,119.75,287.768,119.833z"/>
<path style="fill:#9BE6D2;" d="M255.804,151.918c-44.217,0.083-79.995,35.995-79.911,80.213
	c0.083,44.216,35.995,79.995,80.213,79.911s79.995-35.996,79.911-80.213l-80.062,0.15L255.804,151.918z"/>
<path style="fill:#C7CFE2;" d="M191.603,71.977c0.017,8.844-7.139,16.025-15.982,16.042c-8.844,0.017-16.025-7.139-16.043-15.982
	s7.139-16.025,15.982-16.043c2.901-0.005,5.624,0.762,7.974,2.107C188.346,60.855,191.592,66.034,191.603,71.977z"/>
<path d="M344.476,464.496c-0.005,0-0.01,0-0.015,0l-16.016,0.03c-4.145,0.008-7.5,3.375-7.492,7.521
	c0.008,4.14,3.367,7.491,7.506,7.491c0.005,0,0.01,0,0.015,0l16.016-0.03c4.145-0.008,7.5-3.375,7.492-7.521
	C351.974,467.847,348.614,464.496,344.476,464.496z"/>
<path d="M424.066,487.865c-0.012-6.282-2.469-12.185-6.919-16.617c-2.614-2.604-5.733-4.513-9.134-5.646l-0.847-450.573l8.507-0.016
	c4.145-0.008,7.5-3.375,7.492-7.52C423.155,3.352,419.797,0,415.657,0c-0.005,0-0.01,0-0.015,0l-15.983,0.03
	c-0.005,0-0.01-0.001-0.014-0.001s-0.01,0-0.015,0s-0.01,0.001-0.015,0.001L111.424,0.572c-0.001,0-0.002,0-0.003,0
	c-0.005,0-0.01,0-0.015,0c-0.001,0-0.002,0-0.004,0l-16.008,0.03c-4.145,0.008-7.5,3.375-7.492,7.52
	c0.008,4.141,3.367,7.492,7.506,7.492c0.005,0,0.01,0,0.015,0l8.507-0.016l0.847,450.573c-3.397,1.147-6.509,3.067-9.113,5.681
	c-4.434,4.45-6.869,10.362-6.857,16.644l0.03,16.012c0.008,4.14,3.367,7.491,7.506,7.491c0.005,0,0.01,0,0.015,0l320.25-0.602
	c1.991-0.004,3.898-0.799,5.303-2.209c1.405-1.41,2.192-3.321,2.189-5.312L424.066,487.865z M103.832,496.974l-0.016-8.507
	c-0.004-2.273,0.877-4.41,2.481-6.021c1.603-1.609,3.738-2.499,6.011-2.503l184.145-0.346c4.145-0.008,7.5-3.375,7.492-7.52
	c-0.008-4.141-3.367-7.492-7.506-7.492c-0.005,0-0.01,0-0.015,0l-176.64,0.332L118.94,15.569l273.213-0.513l0.845,449.349
	l-16.511,0.031c-4.145,0.008-7.5,3.375-7.492,7.52c0.008,4.141,3.367,7.492,7.506,7.492c0.004,0,0.009,0,0.014,0l24.017-0.045
	c0.005,0,0.011,0,0.017,0c2.266,0,4.397,0.881,6.003,2.481c1.609,1.603,2.499,3.737,2.503,6.011l0.016,8.506L103.832,496.974z"/>
<path d="M375.487,199.732c-0.09-48.195-39.372-87.404-87.565-87.404h-0.168c-1.991,0.004-3.898,0.799-5.303,2.209
	c-1.405,1.41-2.192,3.321-2.189,5.311l0.075,40.031l0,0l0.075,40.031l0,0c0,0.247,0.014,0.494,0.039,0.741
	c0.011,0.112,0.032,0.22,0.048,0.331c0.019,0.131,0.035,0.263,0.061,0.394c0.025,0.126,0.06,0.249,0.092,0.373
	c0.029,0.113,0.053,0.226,0.087,0.338c0.037,0.122,0.083,0.239,0.126,0.358c0.04,0.112,0.077,0.224,0.123,0.334
	c0.046,0.111,0.1,0.217,0.151,0.324c0.054,0.114,0.104,0.229,0.164,0.34c0.056,0.103,0.119,0.201,0.179,0.301
	c0.065,0.109,0.127,0.22,0.199,0.327c0.074,0.11,0.156,0.214,0.236,0.32c0.067,0.09,0.13,0.182,0.202,0.27
	c0.156,0.19,0.321,0.373,0.496,0.546c0.001,0.001,0.002,0.003,0.003,0.004c0.033,0.032,0.068,0.06,0.101,0.091
	c0.144,0.138,0.291,0.274,0.445,0.401c0.09,0.074,0.185,0.138,0.277,0.207c0.103,0.077,0.204,0.156,0.312,0.228
	s0.22,0.135,0.331,0.201c0.099,0.059,0.195,0.121,0.297,0.175c0.113,0.061,0.229,0.112,0.345,0.166
	c0.106,0.05,0.211,0.103,0.32,0.148c0.112,0.046,0.226,0.083,0.339,0.124c0.117,0.042,0.233,0.087,0.353,0.123
	c0.113,0.034,0.228,0.059,0.343,0.088c0.122,0.031,0.243,0.065,0.368,0.09c0.131,0.026,0.263,0.041,0.394,0.06
	c0.11,0.016,0.219,0.037,0.33,0.048c0.243,0.024,0.486,0.036,0.731,0.037c0.003,0,0.005,0,0.008,0c0.005,0,0.01,0,0.015,0
	l80.062-0.15C372.141,207.243,375.495,203.877,375.487,199.732z M351.696,165.351l-26.869,26.97l-18.802,0.036l38.105-38.248
	C346.982,157.604,349.525,161.361,351.696,165.351z M295.355,162.96l26.87-26.971c3.998,2.157,7.765,4.685,11.271,7.525
	l-38.105,38.249L295.355,162.96z M307.08,129.921l-11.765,11.809l-0.026-14.019C299.326,128.121,303.263,128.873,307.08,129.921z
	 M346.056,192.281l11.764-11.808c1.062,3.813,1.829,7.746,2.255,11.781L346.056,192.281z"/>
<path d="M256.118,319.549c23.39-0.044,45.363-9.194,61.872-25.764c16.509-16.57,25.576-38.578,25.532-61.968
	c-0.004-1.991-0.798-3.899-2.209-5.304c-1.407-1.401-3.313-2.189-5.297-2.189c-0.005,0-0.009,0-0.014,0l-72.557,0.137l-0.136-72.557
	c-0.008-4.141-3.367-7.492-7.506-7.492c-0.005,0-0.01,0-0.015,0c-48.285,0.091-87.494,39.448-87.403,87.732
	c0.09,48.195,39.372,87.404,87.565,87.404H256.118z M183.397,232.118c-0.07-37.473,28.428-68.456,64.915-72.293l0.136,72.17
	c0.008,4.141,3.367,7.492,7.506,7.492c0.005,0,0.01,0,0.015,0l72.175-0.136c-1.658,16.547-8.891,31.897-20.787,43.839
	c-13.679,13.73-31.885,21.312-51.266,21.348h-0.139C216.02,304.537,183.473,272.05,183.397,232.118z"/>
<path d="M160.119,367.767c0.005,0,0.01,0,0.015,0l16.012-0.03c4.145-0.008,7.5-3.375,7.492-7.521
	c-0.008-4.14-3.367-7.491-7.506-7.491c-0.005,0-0.01,0-0.015,0l-16.012,0.03c-4.145,0.008-7.5,3.375-7.492,7.521
	C152.621,364.416,155.981,367.767,160.119,367.767z"/>
<path d="M160.18,399.792c0.005,0,0.01,0,0.015,0l16.012-0.03c4.145-0.008,7.5-3.375,7.492-7.521
	c-0.008-4.14-3.367-7.491-7.506-7.491c-0.005,0-0.01,0-0.015,0l-16.012,0.03c-4.145,0.008-7.5,3.375-7.492,7.521
	C152.682,396.441,156.041,399.792,160.18,399.792z"/>
<path d="M208.157,367.677c0.005,0,0.01,0,0.015,0l144.112-0.271c4.145-0.008,7.5-3.375,7.492-7.52
	c-0.008-4.141-3.367-7.492-7.506-7.492c-0.005,0-0.01,0-0.015,0l-144.112,0.271c-4.145,0.008-7.5,3.375-7.492,7.52
	C200.659,364.325,204.017,367.677,208.157,367.677z"/>
<path d="M208.217,399.701c0.005,0,0.01,0,0.015,0l144.112-0.271c4.145-0.008,7.5-3.375,7.492-7.52
	c-0.008-4.141-3.367-7.492-7.506-7.492c-0.005,0-0.01,0-0.015,0l-144.112,0.271c-4.145,0.008-7.5,3.375-7.492,7.52
	C200.719,396.35,204.078,399.701,208.217,399.701z"/>
<path d="M176.254,416.775c-0.005,0-0.01,0-0.015,0l-16.012,0.03c-4.145,0.008-7.5,3.375-7.492,7.521
	c0.008,4.14,3.367,7.491,7.506,7.491c0.005,0,0.01,0,0.015,0l16.012-0.03c4.145-0.008,7.5-3.375,7.492-7.521
	C183.751,420.126,180.392,416.775,176.254,416.775z"/>
<path d="M352.39,416.444c-0.005,0-0.01,0-0.015,0l-144.112,0.271c-4.145,0.008-7.5,3.375-7.492,7.52
	c0.008,4.141,3.367,7.492,7.506,7.492c0.005,0,0.01,0,0.015,0l144.112-0.271c4.145-0.008,7.5-3.375,7.492-7.52
	C359.888,419.795,356.529,416.444,352.39,416.444z"/>
<path d="M175.59,95.524c0.005,0,0.04,0,0.045,0c6.282-0.012,12.184-2.469,16.617-6.919c4.434-4.449,6.869-10.361,6.857-16.643
	c-0.016-8.395-4.555-16.202-11.843-20.374c-3.541-2.028-7.578-3.1-11.719-3.1c-12.968,0.024-23.498,10.594-23.474,23.562
	C152.097,84.994,162.647,95.524,175.59,95.524z M175.588,63.499c1.506,0,2.925,0.375,4.217,1.115
	c2.641,1.512,4.285,4.338,4.291,7.376c0.004,2.273-0.877,4.409-2.48,6.02c-1.604,1.609-3.739,2.499-6.011,2.503l-0.017,7.506v-7.506
	c-4.682,0-8.497-3.809-8.506-8.49C167.076,67.331,170.884,63.508,175.588,63.499z"/>
<path d="M223.628,79.422c0.005,0,0.01,0,0.015,0l128.1-0.24c4.145-0.008,7.5-3.375,7.492-7.52c-0.008-4.141-3.367-7.492-7.506-7.492
	c-0.005,0-0.01,0-0.015,0l-128.1,0.24c-4.145,0.008-7.5,3.375-7.492,7.52C216.13,76.071,219.489,79.422,223.628,79.422z"/>
<g>
</g>
<g>
</g>
<g>
</g>
<g>
</g>
<g>
</g>
<g>
</g>
<g>
</g>
<g>
</g>
<g>
</g>
<g>
</g>
<g>
</g>
<g>
</g>
<g>
</g>
<g>
</g>
<g>
</g>
</svg>
