<?xml version="1.0" encoding="iso-8859-1"?>
<!-- Generator: Adobe Illustrator 19.0.0, SVG Export Plug-In . SVG Version: 6.00 Build 0)  -->
<svg version="1.1" id="Layer_1" xmlns="http://www.w3.org/2000/svg" xmlns:xlink="http://www.w3.org/1999/xlink" x="0px" y="0px"
	 viewBox="0 0 512 512" style="enable-background:new 0 0 512 512;" xml:space="preserve">
<path style="fill:#AFB9D2;" d="M483.859,153.325c86.949,214.688-115.845,417.482-330.534,330.534
	c-56.87-23.032-102.151-68.313-125.183-125.184C-58.807,143.987,143.988-58.808,358.676,28.142
	C415.545,51.174,460.827,96.455,483.859,153.325z"/>
<path style="fill:#FFFFFF;" d="M450.13,158.971c84.889,191.796-99.413,376.302-291.016,291.37
	c-43.342-19.212-78.053-53.96-97.241-97.313c-84.89-191.796,99.412-376.302,291.015-291.37
	C396.23,80.871,430.941,115.619,450.13,158.971z"/>
<path style="fill:#C7CFE2;" d="M271.853,249.27c5.592,14.558-8.025,28.175-22.583,22.583c-4.177-1.604-7.518-4.946-9.123-9.123
	c-5.592-14.558,8.025-28.175,22.583-22.583C266.908,241.752,270.249,245.093,271.853,249.27z"/>
<path d="M436.845,74.798C388.514,26.564,324.293,0,256.01,0h-0.491C187.139,0.129,122.903,26.878,74.641,75.321
	S-0.128,188.101,0,256.481c0.128,68.294,26.82,132.474,75.159,180.717C123.493,485.435,187.712,512,255.989,512h0.492
	c68.381-0.128,132.617-26.878,180.878-75.32S512.129,323.9,512,255.52C511.872,187.22,485.181,123.039,436.845,74.798z
	 M426.713,426.071c-45.428,45.599-105.894,70.778-170.26,70.898h-0.464c-132.616,0.001-240.71-107.895-240.96-240.517
	c-0.121-64.366,24.83-124.926,70.258-170.524s105.895-70.778,170.26-70.899h0.463c132.617,0,240.711,107.896,240.961,240.518
	C497.092,319.913,472.141,380.472,426.713,426.071z"/>
<path d="M47.092,256.393c-0.104-55.801,21.527-108.304,60.911-147.835s91.803-61.361,147.604-61.466c0.134,0,0.266,0,0.4,0
	c41.405,0,81.415,12.086,115.725,34.96c3.453,2.301,8.119,1.37,10.421-2.084c2.302-3.453,1.37-8.119-2.084-10.42
	c-36.789-24.529-79.677-37.485-124.061-37.485c-0.141,0-0.288,0-0.429,0C195.764,32.175,139.572,55.575,97.356,97.95
	s-65.405,98.655-65.293,158.47c0.104,55.185,20.452,108.163,57.297,149.178c1.484,1.652,3.534,2.493,5.593,2.493
	c1.788,0,3.584-0.635,5.02-1.924c3.087-2.773,3.342-7.525,0.568-10.613C66.172,357.296,47.19,307.873,47.092,256.393z"/>
<path d="M441.988,131.232c-2.315-3.445-6.984-4.36-10.428-2.045c-3.445,2.316-4.361,6.985-2.045,10.428
	c23.077,34.335,35.317,74.444,35.394,115.992c0.216,115.192-93.322,209.083-208.514,209.301c-0.131,0-0.257,0-0.389,0
	c-47.654-0.001-94.251-16.456-131.24-46.358c-3.226-2.609-7.959-2.108-10.568,1.12c-2.609,3.227-2.108,7.959,1.12,10.568
	c39.657,32.059,89.604,49.7,140.69,49.699c0.137,0,0.279,0,0.416,0c59.816-0.112,116.008-23.512,158.224-65.888
	s65.405-98.655,65.293-158.471C479.855,211.045,466.731,168.046,441.988,131.232z"/>
<path d="M394.971,100.017c5.409,4.822,10.627,9.985,15.51,15.345c1.482,1.628,3.516,2.454,5.557,2.454
	c1.807,0,3.618-0.647,5.059-1.96c3.068-2.795,3.289-7.548,0.494-10.616c-5.232-5.743-10.823-11.275-16.618-16.442
	c-3.098-2.761-7.848-2.489-10.61,0.608C391.6,92.505,391.873,97.255,394.971,100.017z"/>
<path d="M255.699,103.202c0.005,0,0.01,0,0.015,0c4.15-0.008,7.509-3.379,7.501-7.529l-0.045-24.047
	c-0.008-4.146-3.371-7.501-7.515-7.501c-0.005,0-0.01,0-0.015,0c-4.15,0.008-7.509,3.379-7.501,7.529l0.045,24.047
	C248.192,99.847,251.555,103.202,255.699,103.202z"/>
<path d="M256.302,408.798c-0.005,0-0.01,0-0.015,0c-4.15,0.008-7.509,3.379-7.501,7.529l0.045,24.047
	c0.008,4.145,3.371,7.501,7.515,7.501c0.005,0,0.01,0,0.015,0c4.15-0.008,7.509-3.379,7.501-7.529l-0.045-24.047
	C263.809,412.154,260.446,408.798,256.302,408.798z"/>
<path d="M64.126,256.361c0.008,4.145,3.371,7.501,7.515,7.501c0.005,0,0.01,0,0.015,0l24.047-0.045
	c4.15-0.008,7.509-3.379,7.501-7.529c-0.008-4.145-3.371-7.501-7.515-7.501c-0.005,0-0.01,0-0.015,0l-24.047,0.045
	C67.476,248.84,64.119,252.211,64.126,256.361z"/>
<path d="M447.875,255.639c-0.008-4.146-3.371-7.501-7.515-7.501c-0.005,0-0.01,0-0.015,0l-24.047,0.045
	c-4.15,0.008-7.509,3.379-7.501,7.529c0.008,4.146,3.371,7.501,7.515,7.501c0.005,0,0.01,0,0.015,0l24.047-0.045
	C444.525,263.16,447.883,259.789,447.875,255.639z"/>
<path d="M175.59,124.832c1.279,0,2.576-0.328,3.762-1.015c3.59-2.082,4.813-6.68,2.731-10.27l-12.063-20.803
	c-2.082-3.591-6.681-4.813-10.27-2.731c-3.59,2.082-4.813,6.68-2.731,10.27l12.063,20.803
	C170.476,123.49,172.998,124.832,175.59,124.832z"/>
<path d="M341.979,419.257c1.394,2.404,3.916,3.746,6.508,3.746c1.28,0,2.576-0.328,3.762-1.015c3.59-2.082,4.813-6.68,2.731-10.27
	l-12.063-20.803c-2.082-3.591-6.681-4.813-10.27-2.731c-3.59,2.082-4.813,6.68-2.731,10.27L341.979,419.257z"/>
<path d="M96.521,355.996c1.279,0,2.576-0.328,3.762-1.015l20.803-12.063c3.59-2.082,4.813-6.68,2.731-10.27
	c-2.083-3.591-6.681-4.813-10.27-2.731L92.745,341.98c-3.59,2.082-4.813,6.68-2.731,10.27
	C91.407,354.654,93.929,355.996,96.521,355.996z"/>
<path d="M394.691,183.099c1.28,0,2.576-0.328,3.762-1.015l20.803-12.063c3.59-2.082,4.813-6.68,2.731-10.27
	c-2.082-3.591-6.681-4.813-10.27-2.731l-20.803,12.063c-3.59,2.082-4.813,6.68-2.731,10.27
	C389.577,181.756,392.099,183.099,394.691,183.099z"/>
<path d="M335.89,124.531c2.602,0,5.132-1.354,6.522-3.771l11.984-20.848c2.068-3.598,0.829-8.192-2.77-10.26
	c-3.598-2.068-8.191-0.829-10.26,2.77l-11.984,20.848c-2.068,3.598-0.829,8.192,2.77,10.26
	C333.332,124.209,334.619,124.531,335.89,124.531z"/>
<path d="M160.376,422.349c1.18,0.678,2.468,1.001,3.738,1.001c2.602,0,5.132-1.354,6.522-3.771l11.984-20.848
	c2.068-3.598,0.829-8.192-2.77-10.26c-3.598-2.068-8.192-0.829-10.26,2.77l-11.984,20.848
	C155.537,415.687,156.778,420.28,160.376,422.349z"/>
<path d="M398.731,329.38c-3.598-2.068-8.191-0.829-10.26,2.77c-2.068,3.598-0.829,8.192,2.77,10.26l20.848,11.984
	c1.18,0.678,2.468,1.001,3.738,1.001c2.602,0,5.132-1.354,6.522-3.771c2.068-3.598,0.829-8.192-2.77-10.26L398.731,329.38z"/>
<path d="M113.27,182.62c1.18,0.678,2.468,1.001,3.738,1.001c2.602,0,5.132-1.354,6.522-3.771c2.068-3.598,0.829-8.192-2.77-10.26
	l-20.848-11.984c-3.598-2.068-8.192-0.829-10.26,2.77c-2.068,3.598-0.829,8.192,2.77,10.26L113.27,182.62z"/>
<path d="M311.984,360.05c1.28,0,2.576-0.328,3.762-1.015c3.59-2.082,4.813-6.68,2.731-10.27l-44.784-77.235
	c3.793-4.309,5.864-9.783,5.853-15.574c-0.02-10.339-6.75-19.134-16.073-22.27l-0.199-105.95c-0.008-4.146-3.371-7.501-7.515-7.501
	c-0.005,0-0.01,0-0.015,0c-4.15,0.008-7.509,3.379-7.501,7.529l0.199,105.93c-3.401,1.148-6.517,3.071-9.125,5.688
	c-4.439,4.456-6.876,10.373-6.865,16.663c0.026,12.959,10.589,23.502,23.548,23.502c0.005,0,0.04,0,0.045,0
	c1.58-0.003,3.137-0.161,4.652-0.466l44.778,77.224C306.87,358.708,309.392,360.05,311.984,360.05z M256.017,264.517l-0.017,7.515
	v-7.515c-4.687,0-8.508-3.813-8.517-8.501c-0.004-2.275,0.878-4.416,2.484-6.027c1.605-1.611,3.742-2.502,6.034-2.506
	c4.687,0,8.507,3.813,8.516,8.501c0.004,2.275-0.878,4.415-2.483,6.027C260.428,263.622,258.292,264.513,256.017,264.517z"/>
<g>
</g>
<g>
</g>
<g>
</g>
<g>
</g>
<g>
</g>
<g>
</g>
<g>
</g>
<g>
</g>
<g>
</g>
<g>
</g>
<g>
</g>
<g>
</g>
<g>
</g>
<g>
</g>
<g>
</g>
</svg>
