<?xml version="1.0" encoding="iso-8859-1"?>
<!-- Generator: Adobe Illustrator 19.0.0, SVG Export Plug-In . SVG Version: 6.00 Build 0)  -->
<svg version="1.1" id="Layer_1" xmlns="http://www.w3.org/2000/svg" xmlns:xlink="http://www.w3.org/1999/xlink" x="0px" y="0px"
	 viewBox="0 0 512 512" style="enable-background:new 0 0 512 512;" xml:space="preserve">
<g>
	<path style="fill:#F0C087;" d="M455.293,335.767l25.21-0.047c13.218-0.025,24.014-10.861,23.988-24.079l-0.15-80.112
		c-0.025-13.218-10.86-24.014-24.079-23.988l-18.246,0.034"/>
	<path style="fill:#F0C087;" d="M467.15,223.566c-11.644-44.378-42.191-82.575-83.926-108.468l0.731,0.311l-0.173-91.944
		c-35.395,0.066-64.035,28.815-63.969,64.21c0,0.117,0.018,0.229,0.018,0.346l0.275,0.118c-20.37-5.368-41.948-8.397-64.398-8.355
		c-119.46,0.223-216.146,82.9-215.955,184.663c0.12,63.88,38.399,120.082,96.424,153.029l-0.001-0.001l0.088,47.071
		c0.025,13.217,10.86,24.014,24.079,23.988l16.022-0.03c13.218-0.025,24.014-10.861,23.988-24.079l-0.042-22.312
		c17.897,4.048,36.689,6.221,56.09,6.185c19.395-0.036,38.188-2.249,56.066-6.36l0.042,22.277
		c0.025,13.217,10.86,24.014,24.079,23.988l16.022-0.03c13.218-0.025,24.014-10.861,23.988-24.079l-0.088-47.08l-0.319,0.124
		c45.576-26.017,78.95-66.331,91.115-113.439"/>
</g>
<path style="fill:#D59E6C;" d="M256.04,256.03c-21.714,0.041-40.08-12.767-40.109-27.964c-0.029-15.197,18.29-28.073,40.003-28.114
	c18.056-0.034,34.428,8.951,38.926,21.367c0.782,2.15,1.178,4.371,1.182,6.597c0.017,8.848,7.204,16.008,16.052,15.992
	c8.848-0.017,16.009-7.204,15.992-16.052c-0.011-5.942-1.055-11.811-3.099-17.456c-7.646-21.096-28.082-36.263-53.088-40.878
	l-0.003-1.644c-0.017-8.848-7.204-16.009-16.052-15.992c-8.848,0.017-16.009,7.204-15.992,16.052l0.003,1.547
	c-32.047,6.155-56.022,30.104-55.968,58.642c0.062,33.132,32.458,60.023,72.214,59.949c21.714-0.041,40.08,12.767,40.109,27.964
	c0.029,15.197-18.29,28.073-40.003,28.114c-21.714,0.041-40.08-12.767-40.109-27.964c-0.017-8.848-7.204-16.008-16.052-15.992
	s-16.009,7.204-15.992,16.052c0.054,28.538,24.119,52.397,56.188,58.432l0.003,1.547c0.017,8.848,7.204,16.009,16.052,15.992
	c8.848-0.017,16.009-7.204,15.992-16.052l-0.003-1.547c32.047-6.155,56.022-30.104,55.968-58.642
	C328.191,282.845,295.794,255.954,256.04,256.03z"/>
<g>
	<path style="fill:#E6AF78;" d="M176.555,488.534h-16.523c-13.081,0-23.783-10.703-23.783-23.783v-54.576
		c0-13.081,10.703-23.783,23.783-23.783h16.523c13.081,0,23.783,10.703,23.783,23.783v54.576
		C200.338,477.831,189.636,488.534,176.555,488.534z"/>
	<path style="fill:#E6AF78;" d="M352.801,488.534h-16.523c-13.081,0-23.783-10.703-23.783-23.783v-54.576
		c0-13.081,10.703-23.783,23.783-23.783h16.523c13.081,0,23.783,10.703,23.783,23.783v54.576
		C376.584,477.831,365.882,488.534,352.801,488.534z"/>
</g>
<g>
	<polygon style="fill:#F0C087;" points="136.175,417.475 136.175,417.475 136.176,417.476 	"/>
	<path style="fill:#F0C087;" d="M319.813,87.674c0,0.117,0.018,0.229,0.018,0.346l0.007,0.003v-1.43
		C319.833,86.954,319.813,87.311,319.813,87.674z"/>
</g>
<g>
	<path style="fill:#E6AF78;" d="M319.839,88.023v0.046c0.089,0.023,0.179,0.045,0.268,0.069L319.839,88.023z"/>
	<path style="fill:#E6AF78;" d="M343.622,115.84h40.772c-0.392-0.246-0.776-0.499-1.17-0.742l0.731,0.311l-0.173-91.944
		c-35.033,0.066-63.43,28.233-63.943,63.129v1.43l0.268,0.115c-0.089-0.023-0.179-0.045-0.268-0.069v3.987
		C319.839,105.137,330.541,115.84,343.622,115.84z"/>
	<circle style="fill:#E6AF78;" cx="392.12" cy="199.698" r="16.022"/>
</g>
<path d="M392.08,176.162c-12.976,0.024-23.513,10.601-23.489,23.577c0.024,12.952,10.581,23.489,23.532,23.489
	c0.005,0,0.04,0,0.045,0c12.976-0.024,23.513-10.601,23.489-23.577C415.633,186.7,405.077,176.162,392.08,176.162z M392.14,208.207
	l-0.017,7.51v-7.51c-4.685,0-8.502-3.811-8.511-8.495c-0.009-4.695,3.802-8.52,8.512-8.529c4.685,0,8.503,3.811,8.512,8.495
	C400.646,204.372,396.833,208.198,392.14,208.207z"/>
<path d="M511.852,231.514c-0.016-8.4-3.319-16.308-9.302-22.267c-5.968-5.945-13.864-9.217-22.24-9.217c-0.021,0-0.042,0-0.062,0
	l-13.113,0.025c-14.441-34.975-40.652-65.804-75.677-88.622l-0.166-87.982c-0.008-4.144-3.369-7.496-7.51-7.496
	c-0.005,0-0.01,0-0.015,0c-19.125,0.036-37.092,7.517-50.59,21.066c-11.346,11.389-18.394,25.918-20.33,41.612
	c-18.72-4.223-37.744-6.36-56.682-6.36c-0.157,0-0.314,0-0.472,0c-59.559,0.112-115.57,20.02-157.713,56.057
	c-21.896,18.723-38.692,40.642-49.833,64.527c-0.167-0.011-0.333-0.025-0.504-0.025c-0.026,0-0.053,0-0.078,0
	c-8.669,0-16.823-3.368-22.968-9.489c-6.159-6.136-9.559-14.302-9.575-22.995c-0.013-7.111,2.224-13.867,6.469-19.539
	c2.485-3.321,1.809-8.028-1.512-10.514c-3.322-2.484-8.028-1.809-10.514,1.513C3.254,140.107-0.019,149.986,0,160.376
	c0.024,12.706,4.994,24.641,13.996,33.61c7.676,7.646,17.499,12.34,28.103,13.547c-6.523,18.198-9.895,37.337-9.858,56.928
	c0.119,63.026,36.081,121.551,96.431,157.344l0.08,42.755c0.033,17.375,14.177,31.486,31.544,31.485c0.019,0,0.04,0,0.059,0
	l16.022-0.03c8.4-0.016,16.308-3.319,22.267-9.302c5.96-5.982,9.234-13.902,9.218-22.301l-0.024-13.072
	c15.789,2.968,31.917,4.469,48.076,4.469c0.166,0,0.333-0.001,0.5-0.001c16.392-0.03,32.685-1.582,48.559-4.618l0.024,13.039
	c0.016,8.399,3.319,16.306,9.302,22.266c5.967,5.946,13.864,9.218,22.24,9.218c0.021,0,0.041,0,0.062,0l16.022-0.03
	c8.4-0.016,16.308-3.319,22.267-9.302c5.96-5.982,9.233-13.902,9.218-22.301l-0.081-42.823
	c33.437-19.995,59.446-46.88,75.901-77.989l20.587-0.039c8.4-0.016,16.308-3.319,22.267-9.302c5.96-5.982,9.234-13.902,9.218-22.301
	L511.852,231.514z M492.143,323.327c-3.128,3.14-7.267,4.874-11.654,4.882l-13.497,0.026c3.046-7.367,5.59-14.927,7.586-22.657
	c1.037-4.017-1.378-8.113-5.395-9.15c-4.015-1.036-8.112,1.377-9.15,5.395c-2.687,10.406-6.46,20.485-11.221,30.159
	c-0.187,0.319-0.353,0.652-0.492,0.999c-15.647,31.256-41.756,58.17-75.854,77.635c-3.084,1.761-4.47,5.402-3.464,8.704
	l0.084,44.788c0.008,4.387-1.71,8.533-4.838,11.672c-3.128,3.14-7.267,4.874-11.654,4.882l-16.022,0.03c-0.011,0-0.021,0-0.032,0
	c-4.375,0-8.508-1.717-11.64-4.838c-3.14-3.128-4.874-7.268-4.882-11.654l-0.042-22.276c-0.004-2.285-1.048-4.444-2.838-5.866
	c-1.789-1.422-4.129-1.949-6.356-1.44c-17.65,4.06-35.951,6.135-54.398,6.169c-18.322-0.003-36.661-1.982-54.419-5.999
	c-2.228-0.505-4.567,0.034-6.351,1.463c-1.785,1.429-2.821,3.591-2.817,5.876l0.042,22.313c0.008,4.386-1.71,8.532-4.839,11.671
	c-3.128,3.14-7.267,4.874-11.654,4.882l-16.022,0.03c-0.011,0-0.021,0-0.031,0c-9.096,0-16.506-7.392-16.523-16.492l-0.087-47.07
	c-0.005-2.698-1.456-5.186-3.802-6.518c-57.886-32.867-92.51-87.638-92.621-146.512c-0.18-97.457,93.334-176.92,208.462-177.137
	c0.147,0,0.295,0,0.444,0c18.761,0,37.618,2.237,56.148,6.641l0.019,9.777c0.008,4.143,3.369,7.495,7.51,7.495
	c0.005,0,0.01,0,0.015,0c4.148-0.008,7.504-3.377,7.496-7.526l-0.026-13.559c0.372-1.35,0.37-2.729,0.013-4.005
	c0.358-14.537,6.176-28.154,16.479-38.496c8.878-8.912,20.203-14.502,32.466-16.143l0.151,80.4
	c-1.631,3.439-0.432,7.578,2.827,9.599c35.813,22.22,62.161,53.138,75.557,88.246c0.096,0.323,0.216,0.636,0.353,0.939
	c1.82,4.861,3.397,9.8,4.711,14.808c1.052,4.013,5.161,6.416,9.171,5.358c4.013-1.052,6.411-5.158,5.358-9.17
	c-0.581-2.212-1.219-4.408-1.89-6.594l7.752-0.015c0.011,0,0.021,0,0.032,0c4.375,0,8.508,1.717,11.64,4.838
	c3.139,3.127,4.874,7.266,4.882,11.653l0.15,80.112C496.99,316.041,495.271,320.186,492.143,323.327z"/>
<path d="M256.207,248.519h-0.269c-17.29,0.001-32.475-9.563-32.496-20.467c-0.009-4.76,3.146-9.71,8.657-13.582
	c6.313-4.438,15.006-6.991,23.938-7.008c14.718,0,28.373,7.057,31.766,16.425c0.481,1.321,0.726,2.682,0.729,4.042
	c0.024,12.952,10.581,23.489,23.577,23.489c12.976-0.024,23.513-10.601,23.489-23.578c-0.013-6.804-1.207-13.534-3.549-20.001
	c-7.899-21.794-27.518-38.116-53.082-44.471c-2.124-10.809-11.683-18.995-23.137-18.995c-11.415,0.021-20.943,8.209-23.053,19.013
	c-14.917,3.88-28.371,11.501-38.341,21.801c-11.676,12.062-18.09,27.316-18.061,42.952c0.07,37.19,35.761,67.446,79.56,67.446h0.268
	c17.289,0,32.473,9.564,32.494,20.467c0.009,4.76-3.146,9.71-8.657,13.582c-6.313,4.437-15.005,6.99-23.94,7.007
	c-17.29,0-32.473-9.563-32.494-20.467c-0.024-12.953-10.581-23.49-23.577-23.49c-6.286,0.012-12.19,2.471-16.627,6.925
	c-4.436,4.452-6.873,10.367-6.862,16.652c0.029,15.636,6.501,30.866,18.221,42.885c10.008,10.261,23.491,17.832,38.423,21.656
	c2.15,10.774,11.688,18.924,23.077,18.925c0.005,0,0.041,0,0.046,0c6.286-0.012,12.19-2.47,16.627-6.924
	c3.344-3.356,5.552-7.541,6.431-12.09c14.915-3.881,28.368-11.501,38.336-21.8c11.675-12.062,18.089-27.316,18.06-42.952
	C335.694,278.774,300.005,248.519,256.207,248.519z M270.868,367.244c-3.543,0.681-6.101,3.782-6.093,7.389l0.003,1.547
	c0.004,2.274-0.877,4.412-2.482,6.023c-1.605,1.611-3.74,2.5-6.014,2.504l-0.017,7.51v-7.51c-4.685,0-8.503-3.812-8.512-8.495
	l-0.003-1.547c-0.007-3.608-2.577-6.7-6.122-7.367c-28.964-5.449-50.021-26.926-50.067-51.063c-0.004-2.274,0.877-4.413,2.482-6.024
	c1.605-1.611,3.74-2.5,6.03-2.504c4.685,0,8.503,3.812,8.512,8.496c0.037,19.552,21.352,35.46,47.515,35.46h0.118
	c12.029-0.022,23.556-3.481,32.46-9.74c9.576-6.73,15.058-16.17,15.04-25.899c-0.037-19.552-21.352-35.46-47.515-35.46h-0.268
	c-35.532,0-64.484-23.53-64.539-52.452c-0.045-24.139,20.93-45.694,49.875-51.253c3.543-0.68,6.101-3.782,6.094-7.39l-0.003-1.546
	c-0.009-4.695,3.802-8.52,8.513-8.529c4.685,0,8.502,3.811,8.511,8.495l0.003,1.644c0.006,3.616,2.59,6.715,6.148,7.371
	c22.691,4.189,40.849,18.003,47.39,36.05c1.749,4.83,2.641,9.848,2.651,14.913c0.009,4.695-3.802,8.52-8.513,8.529
	c-4.685,0-8.502-3.811-8.511-8.496c-0.006-3.108-0.556-6.188-1.631-9.141c-5.615-15.497-24.483-26.319-45.885-26.319h-0.116
	c-12.029,0.022-23.556,3.482-32.46,9.74c-9.576,6.731-15.058,16.171-15.04,25.9c0.037,19.553,21.354,35.461,47.518,35.46h0.268
	c35.531,0,64.482,23.53,64.536,52.451C320.788,340.13,299.813,361.685,270.868,367.244z"/>
<path d="M164.573,123.72c-25.371,11.52-47.688,27.974-64.536,47.582c-2.704,3.146-2.344,7.888,0.802,10.591
	c1.417,1.218,3.158,1.815,4.891,1.815c2.113,0,4.214-0.887,5.7-2.616c15.435-17.962,35.958-33.071,59.354-43.694
	c3.777-1.715,5.449-6.167,3.734-9.944C172.801,123.676,168.349,122.004,164.573,123.72z"/>
<path d="M196.751,127.461c0.675,0,1.362-0.092,2.044-0.284c5.974-1.686,12.131-3.121,18.298-4.267
	c4.078-0.758,6.77-4.678,6.012-8.755c-0.758-4.079-4.678-6.774-8.756-6.013c-6.614,1.229-13.221,2.77-19.634,4.579
	c-3.992,1.127-6.315,5.276-5.188,9.268C190.461,125.299,193.473,127.461,196.751,127.461z"/>
<g>
</g>
<g>
</g>
<g>
</g>
<g>
</g>
<g>
</g>
<g>
</g>
<g>
</g>
<g>
</g>
<g>
</g>
<g>
</g>
<g>
</g>
<g>
</g>
<g>
</g>
<g>
</g>
<g>
</g>
</svg>
