<?xml version="1.0" encoding="iso-8859-1"?>
<!-- Generator: Adobe Illustrator 19.0.0, SVG Export Plug-In . SVG Version: 6.00 Build 0)  -->
<svg version="1.1" id="Layer_1" xmlns="http://www.w3.org/2000/svg" xmlns:xlink="http://www.w3.org/1999/xlink" x="0px" y="0px"
	 viewBox="0 0 511.7 511.7" style="enable-background:new 0 0 511.7 511.7;" xml:space="preserve">
<path style="fill:#EEC173;" d="M39.653,216.201C40.059,432.496,256.49,504.188,256.49,504.188s216.162-71.504,215.753-288.8
	l-0.195-104.08c-0.033-17.71-14.418-32.04-32.128-32.007l-68.069,0.128c-50.142,0.094-93.814-30.82-116.294-71.918
	c-22.325,41.182-65.882,72.261-116.023,72.355l-68.069,0.128C53.754,80.026,39.425,94.41,39.458,112.12L39.653,216.201z"/>
<path style="fill:#F3D585;" d="M440.201,215.449c0.149,79.435-31.677,146.681-94.595,199.867
	c-35.661,30.145-72.009,47.394-89.111,54.535c-17.176-7.167-53.61-24.432-89.404-54.54
	c-63.149-53.113-95.244-120.124-95.392-199.169l-0.172-104.104l68.069-0.128c44.213-0.083,85.746-20.972,116.063-51.412
	c30.431,30.326,72.041,51.059,116.255,50.976l68.093-0.104L440.201,215.449z"/>
<path style="fill:#FBF4C8;" d="M256.024,255.849c-21.714,0.041-40.079-12.766-40.108-27.963
	c-0.029-15.197,18.289-28.072,40.002-28.113c18.056-0.034,34.427,8.951,38.925,21.366c0.782,2.15,1.178,4.371,1.182,6.597
	c0.017,8.848,7.204,16.009,16.052,15.992c8.848-0.017,16.009-7.204,15.992-16.052c-0.011-5.942-1.054-11.811-3.099-17.456
	c-7.645-21.096-28.081-36.262-53.087-40.877l-0.003-1.644c-0.017-8.848-7.204-16.009-16.052-15.992
	c-8.848,0.017-16.008,7.204-15.992,16.052l0.003,1.547c-32.046,6.154-56.021,30.103-55.967,58.64
	c0.062,33.131,32.458,60.021,72.212,59.947c21.714-0.041,40.079,12.766,40.108,27.963c0.029,15.197-18.289,28.072-40.002,28.113
	c-21.714,0.041-40.079-12.766-40.108-27.963c-0.017-8.848-7.204-16.008-16.052-15.992c-8.848,0.016-16.009,7.204-15.992,16.052
	c0.054,28.537,24.118,52.396,56.187,58.43l0.003,1.547c0.017,8.848,7.204,16.009,16.052,15.992
	c8.848-0.017,16.009-7.204,15.992-16.052l-0.003-1.547c32.046-6.154,56.021-30.103,55.967-58.64
	C328.173,282.664,295.777,255.775,256.024,255.849z"/>
<path d="M280.026,329.451c-6.313,4.437-15.006,6.991-23.94,7.008c-17.289,0-32.472-9.564-32.492-20.466
	c-0.024-12.952-10.58-23.488-23.576-23.488c-12.976,0.024-23.512,10.6-23.488,23.576c0.029,15.635,6.5,30.864,18.221,42.883
	c10.009,10.262,23.49,17.832,38.423,21.657c2.149,10.776,11.687,18.925,23.078,18.925c0.005,0,0.04,0,0.045,0
	c11.415-0.021,20.942-8.209,23.053-19.012c14.917-3.881,28.371-11.501,38.339-21.801c11.676-12.063,18.089-27.315,18.06-42.951
	c-0.07-37.189-35.759-67.443-79.557-67.443h-0.268c-17.29,0-32.472-9.564-32.493-20.467c-0.009-4.759,3.146-9.708,8.656-13.582
	c6.313-4.437,15.006-6.991,23.939-7.008c14.717,0,28.372,7.057,31.765,16.424c0.481,1.322,0.727,2.683,0.729,4.042
	c0.024,12.952,10.58,23.488,23.576,23.488c6.286-0.012,12.19-2.471,16.627-6.923c4.436-4.453,6.873-10.368,6.861-16.652
	c-0.012-6.804-1.207-13.534-3.549-20.002c-7.899-21.795-27.518-38.115-53.08-44.469c-2.124-10.809-11.683-18.995-23.137-18.995
	c-11.415,0.021-20.942,8.209-23.053,19.012c-14.917,3.881-28.371,11.501-38.339,21.801c-11.676,12.062-18.089,27.315-18.06,42.951
	c0.07,37.189,35.759,67.443,79.558,67.443h0.268c17.289,0,32.472,9.564,32.492,20.467
	C288.69,320.629,285.535,325.579,280.026,329.451z M303.702,315.842c-0.037-19.553-21.351-35.459-47.513-35.459h-0.268
	c-35.532,0-64.483-23.529-64.537-52.45c-0.045-24.138,20.929-45.692,49.873-51.252c3.543-0.681,6.1-3.782,6.093-7.389l-0.003-1.547
	c-0.009-4.694,3.802-8.52,8.512-8.529c4.684,0,8.503,3.811,8.512,8.495l0.003,1.645c0.006,3.616,2.591,6.715,6.147,7.371
	c22.69,4.188,40.848,18.002,47.389,36.048c1.749,4.831,2.642,9.848,2.651,14.914c0.004,2.273-0.876,4.411-2.481,6.022
	c-1.605,1.611-3.741,2.5-6.03,2.504c-4.684,0-8.502-3.811-8.511-8.496c-0.006-3.108-0.557-6.187-1.631-9.14
	c-5.614-15.496-24.482-26.318-45.884-26.318h-0.117c-12.027,0.022-23.555,3.482-32.459,9.739
	c-9.576,6.731-15.058,16.17-15.04,25.898c0.037,19.553,21.351,35.459,47.514,35.459h0.268c35.532,0,64.482,23.529,64.536,52.45
	c0.045,24.138-20.929,45.692-49.873,51.252c-3.543,0.681-6.1,3.782-6.093,7.389l0.003,1.547c0.009,4.694-3.802,8.52-8.496,8.529
	l-0.017,7.51v-7.51c-4.684,0-8.502-3.811-8.511-8.496l-0.003-1.547c-0.007-3.607-2.577-6.698-6.121-7.366
	c-28.965-5.449-50.02-26.925-50.065-51.062c-0.004-2.274,0.877-4.413,2.482-6.024s3.74-2.5,6.03-2.504
	c4.684,0,8.503,3.811,8.512,8.495c0.037,19.553,21.351,35.46,47.513,35.46h0.118c12.027-0.022,23.555-3.482,32.459-9.739
	C298.238,335.01,303.72,325.57,303.702,315.842z"/>
<path d="M479.559,111.294c-0.041-21.783-17.794-39.504-39.652-39.504l-68.07,0.128h-0.214
	c-43.905,0.003-86.877-26.693-109.477-68.012C260.828,1.497,258.302,0,255.557,0c-0.004,0-0.009,0-0.014,0
	c-2.751,0.005-5.278,1.513-6.589,3.931c-22.488,41.484-65.443,68.341-109.435,68.425l-68.07,0.127
	c-21.823,0.042-39.544,17.83-39.503,39.652l0.195,104.08c0.095,50.607,11.863,97.657,34.977,139.842
	c18.458,33.69,44.132,64.316,76.308,91.026c54.621,45.343,108.437,63.483,110.701,64.234c0.767,0.254,1.564,0.382,2.361,0.382
	c0.796,0,1.593-0.127,2.358-0.381c2.262-0.748,56.023-18.846,110.482-64.277c32.08-26.762,57.642-57.471,75.976-91.276
	c22.953-42.323,34.543-89.558,34.447-140.391L479.559,111.294z M360.107,435.175c-46.029,38.514-92.736,57.04-103.62,61.043
	c-10.854-3.984-57.307-22.373-103.466-60.692C82.944,377.351,47.327,303.555,47.163,216.188l-0.195-104.081
	c-0.025-13.541,10.971-24.578,24.512-24.604l68.07-0.127c25.33-0.048,50.404-7.648,72.513-21.978
	c17.278-11.199,32.143-26.028,43.522-43.324c11.425,17.223,26.31,31.974,43.589,43.1c22.113,14.241,47.166,21.767,72.451,21.765
	l68.358-0.128c13.514,0,24.531,10.995,24.556,24.512l0.195,104.08C464.898,303.004,429.697,376.947,360.107,435.175z"/>
<path d="M440.186,199.927c-0.005,0-0.01,0-0.015,0c-4.148,0.008-7.504,3.377-7.496,7.524l0.015,8.011
	c0.145,77.117-30.786,142.428-91.934,194.118c-32.682,27.628-65.785,44.154-84.263,52.113c-18.53-7.972-51.741-24.518-84.569-52.131
	c-61.378-51.622-92.573-116.703-92.717-193.434l-0.16-96.595l60.562-0.113c41.05-0.077,82.966-17.668,116.068-48.496
	c33.144,30.636,75.014,48.059,115.976,48.059c0.089,0,0.181,0,0.271,0l60.585-0.093l0.016,8.454c0.008,4.144,3.369,7.496,7.51,7.496
	c0.005,0,0.01,0,0.015,0c4.148-0.008,7.504-3.377,7.496-7.524l-0.03-15.962c-0.008-4.144-3.369-7.496-7.51-7.496
	c-0.004,0-0.008,0-0.012,0l-68.095,0.104c-0.082,0-0.163,0-0.244,0c-39.242,0-79.575-17.772-110.693-48.785
	c-0.001-0.001-0.002-0.002-0.002-0.003c-1.58-1.572-3.687-2.302-5.746-2.176c-0.005,0.002-0.011,0.001-0.016,0.001
	c-0.005,0.001-0.012-0.003-0.017,0.002c-1.434,0.091-2.846,0.591-4.048,1.5c0,0.001-0.001,0.001-0.001,0.001
	c-0.006,0.005-0.012,0.009-0.018,0.014c0,0.001-0.001,0.001-0.002,0.002c-0.005,0.004-0.011,0.008-0.017,0.013
	c-0.001,0.001-0.002,0.002-0.004,0.003c-0.005,0.003-0.01,0.007-0.015,0.011c-0.002,0.002-0.004,0.003-0.006,0.005
	c-0.004,0.003-0.008,0.007-0.013,0.01c-0.002,0.002-0.005,0.004-0.008,0.006c-0.003,0.003-0.007,0.006-0.011,0.009
	c-0.003,0.002-0.006,0.004-0.009,0.007s-0.006,0.005-0.01,0.008c-0.004,0.003-0.007,0.005-0.01,0.008
	c-0.003,0.002-0.005,0.004-0.008,0.007c-0.004,0.003-0.007,0.006-0.011,0.009c-0.002,0.002-0.005,0.004-0.007,0.006
	c-0.004,0.003-0.008,0.006-0.013,0.01c-0.002,0.002-0.004,0.003-0.006,0.005c-0.004,0.003-0.009,0.007-0.013,0.011
	c-0.001,0.001-0.003,0.003-0.005,0.004c-0.005,0.004-0.01,0.008-0.015,0.013c-0.001,0-0.002,0.001-0.003,0.002
	c-0.005,0.005-0.011,0.009-0.016,0.013c-0.001,0.001-0.002,0.002-0.003,0.003c-0.006,0.004-0.012,0.009-0.018,0.014v0.001
	c-0.006,0.005-0.012,0.01-0.018,0.015l0,0c-0.184,0.153-0.363,0.316-0.536,0.49c-31.067,31.195-71.437,49.128-110.755,49.202
	l-68.07,0.127c-4.147,0.008-7.503,3.376-7.496,7.523l0.172,104.105c0.153,81.359,33.148,150.297,98.069,204.899
	c36.147,30.405,72.747,47.964,91.347,55.724c0.925,0.387,1.909,0.579,2.892,0.579c0.984,0,1.968-0.193,2.894-0.58
	c18.555-7.749,55.059-25.293,91.065-55.73c64.689-54.683,97.411-123.862,97.258-205.617l-0.015-8.011
	C447.688,203.28,444.326,199.927,440.186,199.927z"/>
<path d="M440.094,151.862c-0.004,0-0.01,0-0.014,0c-4.148,0.008-7.504,3.377-7.496,7.524l0.03,16.06
	c0.008,4.144,3.369,7.496,7.51,7.496c0.004,0,0.01,0,0.014,0c4.148-0.008,7.504-3.377,7.496-7.524l-0.03-16.06
	C447.598,155.214,444.237,151.862,440.094,151.862z"/>
<g>
</g>
<g>
</g>
<g>
</g>
<g>
</g>
<g>
</g>
<g>
</g>
<g>
</g>
<g>
</g>
<g>
</g>
<g>
</g>
<g>
</g>
<g>
</g>
<g>
</g>
<g>
</g>
<g>
</g>
</svg>
