<?xml version="1.0" encoding="iso-8859-1"?>
<!-- Generator: Adobe Illustrator 19.0.0, SVG Export Plug-In . SVG Version: 6.00 Build 0)  -->
<svg version="1.1" id="Layer_1" xmlns="http://www.w3.org/2000/svg" xmlns:xlink="http://www.w3.org/1999/xlink" x="0px" y="0px"
	 viewBox="0 0 511.999 511.999" style="enable-background:new 0 0 511.999 511.999;" xml:space="preserve">
<path style="fill:#C7CFE2;" d="M311.065,118.359h138.22c4.422,0,8.007,3.585,8.007,8.007v375.624H311.065V118.359z"/>
<g>
	<rect x="311.068" y="445.003" style="fill:#AFB9D2;" width="146.226" height="56.984"/>
	<path style="fill:#AFB9D2;" d="M311.606,501.991H54.344V16.176c0-4.422,3.585-8.007,8.007-8.007h241.247
		c4.422,0,8.007,3.585,8.007,8.007V501.991z"/>
</g>
<rect x="54.34" y="434.683" style="fill:#9FA7BF;" width="257.259" height="67.302"/>
<path style="fill:#8F96AC;" d="M311.606,34.16H54.344V16.176c0-4.422,3.585-8.007,8.007-8.007h241.247
	c4.422,0,8.007,3.585,8.007,8.007V34.16z"/>
<path d="M480.208,496.144c-0.005,0-0.01,0-0.015,0l-16.515,0.031l-0.091-48.54c0-0.002,0-0.004,0-0.005s0-0.003,0-0.005
	l-0.06-32.018c0-0.002,0-0.005,0-0.007s0-0.005,0-0.007l-0.12-64.051l0,0l0,0l-0.06-32.028v-0.002c0-0.001,0-0.001,0-0.001
	l-0.06-32.025c0-0.001,0-0.002,0-0.004s0-0.002,0-0.004l-0.06-32.021c0-0.002,0-0.004,0-0.005s0-0.003,0-0.005l-0.06-32.018
	c0-0.002,0-0.005,0-0.007s0-0.005,0-0.007l-0.12-64.052l0,0l0,0l-0.075-40.037c-0.004-1.991-0.798-3.899-2.209-5.304
	c-1.407-1.401-3.313-2.189-5.298-2.189c-0.005,0-0.01,0-0.014,0l-48.545,0.091l-0.061-32.53c-0.008-4.142-3.367-7.493-7.507-7.493
	c-0.005,0-0.01,0-0.015,0c-4.146,0.008-7.501,3.375-7.493,7.521l0.061,32.53l-17.016,0.032l-0.136-72.567
	c-0.008-4.142-3.367-7.493-7.507-7.493c-0.005,0-0.01,0-0.015,0c-4.146,0.008-7.501,3.375-7.493,7.521l0.136,72.567l-16.515,0.031
	c-4.146,0.008-7.501,3.375-7.493,7.521c0.008,4.141,3.367,7.493,7.507,7.493c0.005,0,0.01,0,0.015,0l104.597-0.197l0.047,25.023
	L343.42,152.08c-4.146,0.008-7.501,3.375-7.493,7.521c0.008,4.141,3.367,7.493,7.507,7.493c0.005,0,0.01,0,0.015,0l104.597-0.196
	l0.032,17.016l-104.597,0.196c-4.146,0.008-7.501,3.375-7.493,7.521c0.008,4.141,3.367,7.493,7.507,7.493c0.005,0,0.01,0,0.015,0
	l104.597-0.196l0.032,17.016l-104.597,0.196c-4.146,0.008-7.501,3.375-7.493,7.521c0.008,4.141,3.367,7.493,7.507,7.493
	c0.005,0,0.01,0,0.015,0l104.597-0.196l0.032,17.016l-104.597,0.196c-4.146,0.008-7.501,3.375-7.493,7.521
	c0.008,4.141,3.367,7.493,7.507,7.493c0.005,0,0.01,0,0.015,0l104.597-0.196l0.032,17.016l-104.597,0.196
	c-4.146,0.008-7.501,3.375-7.493,7.521c0.008,4.141,3.367,7.493,7.507,7.493c0.005,0,0.01,0,0.015,0l104.597-0.196l0.032,17.016
	l-104.597,0.196c-4.146,0.008-7.501,3.375-7.493,7.521c0.008,4.141,3.367,7.493,7.507,7.493c0.005,0,0.01,0,0.015,0l104.597-0.196
	l0.032,17.016l-104.597,0.196c-4.146,0.008-7.501,3.375-7.493,7.521c0.008,4.141,3.367,7.493,7.507,7.493c0.005,0,0.01,0,0.015,0
	l104.597-0.196l0.032,17.016l-104.597,0.197c-4.146,0.008-7.501,3.375-7.493,7.521c0.008,4.141,3.367,7.493,7.507,7.493
	c0.005,0,0.01,0,0.015,0l104.597-0.197l0.032,17.016l-104.597,0.196c-4.146,0.008-7.501,3.375-7.493,7.521
	c0.008,4.142,3.367,7.493,7.507,7.493c0.005,0,0.01,0,0.015,0l104.597-0.196l0.032,17.016l-104.597,0.196
	c-4.146,0.008-7.501,3.375-7.493,7.521c0.008,4.142,3.367,7.493,7.507,7.493c0.005,0,0.01,0,0.015,0l104.597-0.196l0.077,41.038
	l-129.12,0.242l-0.121-64.559v-0.001v-0.001L318.626,7.493c-0.004-1.991-0.798-3.899-2.209-5.304C315.01,0.787,313.105,0,311.119,0
	c-0.004,0-0.009,0-0.014,0L54.867,0.481c-4.146,0.008-7.501,3.375-7.493,7.521l0.06,32.028v0.001v0.001l0.859,456.922l-16.515,0.031
	c-4.146,0.008-7.501,3.375-7.493,7.521c0.008,4.142,3.367,7.493,7.507,7.493c0.005,0,0.01,0,0.015,0l24.005-0.045
	c0.001,0,0.002,0,0.003,0c0.004,0,0.01,0,0.014,0c0.001,0,0.002,0,0.003,0l32.008-0.06c0.001,0,0.003,0,0.004,0
	c0.005,0,0.01,0,0.015,0c0.002,0,0.003,0,0.005,0l128.099-0.24l0,0c0.005,0,0.01,0,0.015,0l0,0l32.013-0.06h0.001
	c0.005,0,0.01,0,0.015,0c0.001,0,0.001,0,0.001,0l32.011-0.06c0.001,0,0.002,0,0.003,0c0.005,0,0.01,0,0.015,0
	c0.001,0,0.002,0,0.003,0l200.182-0.376c4.146-0.008,7.501-3.375,7.493-7.521C487.706,499.495,484.347,496.144,480.208,496.144z
	 M62.462,47.511l241.224-0.453l0.709,377.35l-241.224,0.453L62.462,47.511z M303.626,15.028l0.032,17.016L62.434,32.497
	l-0.032-17.016L303.626,15.028z M63.2,439.874l241.223-0.453l0.107,57.053l-17.016,0.032l-0.061-32.53
	c-0.008-4.142-3.367-7.493-7.507-7.493c-0.005,0-0.01,0-0.015,0c-4.146,0.008-7.501,3.375-7.493,7.521l0.061,32.53l-17.016,0.032
	l-0.061-32.53c-0.008-4.142-3.367-7.493-7.507-7.493c-0.005,0-0.01,0-0.015,0c-4.146,0.008-7.501,3.375-7.493,7.521l0.061,32.53
	l-17.016,0.032l-0.061-32.53c-0.008-4.142-3.367-7.493-7.507-7.493c-0.005,0-0.01,0-0.015,0c-4.146,0.008-7.501,3.375-7.493,7.521
	l0.061,32.53l-17.016,0.032l-0.061-32.53c-0.008-4.142-3.367-7.493-7.507-7.493c-0.005,0-0.01,0-0.015,0
	c-4.146,0.008-7.501,3.375-7.493,7.521l0.061,32.53l-17.016,0.032l-0.061-32.53c-0.008-4.142-3.367-7.493-7.507-7.493
	c-0.005,0-0.01,0-0.015,0c-4.146,0.008-7.501,3.375-7.493,7.521l0.061,32.53l-17.016,0.032l-0.061-32.53
	c-0.008-4.142-3.367-7.493-7.507-7.493c-0.005,0-0.01,0-0.015,0c-4.146,0.008-7.501,3.375-7.493,7.521l0.061,32.53l-17.016,0.032
	l-0.061-32.53c-0.008-4.142-3.367-7.493-7.507-7.493c-0.005,0-0.01,0-0.015,0c-4.146,0.008-7.501,3.375-7.493,7.521l0.061,32.53
	l-17.016,0.032L63.2,439.874z"/>
<path d="M151.092,64.361c-0.005,0-0.01,0-0.015,0c-4.146,0.008-7.501,3.375-7.493,7.521l0.617,328.305
	c0.008,4.142,3.367,7.493,7.507,7.493c0.005,0,0.01,0,0.015,0c4.146-0.008,7.501-3.375,7.493-7.521l-0.617-328.305
	C158.59,67.712,155.231,64.361,151.092,64.361z"/>
<path d="M183.12,64.301c-0.005,0-0.01,0-0.015,0c-4.146,0.008-7.501,3.375-7.493,7.521l0.618,328.304
	c0.008,4.141,3.367,7.493,7.507,7.493c0.005,0,0.01,0,0.015,0c4.146-0.008,7.501-3.375,7.493-7.521l-0.618-328.304
	C190.619,67.652,187.259,64.301,183.12,64.301z"/>
<path d="M119.062,64.421c-0.005,0-0.01,0-0.015,0c-4.146,0.008-7.501,3.375-7.493,7.521l0.617,328.305
	c0.008,4.141,3.367,7.493,7.507,7.493c0.005,0,0.01,0,0.015,0c4.146-0.008,7.501-3.375,7.493-7.521l-0.617-328.305
	C126.56,67.772,123.201,64.421,119.062,64.421z"/>
<path d="M87.032,64.481c-0.005,0-0.01,0-0.015,0c-4.146,0.008-7.501,3.375-7.493,7.521l0.617,328.305
	c0.008,4.142,3.367,7.493,7.507,7.493c0.005,0,0.01,0,0.015,0c4.146-0.008,7.501-3.375,7.493-7.521L94.539,71.974
	C94.53,67.833,91.171,64.481,87.032,64.481z"/>
<path d="M286.716,71.612c-0.008-4.142-3.367-7.493-7.507-7.493c-0.005,0-0.01,0-0.015,0c-4.146,0.008-7.501,3.375-7.493,7.521
	l0.618,328.305c0.008,4.141,3.367,7.493,7.507,7.493c0.005,0,0.01,0,0.015,0c4.146-0.008,7.501-3.375,7.493-7.521L286.716,71.612z"
	/>
<path d="M247.18,64.18c-0.005,0-0.01,0-0.015,0c-4.146,0.008-7.501,3.375-7.493,7.521l0.618,328.305
	c0.008,4.142,3.367,7.493,7.507,7.493c0.004,0,0.01,0,0.014,0c4.146-0.008,7.501-3.375,7.493-7.521l-0.618-328.305
	C254.679,67.532,251.319,64.18,247.18,64.18z"/>
<path d="M215.15,64.24c-0.005,0-0.01,0-0.015,0c-4.146,0.008-7.501,3.375-7.493,7.521l0.618,328.305
	c0.008,4.141,3.367,7.493,7.507,7.493c0.005,0,0.01,0,0.015,0c4.146-0.008,7.501-3.375,7.493-7.521l-0.618-328.305
	C222.649,67.591,219.29,64.24,215.15,64.24z"/>
<g>
</g>
<g>
</g>
<g>
</g>
<g>
</g>
<g>
</g>
<g>
</g>
<g>
</g>
<g>
</g>
<g>
</g>
<g>
</g>
<g>
</g>
<g>
</g>
<g>
</g>
<g>
</g>
<g>
</g>
</svg>
