<?xml version="1.0" encoding="iso-8859-1"?>
<!-- Generator: Adobe Illustrator 19.0.0, SVG Export Plug-In . SVG Version: 6.00 Build 0)  -->
<svg version="1.1" id="Layer_1" xmlns="http://www.w3.org/2000/svg" xmlns:xlink="http://www.w3.org/1999/xlink" x="0px" y="0px"
	 viewBox="0 0 512 512" style="enable-background:new 0 0 512 512;" xml:space="preserve">
<path style="fill:#00D2FF;" d="M504.476,487.573c0.017,8.809-7.177,16.029-15.986,16.046l-464.471,0.873
	c-8.809,0.017-16.03-7.177-16.046-15.986L7.522,248.262c-0.017-8.809,7.177-16.03,15.986-16.046l464.471-0.873
	c8.809-0.017,16.029,7.177,16.046,15.986L504.476,487.573z"/>
<g>
	<path style="fill:#18BDF6;" d="M31.501,225.517c-0.017-8.846,7.14-16.029,15.986-16.046s16.029,7.14,16.046,15.986"/>
	<path style="fill:#18BDF6;" d="M479.955,224.674c-0.017-8.846-7.201-16.003-16.046-15.986c-8.846,0.017-16.003,7.2-15.986,16.046"
		/>
</g>
<path style="fill:#AFB9D2;" d="M256.994,87.631l-3.043,0.006c-8.228,0.015-15.129-6.206-15.964-14.393l-6.689-65.647l48.049-0.09
	l-6.443,65.671C272.1,81.368,265.222,87.616,256.994,87.631z"/>
<path style="fill:#18BDF6;" d="M7.957,479.963l0.016,8.544c0.016,8.809,7.237,16.002,16.046,15.986l464.471-0.873
	c8.809-0.017,16.003-7.237,15.986-16.046l-0.014-7.611H7.957z"/>
<path d="M511.533,247.315c-0.024-12.947-10.578-23.48-23.568-23.48l-0.526,0.001c0.011-0.166,0.025-0.331,0.024-0.499
	c-0.012-6.283-2.47-12.187-6.922-16.621c-4.442-4.424-10.335-6.859-16.601-6.859c-0.015,0-0.03,0-0.045,0
	c-6.283,0.012-12.185,2.469-16.621,6.921c-0.335,0.336-0.655,0.684-0.967,1.036l-159.604-67.171
	c0.258-1.646,0.395-3.321,0.391-5.019c-0.028-14.8-10.302-27.225-24.082-30.576l-0.02-10.702
	c9.313-2.444,16.401-10.414,17.383-20.434l6.443-65.671c0.207-2.111-0.489-4.211-1.915-5.781C283.48,0.893,281.462,0,279.346,0
	c-0.005,0-0.01,0-0.014,0l-48.049,0.091c-2.121,0.004-4.141,0.905-5.562,2.481c-1.42,1.576-2.108,3.679-1.893,5.789l6.69,65.646
	c1.02,10.008,8.139,17.953,17.46,20.366l0.032,17.301c0.008,4.142,3.367,7.494,7.508,7.494c0.005,0,0.01,0,0.015,0
	c0.01,0,0.021,0,0.031,0c8.692,0,15.826,6.756,16.455,15.296l-13.542-5.699c-3.823-1.606-8.224,0.186-9.832,4.008
	c-1.609,3.821,0.186,8.223,4.007,9.832l13.552,5.704c-2.966,2.509-6.679,3.886-10.609,3.893c-0.011,0-0.021,0-0.033,0
	c-4.399,0-8.538-1.71-11.656-4.816c-3.125-3.113-4.851-7.258-4.859-11.67c-0.008-4.142-3.367-7.494-7.508-7.494
	c-0.005,0-0.01,0-0.015,0c-4.146,0.008-7.502,3.375-7.494,7.522c0.003,1.699,0.146,3.374,0.411,5.019L65.091,208.532
	c-0.313-0.351-0.635-0.698-0.971-1.033c-4.441-4.424-10.334-6.86-16.601-6.86c-0.015,0-0.03,0-0.045,0
	c-6.283,0.012-12.186,2.471-16.621,6.922c-4.436,4.451-6.871,10.364-6.859,16.646c0,0.169,0.015,0.334,0.026,0.502l-0.525,0.001
	c-6.266,0.011-12.164,2.475-16.608,6.934c-4.444,4.461-6.884,10.368-6.873,16.633l0.451,240.245C0.491,501.467,11.043,512,23.99,512
	c0.004,0,0.04,0,0.044,0l464.472-0.873c6.265-0.012,12.163-2.476,16.607-6.936c4.444-4.46,6.884-10.367,6.872-16.632
	L511.533,247.315z M245.456,72.483l-5.849-57.392l31.457-0.06l-5.633,57.414c-0.428,4.369-4.062,7.67-8.453,7.678l-3.043,0.006
	v0.155c-0.005,0.001-0.011,0.003-0.016,0.004v-0.159C249.538,80.129,245.9,76.842,245.456,72.483z M457.911,217.376
	c1.605-1.61,3.739-2.5,6.012-2.504c0.005,0,0.011,0,0.017,0c2.266,0,4.398,0.881,6.005,2.482c1.61,1.604,2.5,3.739,2.504,6.011
	c0,0.169,0.015,0.334,0.026,0.501l-17.067,0.032c0.011-0.166,0.025-0.331,0.024-0.501
	C455.427,221.124,456.307,218.986,457.911,217.376z M230.316,154.578c0.907,1.207,1.904,2.357,2.992,3.442
	c5.952,5.931,13.852,9.194,22.252,9.194c0.021,0,0.042,0,0.062,0c8.423-0.016,16.335-3.31,22.28-9.277
	c1.084-1.088,2.077-2.244,2.98-3.454l159.604,67.171c-0.042,0.586-0.07,1.175-0.069,1.769c0,0.169,0.015,0.334,0.026,0.501
	l-369.425,0.695c0.011-0.166,0.025-0.331,0.024-0.501c-0.001-0.595-0.031-1.184-0.076-1.772L230.316,154.578z M39.009,224.18
	c-0.004-2.273,0.877-4.411,2.482-6.022s3.739-2.5,6.012-2.504c0.005,0,0.011,0,0.017,0c2.266,0,4.398,0.881,6.004,2.482
	c1.61,1.605,2.5,3.739,2.504,6.012c0,0.169,0.015,0.334,0.026,0.501l-17.068,0.032C38.995,224.514,39.009,224.349,39.009,224.18z
	 M488.476,496.112l-464.472,0.873l-0.016,7.508v-7.508c-4.683,0-8.5-3.81-8.509-8.492l-0.451-240.244
	c-0.004-2.255,0.882-4.389,2.495-6.008s3.743-2.513,5.998-2.517l464.486-0.874c4.684,0,8.501,3.811,8.51,8.493l0.451,240.243
	C496.978,492.279,493.168,496.104,488.476,496.112z"/>
<path d="M255.834,272.322c-0.005,0-0.01,0-0.015,0c-4.146,0.008-7.502,3.375-7.494,7.522l0.331,176.179
	c0.008,4.142,3.367,7.494,7.508,7.494c0.005,0,0.01,0,0.015,0c4.146-0.008,7.502-3.375,7.494-7.522l-0.331-176.179
	C263.333,275.674,259.973,272.322,255.834,272.322z"/>
<path d="M215.793,272.397c-0.005,0-0.01,0-0.015,0c-4.146,0.008-7.502,3.375-7.494,7.522l0.331,176.179
	c0.008,4.142,3.367,7.494,7.508,7.494c0.005,0,0.01,0,0.015,0c4.146-0.008,7.502-3.375,7.494-7.522l-0.331-176.179
	C223.293,275.749,219.932,272.397,215.793,272.397z"/>
<path d="M175.753,272.472c-0.005,0-0.01,0-0.015,0c-4.146,0.008-7.502,3.375-7.494,7.522l0.331,176.179
	c0.008,4.142,3.367,7.494,7.508,7.494c0.005,0,0.01,0,0.015,0c4.146-0.008,7.502-3.375,7.494-7.522l-0.331-176.179
	C183.252,275.824,179.892,272.472,175.753,272.472z"/>
<path d="M135.713,272.548c-0.005,0-0.01,0-0.015,0c-4.146,0.008-7.502,3.375-7.494,7.522l0.331,176.179
	c0.008,4.142,3.367,7.494,7.508,7.494c0.004,0,0.01,0,0.014,0c4.146-0.008,7.502-3.375,7.494-7.522l-0.331-176.179
	C143.211,275.899,139.852,272.548,135.713,272.548z"/>
<path d="M415.997,272.02c-0.004,0-0.01,0-0.014,0c-4.146,0.008-7.502,3.375-7.494,7.522l0.331,176.179
	c0.008,4.142,3.367,7.494,7.508,7.494c0.005,0,0.01,0,0.015,0c4.146-0.008,7.502-3.375,7.494-7.522l-0.331-176.179
	C423.496,275.373,420.137,272.02,415.997,272.02z"/>
<path d="M456.037,271.945c-0.005,0-0.01,0-0.015,0c-4.146,0.008-7.502,3.375-7.494,7.522l0.331,176.179
	c0.008,4.142,3.367,7.494,7.508,7.494c0.005,0,0.01,0,0.015,0c4.146-0.008,7.502-3.375,7.494-7.522l-0.331-176.179
	C463.536,275.298,460.176,271.945,456.037,271.945z"/>
<path d="M95.672,272.623c-0.005,0-0.01,0-0.015,0c-4.146,0.008-7.502,3.375-7.494,7.522l0.331,176.179
	c0.008,4.142,3.367,7.494,7.508,7.494c0.004,0,0.01,0,0.014,0c4.146-0.008,7.502-3.375,7.494-7.522l-0.331-176.179
	C103.171,275.974,99.811,272.623,95.672,272.623z"/>
<path d="M55.632,272.698c-0.005,0-0.01,0-0.015,0c-4.146,0.008-7.502,3.375-7.494,7.522l0.331,176.179
	c0.008,4.142,3.367,7.494,7.508,7.494c0.004,0,0.01,0,0.014,0c4.146-0.008,7.502-3.375,7.494-7.522l-0.331-176.179
	C63.13,276.05,59.771,272.698,55.632,272.698z"/>
<path d="M375.956,272.095c-0.004,0-0.01,0-0.014,0c-4.146,0.008-7.502,3.375-7.494,7.522l0.331,176.179
	c0.008,4.142,3.367,7.494,7.508,7.494c0.005,0,0.01,0,0.015,0c4.146-0.008,7.502-3.375,7.494-7.522l-0.331-176.179
	C383.455,275.448,380.096,272.095,375.956,272.095z"/>
<path d="M335.915,272.171c-0.004,0-0.01,0-0.014,0c-4.146,0.008-7.502,3.375-7.494,7.522l0.331,176.179
	c0.008,4.142,3.367,7.494,7.508,7.494c0.005,0,0.01,0,0.015,0c4.146-0.008,7.502-3.375,7.494-7.522l-0.331-176.179
	C343.415,275.523,340.055,272.171,335.915,272.171z"/>
<path d="M295.875,272.246c-0.005,0-0.01,0-0.015,0c-4.146,0.008-7.502,3.375-7.494,7.522l0.331,176.179
	c0.008,4.142,3.367,7.494,7.508,7.494c0.005,0,0.01,0,0.015,0c4.146-0.008,7.502-3.375,7.494-7.522l-0.331-176.179
	C303.374,275.598,300.014,272.246,295.875,272.246z"/>
<g>
</g>
<g>
</g>
<g>
</g>
<g>
</g>
<g>
</g>
<g>
</g>
<g>
</g>
<g>
</g>
<g>
</g>
<g>
</g>
<g>
</g>
<g>
</g>
<g>
</g>
<g>
</g>
<g>
</g>
</svg>
