<?xml version="1.0" encoding="iso-8859-1"?>
<!-- Generator: Adobe Illustrator 19.0.0, SVG Export Plug-In . SVG Version: 6.00 Build 0)  -->
<svg version="1.1" id="Layer_1" xmlns="http://www.w3.org/2000/svg" xmlns:xlink="http://www.w3.org/1999/xlink" x="0px" y="0px"
	 viewBox="0 0 512 512" style="enable-background:new 0 0 512 512;" xml:space="preserve">
<path style="fill:#EFF2FA;" d="M424.015,103.332l-8.009,0.015c-14.426,0.027-28.006,3.605-40.025,9.801l-0.078-41.76
	c-0.017-8.847-7.202-16.004-16.047-15.987l-336.36,0.633c-8.847,0.016-16.004,7.201-15.987,16.047l0.693,368.395
	c0.033,17.692,14.402,32.007,32.094,31.974l304.326-0.572c17.692-0.033,32.007-14.402,31.974-32.094l-0.108-57.777
	c12.042,6.15,25.637,9.677,40.061,9.65l8.009-0.015c44.16-0.083,80.018-36.08,79.935-80.236l-0.241-128.138
	C504.169,139.111,468.175,103.249,424.015,103.332z M472.458,311.465c0.05,26.497-21.464,48.092-47.962,48.142l-8.009,0.015
	c-15.681,0.029-29.871-6.433-40.075-16.828l-0.358-190.435c10.165-10.432,24.331-16.948,40.011-16.978l8.009-0.015
	c26.497-0.05,48.092,21.464,48.142,47.962L472.458,311.465z"/>
<g>
	<path style="fill:#E3E8F3;" d="M8.2,440.475c0.033,17.692,14.402,32.007,32.094,31.973l304.326-0.572
		c17.618-0.033,31.882-14.284,31.969-31.873L8.2,440.455V440.475z"/>
	<path style="fill:#E3E8F3;" d="M504.252,183.267c-0.083-44.156-36.076-80.018-80.236-79.935l-8.009,0.015
		c-14.035,0.026-27.267,3.422-39.042,9.312v38.812c10.093-9.906,23.879-16.06,39.102-16.089l8.009-0.015
		c26.497-0.05,48.092,21.464,48.142,47.962l0.241,128.138c0.05,26.497-21.464,48.093-47.962,48.142l-8.009,0.015
		c-15.405,0.029-29.363-6.218-39.523-16.293v38.912c11.924,6.001,25.348,9.442,39.585,9.415l8.009-0.015
		c44.16-0.083,80.018-36.08,79.935-80.236L504.252,183.267z"/>
</g>
<path style="fill:#EFF2FA;" d="M376.413,342.794l-0.358-190.435c0.295-0.303,0.607-0.593,0.909-0.889v-38.812
	c-0.327,0.163-0.658,0.321-0.982,0.489l-0.078-41.76c-0.017-8.846-7.202-16.003-16.047-15.987L23.495,56.033
	c-8.847,0.016-16.004,7.201-15.987,16.047l0.693,368.375l368.39-0.451c0-0.074,0.005-0.146,0.005-0.221l-0.109-57.777
	c0.158,0.081,0.318,0.155,0.478,0.235v-38.912C376.782,343.149,376.593,342.977,376.413,342.794z"/>
<path style="fill:#D7DEED;" d="M166.738,440.475v-0.021l209.846-0.257c0.001-0.065,0.005-0.129,0.006-0.194L8.2,440.455v0.021
	c0.033,17.692,14.402,32.007,32.094,31.973l154.219-0.29C178.861,470.079,166.769,456.702,166.738,440.475z"/>
<g>
	<path style="fill:#E3E8F3;" d="M376.585,440.198l-209.846,0.257v0.021c0.031,16.226,12.123,29.604,27.776,31.684l150.107-0.282
		C362.174,471.844,376.394,457.698,376.585,440.198z"/>
	<path style="fill:#E3E8F3;" d="M124.282,417.002l-0.649-344.922c-0.017-8.846,7.141-16.03,15.987-16.047l222.763-0.418
		c-0.825-0.129-1.665-0.215-2.527-0.213L23.495,56.033c-8.847,0.016-16.004,7.201-15.987,16.047l0.693,368.375l137.012-0.167
		C133.462,439.024,124.304,429.09,124.282,417.002z"/>
</g>
<path style="fill:#EFF2FA;" d="M376.596,439.783l-0.109-57.777c0.158,0.081,0.318,0.155,0.478,0.235v-38.912
	c-0.182-0.18-0.371-0.352-0.551-0.535l-0.358-190.435c0.295-0.303,0.607-0.593,0.909-0.889v-38.812
	c-0.327,0.163-0.658,0.321-0.982,0.489l-0.078-41.76c-0.015-7.985-5.875-14.574-13.521-15.773L139.62,56.033
	c-8.846,0.017-16.003,7.201-15.987,16.047l0.649,344.922c0.022,12.088,9.182,22.022,20.931,23.285l231.378-0.283
	C376.591,439.93,376.596,439.857,376.596,439.783z"/>
<path style="fill:#FFD782;" d="M304.292,319.79l-64.069,0.12c-4.423,0.008-8.016-3.571-8.024-7.994l-0.144-76.768
	c-0.004-2.124,0.836-4.162,2.335-5.667l37.626-37.769l37.769,37.626c1.505,1.499,2.353,3.535,2.357,5.658l0.144,76.768
	C312.295,316.189,308.716,319.782,304.292,319.79z"/>
<path d="M424.167,127.858c-0.004,0-0.101,0-0.105,0l-8.009,0.015c-17.198,0.032-33.313,6.867-45.375,19.247
	c-1.369,1.406-2.134,3.292-2.13,5.254l0.357,190.435c0.004,1.963,0.776,3.846,2.15,5.246c12.076,12.301,28.173,19.076,45.326,19.076
	l8.13-0.016c30.636-0.058,55.513-25.028,55.456-55.664l-0.241-128.138C479.667,152.734,454.744,127.858,424.167,127.858z
	 M424.482,352.098l-8.101,0.016c-12.1,0-23.518-4.425-32.466-12.52l-0.346-184.062c8.943-8.153,20.376-12.62,32.511-12.643
	l8.009-0.015l0.078-7.508v7.508c22.313,0,40.501,18.154,40.543,40.466l0.241,128.138
	C464.992,333.835,446.838,352.056,424.482,352.098z"/>
<path d="M511.76,183.254c-0.091-48.209-39.384-87.43-87.592-87.43l-8.176,0.015c-11.211,0.021-22.106,1.974-32.524,5.818
	l-0.057-30.283c-0.024-12.948-10.577-23.481-23.569-23.481l-80.587,0.151l-0.016-8.508c-0.008-4.142-3.368-7.494-7.508-7.494
	c-0.005,0-0.01,0-0.015,0c-4.146,0.008-7.502,3.376-7.494,7.522l0.016,8.509L23.479,48.526C10.509,48.549-0.024,59.123,0,72.095
	l0.692,368.395c0.041,21.762,17.779,39.468,39.541,39.468c0.005,0,0.071,0,0.076,0l304.327-0.572
	c10.562-0.02,20.484-4.151,27.939-11.633c7.454-7.483,11.549-17.42,11.529-27.982l-0.087-46.301
	c10.376,3.783,21.22,5.695,32.37,5.695l8.184-0.016c48.299-0.091,87.52-39.459,87.429-87.758L511.76,183.254z M424.542,384.133
	l-8.155,0.016c-12.742,0-25.017-2.971-36.485-8.828c-2.331-1.189-5.111-1.08-7.341,0.286c-2.23,1.368-3.587,3.798-3.583,6.414
	l0.094,50.269l-24.526,0.045c-4.146,0.008-7.502,3.376-7.494,7.522c0.008,4.142,3.368,7.494,7.508,7.494c0.005,0,0.01,0,0.015,0
	l23.355-0.043c-1.168,3.671-3.196,7.038-5.993,9.846c-4.624,4.641-10.779,7.203-17.33,7.216L40.28,464.941l-0.047,7.508v-7.508
	c-10.88,0-20.134-7.137-23.329-16.974l247.585-0.465c4.146-0.008,7.502-3.376,7.494-7.522c-0.008-4.142-3.368-7.494-7.508-7.494
	c-0.005,0-0.01,0-0.015,0l-248.766,0.467L15.016,72.066c-0.009-4.693,3.801-8.517,8.493-8.526l240.759-0.452l0.236,125.529
	l-35.432,35.564c-2.925,2.937-4.532,6.835-4.524,10.98l0.145,76.769c0.016,8.54,6.976,15.489,15.517,15.489c0.005,0,0.024,0,0.029,0
	l64.068-0.121c4.145-0.008,8.039-1.629,10.965-4.566c2.925-2.936,4.532-6.835,4.524-10.98l-0.144-76.769
	c-0.008-4.143-1.628-8.036-4.565-10.964l-35.565-35.432l-0.236-125.528l80.603-0.151c4.683,0,8.499,3.81,8.508,8.493l0.079,41.76
	c0.005,2.615,1.371,5.04,3.607,6.4c2.234,1.358,5.015,1.459,7.342,0.259c11.494-5.924,23.809-8.942,36.598-8.966l8.148-0.015
	c39.943,0,72.5,32.497,72.576,72.441l0.241,128.137C497.059,351.438,464.562,384.058,424.542,384.133z M239.709,311.902
	l-0.145-76.769c0-0.132,0.053-0.261,0.146-0.354l32.328-32.449l32.448,32.326c0.094,0.094,0.148,0.224,0.148,0.354l0.144,76.77
	c0,0.051,0,0.207-0.146,0.354c-0.146,0.146-0.301,0.146-0.353,0.146l-64.068,0.121v7.508l-0.001-7.067v-0.441
	C239.934,312.402,239.709,312.178,239.709,311.902z"/>
<path d="M272.197,295.323c0.005,0,0.01,0,0.015,0c4.146-0.008,7.502-3.376,7.494-7.522l-0.09-48.052
	c-0.008-4.142-3.368-7.494-7.508-7.494c-0.005,0-0.01,0-0.015,0c-4.146,0.008-7.502,3.376-7.494,7.522l0.09,48.052
	C264.697,291.971,268.058,295.323,272.197,295.323z"/>
<path d="M312.527,432.396c-0.005,0-0.01,0-0.015,0l-16.017,0.03c-4.146,0.008-7.502,3.376-7.494,7.523
	c0.008,4.141,3.368,7.493,7.508,7.493c0.005,0,0.01,0,0.015,0l16.017-0.03c4.146-0.008,7.502-3.376,7.494-7.523
	C320.027,435.747,316.667,432.396,312.527,432.396z"/>
<g>
</g>
<g>
</g>
<g>
</g>
<g>
</g>
<g>
</g>
<g>
</g>
<g>
</g>
<g>
</g>
<g>
</g>
<g>
</g>
<g>
</g>
<g>
</g>
<g>
</g>
<g>
</g>
<g>
</g>
</svg>
