<?xml version="1.0" encoding="iso-8859-1"?>
<!-- Generator: Adobe Illustrator 19.0.0, SVG Export Plug-In . SVG Version: 6.00 Build 0)  -->
<svg version="1.1" id="Layer_1" xmlns="http://www.w3.org/2000/svg" xmlns:xlink="http://www.w3.org/1999/xlink" x="0px" y="0px"
	 viewBox="0 0 511.999 511.999" style="enable-background:new 0 0 511.999 511.999;" xml:space="preserve">
<polygon style="fill:#9B5A50;" points="384.083,288.028 352.026,288.088 351.755,143.916 383.813,143.855 463.929,143.705 
	464.2,287.876 "/>
<g>
	<path style="fill:#AA6455;" d="M351.784,143.916l-4.818-6.399c-7.941-10.547-0.434-25.632,12.769-25.657l96.124-0.18
		c13.202-0.025,20.766,15.032,12.865,25.609l-4.794,6.417"/>
	<path style="fill:#AA6455;" d="M464.2,287.876l4.818,6.399c7.941,10.547,0.434,25.632-12.769,25.657l-96.124,0.18
		c-13.202,0.025-20.766-15.032-12.865-25.609l4.794-6.417"/>
	<polygon style="fill:#AA6455;" points="463.929,143.763 414.546,143.855 382.487,143.916 382.759,288.03 464.2,287.876 	"/>
	<polygon style="fill:#AA6455;" points="464.243,287.934 464.2,287.876 384.083,288.028 382.759,288.03 382.759,288.088 
		382.788,288.088 382.788,288.088 	"/>
	<polygon style="fill:#AA6455;" points="464.2,287.876 382.759,288.03 382.759,288.03 384.083,288.028 	"/>
</g>
<g>
	<polygon style="fill:#B9785F;" points="463.929,143.705 382.473,143.858 382.473,143.858 383.813,143.855 	"/>
	<polygon style="fill:#B9785F;" points="463.929,143.763 463.929,143.705 383.813,143.855 382.473,143.858 382.516,143.916 	"/>
	<path style="fill:#B9785F;" d="M468.723,137.287c7.627-10.209,0.842-24.59-11.513-25.554l-66.744,0.125
		c-13.202,0.025-20.709,15.111-12.769,25.657l4.775,6.341l81.455-0.153L468.723,137.287z"/>
	<path style="fill:#B9785F;" d="M469.018,294.276l-4.775-6.341l-49.427,0.093l-32.028,0.06l-4.794,6.417
		c-7.627,10.209-0.842,24.59,11.513,25.554l66.743-0.125C469.452,319.908,476.96,304.822,469.018,294.276z"/>
	<polygon style="fill:#B9785F;" points="382.788,288.088 382.788,288.088 414.816,288.028 464.243,287.934 464.243,287.934 	"/>
</g>
<polyline style="fill:#AA6955;" points="207.792,232.286 351.921,232.015 351.861,199.973 207.732,200.245 "/>
<path style="fill:#B9785F;" d="M199.707,192.249l-167.163,0.314c-11.624,0.022-22.325,7.827-24.568,19.233
	c-3.012,15.317,8.801,28.859,23.605,28.831l168.218-0.316c4.424-0.008,8.003-3.602,7.995-8.025l-0.06-32.042
	C207.724,195.82,204.13,192.24,199.707,192.249z"/>
<path style="fill:#AA6455;" d="M503.49,399.962l-190.246,0.357c-0.553,0.001-1.002-0.447-1.003-0.999l-0.028-15.019
	c-0.017-8.848,7.142-16.034,15.991-16.051l160.207-0.301c8.848-0.017,16.034,7.142,16.051,15.991l0.028,15.019
	C504.491,399.513,504.044,399.961,503.49,399.962z"/>
<path style="fill:#B9785F;" d="M504.49,398.96l-0.028-15.019c-0.016-8.402-6.498-15.268-14.727-15.927l-125.971,0.236
	c-8.848,0.017-16.008,7.202-15.991,16.051l0.028,15.019c0.001,0.437,0.283,0.796,0.672,0.933l155.017-0.291
	C504.044,399.961,504.491,399.512,504.49,398.96z"/>
<path d="M344.425,239.539l0.086,46.1l-3.266,4.372c-5.369,7.187-6.202,16.63-2.176,24.646c4.02,8.001,12.073,12.967,21.024,12.967
	c0.015,0,0.031,0,0.046,0l96.124-0.181c8.97-0.017,17.025-5.016,21.022-13.046c3.996-8.031,3.128-17.472-2.269-24.638l-3.312-4.399
	l-0.261-139.166l3.296-4.411c5.369-7.187,6.202-16.63,2.176-24.646c-4.02-8.001-12.073-12.967-21.024-12.967
	c-0.016,0-0.031,0-0.047,0l-96.124,0.18c-8.97,0.018-17.025,5.018-21.021,13.048c-3.996,8.03-3.127,17.47,2.268,24.636l3.284,4.362
	l0.086,46.084l-131.061,0.245c-2.658-4.756-7.745-7.985-13.584-7.985l-167.163,0.314c-15.621,0.029-29.046,10.666-31.922,25.293
	c-1.841,9.364,0.553,18.928,6.568,26.241c6.037,7.339,14.915,11.55,24.361,11.55c0.005,0,0.054,0,0.059,0l168.217-0.316
	c4.146-0.007,8.04-1.629,10.967-4.567c1.04-1.043,1.904-2.214,2.598-3.468L344.425,239.539z M352.145,124.088
	c1.468-2.949,4.311-4.714,7.604-4.72l96.124-0.18c0.006,0,0.012,0,0.018,0c3.286,0,6.128,1.752,7.603,4.69
	c1.479,2.943,1.185,6.276-0.787,8.915l-2.546,3.408l-60.327,0.113c-4.147,0.008-7.504,3.376-7.496,7.524
	c0.008,4.143,3.368,7.496,7.51,7.496c0.005,0,0.01,0,0.015,0l56.572-0.106l0.242,129.152l-56.571,0.106
	c-4.147,0.008-7.504,3.376-7.496,7.524c0.008,4.143,3.368,7.496,7.51,7.496c0.005,0,0.01,0,0.015,0l60.326-0.113l2.559,3.399
	c1.982,2.632,2.288,5.964,0.82,8.913c-1.467,2.948-4.31,4.712-7.603,4.718l-96.124,0.181c-0.006,0-0.012,0-0.018,0
	c-3.286,0-6.128-1.752-7.603-4.69c-1.479-2.943-1.185-6.276,0.787-8.915l2.546-3.409l12.24-0.023
	c4.147-0.008,7.504-3.376,7.496-7.525c-0.008-4.142-3.368-7.495-7.51-7.495c-0.005,0-0.01,0-0.015,0l-8.513,0.016l-0.091-48.557
	v-0.005c0,0,0-0.003,0-0.005l-0.06-32.031v-0.005v-0.005l-0.091-48.544l8.513-0.016c4.147-0.008,7.504-3.376,7.496-7.525
	c-0.008-4.142-3.368-7.495-7.51-7.495c-0.005,0-0.01,0-0.015,0l-12.239,0.023l-2.559-3.4
	C350.984,130.368,350.677,127.036,352.145,124.088z M344.397,224.519l-129.109,0.242l-0.032-17.022l129.109-0.242L344.397,224.519z
	 M200.136,232.655c-0.146,0.146-0.301,0.146-0.353,0.146l-168.217,0.316l-0.031,7.51v-7.51c-4.936,0-9.587-2.213-12.761-6.071
	c-3.198-3.888-4.417-8.789-3.43-13.802c1.474-7.493,8.873-13.156,17.213-13.171l167.164-0.314c0.275,0,0.501,0.224,0.501,0.5
	l0.06,32.041C200.282,232.351,200.283,232.508,200.136,232.655z"/>
<path d="M511.971,383.927c-0.024-12.951-10.58-23.486-23.575-23.486l-160.207,0.301c-6.285,0.012-12.189,2.47-16.626,6.923
	c-4.437,4.452-6.873,10.366-6.861,16.652l0.028,15.017c0.008,4.685,3.826,8.496,8.511,8.496c0.005,0,0.011,0,0.016,0l190.245-0.356
	c2.274-0.004,4.411-0.894,6.016-2.506c1.603-1.61,2.483-3.748,2.48-6.021L511.971,383.927z M319.739,392.798l-0.016-8.511
	c-0.004-2.274,0.877-4.412,2.481-6.023c1.605-1.61,3.74-2.5,6.014-2.504l160.224-0.301c4.684,0,8.501,3.811,8.51,8.494l0.016,8.511
	L319.739,392.798z"/>
<g>
</g>
<g>
</g>
<g>
</g>
<g>
</g>
<g>
</g>
<g>
</g>
<g>
</g>
<g>
</g>
<g>
</g>
<g>
</g>
<g>
</g>
<g>
</g>
<g>
</g>
<g>
</g>
<g>
</g>
</svg>
