<?xml version="1.0" encoding="iso-8859-1"?>
<!-- Generator: Adobe Illustrator 19.0.0, SVG Export Plug-In . SVG Version: 6.00 Build 0)  -->
<svg version="1.1" id="Layer_1" xmlns="http://www.w3.org/2000/svg" xmlns:xlink="http://www.w3.org/1999/xlink" x="0px" y="0px"
	 viewBox="0 0 512.017 512.017" style="enable-background:new 0 0 512.017 512.017;" xml:space="preserve">
<circle style="fill:#C3E678;" cx="464.381" cy="431.248" r="16.006"/>
<g>
	<circle style="fill:#FF6464;" cx="423.656" cy="55.179" r="16.006"/>
	<circle style="fill:#FF6464;" cx="336.044" cy="279.432" r="16.006"/>
	<circle style="fill:#FF6464;" cx="200.284" cy="431.738" r="16.006"/>
	<circle style="fill:#FF6464;" cx="112.201" cy="407.9" r="16.006"/>
</g>
<g>
	<circle style="fill:#C3E678;" cx="304.242" cy="391.534" r="16.006"/>
	<circle style="fill:#C3E678;" cx="199.884" cy="223.662" r="16.006"/>
	<circle style="fill:#C3E678;" cx="127.987" cy="287.825" r="16.006"/>
</g>
<path d="M504.498,479.689c-0.005,0-0.01,0-0.015,0l-47.996,0.09c-0.003,0-0.005,0-0.008,0c-0.005,0-0.01,0-0.015,0
	c-0.003,0-0.006,0-0.009,0l-96.006,0.18c-0.002,0-0.004,0-0.006,0c-0.005,0-0.01,0-0.015,0c-0.002,0-0.004,0-0.006,0l-96.01,0.18
	c-0.001,0-0.002,0-0.004,0c-0.005,0-0.01,0-0.015,0c-0.001,0-0.003,0-0.004,0l-47.987,0.09c-0.004,0-0.008,0-0.012,0
	c-0.005,0-0.01,0-0.015,0c-0.004,0-0.009,0.001-0.013,0.001l-47.988,0.09h-0.001c-0.005,0-0.01,0-0.015,0c-0.001,0-0.001,0-0.001,0
	l-47.992,0.09c-0.003,0-0.006,0-0.01,0c-0.005,0-0.01,0-0.015,0c-0.004,0-0.007,0-0.011,0l-47.975,0.09
	c-0.006,0-0.012-0.001-0.018-0.001c-0.005,0-0.01,0-0.015,0c-0.007,0-0.013,0.001-0.019,0.001l-28.593,0.054l57.099-52.104
	c3.377,1.881,7.261,2.957,11.39,2.957c0.005,0,0.04,0,0.045,0c6.279-0.012,12.178-2.469,16.61-6.918
	c1.088-1.092,2.055-2.274,2.895-3.526l45.066,12.2c0.739,12.3,10.986,22.087,23.462,22.087c0.005,0,0.04,0,0.045,0
	c12.963-0.024,23.489-10.59,23.465-23.553c-0.008-4.211-1.135-8.163-3.094-11.583l54.484-61.126l10.936,17.591
	c-3.368,4.077-5.391,9.304-5.38,14.994c0.024,12.939,10.57,23.465,23.509,23.465c0.005,0,0.04,0,0.045,0
	c8.295-0.016,15.588-4.353,19.76-10.867l116.906,28.994c0.982,12.063,11.117,21.588,23.423,21.588c0.005,0,0.04,0,0.045,0
	c12.963-0.024,23.489-10.59,23.465-23.553c-0.024-12.939-10.57-23.465-23.553-23.465c-8.295,0.016-15.588,4.353-19.761,10.867
	l-116.906-28.994c-0.983-12.063-11.119-21.588-23.468-21.588c-1.839,0.003-3.626,0.226-5.344,0.63l-13.083-21.045
	c-0.061-0.099-0.131-0.188-0.196-0.283l41.247-46.275c2.833,1.214,5.95,1.889,9.22,1.889c0.005,0,0.04,0,0.045,0
	c12.963-0.024,23.489-10.59,23.465-23.553c-0.014-7.199-3.287-13.647-8.422-17.955l71.406-182.768
	c0.37,0.018,0.742,0.028,1.117,0.028c0.005,0,0.04,0,0.045,0c12.963-0.024,23.489-10.59,23.465-23.553
	c-0.024-12.939-10.57-23.465-23.553-23.465c-12.963,0.024-23.489,10.59-23.465,23.553c0.014,7.202,3.289,13.652,8.42,17.961
	l-71.404,182.764c-0.385-0.019-0.772-0.029-1.162-0.029c-12.963,0.024-23.489,10.59-23.465,23.553
	c0.008,4.212,1.136,8.164,3.093,11.584L209.495,410.128c-2.843-1.217-5.973-1.895-9.259-1.895
	c-8.118,0.015-15.279,4.165-19.493,10.448l-45.079-12.202c-0.739-12.3-10.988-22.087-23.507-22.087
	c-6.279,0.012-12.178,2.468-16.61,6.917c-4.433,4.448-6.867,10.357-6.855,16.635c0.006,3.352,0.724,6.539,2.001,9.426l-58.902,53.75
	l-0.058-31.049c0-0.003,0-0.005,0-0.005v-0.011l-0.09-48.005v-0.005v-0.005l-0.09-48.011v-0.002v-0.002l-0.16-85.109l73.105,27.96
	c-0.013,0.33-0.024,0.66-0.023,0.993c0.024,12.939,10.57,23.465,23.509,23.465c0.005,0,0.04,0,0.045,0
	c12.963-0.024,23.489-10.59,23.465-23.553c-0.006-3.259-0.681-6.364-1.894-9.188l38.672-34.506c3.43,1.961,7.395,3.088,11.618,3.088
	c0.005,0,0.04,0,0.045,0c1.824-0.003,3.614-0.219,5.347-0.624l47.866,76.997c1.422,2.286,3.871,3.542,6.379,3.542
	c1.352,0,2.721-0.365,3.953-1.132c3.519-2.188,4.599-6.814,2.411-10.333l-47.867-76.999c3.489-4.215,5.385-9.464,5.375-15.004
	c-0.024-12.939-10.57-23.465-23.553-23.465c-6.279,0.012-12.178,2.468-16.61,6.917c-4.432,4.448-6.866,10.357-6.855,16.635
	c0.006,3.259,0.681,6.365,1.893,9.188l-38.678,34.511c-3.439-1.964-7.416-3.092-11.656-3.092
	c-7.268,0.014-13.768,3.341-18.074,8.546l-78.505-30.024l-0.08-42.863v-0.002v-0.002L31.011,55.925v-0.003v-0.003l-0.09-48.015
	c-0.008-4.14-3.365-7.489-7.503-7.489c-0.005,0-0.01,0-0.015,0c-4.144,0.008-7.497,3.373-7.489,7.517l0.076,40.515l-8.503,0.016
	C3.345,48.47-0.007,51.835,0,55.979c0.008,4.14,3.365,7.489,7.503,7.489c0.005,0,0.01,0,0.014,0l8.503-0.016l0.062,33.012
	L7.579,96.48c-4.144,0.008-7.497,3.373-7.489,7.517c0.008,4.14,3.365,7.489,7.503,7.489c0.005,0,0.01,0,0.014,0l8.503-0.016
	l0.062,33.012l-8.503,0.016c-4.144,0.008-7.497,3.373-7.489,7.518c0.008,4.139,3.365,7.488,7.503,7.488c0.005,0,0.01,0,0.015,0
	l8.503-0.016l0.062,33.012l-8.503,0.016c-4.144,0.008-7.497,3.373-7.489,7.518c0.008,4.139,3.365,7.488,7.503,7.488
	c0.005,0,0.01,0,0.015,0l8.503-0.016l0.062,33.012l-8.503,0.016c-4.144,0.008-7.497,3.373-7.489,7.518
	c0.008,4.139,3.365,7.488,7.503,7.488c0.005,0,0.01,0,0.015,0l8.503-0.016l0.062,33.012l-8.503,0.016
	c-4.144,0.008-7.497,3.373-7.489,7.518c0.008,4.139,3.365,7.488,7.503,7.488c0.005,0,0.01,0,0.015,0l8.503-0.016l0.062,33.012
	l-8.503,0.016c-4.144,0.008-7.497,3.373-7.489,7.518c0.008,4.139,3.365,7.488,7.503,7.488c0.005,0,0.01,0,0.015,0l8.503-0.016
	l0.062,33.012l-8.503,0.016c-4.144,0.008-7.497,3.373-7.489,7.518c0.008,4.139,3.365,7.488,7.503,7.488c0.005,0,0.01,0,0.015,0
	l8.503-0.016l0.062,33.012l-8.503,0.016c-4.144,0.008-7.497,3.373-7.489,7.518c0.008,4.139,3.365,7.488,7.503,7.488
	c0.005,0,0.01,0,0.015,0l8.503-0.016l0.062,33.012l-8.503,0.016c-4.144,0.008-7.497,3.373-7.489,7.518
	c0.008,4.139,3.365,7.488,7.503,7.488c0.005,0,0.01,0,0.015,0l8.503-0.016l0.016,8.503c0.008,4.139,3.365,7.488,7.503,7.488
	c0.005,0,0.01,0,0.015,0c4.144-0.008,7.497-3.373,7.489-7.518l-0.016-8.503l33.012-0.062l0.016,8.503
	c0.008,4.139,3.365,7.488,7.503,7.488c0.005,0,0.01,0,0.015,0c4.144-0.008,7.497-3.373,7.489-7.518l-0.016-8.502l33.012-0.062
	l0.016,8.503c0.008,4.14,3.365,7.489,7.503,7.489c0.005,0,0.01,0,0.015,0c4.144-0.008,7.497-3.373,7.489-7.517l-0.016-8.503
	l33.012-0.062l0.016,8.503c0.008,4.14,3.365,7.489,7.503,7.489c0.005,0,0.01,0,0.015,0c4.144-0.008,7.497-3.373,7.489-7.517
	l-0.016-8.503l33.012-0.062l0.016,8.503c0.008,4.139,3.365,7.488,7.503,7.488c0.005,0,0.01,0,0.015,0
	c4.144-0.008,7.497-3.373,7.489-7.518l-0.016-8.502l33.012-0.062l0.016,8.503c0.008,4.139,3.365,7.488,7.503,7.488
	c0.005,0,0.01,0,0.015,0c4.144-0.008,7.497-3.373,7.489-7.518l-0.016-8.503l33.012-0.062l0.016,8.504
	c0.008,4.139,3.365,7.488,7.503,7.488c0.005,0,0.01,0,0.015,0c4.144-0.008,7.497-3.373,7.489-7.518l-0.016-8.503l33.012-0.062
	l0.016,8.503c0.008,4.139,3.365,7.488,7.503,7.488c0.005,0,0.01,0,0.015,0c4.144-0.008,7.497-3.373,7.489-7.518l-0.016-8.502
	l33.012-0.062l0.016,8.503c0.008,4.14,3.365,7.489,7.503,7.489c0.005,0,0.01,0,0.015,0c4.144-0.008,7.497-3.373,7.489-7.517
	l-0.016-8.503l33.012-0.062l0.016,8.503c0.008,4.139,3.365,7.488,7.503,7.488c0.005,0,0.01,0,0.015,0
	c4.144-0.008,7.497-3.373,7.489-7.518l-0.016-8.502l40.515-0.076c4.144-0.008,7.497-3.373,7.489-7.517
	C511.992,483.038,508.635,479.689,504.498,479.689z M464.378,422.743c4.68,0,8.493,3.807,8.502,8.486
	c0.009,4.69-3.798,8.511-8.487,8.52l-0.017,7.503v-7.503c-4.68,0-8.494-3.807-8.503-8.486
	C455.865,426.574,459.673,422.752,464.378,422.743z M304.243,383.029c4.68,0,8.494,3.807,8.503,8.486
	c0.009,4.69-3.798,8.511-8.487,8.52l-0.017,7.503v-7.503c-4.68,0-8.494-3.807-8.503-8.486
	C295.731,386.86,299.539,383.037,304.243,383.029z M423.656,46.68c4.68,0,8.493,3.807,8.502,8.486
	c0.009,4.69-3.798,8.511-8.487,8.52l-0.017,7.503v-7.503c-4.68,0-8.494-3.807-8.503-8.486
	C415.143,50.511,418.951,46.689,423.656,46.68z M193.865,217.665c1.604-1.609,3.736-2.498,6.024-2.502
	c4.68,0,8.494,3.807,8.503,8.486c0.004,2.272-0.876,4.409-2.48,6.018c-1.604,1.61-3.736,2.498-6.008,2.502l-0.017,7.503v-7.503
	c-4.68,0-8.493-3.808-8.502-8.487C191.382,221.411,192.262,219.274,193.865,217.665z M127.984,279.322
	c4.68,0,8.493,3.807,8.502,8.486c0.009,4.69-3.798,8.511-8.487,8.52l-0.017,7.503v-7.503c-4.68,0-8.494-3.807-8.503-8.486
	C119.471,283.153,123.279,279.331,127.984,279.322z M336.045,270.928c4.68,0,8.494,3.807,8.503,8.486
	c0.009,4.69-3.798,8.511-8.487,8.52l-0.017,7.503v-7.503c-4.68,0-8.493-3.807-8.502-8.486
	C327.533,274.758,331.339,270.937,336.045,270.928z M200.281,423.239c4.68,0,8.493,3.807,8.502,8.486
	c0.009,4.69-3.798,8.511-8.487,8.52l-0.017,7.503v-7.503c-4.68,0-8.494-3.807-8.503-8.486
	C191.768,427.07,195.575,423.248,200.281,423.239z M106.178,401.898c1.604-1.609,3.737-2.498,6.025-2.502
	c4.68,0,8.493,3.807,8.502,8.486c0.004,2.272-0.876,4.409-2.48,6.018c-1.604,1.61-3.736,2.498-6.007,2.502l-0.017,7.503v-7.503
	c-4.68,0-8.494-3.808-8.503-8.487C103.695,405.644,104.576,403.507,106.178,401.898z"/>
<g>
</g>
<g>
</g>
<g>
</g>
<g>
</g>
<g>
</g>
<g>
</g>
<g>
</g>
<g>
</g>
<g>
</g>
<g>
</g>
<g>
</g>
<g>
</g>
<g>
</g>
<g>
</g>
<g>
</g>
</svg>
