<?xml version="1.0" encoding="iso-8859-1"?>
<!-- Generator: Adobe Illustrator 19.0.0, SVG Export Plug-In . SVG Version: 6.00 Build 0)  -->
<svg version="1.1" id="Layer_1" xmlns="http://www.w3.org/2000/svg" xmlns:xlink="http://www.w3.org/1999/xlink" x="0px" y="0px"
	 viewBox="0 0 512.002 512.002" style="enable-background:new 0 0 512.002 512.002;" xml:space="preserve">
<path style="fill:#AFB9D2;" d="M487.923,116.041c-0.03-15.859-13.118-28.796-28.977-28.766L51.881,88.041
	c-15.874,0.03-28.883,13.017-28.853,28.876l0.518,275.764l464.894-0.874L487.923,116.041z M55.548,360.558l-0.452-240.463
	l400.771-0.753l0.452,240.463L55.548,360.558z"/>
<path style="fill:#959CB3;" d="M480.485,423.883l-448.863,0.844c-13.281,0.025-24.066-10.721-24.091-24.001l-0.015-8.015
	l496.956-0.934l0.015,8.015C504.512,413.073,493.766,423.858,480.485,423.883z"/>
<circle style="fill:#00D2FF;" cx="127.577" cy="304.317" r="16.031"/>
<circle style="fill:#FF6464;" cx="191.64" cy="272.135" r="16.031"/>
<circle style="fill:#FFD782;" cx="255.643" cy="207.891" r="16.031"/>
<circle style="fill:#C3E678;" cx="319.877" cy="263.879" r="16.031"/>
<circle style="fill:#9BE6D2;" cx="383.83" cy="175.589" r="16.031"/>
<path d="M461.17,114.019c-1.409-1.403-3.316-2.191-5.303-2.191c-0.005,0-0.009,0-0.014,0l-400.771,0.753
	c-4.15,0.008-7.508,3.379-7.5,7.528l0.452,240.463c0.004,1.993,0.799,3.904,2.211,5.31c1.409,1.403,3.316,2.191,5.303,2.191
	c0.004,0,0.009,0,0.014,0l400.772-0.753c4.15-0.008,7.508-3.379,7.5-7.529l-0.452-240.463
	C463.377,117.336,462.582,115.425,461.17,114.019z M391.655,352.413c0.011-0.166,0.025-0.332,0.024-0.501l-0.24-128.246
	c-0.008-4.146-3.371-7.5-7.514-7.5c-0.005,0-0.01,0-0.015,0c-4.15,0.008-7.508,3.379-7.5,7.529l0.24,128.246
	c0,0.169,0.015,0.335,0.026,0.502l-49.145,0.092c0.011-0.166,0.025-0.332,0.024-0.5l-0.075-40.077c-0.008-4.146-3.371-7.5-7.514-7.5
	c-0.005,0-0.01,0-0.015,0c-4.15,0.008-7.508,3.379-7.5,7.529l0.075,40.077c0,0.169,0.015,0.335,0.026,0.501l-49.145,0.092
	c0.011-0.166,0.025-0.332,0.024-0.501l-0.181-96.185c-0.008-4.146-3.371-7.5-7.513-7.5c-0.005,0-0.01,0-0.015,0
	c-4.15,0.008-7.508,3.379-7.5,7.529l0.181,96.185c0,0.169,0.015,0.335,0.026,0.501l-49.145,0.092
	c0.011-0.166,0.025-0.332,0.024-0.501l-0.06-32.062c-0.008-4.146-3.37-7.5-7.514-7.5c-0.005,0-0.01,0-0.015,0
	c-4.15,0.008-7.508,3.379-7.5,7.529l0.06,32.062c0,0.169,0.015,0.335,0.026,0.502l-49.145,0.092
	c0.011-0.162,0.024-0.324,0.024-0.488c0-1.983-0.802-3.917-2.204-5.31c-1.393-1.402-3.336-2.204-5.31-2.204
	c-1.974,0-3.918,0.803-5.32,2.204c-1.393,1.394-2.194,3.326-2.194,5.31c0,0.172,0.014,0.345,0.026,0.516l-57.136,0.107
	l-0.423-225.434l385.742-0.726l0.424,225.434L391.655,352.413z"/>
<path d="M511.986,391.761c-0.008-4.145-3.371-7.499-7.514-7.499c-0.005,0-0.01,0-0.015,0l-8.516,0.016l-0.504-268.25
	c-0.038-20.015-16.376-36.268-36.437-36.268c-0.022,0-0.047,0-0.069,0L51.866,80.525c-20.083,0.038-36.39,16.37-36.353,36.404
	l0.504,268.251L7.5,385.196c-1.993,0.004-3.903,0.8-5.309,2.211s-2.195,3.324-2.191,5.318l0.015,8.014
	c0.033,17.37,14.19,31.502,31.561,31.502c0.005,0,0.055,0,0.06,0l448.863-0.845c8.43-0.016,16.349-3.313,22.3-9.286
	c5.95-5.973,9.218-13.904,9.203-22.335L511.986,391.761z M30.542,116.902c-0.022-11.75,9.556-21.325,21.352-21.348l407.065-0.765
	c0.014,0,0.027,0,0.041,0c11.787,0,21.386,9.532,21.408,21.267l0.504,268.251l-449.865,0.846L30.542,116.902z M492.152,411.504
	c-3.116,3.128-7.264,4.856-11.68,4.863l-448.863,0.845l-0.032,7.514v-7.514c-9.099,0-16.514-7.402-16.532-16.501l-0.001-0.501
	l209.428-0.394c-0.011,0.166-0.025,0.333-0.024,0.502c0.008,4.145,3.37,7.499,7.514,7.499c0.005,0,0.01,0,0.015,0l48.093-0.091
	c4.15-0.008,7.508-3.379,7.5-7.53c0-0.168-0.015-0.334-0.026-0.5l200.886-0.378c0.004,0,0.007,0,0.011,0c0.005,0,0.01,0,0.015,0
	c0.004,0,0.008,0,0.012,0l8.504-0.016l0.001,0.501C496.98,404.222,495.269,408.376,492.152,411.504z"/>
<path d="M383.789,152.041c-6.289,0.012-12.196,2.472-16.636,6.927c-4.439,4.455-6.876,10.373-6.865,16.661
	c0.01,5.068,1.635,9.761,4.38,13.603l-37.793,52.17c-2.225-0.696-4.592-1.072-7.046-1.072c-4.313,0.008-8.353,1.187-11.83,3.226
	l-30.587-26.662c1.171-2.831,1.783-5.894,1.777-9.05c-0.024-12.959-10.586-23.501-23.589-23.501
	c-12.983,0.024-23.525,10.606-23.501,23.589c0.007,3.76,0.907,7.315,2.49,10.47c-0.089,0.082-0.182,0.157-0.269,0.243
	l-32.002,32.122c-0.088,0.088-0.164,0.183-0.247,0.275c-3.157-1.568-6.712-2.455-10.474-2.455
	c-12.983,0.024-23.525,10.606-23.501,23.589c0.002,1.105,0.086,2.191,0.236,3.256l-24.209,12.16
	c-4.263-4.215-10.124-6.824-16.591-6.824c-12.983,0.024-23.525,10.606-23.501,23.589c0.024,12.959,10.586,23.501,23.544,23.501
	c0.005,0,0.04,0,0.045,0c6.289-0.012,12.197-2.473,16.636-6.927c4.439-4.456,6.877-10.374,6.865-16.662
	c-0.002-1.105-0.086-2.19-0.236-3.255l24.205-12.159c4.257,4.214,10.106,6.822,16.55,6.822c0.005,0,0.04,0,0.045,0
	c12.983-0.024,23.525-10.606,23.501-23.589c-0.007-3.76-0.907-7.315-2.491-10.47c0.089-0.082,0.182-0.157,0.269-0.244l32.002-32.122
	c0.086-0.086,0.161-0.179,0.242-0.269c3.148,1.565,6.69,2.45,10.435,2.45c0.005,0,0.04,0,0.045,0
	c4.231-0.008,8.288-1.129,11.843-3.215l30.586,26.661c-1.156,2.786-1.795,5.839-1.789,9.04
	c0.024,12.959,10.586,23.501,23.544,23.501c0.005,0,0.04,0,0.045,0c12.983-0.024,23.525-10.606,23.501-23.589
	c-0.01-5.067-1.635-9.759-4.382-13.601l37.789-52.165c2.214,0.692,4.567,1.066,7.005,1.066c0.005,0,0.04,0,0.045,0
	c12.983-0.024,23.525-10.606,23.501-23.589C407.354,162.584,396.792,152.041,383.789,152.041z M133.614,310.326
	c-1.606,1.611-3.742,2.502-6.018,2.506l-0.017,7.514v-7.514c-4.687,0-8.506-3.813-8.515-8.499c-0.009-4.697,3.804-8.524,8.516-8.533
	c4.687,0,8.506,3.813,8.515,8.5C136.101,306.574,135.22,308.714,133.614,310.326z M191.66,280.649l-0.017,7.514v-7.514
	c-4.687,0-8.507-3.813-8.516-8.499c-0.009-4.697,3.804-8.524,8.517-8.533c4.687,0,8.506,3.813,8.515,8.499
	C200.17,276.813,196.356,280.64,191.66,280.649z M261.68,213.9c-1.606,1.611-3.742,2.502-6.018,2.506l-0.017,7.514v-7.514
	c-4.687,0-8.506-3.813-8.515-8.499c-0.009-4.697,3.804-8.524,8.516-8.533c4.687,0,8.506,3.813,8.515,8.5
	C264.168,210.148,263.286,212.288,261.68,213.9z M319.891,272.393l-0.017,7.514v-7.514c-4.687,0-8.506-3.813-8.515-8.499
	c-0.009-4.697,3.804-8.524,8.516-8.533c4.687,0,8.507,3.813,8.516,8.499C328.401,268.556,324.587,272.385,319.891,272.393z
	 M383.849,184.103l-0.017,7.514v-7.514c-4.687,0-8.506-3.814-8.515-8.5c-0.004-2.275,0.878-4.415,2.483-6.027
	c1.606-1.611,3.742-2.502,6.034-2.506c4.687,0,8.507,3.813,8.516,8.499C392.359,180.266,388.545,184.095,383.849,184.103z"/>
<g>
</g>
<g>
</g>
<g>
</g>
<g>
</g>
<g>
</g>
<g>
</g>
<g>
</g>
<g>
</g>
<g>
</g>
<g>
</g>
<g>
</g>
<g>
</g>
<g>
</g>
<g>
</g>
<g>
</g>
</svg>
