<?xml version="1.0" encoding="iso-8859-1"?>
<!-- Generator: Adobe Illustrator 19.0.0, SVG Export Plug-In . SVG Version: 6.00 Build 0)  -->
<svg version="1.1" id="Layer_1" xmlns="http://www.w3.org/2000/svg" xmlns:xlink="http://www.w3.org/1999/xlink" x="0px" y="0px"
	 viewBox="0 0 512 512" style="enable-background:new 0 0 512 512;" xml:space="preserve">
<g>
	<path style="fill:#5B5D6E;" d="M215.437,119.796l-0.09-48.077c-0.017-8.851-7.206-16.013-16.056-15.996L95.123,55.918
		c-8.851,0.017-16.013,7.206-15.996,16.056l0.06,32.052c0.017,8.851,7.206,16.013,16.056,15.996l64.103-0.12"/>
	<path style="fill:#5B5D6E;" d="M295.566,119.645l-0.09-48.077c-0.017-8.851,7.145-16.039,15.996-16.056l104.168-0.195
		c8.851-0.017,16.039,7.144,16.056,15.996l0.06,32.052c0.017,8.851-7.144,16.039-15.996,16.056l-24.039,0.045"/>
	<path style="fill:#5B5D6E;" d="M113.644,104.026l-0.06-32.052c-0.017-8.85,7.145-16.039,15.996-16.056l70.994-0.133
		c-0.425-0.033-0.849-0.063-1.283-0.062L95.123,55.919c-8.85,0.017-16.012,7.205-15.996,16.056l0.06,32.052
		c0.017,8.851,7.205,16.013,16.056,15.996l33.172-0.062C120.167,119.319,113.659,112.444,113.644,104.026z"/>
</g>
<path style="fill:#707487;" d="M215.437,119.796l-0.09-48.077c-0.016-8.418-6.522-15.294-14.773-15.934l-70.994,0.133
	c-8.851,0.017-16.013,7.205-15.996,16.056l0.06,32.052c0.016,8.418,6.522,15.294,14.773,15.934l30.93-0.058L215.437,119.796z"/>
<path style="fill:#5B5D6E;" d="M345.927,55.511l70.994-0.133c-0.425-0.033-0.849-0.063-1.283-0.062L311.47,55.511
	c-8.851,0.017-16.013,7.206-15.996,16.056l0.09,48.077l34.455-0.065l-0.09-48.012C329.915,62.717,337.077,55.528,345.927,55.511z"/>
<path style="fill:#707487;" d="M415.759,119.419c8.851-0.017,16.013-7.205,15.996-16.056l-0.06-32.052
	c-0.016-8.418-6.522-15.294-14.773-15.933l-70.994,0.133c-8.851,0.017-16.013,7.206-15.996,16.056l0.09,48.012l61.699-0.116
	L415.759,119.419z"/>
<path id="SVGCleanerId_0" style="fill:#959CB3;" d="M103.257,120.006l0.075,39.825l-31.065,0.058
	c-14.708,0.028-27.508,10.061-31.049,24.336L9.868,318.949c-1.577,6.359-2.368,12.887-2.356,19.438l0.177,94.302
	c0.025,13.276,10.807,24.019,24.084,23.994l136.219-0.256c13.276-0.025,24.019-10.807,23.994-24.084l-0.195-104.168l128.206-0.241
	l0.195,104.168c0.025,13.276,10.807,24.019,24.084,23.994l136.219-0.256c13.276-0.025,24.019-10.807,23.994-24.084l-0.177-94.302
	c-0.012-6.552-0.828-13.077-2.429-19.429L470.027,183.42c-3.594-14.262-16.432-24.247-31.14-24.22l-31.065,0.058l-0.075-39.825"/>
<g>
	<path id="SVGCleanerId_0_1_" style="fill:#959CB3;" d="M103.257,120.006l0.075,39.825l-31.065,0.058
		c-14.708,0.028-27.508,10.061-31.049,24.336L9.868,318.949c-1.577,6.359-2.368,12.887-2.356,19.438l0.177,94.302
		c0.025,13.276,10.807,24.019,24.084,23.994l136.219-0.256c13.276-0.025,24.019-10.807,23.994-24.084l-0.195-104.168l128.206-0.241
		l0.195,104.168c0.025,13.276,10.807,24.019,24.084,23.994l136.219-0.256c13.276-0.025,24.019-10.807,23.994-24.084l-0.177-94.302
		c-0.012-6.552-0.828-13.077-2.429-19.429L470.027,183.42c-3.594-14.262-16.432-24.247-31.14-24.22l-31.065,0.058l-0.075-39.825"/>
</g>
<rect x="320.083" y="327.96" transform="matrix(-1 0.0019 -0.0019 -1 672.8768 735.3453)" style="fill:#959CB3;" width="32.012" height="80.064"/>
<path style="fill:#5B5D6E;" d="M352.204,432.102l-0.045-24.104l-32.012,0.06l0.045,24.044c0.025,13.276,10.807,24.019,24.084,23.994
	l30.395-0.057C362.148,455.23,352.228,444.834,352.204,432.102z"/>
<path style="fill:#959CB3;" d="M39.524,338.389c-0.012-6.552,0.779-13.08,2.356-19.438l31.349-134.724
	c3.541-14.275,16.341-24.309,31.049-24.336l31.065-0.058l-0.075-39.825l272.479-0.512v-0.06l-304.489,0.572l0.075,39.825
	l-31.065,0.058c-14.708,0.028-27.508,10.061-31.049,24.336L9.868,318.949c-1.577,6.359-2.368,12.887-2.356,19.438l0.132,70.258
	l32.012-0.06L39.524,338.389z"/>
<path style="fill:#5B5D6E;" d="M39.701,432.689l-0.045-24.104l-32.012,0.06l0.045,24.044c0.025,13.276,10.807,24.019,24.084,23.994
	l30.395-0.057C49.645,455.817,39.725,445.422,39.701,432.689z"/>
<path style="fill:#959CB3;" d="M440.745,159.257c-0.303-0.017-0.608-0.03-0.913-0.038v0.04L440.745,159.257z"/>
<path style="fill:#707487;" d="M352.158,407.999l0.045,24.104c0.024,12.733,9.944,23.127,22.467,23.937l105.824-0.199
	c13.276-0.025,24.019-10.807,23.994-24.084l-0.045-24.044L352.158,407.999z"/>
<path style="fill:#A2AAC2;" d="M352.158,407.999l152.285-0.286l-0.132-70.258c-0.012-6.552-0.828-13.076-2.429-19.429
	L470.027,183.42c-3.442-13.657-15.362-23.386-29.281-24.163l-0.913,0.002v-0.04c-0.314-0.009-0.63-0.019-0.947-0.018l-31.065,0.058
	l-0.075-39.765l-272.479,0.512l0.075,39.825l-31.065,0.058c-14.708,0.028-27.508,10.061-31.049,24.336L41.88,318.949
	c-1.577,6.359-2.369,12.887-2.356,19.438l0.132,70.197l152.285-0.286l-0.15-80.124l128.206-0.24v0.06l32.012-0.06L352.158,407.999z"
	/>
<path style="fill:#707487;" d="M39.701,432.689c0.024,12.733,9.944,23.127,22.467,23.937l105.824-0.199
	c13.276-0.025,24.019-10.807,23.994-24.084l-0.045-24.044l-152.285,0.286L39.701,432.689z"/>
<g>
	<rect x="17.488" y="328.177" style="fill:#959CB3;" width="174.301" height="14.995"/>
	<rect x="329.971" y="328.177" style="fill:#959CB3;" width="174.301" height="14.995"/>
</g>
<rect x="190.767" y="118.81" style="fill:#707487;" width="129.228" height="209.187"/>
<rect x="190.767" y="118.81" style="fill:#5B5D6E;" width="25.06" height="209.187"/>
<path d="M511.955,407.705v-0.003v-0.003l-0.131-70.259c-0.014-7.138-0.902-14.269-2.642-21.192l-31.844-134.558
	c-0.008-0.035-0.017-0.07-0.026-0.105c-4.438-17.612-20.207-29.896-38.364-29.896c-0.024,0-0.051,0-0.075,0l-23.553,0.044
	l-0.046-24.801l0.501-0.001c6.287-0.012,12.194-2.472,16.631-6.925c4.437-4.454,6.874-10.371,6.863-16.658l-0.061-32.051
	c-0.024-12.965-10.578-23.494-23.537-23.494c-0.014,0-0.031,0-0.045,0l-104.168,0.195c-12.979,0.024-23.518,10.603-23.494,23.582
	l0.076,40.565l-65.105,0.122l-0.076-40.565c-0.012-6.287-2.471-12.195-6.925-16.631c-4.444-4.427-10.341-6.863-16.611-6.863
	c-0.015,0-0.03,0-0.045,0L95.11,48.405c-12.979,0.024-23.518,10.603-23.494,23.582l0.06,32.052
	c0.024,12.965,10.578,23.495,23.537,23.494c0.014,0,0.031,0,0.045,0l0.501-0.001l0.046,24.801l-23.553,0.044
	c-18.188,0.035-33.949,12.388-38.326,30.041c-0.008,0.034-0.017,0.069-0.025,0.104L2.564,317.196
	C0.85,324.127-0.013,331.261,0,338.402l0.132,70.259c0,0.001,0,0.003,0,0.003v0.006l0.045,24.035
	c0.016,8.428,3.312,16.344,9.283,22.293c5.956,5.934,13.86,9.199,22.265,9.199c0.021,0,0.042,0,0.062,0l136.219-0.255
	c17.397-0.033,31.524-14.214,31.491-31.611l-0.045-24.037v-0.003v-0.003l-0.136-72.612l113.182-0.214l0.136,72.612v0.005
	c0,0,0,0.003,0,0.005l0.045,24.034c0.033,17.378,14.18,31.493,31.551,31.492c0.019,0,0.04,0,0.059,0l136.218-0.256
	c8.428-0.016,16.344-3.312,22.293-9.283s9.215-13.9,9.2-22.327L511.955,407.705z M492.157,443.465
	c-3.115,3.127-7.262,4.855-11.677,4.862l-136.218,0.256c-0.011,0-0.021,0-0.031,0c-9.099,0-16.51-7.394-16.527-16.496l-0.031-16.527
	l128.707-0.242c4.149-0.008,7.506-3.377,7.498-7.526c-0.008-4.145-3.369-7.498-7.512-7.498c-0.005,0-0.01,0-0.015,0l-128.707,0.242
	l-0.136-72.617c-0.004-1.992-0.798-3.902-2.211-5.309c-1.412-1.405-3.313-2.155-5.317-2.191l-128.206,0.241
	c-4.149,0.008-7.506,3.377-7.498,7.526l0.136,72.617l-8.514,0.016c-4.149,0.008-7.506,3.377-7.498,7.527
	c0.008,4.144,3.369,7.497,7.512,7.497c0.005,0,0.01,0,0.015,0l8.514-0.016l0.031,16.527c0.017,9.114-7.383,16.542-16.496,16.559
	L31.758,449.17c-0.011,0-0.021,0-0.033,0c-4.402,0-8.543-1.711-11.663-4.819c-3.127-3.115-4.854-7.263-4.862-11.676l-0.031-16.527
	l128.707-0.242c4.149-0.008,7.506-3.377,7.498-7.526c-0.008-4.145-3.369-7.498-7.512-7.498c-0.005,0-0.01,0-0.015,0L15.14,401.125
	l-0.116-62.751c-0.011-5.933,0.707-11.859,2.134-17.615c0.009-0.035,0.018-0.07,0.025-0.105l31.337-134.669
	c2.732-10.922,12.495-18.561,23.759-18.583l31.065-0.058c1.992-0.004,3.901-0.799,5.308-2.211c1.406-1.411,2.195-3.323,2.191-5.316
	l-0.061-32.313l48.578-0.091c4.149-0.008,7.506-3.377,7.498-7.526c-0.008-4.145-3.369-7.498-7.512-7.498c-0.005,0-0.01,0-0.015,0
	l-56.064,0.105c-0.004,0-0.007,0-0.011,0c-0.005,0-0.01,0-0.015,0c-0.004,0-0.008,0-0.012,0l-8.001,0.015c-0.005,0-0.011,0-0.016,0
	c-4.687,0-8.505-3.809-8.514-8.497l-0.06-32.052c-0.009-4.696,3.803-8.522,8.498-8.531l104.168-0.195
	c2.274,0.027,4.414,0.877,6.025,2.483c1.611,1.605,2.501,3.74,2.505,6.015l0.076,40.565l-16.528,0.031
	c-4.149,0.008-7.506,3.377-7.498,7.526c0,0.003,0,0.006,0,0.006l0.332,176.278c0.008,4.145,3.369,7.498,7.512,7.498
	c0.005,0,0.01,0,0.015,0c4.149-0.008,7.506-3.377,7.498-7.526l-0.318-168.772l16.51-0.031c0,0,0.001,0,0.002,0
	c0.005,0,0.01,0,0.015,0c0,0,0.002,0,0.003,0l96.653-0.181l0.316,168.771c0.008,4.145,3.369,7.498,7.512,7.498
	c0.005,0,0.01,0,0.015,0c4.149-0.008,7.506-3.377,7.498-7.526l-0.317-168.772l32.552-0.061c4.149-0.008,7.506-3.377,7.498-7.526
	c-0.008-4.145-3.369-7.498-7.512-7.498c-0.005,0-0.01,0-0.015,0l-56.59,0.106l-0.076-40.565c-0.009-4.696,3.803-8.522,8.498-8.531
	l104.168-0.195c0.005,0,0.011,0,0.016,0c4.687,0,8.505,3.809,8.514,8.498l0.061,32.051c0.004,2.275-0.877,4.414-2.483,6.026
	c-1.605,1.611-3.741,2.501-6.016,2.505l-7.993,0.015c-0.002,0-0.004,0-0.006,0c-0.004,0-0.01,0-0.014,0c-0.002,0-0.004,0-0.006,0
	l-16.02,0.03c-4.149,0.008-7.506,3.377-7.498,7.526c0.008,4.15,3.375,7.533,7.526,7.498l8.514-0.016l0.061,32.312
	c0.008,4.145,3.369,7.498,7.512,7.498c0.005,0,0.01,0,0.015,0l31.065-0.058c0.016,0,0.03,0,0.046,0
	c11.245,0,21.014,7.598,23.783,18.496l31.842,134.547c0.008,0.035,0.017,0.07,0.026,0.104c1.449,5.752,2.191,11.677,2.202,17.608
	l0.118,62.751l-8.514,0.016c-4.149,0.008-7.506,3.377-7.498,7.527c0.008,4.144,3.369,7.497,7.512,7.497c0.005,0,0.01,0,0.015,0
	l8.514-0.016l0.031,16.527C496.985,436.185,495.273,440.338,492.157,443.465z"/>
<g>
</g>
<g>
</g>
<g>
</g>
<g>
</g>
<g>
</g>
<g>
</g>
<g>
</g>
<g>
</g>
<g>
</g>
<g>
</g>
<g>
</g>
<g>
</g>
<g>
</g>
<g>
</g>
<g>
</g>
</svg>
