<?xml version="1.0" encoding="iso-8859-1"?>
<!-- Generator: Adobe Illustrator 19.0.0, SVG Export Plug-In . SVG Version: 6.00 Build 0)  -->
<svg version="1.1" id="Layer_1" xmlns="http://www.w3.org/2000/svg" xmlns:xlink="http://www.w3.org/1999/xlink" x="0px" y="0px"
	 viewBox="0 0 512 512" style="enable-background:new 0 0 512 512;" xml:space="preserve">
<path style="fill:#AA6455;" d="M504.492,419.557c0.05,26.427-21.532,48.089-47.959,48.139l-400.406,0.753
	c-26.427,0.05-48.089-21.532-48.139-47.959L7.508,164.231c-0.05-26.427,21.532-48.089,47.959-48.139l400.406-0.753
	c26.427-0.05,48.089,21.532,48.139,47.959L504.492,419.557z"/>
<g>
	<path style="fill:#874641;" d="M191.953,315.268c-0.296,0-0.597-0.018-0.899-0.054c-75.815-9.047-142.614-33.897-188.089-69.975
		c-3.248-2.577-3.793-7.299-1.215-10.548c2.578-3.248,7.299-3.794,10.548-1.215c43.328,34.373,107.444,58.107,180.537,66.829
		c4.117,0.491,7.056,4.227,6.566,8.344C198.943,312.464,195.703,315.268,191.953,315.268z"/>
	<path style="fill:#874641;" d="M320.064,315.028c-3.737,0-6.974-2.787-7.443-6.591c-0.507-4.115,2.418-7.862,6.534-8.368
		c73.061-8.997,137.088-32.973,180.286-67.51c3.238-2.591,7.963-2.063,10.553,1.175c2.589,3.238,2.063,7.963-1.175,10.553
		c-45.34,36.25-112.045,61.353-187.828,70.685C320.68,315.009,320.37,315.028,320.064,315.028z"/>
</g>
<path style="fill:#FFD782;" d="M320.08,299.783c0.033,17.618-14.355,32.06-31.972,32.093l-64.065,0.12
	c-17.618,0.033-32.06-14.355-32.093-31.972l0,0c-0.033-17.618,14.355-32.06,31.972-32.093l64.065-0.12
	C305.605,267.777,320.047,282.165,320.08,299.783L320.08,299.783z"/>
<path d="M511.519,163.284c-0.057-30.576-24.979-55.452-55.555-55.452c-0.005,0-0.101,0-0.105,0l-96.598,0.181l-0.031-16.517
	c-0.028-14.787-5.848-28.713-16.388-39.213c-10.514-10.475-24.42-16.239-39.167-16.239c-0.035,0-0.072,0-0.107,0l-96.097,0.18
	c-30.634,0.058-55.509,25.027-55.452,55.661l0.031,16.517l-96.598,0.181c-14.786,0.027-28.712,5.847-39.212,16.387
	C5.739,135.511-0.028,149.459,0,164.245l0.481,256.259c0.057,30.576,24.979,55.452,55.556,55.452c0.004,0,0.1,0,0.104,0
	l400.406-0.753c30.634-0.058,55.509-25.026,55.452-55.661L511.519,163.284z M167.034,91.858
	c-0.042-22.355,18.11-40.575,40.465-40.617l96.097-0.18c0.026,0,0.052,0,0.078,0c22.319,0,40.498,18.136,40.54,40.465l0.031,16.517
	l-177.179,0.333L167.034,91.858z M26.877,135.57c7.67-7.698,17.827-11.949,28.603-11.969l400.483-0.753
	c22.313,0,40.498,18.152,40.54,40.465l0.113,59.892c-41.827,32.334-102.163,55.081-170.959,64.459
	c-5.155-15.856-20.084-27.361-37.684-27.361l-64.065,0.12c-10.527,0.02-20.438,4.161-27.909,11.661
	c-4.511,4.528-7.785,9.945-9.674,15.84c-68.828-9.119-129.248-31.639-171.197-63.815l-0.113-59.893
	C14.995,153.442,19.208,143.267,26.877,135.57z M199.458,300.009c-0.012-6.516,2.537-12.669,7.177-17.328s10.785-7.231,17.301-7.243
	l64.112-0.12c13.497,0,24.499,10.981,24.524,24.479c0.012,6.516-2.537,12.669-7.178,17.328c-4.641,4.659-10.785,7.231-17.301,7.243
	l-64.064,0.12l-0.047,7.508v-7.508C210.485,324.488,199.483,313.507,199.458,300.009z M456.52,460.189l-400.406,0.753l-0.076,7.508
	v-7.508c-22.313,0-40.499-18.152-40.541-40.465l-0.334-177.755c43.428,30.206,102.734,51.304,169.395,60.113
	c1.48,20.459,18.604,36.668,39.424,36.668c0.005,0,0.07,0,0.075,0l64.064-0.12c10.527-0.02,20.438-4.161,27.909-11.661
	c6.806-6.831,10.806-15.679,11.452-25.156c66.627-9.06,125.853-30.381,169.167-60.749l0.334,177.755
	C497.027,441.926,478.874,460.147,456.52,460.189z"/>
<path d="M439.915,154.909c0.005,0,0.01,0,0.015,0l16.016-0.03c4.146-0.008,7.502-3.375,7.494-7.522
	c-0.008-4.141-3.367-7.494-7.508-7.494c-0.005,0-0.01,0-0.015,0l-16.016,0.03c-4.146,0.008-7.502,3.375-7.494,7.522
	C432.416,151.558,435.776,154.909,439.915,154.909z"/>
<path d="M319.794,155.136c0.005,0,0.01,0,0.015,0l88.089-0.165c4.146-0.008,7.502-3.375,7.494-7.522
	c-0.008-4.142-3.367-7.494-7.508-7.494c-0.005,0-0.01,0-0.015,0l-88.089,0.165c-4.146,0.008-7.502,3.375-7.494,7.522
	C312.294,151.784,315.654,155.136,319.794,155.136z"/>
<g>
</g>
<g>
</g>
<g>
</g>
<g>
</g>
<g>
</g>
<g>
</g>
<g>
</g>
<g>
</g>
<g>
</g>
<g>
</g>
<g>
</g>
<g>
</g>
<g>
</g>
<g>
</g>
<g>
</g>
</svg>
