<?xml version="1.0" encoding="iso-8859-1"?>
<!-- Generator: Adobe Illustrator 19.0.0, SVG Export Plug-In . SVG Version: 6.00 Build 0)  -->
<svg version="1.1" id="Layer_1" xmlns="http://www.w3.org/2000/svg" xmlns:xlink="http://www.w3.org/1999/xlink" x="0px" y="0px"
	 viewBox="0 0 590.344 590.344" style="enable-background:new 0 0 590.344 590.344;" xml:space="preserve">
<circle style="fill:#959CB3;" cx="294.796" cy="71.885" r="24.023"/>
<polyline style="fill:#707487;" points="311.488,432.198 310.855,95.878 278.825,95.938 279.457,432.258 "/>
<path style="fill:#C7CFE2;" d="M303.555,472.251l-96.091,0.18c-8.808,0.017-16.001,7.236-15.985,16.045l0.03,16.015l208.199-0.391
	l-0.03-16.015c-0.017-8.809-7.237-16.001-16.045-15.985l-48.047,0.09"/>
<path style="fill:#959CB3;" d="M335.586,472.191l-0.045-24.023c-0.017-8.809-7.237-16.001-16.045-15.985l-48.046,0.09
	c-8.808,0.017-16.001,7.236-15.985,16.045l0.045,24.023"/>
<path style="fill:#AFB9D2;" d="M240.723,472.37l79.462-0.149l26.487-0.05l36.98-0.069c-0.007,0-0.014-0.001-0.021-0.001
	l-48.047,0.09l-32.031,0.06l-96.091,0.18c-8.808,0.016-16.001,7.236-15.985,16.045l0.03,16.015l36.03-0.068l-0.03-16.014
	C227.492,479.601,233.439,472.384,240.723,472.37z"/>
<g>
	<polygon style="fill:#C7CFE2;" points="399.707,504.101 399.707,504.101 399.677,488.086 399.677,488.08 399.677,488.087 	"/>
	<path style="fill:#C7CFE2;" d="M399.677,488.08c-0.019-8.806-5.992-15.997-13.274-15.984l-2.751,0.005
		C392.449,472.097,399.657,479.281,399.677,488.08z"/>
	<rect x="313.624" y="418.179" style="fill:#C7CFE2;" width="0" height="172.164"/>
</g>
<path style="fill:#707487;" d="M293.622,432.233l25.893-0.049c-0.007,0-0.013-0.001-0.019-0.001l-48.046,0.09
	c-8.808,0.016-16.001,7.236-15.985,16.045l0.045,24.023l24.944-0.047l-0.045-24.022
	C280.392,439.464,286.339,432.246,293.622,432.233z"/>
<path style="fill:#C7CFE2;" d="M191.163,320.317l16.015-0.03c0.083,44.225-35.701,80.144-79.925,80.227
	c-44.224,0.083-80.144-35.701-80.227-79.925l112.107-0.211"/>
<path style="fill:#959CB3;" d="M47.025,320.587c0.083,44.225,36.002,80.008,80.227,79.925c4.345-0.008,8.605-0.374,12.761-1.048
	c-27.671-6.065-48.869-39.081-48.944-78.958L47.025,320.587z"/>
<circle style="fill:#707487;" cx="126.725" cy="120.245" r="16.015"/>
<path style="fill:#C7CFE2;" d="M527.303,223.593l16.015-0.03c0.083,44.225-35.701,80.144-79.926,80.227
	s-80.144-35.701-80.227-79.925l112.107-0.211"/>
<circle style="fill:#707487;" cx="462.866" cy="23.522" r="16.015"/>
<path style="fill:#959CB3;" d="M383.165,223.864c0.083,44.225,36.002,80.008,80.227,79.925c4.345-0.008,8.605-0.374,12.761-1.048
	c-27.671-6.065-48.869-39.082-48.944-78.959L383.165,223.864z"/>
<path d="M550.824,223.58c0-0.01,0.001-0.02,0.001-0.03c0-0.052-0.007-0.103-0.008-0.155c-0.004-0.187-0.01-0.373-0.029-0.562
	c-0.007-0.072-0.021-0.143-0.03-0.215c-0.022-0.17-0.043-0.34-0.077-0.509c-0.02-0.103-0.05-0.204-0.075-0.306
	c-0.033-0.135-0.062-0.27-0.102-0.405c-0.049-0.162-0.11-0.321-0.169-0.479c-0.026-0.069-0.045-0.14-0.074-0.208l-0.011-0.027
	c-0.001-0.002-0.002-0.004-0.003-0.006l-72.386-176c-0.318-0.775-0.757-1.463-1.277-2.063c5.944-4.283,9.819-11.265,9.804-19.134
	C486.363,10.532,475.811,0,462.821,0c-12.698,0.024-23.053,10.159-23.459,22.755l-117.2,33.5
	c-5.528-9.632-15.928-15.906-27.354-15.906c-2.925,0-5.845,0.41-8.677,1.221c-14.229,4.067-23.376,17.343-22.839,31.512
	L145.887,106.64c-4.273-5.994-11.284-9.914-19.206-9.914c-6.283,0.012-12.185,2.469-16.62,6.921
	c-4.434,4.45-6.87,10.363-6.859,16.645c0.014,7.515,3.579,14.212,9.098,18.513L40.063,317.779c-0.035,0.087-0.06,0.176-0.091,0.264
	c-0.05,0.137-0.102,0.274-0.143,0.414c-0.04,0.134-0.068,0.269-0.1,0.403c-0.024,0.103-0.053,0.205-0.073,0.309
	c-0.031,0.164-0.052,0.327-0.072,0.491c-0.01,0.078-0.023,0.154-0.031,0.232c-0.017,0.182-0.022,0.364-0.026,0.547
	c-0.001,0.054-0.008,0.108-0.008,0.162c0,0.017,0.001,0.034,0.001,0.051c0,0.036,0.001,0.072,0.002,0.109
	c0.177,48.168,39.411,87.264,87.579,87.259c0.053,0,0.114,0,0.167,0c23.394-0.044,45.371-9.196,61.882-25.769
	c16.47-16.532,25.529-38.475,25.532-61.801c0.001-0.049,0.003-0.098,0.003-0.147c0-0.01,0.001-0.02,0.001-0.03
	c0-0.052-0.007-0.103-0.008-0.155c-0.004-0.187-0.01-0.373-0.029-0.562c-0.007-0.072-0.021-0.143-0.03-0.215
	c-0.022-0.17-0.043-0.34-0.077-0.509c-0.02-0.103-0.05-0.204-0.075-0.306c-0.033-0.135-0.062-0.27-0.102-0.405
	c-0.049-0.162-0.11-0.321-0.169-0.479c-0.026-0.069-0.045-0.14-0.074-0.208l-0.011-0.027c-0.001-0.002-0.002-0.004-0.003-0.006
	l-72.386-175.999c-0.316-0.771-0.751-1.455-1.267-2.052c1.034-0.747,2.018-1.578,2.937-2.499c4.243-4.258,6.65-9.856,6.84-15.835
	l117.198-33.502c1.223,2.131,2.69,4.091,4.348,5.861c-0.293,0.805-0.46,1.67-0.458,2.576l0.618,328.814l-0.5,0.001
	c-12.97,0.024-23.502,10.597-23.478,23.567l0.031,16.516l-40.539,0.076c-12.97,0.024-23.502,10.597-23.478,23.568l0.03,16.015
	c0.008,4.141,3.367,7.492,7.507,7.492c0.005,0,0.01,0,0.015,0l208.199-0.392c1.991-0.004,3.9-0.799,5.304-2.209
	s2.192-3.321,2.189-5.313l-0.03-16.014c-0.012-6.266-2.474-12.164-6.935-16.607c-4.449-4.433-10.338-6.872-16.587-6.872
	c-0.015,0-0.031,0-0.045,0l-40.539,0.077l-0.031-16.516c-0.024-12.956-10.572-23.479-23.524-23.479c-0.014,0-0.029,0-0.042,0
	l-0.5,0.001l-0.618-328.813c-0.002-0.894-0.167-1.748-0.455-2.542c5.593-6.051,8.712-14.184,8.392-22.634l117.401-33.557
	c1.332,1.871,2.93,3.537,4.74,4.948l-72.189,178.859c-0.007,0.017-0.014,0.035-0.021,0.052l-0.026,0.066
	c-0.02,0.049-0.032,0.098-0.051,0.147c-0.066,0.174-0.13,0.349-0.183,0.529c-0.029,0.097-0.049,0.194-0.074,0.291
	c-0.035,0.138-0.072,0.276-0.099,0.417c-0.028,0.144-0.046,0.288-0.065,0.432c-0.013,0.096-0.029,0.191-0.038,0.289
	c-0.018,0.189-0.024,0.377-0.027,0.566c-0.001,0.051-0.008,0.1-0.007,0.151c0,0.017,0.001,0.034,0.001,0.051
	c0,0.036,0.001,0.072,0.002,0.109c0.177,48.168,39.411,87.264,87.579,87.259c0.053,0,0.114,0,0.167,0
	c23.394-0.044,45.371-9.196,61.883-25.769c16.469-16.532,25.529-38.474,25.532-61.801
	C550.822,223.678,550.824,223.63,550.824,223.58z M462.866,15.014c4.682,0,8.498,3.81,8.507,8.491
	c0.009,4.692-3.801,8.516-8.492,8.525l-0.005,2.219c-0.004-0.004-0.008-0.009-0.012-0.013v-2.206c-4.682,0-8.499-3.81-8.508-8.491
	C454.348,18.847,458.158,15.023,462.866,15.014z M290.256,56.004c1.49-0.426,3.023-0.643,4.551-0.643
	c7.325,0,13.849,4.927,15.866,11.98c0,0.001,0,0.002,0.001,0.003l0.001,0.001c2.501,8.756-2.585,17.914-11.341,20.418
	c-1.49,0.426-3.022,0.643-4.551,0.643c-7.326,0-13.851-4.928-15.868-11.984C276.412,67.668,281.5,58.508,290.256,56.004z
	 M120.697,114.242c1.605-1.61,3.739-2.499,6.028-2.503c4.682,0,8.499,3.81,8.508,8.491c0.004,2.273-0.877,4.411-2.481,6.022
	c-1.605,1.611-3.739,2.499-6.012,2.503l-0.005,2.219c-0.004-0.004-0.008-0.009-0.012-0.013v-2.206c-4.682,0-8.498-3.811-8.507-8.492
	C118.213,117.99,119.094,115.852,120.697,114.242z M127.835,147.11l68.146,165.691l-4.833,0.009
	c-4.146,0.008-7.501,3.375-7.493,7.522c0.008,4.141,3.367,7.492,7.507,7.492c0.005,0,0.01,0,0.015,0l8.127-0.016
	c-1.659,16.55-8.892,31.902-20.791,43.847c-13.68,13.732-31.89,21.315-51.274,21.351c-19.425,0.013-37.621-7.478-51.354-21.159
	c-11.943-11.899-19.235-27.224-20.956-43.768l104.219-0.195c4.146-0.008,7.501-3.375,7.493-7.521
	c-0.008-4.142-3.367-7.493-7.507-7.493c-0.005,0-0.01,0-0.015,0l-100.96,0.189l68.33-169.297c0.079,0.001,0.156,0.006,0.235,0.006
	c0.005,0,0.04,0,0.045,0c0.176,0,0.35-0.01,0.525-0.014C127.22,144.866,127.383,146.01,127.835,147.11z M319.508,439.69
	c0.005,0,0.01,0,0.016,0c4.684,0,8.501,3.807,8.509,8.492l0.045,24.014c0,0.003,0,0.006,0,0.01c0.008,4.141,3.367,7.492,7.507,7.492
	l0,0c0.005,0,0.009,0,0.014,0l0,0l0,0l48.046-0.091c2.281-0.031,4.388,0.882,6.007,2.494c1.619,1.612,2.512,3.742,2.516,5.998
	l0.016,8.507L199,496.971l-0.016-8.508c-0.009-4.692,3.801-8.516,8.492-8.525l48.022-0.09c0.003,0,0.006,0,0.009,0
	c0.005,0,0.01,0,0.015,0c0.003,0,0.006,0,0.01,0l48.036-0.09c4.146-0.008,7.501-3.375,7.493-7.521
	c-0.008-4.142-3.367-7.493-7.507-7.493c-0.005,0-0.01,0-0.015,0l-40.538,0.076l-0.031-16.515c-0.009-4.692,3.801-8.516,8.492-8.525
	l40.015-0.076c0.003,0,0.006,0,0.009,0c0.005,0,0.01,0,0.015,0c0.003,0,0.006,0,0.01,0L319.508,439.69z M286.95,424.737
	l-0.606-322.503c2.708,0.762,5.536,1.187,8.439,1.187c2.891,0,5.776-0.404,8.577-1.196l0.606,322.479L286.95,424.737z
	 M514.652,274.932c-13.68,13.732-31.89,21.315-51.274,21.351c-19.341,0.045-37.622-7.478-51.354-21.159
	c-11.943-11.899-19.235-27.224-20.956-43.768l104.219-0.196c4.146-0.008,7.501-3.375,7.493-7.521
	c-0.008-4.142-3.367-7.493-7.507-7.493c-0.005,0-0.01,0-0.015,0l-100.958,0.19l68.33-169.297c0.079,0.001,0.157,0.006,0.236,0.006
	c0.005,0,0.04,0,0.045,0c0.176,0,0.349-0.01,0.524-0.014c-0.075,1.111,0.088,2.256,0.541,3.355l68.147,165.691l-4.834,0.009
	c-4.146,0.008-7.501,3.375-7.493,7.522c0.008,4.141,3.367,7.492,7.507,7.492c0.005,0,0.01,0,0.015,0l8.127-0.016
	C533.785,247.635,526.551,262.987,514.652,274.932z"/>
<g>
</g>
<g>
</g>
<g>
</g>
<g>
</g>
<g>
</g>
<g>
</g>
<g>
</g>
<g>
</g>
<g>
</g>
<g>
</g>
<g>
</g>
<g>
</g>
<g>
</g>
<g>
</g>
<g>
</g>
</svg>
