<?xml version="1.0" encoding="iso-8859-1"?>
<!-- Generator: Adobe Illustrator 19.0.0, SVG Export Plug-In . SVG Version: 6.00 Build 0)  -->
<svg version="1.1" id="Layer_1" xmlns="http://www.w3.org/2000/svg" xmlns:xlink="http://www.w3.org/1999/xlink" x="0px" y="0px"
	 viewBox="0 0 512.001 512.001" style="enable-background:new 0 0 512.001 512.001;" xml:space="preserve">
<path style="fill:#EFF2FA;" d="M447.918,111.414l0.708,376.37c0.017,8.809-7.177,16.029-15.986,16.046l-352.347,0.663
	c-8.809,0.017-16.03-7.177-16.046-15.986L63.375,24.05C63.357,15.241,70.552,8.02,79.36,8.004l264.261-0.496"/>
<g>
	<path style="fill:#D7DEED;" d="M447.918,111.414L343.62,7.507l0.165,88.087c0.017,8.846,7.201,16.003,16.046,15.986l48.046-0.09"/>
	
		<rect x="272.274" y="359.943" transform="matrix(0.0019 1 -1 0.0019 687.7163 102.9336)" style="fill:#D7DEED;" width="40.04" height="72.071"/>
	
		<rect x="200.199" y="360.083" transform="matrix(0.0019 1 -1 0.0019 615.9189 175.1474)" style="fill:#D7DEED;" width="40.04" height="72.071"/>
	
		<rect x="184.129" y="336.058" transform="matrix(-1 0.0019 -0.0019 -1 441.0062 711.7357)" style="fill:#D7DEED;" width="72.071" height="40.04"/>
	
		<rect x="328.174" y="295.763" transform="matrix(1 -0.0019 0.0019 1 -0.5993 0.6926)" style="fill:#D7DEED;" width="72.071" height="40.04"/>
	
		<rect x="328.322" y="375.842" transform="matrix(1 -0.0019 0.0019 1 -0.7515 0.693)" style="fill:#D7DEED;" width="72.071" height="40.04"/>
	
		<rect x="328.248" y="335.803" transform="matrix(1 -0.0019 0.0019 1 -0.6754 0.6928)" style="fill:#D7DEED;" width="72.071" height="40.04"/>
	
		<rect x="183.896" y="215.938" transform="matrix(-1 0.0019 -0.0019 -1 440.3116 471.4983)" style="fill:#D7DEED;" width="72.071" height="40.04"/>
	
		<rect x="256.039" y="255.857" transform="matrix(1 -0.0019 0.0019 1 -0.5236 0.5554)" style="fill:#D7DEED;" width="72.071" height="40.04"/>
	
		<rect x="256.103" y="295.896" transform="matrix(1 -0.0019 0.0019 1 -0.5997 0.5556)" style="fill:#D7DEED;" width="72.071" height="40.04"/>
	
		<rect x="184.048" y="296.018" transform="matrix(-1 0.0019 -0.0019 -1 440.768 631.6572)" style="fill:#D7DEED;" width="72.071" height="40.04"/>
	
		<rect x="256.177" y="335.936" transform="matrix(1 -0.0019 0.0019 1 -0.6758 0.5558)" style="fill:#D7DEED;" width="72.071" height="40.04"/>
	
		<rect x="271.982" y="199.805" transform="matrix(-0.0019 -1 1 -0.0019 56.7172 528.29)" style="fill:#D7DEED;" width="40.04" height="72.071"/>
	
		<rect x="328.1" y="255.723" transform="matrix(1 -0.0019 0.0019 1 -0.5233 0.6924)" style="fill:#D7DEED;" width="72.071" height="40.04"/>
	
		<rect x="183.967" y="255.978" transform="matrix(-1 0.0019 -0.0019 -1 440.5297 551.5768)" style="fill:#D7DEED;" width="72.071" height="40.04"/>
	
		<rect x="328.026" y="215.684" transform="matrix(1 -0.0019 0.0019 1 -0.4472 0.6921)" style="fill:#D7DEED;" width="72.071" height="40.04"/>
</g>
<g>
	
		<rect x="112.059" y="336.199" transform="matrix(-1 0.0019 -0.0019 -1 296.865 712.1565)" style="fill:#C3E678;" width="72.071" height="40.04"/>
	
		<rect x="112.129" y="376.239" transform="matrix(-1 0.0019 -0.0019 -1 297.0812 792.235)" style="fill:#C3E678;" width="72.071" height="40.04"/>
	<path style="fill:#C3E678;" d="M112.159,416.346l0.06,32.032c0.008,4.404,3.619,8.001,8.023,7.993l64.063-0.12l-0.075-40.039
		L112.159,416.346z"/>
</g>
<g>
	
		<rect x="272.354" y="399.977" transform="matrix(0.0019 1 -1 0.0019 727.8295 142.8111)" style="fill:#D7DEED;" width="40.04" height="72.071"/>
	<path style="fill:#D7DEED;" d="M328.372,415.939l0.075,40.039l64.063-0.12c4.404-0.008,8.001-3.619,7.993-8.023l-0.06-32.032
		L328.372,415.939z"/>
	
		<rect x="200.279" y="400.117" transform="matrix(0.0019 1 -1 0.0019 656.0321 215.0249)" style="fill:#D7DEED;" width="40.04" height="72.071"/>
</g>
<g>
	
		<rect x="271.902" y="159.759" transform="matrix(-0.0019 -1 1 -0.0019 96.6823 488.0883)" style="fill:#8F96AC;" width="40.04" height="72.071"/>
	<path style="fill:#8F96AC;" d="M400.067,215.607l-0.06-32.032c-0.008-4.404-3.619-8.001-8.023-7.993l-64.063,0.12l0.075,40.039
		L400.067,215.607z"/>
</g>
<path style="fill:#D7DEED;" d="M119.715,176.095c-4.404,0.008-8.001,3.619-7.993,8.023l0.06,32.032l72.071-0.135l-0.068-40.039
	L119.715,176.095z"/>
<polygon style="fill:#8F96AC;" points="255.849,175.838 183.785,175.975 183.853,216.013 255.924,215.878 "/>
<g>
	
		<rect x="111.978" y="296.159" transform="matrix(-1 0.0019 -0.0019 -1 296.6267 632.076)" style="fill:#C3E678;" width="72.071" height="40.04"/>
	
		<rect x="111.896" y="256.12" transform="matrix(-1 0.0019 -0.0019 -1 296.3885 551.9976)" style="fill:#C3E678;" width="72.071" height="40.04"/>
	
		<rect x="111.825" y="216.08" transform="matrix(-1 0.0019 -0.0019 -1 296.1703 471.9191)" style="fill:#C3E678;" width="72.071" height="40.04"/>
</g>
<path d="M455.425,111.401c0-0.001,0-0.001,0-0.002c-0.001-0.246-0.014-0.492-0.039-0.738c-0.011-0.114-0.033-0.225-0.049-0.338
	c-0.019-0.129-0.034-0.258-0.06-0.386c-0.026-0.129-0.061-0.255-0.094-0.381c-0.028-0.11-0.052-0.221-0.085-0.33
	c-0.038-0.125-0.085-0.245-0.129-0.367c-0.039-0.108-0.075-0.218-0.119-0.325c-0.048-0.114-0.103-0.224-0.156-0.336
	c-0.052-0.11-0.101-0.221-0.159-0.329c-0.057-0.106-0.122-0.208-0.185-0.311c-0.064-0.106-0.124-0.214-0.194-0.318
	c-0.078-0.115-0.164-0.224-0.247-0.335c-0.064-0.084-0.122-0.171-0.19-0.253c-0.157-0.191-0.323-0.374-0.498-0.55
	c-0.001-0.001-0.002-0.002-0.003-0.003L348.918,2.189c-0.005-0.005-0.011-0.009-0.016-0.013c-0.232-0.23-0.484-0.44-0.746-0.639
	c-0.059-0.045-0.118-0.09-0.178-0.133c-0.267-0.191-0.546-0.369-0.838-0.525c-0.021-0.011-0.042-0.02-0.063-0.03
	c-0.277-0.144-0.567-0.268-0.863-0.377c-0.055-0.02-0.109-0.041-0.164-0.06c-0.316-0.108-0.64-0.2-0.974-0.266
	c-0.01-0.002-0.02-0.003-0.03-0.005c-0.305-0.059-0.618-0.094-0.935-0.114c-0.081-0.005-0.162-0.01-0.244-0.012
	C343.785,0.01,343.704,0,343.62,0c-0.005,0-0.01,0-0.015,0L79.346,0.497c-6.265,0.011-12.163,2.474-16.607,6.935
	c-4.443,4.46-6.884,10.367-6.872,16.632l0.873,464.457c0.024,12.957,10.571,23.48,23.523,23.479c0.014,0,0.031,0,0.045,0
	l352.347-0.662c6.265-0.012,12.163-2.475,16.607-6.935c4.443-4.46,6.884-10.367,6.872-16.632L455.425,111.401z M438.624,493.806
	c-1.613,1.619-3.743,2.513-5.998,2.517l-352.347,0.662c-0.005,0-0.011,0-0.016,0c-4.685,0-8.499-3.807-8.508-8.491L70.882,24.036
	c-0.004-2.254,0.882-4.388,2.494-6.007s3.743-2.512,5.998-2.516l256.752-0.482l0.151,80.579
	c0.024,12.956,10.571,23.48,23.523,23.479c0.014,0,0.031,0,0.045,0l48.046-0.09c4.146-0.008,7.501-3.375,7.493-7.521
	c-0.008-4.141-3.367-7.493-7.507-7.493c-0.005,0-0.01,0-0.015,0l-48.046,0.09c-0.005,0-0.011,0-0.016,0
	c-4.685,0-8.499-3.806-8.508-8.492l-0.131-69.962l89.255,88.921l0.702,373.26C441.123,490.053,440.236,492.187,438.624,493.806z"/>
<path d="M407.95,415.79v-0.001l-0.075-40.038v-0.001v-0.001l-0.075-40.037l0,0l0,0l-0.286-152.15
	c-0.016-8.539-6.976-15.486-15.544-15.486l-64.046,0.12c-0.001,0-0.002,0-0.003,0c-0.005,0-0.01,0-0.015,0c-0.001,0-0.002,0-0.003,0
	l-72.049,0.135c-0.001,0-0.003,0-0.004,0c-0.005,0-0.01,0-0.015,0c-0.002,0-0.003,0-0.005,0l-72.113,0.135c-0.017,0-0.034,0-0.051,0
	l-63.965,0.12c-8.555,0.016-15.502,6.989-15.486,15.544l0.06,32.031v0.001v0.001v0.045c0,0.017,0,0.034,0,0.051l0.075,39.939v0.001
	v0.001v0.047c0,0.017,0,0.033,0,0.05l0.075,39.941l0,0l0,0v0.048c0,0.016,0,0.033,0,0.049l0.075,39.991c0,0.016,0,0.032,0,0.048
	l0.077,39.995c0,0.015,0,0.031,0,0.046l0.076,39.993c0,0.015,0,0.03,0,0.045l0.06,31.935c0.016,8.539,6.976,15.486,15.515,15.486
	c0.004,0,0.024,0,0.029,0l64.045-0.12c0.001,0,0.002,0,0.003,0c0.005,0,0.01,0,0.015,0c0.001,0,0.002,0,0.003,0l208.202-0.391
	c8.555-0.016,15.502-6.989,15.486-15.544l-0.06-32.031L407.95,415.79z M176.558,328.638l-35.591,0.067l35.554-19.84L176.558,328.638
	z M176.483,288.599l-35.591,0.067l35.554-19.84L176.483,288.599z M176.408,248.559l-35.591,0.067l35.554-19.84L176.408,248.559z
	 M119.38,263.681l35.591-0.067l-35.554,19.84L119.38,263.681z M119.455,303.721l35.591-0.067l-35.554,19.84L119.455,303.721z
	 M119.53,343.76l35.591-0.067l-35.554,19.84L119.53,343.76z M119.605,383.8l35.591-0.067l-35.554,19.84L119.605,383.8z
	 M176.633,368.678l-35.591,0.067l35.554-19.84L176.633,368.678z M191.573,328.61l-0.047-25.025l57.056-0.107l0.047,25.025
	L191.573,328.61z M263.597,303.45l57.056-0.107l0.047,25.025l-57.056,0.107L263.597,303.45z M335.668,303.315l57.056-0.107
	l0.047,25.025l-57.056,0.107L335.668,303.315z M392.695,288.193l-57.056,0.107l-0.047-25.025l57.056-0.107L392.695,288.193z
	 M320.624,288.328l-57.056,0.107l-0.047-25.025l57.056-0.107L320.624,288.328z M248.553,288.464l-57.056,0.107l-0.047-25.025
	l57.056-0.107L248.553,288.464z M191.423,248.531l-0.047-25.025l57.056-0.107l0.047,25.025L191.423,248.531z M119.342,243.415
	l-0.037-19.773l35.591-0.067L119.342,243.415z M176.671,388.945l0.037,19.772l-35.591,0.067L176.671,388.945z M191.723,408.689
	l-0.047-25.025l57.056-0.107l0.047,25.025L191.723,408.689z M191.648,368.65l-0.047-25.025l57.056-0.107l0.047,25.025
	L191.648,368.65z M263.672,343.49l57.056-0.107l0.047,25.025l-57.056,0.107L263.672,343.49z M335.743,343.355l57.056-0.107
	l0.047,25.025l-57.056,0.107L335.743,343.355z M392.62,248.154l-57.056,0.107l-0.047-25.025l57.056-0.107L392.62,248.154z
	 M320.549,248.289l-57.056,0.107l-0.047-25.025l57.056-0.107L320.549,248.289z M263.418,208.357l-0.047-25.025l57.056-0.107
	l0.047,25.025L263.418,208.357z M248.403,208.385l-57.056,0.107l-0.047-25.025l57.056-0.107L248.403,208.385z M176.332,208.521
	l-35.591,0.067l35.554-19.84L176.332,208.521z M155.272,423.773l-35.554,19.84l-0.037-19.773L155.272,423.773z M176.746,428.984
	l0.037,19.772l-35.591,0.067L176.746,428.984z M191.751,423.704l57.056-0.107l0.047,25.025l-57.056,0.107L191.751,423.704z
	 M263.822,423.569l57.056-0.107l0.047,25.025l-57.056,0.107L263.822,423.569z M263.794,408.554l-0.047-25.025l57.056-0.107
	l0.047,25.025L263.794,408.554z M335.818,383.393l57.056-0.107l0.047,25.025l-57.056,0.107L335.818,383.393z M391.999,183.091
	c0.256,0,0.5,0.243,0.5,0.499l0.046,24.524l-57.056,0.107l-0.047-25.025L391.999,183.091z M119.73,183.602l35.092-0.066
	l-35.555,19.84l-0.036-19.273C119.23,183.846,119.473,183.602,119.73,183.602z M392.496,448.351l-56.556,0.106l-0.047-25.025
	l57.056-0.107l0.046,24.524C392.997,448.107,392.753,448.351,392.496,448.351z"/>
<g>
</g>
<g>
</g>
<g>
</g>
<g>
</g>
<g>
</g>
<g>
</g>
<g>
</g>
<g>
</g>
<g>
</g>
<g>
</g>
<g>
</g>
<g>
</g>
<g>
</g>
<g>
</g>
<g>
</g>
</svg>
