<?xml version="1.0" encoding="iso-8859-1"?>
<!-- Generator: Adobe Illustrator 19.0.0, SVG Export Plug-In . SVG Version: 6.00 Build 0)  -->
<svg version="1.1" id="Layer_1" xmlns="http://www.w3.org/2000/svg" xmlns:xlink="http://www.w3.org/1999/xlink" x="0px" y="0px"
	 viewBox="0 0 512.001 512.001" style="enable-background:new 0 0 512.001 512.001;" xml:space="preserve">
<polyline style="fill:#C7CFE2;" points="159.284,199.927 158.969,31.598 351.344,31.238 351.661,199.566 "/>
<g>
	<polyline style="fill:#AFB9D2;" points="15.53,480.746 15.334,376.543 143.585,376.302 143.781,480.506 	"/>
	<polyline style="fill:#AFB9D2;" points="191.875,480.416 191.679,376.212 319.93,375.971 320.125,480.174 	"/>
	<polyline style="fill:#AFB9D2;" points="368.219,480.084 368.024,375.88 496.273,375.639 496.47,479.843 	"/>
</g>
<g>
	<path style="fill:#8F96AC;" d="M223.817,456.718c-4.143,0-7.507-3.356-7.515-7.501l-0.015-40.989
		c-0.008-4.15,3.351-7.521,7.501-7.529c0.005,0,0.01,0,0.015,0c4.143,0,7.507,3.356,7.515,7.501l0.015,40.989
		c0.008,4.15-3.351,7.521-7.501,7.529C223.827,456.718,223.822,456.718,223.817,456.718z"/>
	<path style="fill:#8F96AC;" d="M255.878,456.658c-4.144,0-7.507-3.356-7.515-7.501l-0.015-40.989
		c-0.008-4.15,3.351-7.521,7.501-7.529c0.004,0,0.009,0,0.014,0c4.144,0,7.507,3.356,7.514,7.501l0.015,40.989
		c0.008,4.15-3.351,7.521-7.501,7.529C255.888,456.658,255.883,456.658,255.878,456.658z"/>
	<path style="fill:#8F96AC;" d="M287.941,456.598c-4.143,0-7.507-3.356-7.515-7.501l-0.015-40.989
		c-0.008-4.15,3.351-7.521,7.501-7.529c0.005,0,0.01,0,0.015,0c4.143,0,7.507,3.356,7.515,7.501l0.015,40.989
		c0.008,4.15-3.351,7.521-7.501,7.529C287.951,456.598,287.946,456.598,287.941,456.598z"/>
	<path style="fill:#8F96AC;" d="M223.168,175.228c-4.144,0-7.507-3.356-7.515-7.501l-0.015-104.173
		c-0.008-4.15,3.351-7.521,7.501-7.529c0.004,0,0.009,0,0.014,0c4.144,0,7.507,3.356,7.515,7.501l0.015,104.173
		c0.008,4.15-3.351,7.521-7.501,7.529C223.178,175.228,223.173,175.228,223.168,175.228z"/>
	<path style="fill:#8F96AC;" d="M255.231,175.168c-4.143,0-7.507-3.356-7.515-7.501l-0.015-104.173
		c-0.008-4.15,3.351-7.521,7.501-7.529c0.005,0,0.01,0,0.015,0c4.143,0,7.507,3.356,7.514,7.501l0.015,104.173
		c0.008,4.15-3.351,7.521-7.501,7.529C255.241,175.168,255.236,175.168,255.231,175.168z"/>
	<path style="fill:#8F96AC;" d="M287.294,175.108c-4.143,0-7.507-3.356-7.515-7.501l-0.015-104.173
		c-0.008-4.15,3.351-7.521,7.501-7.529c0.005,0,0.01,0,0.015,0c4.143,0,7.507,3.356,7.515,7.501l0.015,104.173
		c0.008,4.15-3.351,7.521-7.501,7.529C287.304,175.108,287.299,175.108,287.294,175.108z"/>
	<path style="fill:#8F96AC;" d="M319.356,175.048c-4.143,0-7.507-3.356-7.515-7.501l-0.015-104.173
		c-0.008-4.15,3.351-7.521,7.501-7.529c0.005,0,0.01,0,0.015,0c4.143,0,7.507,3.356,7.515,7.501l0.015,104.173
		c0.008,4.15-3.351,7.521-7.501,7.529C319.366,175.048,319.361,175.048,319.356,175.048z"/>
	<path style="fill:#8F96AC;" d="M191.106,175.288c-4.144,0-7.507-3.356-7.515-7.501l-0.015-104.173
		c-0.008-4.15,3.351-7.521,7.501-7.529c0.004,0,0.009,0,0.014,0c4.144,0,7.507,3.356,7.515,7.501l0.015,104.173
		c0.008,4.15-3.351,7.521-7.501,7.529C191.116,175.288,191.111,175.288,191.106,175.288z"/>
	<path style="fill:#8F96AC;" d="M47.472,457.084c-4.143,0-7.507-3.356-7.515-7.501l-0.015-41.024
		c-0.008-4.15,3.351-7.521,7.501-7.529c0.005,0,0.01,0,0.015,0c4.143,0,7.507,3.356,7.515,7.501l0.015,41.024
		c0.008,4.15-3.351,7.521-7.501,7.529C47.482,457.084,47.477,457.084,47.472,457.084z"/>
	<path style="fill:#8F96AC;" d="M79.535,457.024c-4.143,0-7.507-3.356-7.515-7.501l-0.015-41.024
		c-0.008-4.15,3.351-7.521,7.501-7.529c0.005,0,0.01,0,0.015,0c4.143,0,7.507,3.356,7.515,7.501l0.015,41.024
		c0.008,4.15-3.351,7.521-7.501,7.529C79.545,457.024,79.54,457.024,79.535,457.024z"/>
	<path style="fill:#8F96AC;" d="M111.597,456.964c-4.143,0-7.507-3.356-7.515-7.501l-0.015-41.024
		c-0.008-4.15,3.351-7.521,7.501-7.529c0.005,0,0.01,0,0.015,0c4.143,0,7.507,3.356,7.515,7.501l0.015,41.024
		c0.008,4.15-3.351,7.521-7.501,7.529C111.607,456.964,111.602,456.964,111.597,456.964z"/>
	<path style="fill:#8F96AC;" d="M400.16,456.082c-4.143,0-7.507-3.356-7.515-7.501l-0.015-40.686
		c-0.008-4.15,3.351-7.521,7.501-7.529c0.005,0,0.01,0,0.015,0c4.143,0,7.507,3.356,7.515,7.501l0.015,40.686
		c0.008,4.15-3.351,7.521-7.501,7.529C400.17,456.082,400.165,456.082,400.16,456.082z"/>
	<path style="fill:#8F96AC;" d="M432.223,456.022c-4.143,0-7.507-3.356-7.515-7.501l-0.015-40.686
		c-0.008-4.15,3.351-7.521,7.501-7.529c0.005,0,0.01,0,0.015,0c4.143,0,7.507,3.356,7.515,7.501l0.015,40.686
		c0.008,4.15-3.351,7.521-7.501,7.529C432.233,456.022,432.228,456.022,432.223,456.022z"/>
	<path style="fill:#8F96AC;" d="M464.286,455.962c-4.143,0-7.507-3.356-7.515-7.501l-0.015-40.686
		c-0.008-4.15,3.351-7.521,7.501-7.529c0.005,0,0.01,0,0.015,0c4.143,0,7.507,3.356,7.515,7.501l0.015,40.686
		c0.008,4.15-3.351,7.521-7.501,7.529C464.296,455.962,464.291,455.962,464.286,455.962z"/>
</g>
<path d="M79.399,351.874c0.005,0,0.01,0,0.015,0c4.15-0.008,7.509-3.379,7.501-7.529l-0.09-48.094
	c-0.012-6.522,2.539-12.681,7.185-17.344c4.645-4.663,10.795-7.238,17.317-7.25l136.767-0.258l0.136,72.642
	c0.008,4.146,3.371,7.501,7.515,7.501c0.005,0,0.01,0,0.015,0c4.15-0.008,7.509-3.379,7.501-7.529l-0.136-72.642l136.767-0.258
	c0.016,0,0.031,0,0.047,0c6.504,0,12.646,2.55,17.297,7.185c4.663,4.645,7.238,10.795,7.25,17.317l0.09,48.094
	c0.008,4.145,3.371,7.501,7.515,7.501c0.005,0,0.01,0,0.015,0c4.15-0.008,7.509-3.379,7.501-7.529l-0.09-48.094
	c-0.02-10.537-4.165-20.457-11.672-27.936c-7.49-7.462-17.396-11.567-27.905-11.567c-0.025,0-0.051,0-0.076,0l-136.767,0.258
	l-0.046-24.548c-0.008-4.146-3.371-7.501-7.514-7.501c-0.005,0-0.01,0-0.015,0c-4.15,0.008-7.509,3.379-7.501,7.529l0.046,24.548
	L111.3,256.629c-10.536,0.02-20.457,4.165-27.936,11.672c-7.479,7.507-11.587,17.444-11.567,27.98l0.09,48.094
	C71.893,348.519,75.255,351.874,79.399,351.874z"/>
<path d="M143.253,207.472c0.005,0,0.01,0,0.015,0l208.389-0.392c0.001,0,0.002,0,0.003,0c0.005,0,0.01,0,0.015,0
	c0.001,0,0.002,0,0.002,0l16.029-0.03c4.15-0.008,7.509-3.379,7.501-7.529c-0.008-4.146-3.371-7.501-7.515-7.501
	c-0.005,0-0.01,0-0.015,0l-8.517,0.016l-0.303-160.813c-0.008-4.145-3.371-7.501-7.515-7.501c-0.005,0-0.01,0-0.015,0
	l-192.375,0.362c-4.15,0.008-7.509,3.379-7.501,7.529l0.302,160.814l-8.517,0.016c-4.15,0.008-7.509,3.379-7.501,7.529
	C135.746,204.118,139.109,207.472,143.253,207.472z M166.498,39.099l177.346-0.334l0.289,153.299l-177.347,0.334L166.498,39.099z"/>
<path d="M223.29,143.196c0.005,0,0.01,0,0.015,0c4.15-0.008,7.509-3.379,7.501-7.529l-0.015-8.016
	c-0.008-4.145-3.371-7.501-7.515-7.501c-0.005,0-0.01,0-0.015,0c-4.15,0.008-7.509,3.379-7.501,7.529l0.015,8.016
	C215.783,139.841,219.145,143.196,223.29,143.196z"/>
<path d="M255.352,143.136c0.005,0,0.01,0,0.015,0c4.15-0.008,7.509-3.379,7.501-7.529l-0.015-8.016
	c-0.008-4.15-3.374-7.46-7.529-7.501c-4.15,0.008-7.509,3.379-7.501,7.529l0.015,8.016
	C247.846,139.781,251.208,143.136,255.352,143.136z"/>
<path d="M287.414,143.076c0.005,0,0.01,0,0.014,0c4.15-0.008,7.509-3.379,7.501-7.529l-0.015-8.016
	c-0.008-4.146-3.371-7.501-7.515-7.501c-0.005,0-0.01,0-0.014,0c-4.15,0.008-7.509,3.379-7.501,7.529l0.015,8.016
	C279.907,139.721,283.27,143.076,287.414,143.076z"/>
<path d="M319.477,143.015c0.005,0,0.01,0,0.014,0c4.15-0.008,7.509-3.379,7.501-7.529l-0.015-8.016
	c-0.008-4.146-3.371-7.501-7.515-7.501c-0.005,0-0.01,0-0.014,0c-4.15,0.008-7.509,3.379-7.501,7.529l0.015,8.016
	C311.97,139.661,315.333,143.015,319.477,143.015z"/>
<path d="M191.227,143.257c0.005,0,0.01,0,0.015,0c4.15-0.008,7.509-3.379,7.501-7.529l-0.015-8.016
	c-0.008-4.145-3.371-7.501-7.515-7.501c-0.005,0-0.01,0-0.015,0c-4.15,0.008-7.509,3.379-7.501,7.529l0.015,8.016
	C183.72,139.901,187.083,143.257,191.227,143.257z"/>
<path d="M223.335,152.214c-0.005,0-0.01,0-0.015,0c-4.15,0.008-7.509,3.379-7.501,7.529l0.015,8.016
	c0.008,4.145,3.371,7.501,7.515,7.501c0.005,0,0.01,0,0.015,0c4.15-0.008,7.509-3.379,7.501-7.529l-0.015-8.016
	C230.841,155.57,227.479,152.214,223.335,152.214z"/>
<path d="M255.397,152.154c-0.005,0-0.01,0-0.015,0c-4.15,0.008-7.509,3.379-7.501,7.529l0.015,8.016
	c0.008,4.145,3.371,7.501,7.515,7.501c0.005,0,0.01,0,0.015,0c4.15-0.008,7.509-3.379,7.501-7.529l-0.015-8.016
	C262.904,155.51,259.541,152.154,255.397,152.154z"/>
<path d="M287.46,152.093c-0.005,0-0.01,0-0.015,0c-4.15,0.008-7.509,3.379-7.501,7.529l0.015,8.016
	c0.008,4.145,3.371,7.501,7.515,7.501c0.005,0,0.01,0,0.015,0c4.15-0.008,7.509-3.379,7.501-7.529l-0.015-8.016
	C294.967,155.448,291.604,152.093,287.46,152.093z"/>
<path d="M319.523,152.033c-0.005,0-0.01,0-0.015,0c-4.15,0.008-7.509,3.379-7.501,7.529l0.015,8.016
	c0.008,4.145,3.371,7.501,7.515,7.501c0.005,0,0.01,0,0.015,0c4.15-0.008,7.509-3.379,7.501-7.529l-0.015-8.016
	C327.029,155.388,323.667,152.033,319.523,152.033z"/>
<path d="M191.272,152.274c-0.005,0-0.01,0-0.015,0c-4.15,0.008-7.509,3.379-7.501,7.529l0.015,8.016
	c0.008,4.145,3.371,7.501,7.515,7.501c0.005,0,0.01,0,0.015,0c4.15-0.008,7.509-3.379,7.501-7.529l-0.015-8.016
	C198.779,155.63,195.416,152.274,191.272,152.274z"/>
<path d="M328.142,472.645c-0.005,0-0.01,0-0.015,0l-0.501,0.001l-0.182-96.689c-0.008-4.146-3.371-7.501-7.515-7.501
	c-0.005,0-0.01,0-0.015,0l-128.25,0.241c-4.15,0.008-7.509,3.379-7.501,7.529l0.181,96.689l-0.501,0.001
	c-4.15,0.008-7.509,3.379-7.501,7.529c0.008,4.146,3.371,7.501,7.515,7.501c0.005,0,0.01,0,0.015,0l136.25-0.257c0,0,0,0,0.001,0
	c0.005,0,0.01,0,0.015,0c0,0,0.001,0,0.002,0l8.014-0.015c4.15-0.008,7.509-3.379,7.501-7.529
	C335.647,475.999,332.285,472.645,328.142,472.645z M199.207,383.712l113.22-0.212l0.167,89.174l-113.221,0.213L199.207,383.712z"/>
<path d="M223.817,423.745c0.005,0,0.01,0,0.015,0c4.15-0.008,7.509-3.379,7.501-7.529l-0.015-8.016
	c-0.008-4.145-3.371-7.501-7.515-7.501c-0.005,0-0.01,0-0.015,0c-4.15,0.008-7.509,3.379-7.501,7.529l0.015,8.016
	C216.31,420.389,219.674,423.745,223.817,423.745z"/>
<path d="M255.878,423.684c0.005,0,0.01,0,0.014,0c4.15-0.008,7.509-3.379,7.501-7.529l-0.015-8.016
	c-0.008-4.146-3.371-7.501-7.514-7.501c-0.005,0-0.01,0-0.014,0c-4.15,0.008-7.509,3.379-7.501,7.529l0.015,8.016
	C248.373,420.329,251.735,423.684,255.878,423.684z"/>
<path d="M287.941,423.624c0.005,0,0.01,0,0.015,0c4.15-0.008,7.509-3.379,7.501-7.529l-0.015-8.016
	c-0.008-4.145-3.371-7.501-7.515-7.501c-0.005,0-0.01,0-0.015,0c-4.15,0.008-7.509,3.379-7.501,7.529l0.015,8.016
	C280.435,420.269,283.798,423.624,287.941,423.624z"/>
<path d="M223.863,432.763c-0.005,0-0.01,0-0.015,0c-4.15,0.008-7.509,3.379-7.501,7.529l0.015,8.016
	c0.008,4.145,3.371,7.501,7.515,7.501c0.005,0,0.01,0,0.015,0c4.15-0.008,7.509-3.379,7.501-7.529l-0.015-8.016
	C231.369,436.117,228.006,432.763,223.863,432.763z"/>
<path d="M255.925,432.701c-0.005,0-0.01,0-0.015,0c-4.15,0.008-7.509,3.379-7.501,7.529l0.015,8.016
	c0.008,4.145,3.371,7.501,7.515,7.501c0.005,0,0.01,0,0.015,0c4.15-0.008,7.509-3.379,7.501-7.529l-0.015-8.016
	C263.432,436.057,260.068,432.701,255.925,432.701z"/>
<path d="M287.988,432.641c-0.005,0-0.01,0-0.014,0c-4.15,0.008-7.509,3.379-7.501,7.529l0.015,8.016
	c0.008,4.146,3.371,7.501,7.515,7.501c0.005,0,0.01,0,0.014,0c4.15-0.008,7.509-3.379,7.501-7.529l-0.015-8.016
	C295.495,435.997,292.132,432.641,287.988,432.641z"/>
<path d="M223.228,111.134c0.005,0,0.01,0,0.014,0c4.15-0.008,7.509-3.379,7.501-7.529l-0.015-8.016
	c-0.008-4.146-3.371-7.501-7.515-7.501c-0.005,0-0.01,0-0.014,0c-4.15,0.008-7.509,3.379-7.501,7.529l0.015,8.016
	C215.722,107.778,219.084,111.134,223.228,111.134z"/>
<path d="M255.291,111.074c0.005,0,0.01,0,0.014,0c4.15-0.008,7.509-3.379,7.501-7.529l-0.015-8.016
	c-0.008-4.146-3.371-7.501-7.514-7.501c-0.005,0-0.01,0-0.014,0c-4.15,0.008-7.509,3.379-7.501,7.529l0.015,8.016
	C247.784,107.718,251.147,111.074,255.291,111.074z"/>
<path d="M287.354,111.014c0.005,0,0.01,0,0.015,0c4.15-0.008,7.509-3.379,7.501-7.529l-0.015-8.016
	c-0.008-4.145-3.371-7.501-7.515-7.501c-0.005,0-0.01,0-0.015,0c-4.15,0.008-7.509,3.379-7.501,7.529l0.015,8.016
	C279.847,107.658,283.211,111.014,287.354,111.014z"/>
<path d="M319.417,110.952c0.005,0,0.01,0,0.015,0c4.15-0.008,7.509-3.379,7.501-7.529l-0.015-8.016
	c-0.008-4.145-3.371-7.501-7.515-7.501c-0.005,0-0.01,0-0.015,0c-4.15,0.008-7.509,3.379-7.501,7.529l0.015,8.016
	C311.91,107.598,315.273,110.952,319.417,110.952z"/>
<path d="M191.166,111.194c0.005,0,0.01,0,0.015,0c4.15-0.008,7.509-3.379,7.501-7.529l-0.015-8.016
	c-0.008-4.145-3.371-7.501-7.515-7.501c-0.005,0-0.01,0-0.015,0c-4.15,0.008-7.509,3.379-7.501,7.529l0.015,8.016
	C183.66,107.838,187.023,111.194,191.166,111.194z"/>
<path d="M223.168,79.071c0.005,0,0.01,0,0.014,0c4.15-0.008,7.509-3.379,7.501-7.529l-0.015-8.016
	c-0.008-4.146-3.371-7.501-7.515-7.501c-0.005,0-0.01,0-0.014,0c-4.15,0.008-7.509,3.379-7.501,7.529l0.015,8.016
	C215.662,75.716,219.024,79.071,223.168,79.071z"/>
<path d="M255.231,79.011c0.005,0,0.01,0,0.015,0c4.15-0.008,7.509-3.379,7.501-7.529l-0.015-8.016
	c-0.008-4.145-3.371-7.501-7.514-7.501c-0.005,0-0.01,0-0.015,0c-4.15,0.008-7.509,3.379-7.501,7.529l0.015,8.016
	C247.724,75.655,251.088,79.011,255.231,79.011z"/>
<path d="M287.294,78.951c0.005,0,0.01,0,0.015,0c4.15-0.008,7.509-3.379,7.501-7.529l-0.015-8.016
	c-0.008-4.145-3.371-7.501-7.515-7.501c-0.005,0-0.01,0-0.015,0c-4.15,0.008-7.509,3.379-7.501,7.529l0.015,8.016
	C279.787,75.595,283.151,78.951,287.294,78.951z"/>
<path d="M319.356,78.891c0.005,0,0.01,0,0.015,0c4.15-0.008,7.509-3.379,7.501-7.529l-0.015-8.016
	c-0.008-4.145-3.371-7.501-7.515-7.501c-0.005,0-0.01,0-0.015,0c-4.15,0.008-7.509,3.379-7.501,7.529l0.015,8.016
	C311.85,75.535,315.213,78.891,319.356,78.891z"/>
<path d="M191.106,79.131c0.005,0,0.01,0,0.014,0c4.15-0.008,7.509-3.379,7.501-7.529l-0.015-8.016
	c-0.008-4.146-3.371-7.501-7.515-7.501c-0.005,0-0.01,0-0.014,0c-4.15,0.008-7.509,3.379-7.501,7.529l0.015,8.016
	C183.599,75.776,186.962,79.131,191.106,79.131z"/>
<path d="M151.797,472.976c-0.005,0-0.01,0-0.015,0l-0.501,0.001l-0.181-96.689c-0.004-1.993-0.799-3.903-2.211-5.309
	c-1.409-1.403-3.315-2.191-5.303-2.191c-0.004,0-0.009,0-0.014,0L15.32,369.029c-1.993,0.004-3.903,0.799-5.309,2.211
	c-1.407,1.412-2.194,3.324-2.191,5.318l0.182,96.689l-0.501,0.001c-4.15,0.008-7.509,3.379-7.501,7.529
	c0.008,4.146,3.371,7.501,7.515,7.501c0.005,0,0.01,0,0.015,0l136.249-0.255h0.001c0.005,0,0.01,0,0.015,0c0.001,0,0.001,0,0.002,0
	l8.014-0.015c4.15-0.008,7.509-3.379,7.501-7.529C159.303,476.331,155.941,472.976,151.797,472.976z M22.863,384.043l113.221-0.212
	l0.167,89.174L23.03,473.218L22.863,384.043z"/>
<path d="M47.472,424.076c0.005,0,0.01,0,0.015,0c4.15-0.008,7.509-3.379,7.501-7.529l-0.015-8.016
	c-0.008-4.145-3.371-7.501-7.515-7.501c-0.005,0-0.01,0-0.015,0c-4.15,0.008-7.509,3.379-7.501,7.529l0.015,8.016
	C39.965,420.72,43.329,424.076,47.472,424.076z"/>
<path d="M79.535,424.016c0.005,0,0.01,0,0.015,0c4.15-0.008,7.509-3.379,7.501-7.529l-0.015-8.016
	c-0.008-4.145-3.371-7.501-7.515-7.501c-0.005,0-0.01,0-0.015,0c-4.15,0.008-7.509,3.379-7.501,7.529l0.015,8.016
	C72.028,420.66,75.391,424.016,79.535,424.016z"/>
<path d="M111.597,423.955c0.005,0,0.01,0,0.015,0c4.15-0.008,7.509-3.379,7.501-7.529l-0.015-8.016
	c-0.008-4.145-3.371-7.501-7.515-7.501c-0.005,0-0.01,0-0.015,0c-4.15,0.008-7.509,3.379-7.501,7.529l0.015,8.016
	C104.091,420.6,107.454,423.955,111.597,423.955z"/>
<path d="M47.518,433.093c-0.005,0-0.01,0-0.014,0c-4.15,0.008-7.509,3.379-7.501,7.529l0.015,8.016
	c0.008,4.146,3.371,7.501,7.515,7.501c0.005,0,0.01,0,0.014,0c4.15-0.008,7.509-3.379,7.501-7.529l-0.015-8.016
	C55.025,436.449,51.662,433.093,47.518,433.093z"/>
<path d="M79.581,433.033c-0.005,0-0.01,0-0.015,0c-4.15,0.008-7.509,3.379-7.501,7.529l0.015,8.016
	c0.008,4.145,3.371,7.501,7.515,7.501c0.005,0,0.01,0,0.015,0c4.15-0.008,7.509-3.379,7.501-7.529l-0.015-8.016
	C87.087,436.389,83.724,433.033,79.581,433.033z"/>
<path d="M111.643,432.973c-0.005,0-0.01,0-0.015,0c-4.15,0.008-7.509,3.379-7.501,7.529l0.015,8.016
	c0.008,4.145,3.371,7.501,7.515,7.501c0.005,0,0.01,0,0.015,0c4.15-0.008,7.509-3.379,7.501-7.529l-0.015-8.016
	C119.15,436.329,115.786,432.973,111.643,432.973z"/>
<path d="M504.486,472.313c-0.005,0-0.01,0-0.015,0l-0.501,0.001l-0.181-96.689c-0.004-1.993-0.799-3.903-2.211-5.309
	c-1.409-1.403-3.315-2.191-5.303-2.191c-0.004,0-0.009,0-0.014,0l-128.251,0.241c-4.15,0.008-7.509,3.379-7.501,7.529l0.181,96.689
	l-0.501,0.001c-4.15,0.008-7.509,3.379-7.501,7.529c0.008,4.146,3.371,7.501,7.515,7.501c0.005,0,0.01,0,0.015,0l136.25-0.255h0.001
	c0.005,0,0.01,0,0.015,0c0.001,0,0.001,0,0.002,0l8.014-0.015c4.15-0.008,7.509-3.379,7.501-7.529
	C511.992,475.668,508.629,472.313,504.486,472.313z M375.552,383.381l113.221-0.212l0.167,89.174l-113.221,0.212L375.552,383.381z"
	/>
<path d="M400.16,423.412c0.005,0,0.01,0,0.015,0c4.15-0.008,7.509-3.379,7.501-7.529l-0.015-8.016
	c-0.008-4.145-3.371-7.501-7.515-7.501c-0.005,0-0.01,0-0.015,0c-4.15,0.008-7.509,3.379-7.501,7.529l0.015,8.016
	C392.655,420.058,396.017,423.412,400.16,423.412z"/>
<path d="M432.223,423.352c0.005,0,0.01,0,0.015,0c4.15-0.008,7.509-3.379,7.501-7.529l-0.015-8.016
	c-0.008-4.145-3.371-7.501-7.515-7.501c-0.005,0-0.01,0-0.015,0c-4.15,0.008-7.509,3.379-7.501,7.529l0.015,8.016
	C424.717,419.998,428.08,423.352,432.223,423.352z"/>
<path d="M464.286,423.292c0.005,0,0.01,0,0.015,0c4.15-0.008,7.509-3.379,7.501-7.529l-0.015-8.016
	c-0.008-4.145-3.371-7.501-7.515-7.501c-0.005,0-0.01,0-0.015,0c-4.15,0.008-7.509,3.379-7.501,7.529l0.015,8.016
	C456.78,419.938,460.143,423.292,464.286,423.292z"/>
<path d="M400.206,432.43c-0.005,0-0.01,0-0.015,0c-4.15,0.008-7.509,3.379-7.501,7.529l0.015,8.016
	c0.008,4.145,3.371,7.501,7.515,7.501c0.005,0,0.01,0,0.015,0c4.15-0.008,7.509-3.379,7.501-7.529l-0.015-8.016
	C407.713,435.786,404.351,432.43,400.206,432.43z"/>
<path d="M432.269,432.37c-0.005,0-0.01,0-0.015,0c-4.15,0.008-7.509,3.379-7.501,7.529l0.015,8.016
	c0.008,4.145,3.371,7.501,7.515,7.501c0.005,0,0.01,0,0.015,0c4.15-0.008,7.509-3.379,7.501-7.529l-0.015-8.016
	C439.776,435.725,436.413,432.37,432.269,432.37z"/>
<path d="M464.332,432.31c-0.005,0-0.01,0-0.015,0c-4.15,0.008-7.509,3.379-7.501,7.529l0.015,8.016
	c0.008,4.145,3.371,7.501,7.515,7.501c0.005,0,0.01,0,0.015,0c4.15-0.008,7.509-3.379,7.501-7.529l-0.015-8.016
	C471.839,435.665,468.476,432.31,464.332,432.31z"/>
<g>
</g>
<g>
</g>
<g>
</g>
<g>
</g>
<g>
</g>
<g>
</g>
<g>
</g>
<g>
</g>
<g>
</g>
<g>
</g>
<g>
</g>
<g>
</g>
<g>
</g>
<g>
</g>
<g>
</g>
</svg>
