<?xml version="1.0" encoding="iso-8859-1"?>
<!-- Generator: Adobe Illustrator 19.0.0, SVG Export Plug-In . SVG Version: 6.00 Build 0)  -->
<svg version="1.1" id="Layer_1" xmlns="http://www.w3.org/2000/svg" xmlns:xlink="http://www.w3.org/1999/xlink" x="0px" y="0px"
	 viewBox="0 0 512 512" style="enable-background:new 0 0 512 512;" xml:space="preserve">
<path style="fill:#F0DCBE;" d="M504.451,455.59L8.247,456.522L7.503,60.36C7.466,40.47,23.56,24.315,43.45,24.277l424.174-0.797
	c19.89-0.037,36.045,16.057,36.083,35.947L504.451,455.59z"/>
<g>
	<path style="fill:#E1C3A0;" d="M56.267,456.432l0.045,24.01c0.008,4.42-3.568,8.01-7.988,8.018l-32.013,0.06
		c-4.42,0.008-8.01-3.568-8.018-7.988l-0.045-24.01"/>
	<path style="fill:#E1C3A0;" d="M504.451,455.59l0.045,24.01c0.008,4.42-3.568,8.01-7.988,8.018l-32.013,0.06
		c-4.42,0.008-8.01-3.568-8.018-7.988l-0.045-24.01"/>
	<path style="fill:#E1C3A0;" d="M440.052,255.627l16.004-0.03c4.402-0.008,8.01,3.586,8.018,7.988l0.271,144.059
		c0.008,4.402-3.586,8.01-7.988,8.018l-400.164,0.752c-4.402,0.008-8.01-3.586-8.018-7.988l-0.271-144.059
		c-0.008-4.402,3.586-8.01,7.988-8.018l304.128-0.571"/>
	<path style="fill:#E1C3A0;" d="M440.052,63.76l16.004-0.03c4.402-0.008,8.01,3.586,8.018,7.988l0.271,144.059
		c0.008,4.402-3.586,8.01-7.988,8.018l-400.164,0.752c-4.402,0.008-8.01-3.586-8.018-7.988L47.904,72.501
		c-0.008-4.402,3.586-8.01,7.988-8.018l304.128-0.571"/>
</g>
<g>
	<path style="fill:#B99678;" d="M335.795,143.777c0.017,8.804-7.173,16.021-15.977,16.037l-128.053,0.241
		c-8.804,0.017-16.021-7.173-16.037-15.977l0,0c-0.017-8.804,7.173-16.021,15.977-16.037l128.053-0.241
		C328.562,127.784,335.779,134.974,335.795,143.777L335.795,143.777z"/>
	<path style="fill:#B99678;" d="M336.157,335.856c0.017,8.804-7.173,16.021-15.977,16.037l-128.053,0.241
		c-8.804,0.017-16.021-7.173-16.037-15.977l0,0c-0.017-8.804,7.173-16.021,15.977-16.037l128.053-0.241
		C328.924,319.863,336.141,327.053,336.157,335.856L336.157,335.856z"/>
</g>
<polygon style="fill:#AFB9D2;" points="87.904,256.29 167.787,176.107 247.97,255.989 "/>
<path d="M511.955,455.576L511.21,59.413c-0.044-23.951-19.566-43.436-43.6-43.436L43.435,16.774
	c-11.624,0.022-22.544,4.569-30.748,12.804C4.485,37.813-0.022,48.75,0,60.374l0.744,396.162l0.045,24.01
	c0.008,4.142,1.628,8.032,4.563,10.957c2.927,2.916,6.812,4.521,10.943,4.521c0.01,0,0.021,0,0.03,0l32.013-0.06
	c8.551-0.016,15.493-6.985,15.477-15.535l-0.031-16.507l385.159-0.724l0.031,16.507c0.008,4.142,1.628,8.033,4.562,10.957
	c2.927,2.917,6.813,4.522,10.944,4.522c0.01,0,0.02,0,0.03,0l32.013-0.061c4.142-0.008,8.032-1.628,10.956-4.562
	c2.923-2.934,4.529-6.832,4.522-10.974L511.955,455.576z M23.32,40.169c5.375-5.395,12.529-8.374,20.145-8.388l424.23-0.797
	c15.691,0,28.481,12.766,28.51,28.458l0.73,388.66l-440.666,0.828h-0.001c-0.005,0-0.01,0-0.015,0h-0.001l-40.516,0.076
	l-0.73-388.659C14.992,52.73,17.944,45.564,23.32,40.169z M48.81,480.456c0,0.051,0,0.207-0.146,0.354
	c-0.146,0.146-0.302,0.147-0.354,0.147l-32.013,0.06c-0.06,0.003-0.207,0-0.354-0.146c-0.146-0.146-0.147-0.302-0.147-0.354
	l-0.031-16.507l33.014-0.062L48.81,480.456z M496.848,479.967c-0.146,0.146-0.302,0.147-0.354,0.147l-32.013,0.061
	c-0.051-0.005-0.207,0.001-0.354-0.146c-0.147-0.146-0.147-0.302-0.147-0.354l-0.031-16.507l33.014-0.062l0.031,16.507
	C496.994,479.665,496.994,479.82,496.848,479.967z"/>
<path d="M391.669,71.142c0.005,0,0.01,0,0.015,0l16.003-0.03c4.144-0.008,7.497-3.373,7.489-7.517
	c-0.008-4.139-3.365-7.489-7.503-7.489c-0.005,0-0.01,0-0.015,0l-16.003,0.03c-4.144,0.008-7.497,3.373-7.489,7.517
	C384.174,67.792,387.532,71.142,391.669,71.142z"/>
<path d="M44.879,227.312c2.932,2.92,6.815,4.528,10.937,4.528c0.01,0,0.021,0,0.03,0l24.01-0.045
	c4.144-0.008,7.497-3.373,7.489-7.517c-0.008-4.139-3.365-7.489-7.503-7.489c-0.005,0-0.01,0-0.015,0l-24.01,0.045l0,0
	c-0.128,0-0.245-0.051-0.347-0.153c-0.102-0.102-0.154-0.218-0.154-0.346L55.044,72.275c0-0.257,0.242-0.5,0.499-0.501
	l304.127-0.571c4.144-0.008,7.497-3.373,7.489-7.517c-0.008-4.14-3.365-7.489-7.503-7.489c-0.005,0-0.01,0-0.015,0L55.516,56.767
	c-8.551,0.016-15.493,6.985-15.477,15.535l0.271,144.059C40.318,220.496,41.94,224.383,44.879,227.312z"/>
<path d="M439.69,71.052c0.005,0,0.01,0,0.015,0l16.004-0.03c0,0,0,0,0.001,0c0.256,0,0.5,0.242,0.5,0.499l0.271,144.059
	c0,0.128-0.051,0.245-0.152,0.347c-0.102,0.102-0.218,0.154-0.347,0.154L255.9,216.458c-4.144,0.008-7.497,3.373-7.489,7.517
	c0.008,4.139,3.365,7.489,7.503,7.489c0.005,0,0.01,0,0.015,0l200.082-0.376c4.133-0.008,8.021-1.631,10.949-4.569
	c2.928-2.939,4.536-6.834,4.528-10.967l-0.271-144.059c-0.008-4.133-1.631-8.021-4.569-10.95c-2.932-2.92-6.815-4.528-10.936-4.528
	c-0.01,0-0.02,0-0.03,0l-16.004,0.03c-4.144,0.008-7.497,3.373-7.489,7.517C432.196,67.702,435.554,71.052,439.69,71.052z"/>
<path d="M392.045,263.221l16.003-0.03c4.144-0.008,7.497-3.373,7.489-7.517c-0.008-4.139-3.365-7.489-7.503-7.489
	c-0.005,0-0.01,0-0.015,0l-16.003,0.03c-4.144,0.008-7.497,3.373-7.489,7.517c0.008,4.139,3.365,7.489,7.503,7.489
	C392.036,263.221,392.041,263.221,392.045,263.221z"/>
<path d="M456.072,248.094c-0.01,0-0.021,0-0.03,0l-16.004,0.03c-4.144,0.008-7.497,3.373-7.489,7.517
	c0.008,4.139,3.365,7.489,7.503,7.489c0.005,0,0.01,0,0.015,0l16.004-0.03c0,0,0,0,0.001,0c0.128,0,0.244,0.051,0.346,0.153
	c0.102,0.102,0.153,0.218,0.154,0.346l0.271,144.059c0,0.128-0.051,0.245-0.153,0.347c-0.102,0.102-0.218,0.154-0.346,0.154
	l-400.165,0.751l0,0c-0.128,0-0.245-0.051-0.347-0.153c-0.102-0.102-0.153-0.218-0.154-0.346l-0.271-144.059
	c0-0.128,0.051-0.245,0.153-0.347c0.102-0.102,0.218-0.154,0.346-0.154l31.998-0.06h0.001h0.001l272.128-0.511
	c4.144-0.008,7.497-3.373,7.489-7.517c-0.008-4.14-3.365-7.489-7.503-7.489c-0.005,0-0.01,0-0.015,0l-108.941,0.205l-77.982-77.689
	c-2.936-2.924-7.686-2.916-10.611,0.02l-77.689,77.982l-28.905,0.054c-4.133,0.008-8.021,1.631-10.95,4.569
	c-2.927,2.939-4.536,6.834-4.528,10.967l0.271,144.059c0.008,4.133,1.631,8.021,4.569,10.95c2.932,2.92,6.815,4.528,10.937,4.528
	c0.01,0,0.02,0,0.03,0l400.165-0.751c4.133-0.008,8.021-1.631,10.95-4.569c2.927-2.939,4.536-6.834,4.528-10.967l-0.271-144.059
	c-0.008-4.133-1.631-8.021-4.569-10.95C464.076,249.701,460.194,248.094,456.072,248.094z M167.807,186.717l62.036,61.802
	l-123.837,0.233L167.807,186.717z"/>
<path d="M191.736,167.558c0.004,0,0.04,0,0.044,0l128.053-0.241c6.262-0.012,12.156-2.473,16.597-6.931
	c4.441-4.458,6.88-10.361,6.869-16.623c-0.024-12.939-10.57-23.466-23.554-23.466l-128.053,0.241
	c-6.262,0.012-12.156,2.473-16.597,6.931c-4.441,4.458-6.88,10.361-6.868,16.624C168.251,157.032,178.798,167.558,191.736,167.558z
	 M185.727,138.06c1.612-1.618,3.741-2.511,5.994-2.516l128.069-0.241c4.68,0,8.494,3.808,8.503,8.487
	c0.004,2.253-0.881,4.386-2.493,6.003c-1.612,1.618-3.741,2.511-5.994,2.516l-128.053,0.241l-0.016,7.503v-7.503
	c-4.68,0-8.494-3.808-8.504-8.487C183.229,141.81,184.115,139.678,185.727,138.06z"/>
<path d="M192.053,312.617c-12.963,0.024-23.49,10.59-23.466,23.554c0.024,12.939,10.57,23.466,23.51,23.466c0.004,0,0.04,0,0.044,0
	l128.053-0.241c6.262-0.011,12.156-2.473,16.598-6.931c4.441-4.458,6.88-10.361,6.868-16.623
	c-0.024-12.939-10.57-23.466-23.554-23.466L192.053,312.617z M328.654,335.87c0.004,2.254-0.881,4.386-2.493,6.003
	c-1.612,1.618-3.741,2.511-5.994,2.515l-128.053,0.241l-0.016,7.503v-7.503c-4.68,0-8.495-3.808-8.504-8.487
	c-0.009-4.689,3.799-8.51,8.487-8.52l128.069-0.24C324.83,327.383,328.645,331.19,328.654,335.87z"/>
<g>
</g>
<g>
</g>
<g>
</g>
<g>
</g>
<g>
</g>
<g>
</g>
<g>
</g>
<g>
</g>
<g>
</g>
<g>
</g>
<g>
</g>
<g>
</g>
<g>
</g>
<g>
</g>
<g>
</g>
</svg>
