<?xml version="1.0" encoding="iso-8859-1"?>
<!-- Generator: Adobe Illustrator 19.0.0, SVG Export Plug-In . SVG Version: 6.00 Build 0)  -->
<svg version="1.1" id="Layer_1" xmlns="http://www.w3.org/2000/svg" xmlns:xlink="http://www.w3.org/1999/xlink" x="0px" y="0px"
	 viewBox="0 0 512.001 512.001" style="enable-background:new 0 0 512.001 512.001;" xml:space="preserve">
<path style="fill:#FF6464;" d="M456.417,235.405l-440.797,0.828c-4.426,0.008-8.022-3.573-8.03-7.999l-0.075-40.072
	c-0.017-8.853,7.146-16.042,15.999-16.059l232.421-0.437l232.419-0.437c8.853-0.017,16.042,7.146,16.059,15.999l0.075,40.072
	c0.008,4.426-3.573,8.022-7.999,8.03L456.417,235.405z"/>
<path style="fill:#D2555A;" d="M20.681,236.225l17.834,242.123c0.927,12.577,11.413,22.301,24.023,22.277l388.023-0.729
	c12.611-0.024,23.061-9.787,23.939-22.367l16.925-242.188L20.681,236.225z"/>
<path style="fill:#5B5D6E;" d="M255.994,203.724c-8.852,0.017-16.042-7.147-16.059-15.999l-0.302-160.29
	c-0.017-8.852,7.147-16.042,15.999-16.059s16.042,7.147,16.059,15.999l0.302,160.29
	C272.009,196.517,264.846,203.708,255.994,203.724z"/>
<polygon style="fill:#BE4B50;" points="491.427,235.34 20.681,236.225 22.796,264.93 489.359,264.93 "/>
<path d="M512.001,227.287l-0.075-40.071c-0.012-6.288-2.471-12.197-6.927-16.634c-4.444-4.428-10.343-6.865-16.614-6.865
	c-0.015,0-0.03,0-0.045,0l-184.332,0.348c-4.15,0.008-7.508,3.378-7.5,7.528c0.008,4.146,3.37,7.5,7.514,7.5c0.005,0,0.01,0,0.015,0
	l184.332-0.348c0.005,0,0.011,0,0.017,0c2.268,0,4.402,0.882,6.009,2.483c1.611,1.606,2.502,3.742,2.506,6.017l0.075,40.071
	c0,0.277-0.224,0.502-0.5,0.503l-24.041,0.045c-4.15,0.008-7.508,3.378-7.5,7.528c0.008,4.146,3.37,7.5,7.514,7.5
	c0.005,0,0.01,0,0.015,0l10.908-0.021L467.01,477.005c-0.601,8.607-7.831,15.361-16.459,15.378l-388.023,0.729
	c-0.01,0-0.02,0-0.031,0c-8.614,0-15.853-6.722-16.486-15.316L28.768,243.723l411.632-0.773c4.15-0.008,7.508-3.378,7.5-7.528
	c-0.008-4.145-3.37-7.5-7.514-7.5c-0.005,0-0.01,0-0.015,0l-424.765,0.798c0,0,0,0-0.001,0c-0.276,0-0.501-0.224-0.502-0.5
	l-0.075-40.072c-0.004-2.275,0.878-4.415,2.483-6.027c1.606-1.612,3.742-2.502,6.016-2.506l184.334-0.347
	c4.15-0.008,7.508-3.378,7.5-7.528c-0.008-4.145-3.37-7.5-7.514-7.5c-0.005,0-0.01,0-0.015,0l-184.334,0.347
	c-6.288,0.012-12.196,2.472-16.634,6.928C2.426,175.971-0.011,181.889,0,188.176l0.075,40.072
	c0.015,7.903,5.966,14.422,13.616,15.369l17.331,235.282c1.208,16.408,15.026,29.24,31.472,29.24c0.019,0,0.04,0,0.059,0
	l388.023-0.729c16.471-0.032,30.273-12.927,31.421-29.358l16.446-235.346C506.089,241.731,512.016,235.19,512.001,227.287z"/>
<path d="M255.963,211.238c0.005,0,0.04,0,0.045,0c6.288-0.012,12.195-2.472,16.634-6.928c4.439-4.454,6.876-10.372,6.864-16.659
	l-0.302-160.29c-0.024-12.957-10.585-23.498-23.587-23.498c-6.288,0.012-12.195,2.472-16.634,6.927
	c-4.438,4.455-6.876,10.373-6.864,16.66l0.302,160.29C232.445,200.697,243.007,211.238,255.963,211.238z M249.63,21.395
	c1.606-1.611,3.743-2.502,6.033-2.506c4.686,0,8.505,3.813,8.514,8.498l0.302,160.29c0.004,2.275-0.878,4.415-2.483,6.027
	s-3.742,2.502-6.016,2.506l-0.017,7.514v-7.514c-4.686,0-8.506-3.813-8.515-8.498l-0.302-160.29
	C247.142,25.148,248.025,23.008,249.63,21.395z"/>
<path d="M256.145,276.355c-0.005,0-0.01,0-0.015,0c-4.15,0.008-7.508,3.378-7.5,7.528l0.316,168.303c0.008,4.146,3.37,7.5,7.514,7.5
	c0.005,0,0.01,0,0.015,0c4.15-0.008,7.508-3.378,7.5-7.528l-0.316-168.303C263.65,279.71,260.288,276.355,256.145,276.355z"/>
<path d="M216.073,276.431c-0.005,0-0.01,0-0.015,0c-4.15,0.008-7.508,3.378-7.5,7.528l0.317,168.303c0.008,4.145,3.37,7.5,7.514,7.5
	c0.005,0,0.01,0,0.015,0c4.149-0.008,7.508-3.378,7.5-7.528l-0.317-168.303C223.577,279.786,220.215,276.431,216.073,276.431z"/>
<path d="M336.289,276.205c-0.005,0-0.01,0-0.015,0c-4.15,0.008-7.508,3.378-7.5,7.528l0.317,168.303c0.008,4.146,3.37,7.5,7.514,7.5
	c0.005,0,0.01,0,0.015,0c4.15-0.008,7.508-3.378,7.5-7.528l-0.317-168.303C343.795,279.56,340.432,276.205,336.289,276.205z"/>
<path d="M296.218,276.28c-0.005,0-0.01,0-0.015,0c-4.15,0.008-7.508,3.378-7.5,7.528l0.316,168.303c0.008,4.145,3.37,7.5,7.514,7.5
	c0.005,0,0.01,0,0.015,0c4.15-0.008,7.508-3.378,7.5-7.528l-0.316-168.303C303.722,279.635,300.36,276.28,296.218,276.28z"/>
<path d="M376.362,276.13c-0.005,0-0.01,0-0.015,0c-4.15,0.008-7.508,3.378-7.5,7.528l0.317,168.303c0.008,4.146,3.37,7.5,7.514,7.5
	c0.005,0,0.01,0,0.015,0c4.15-0.008,7.508-3.378,7.5-7.528l-0.317-168.303C383.867,279.485,380.505,276.13,376.362,276.13z"/>
<path d="M416.434,276.055c-0.005,0-0.01,0-0.015,0c-4.149,0.008-7.508,3.378-7.5,7.528l0.317,168.303
	c0.008,4.146,3.37,7.5,7.514,7.5c0.005,0,0.01,0,0.015,0c4.15-0.008,7.508-3.378,7.5-7.528l-0.317-168.303
	C423.94,279.409,420.577,276.055,416.434,276.055z"/>
<path d="M95.855,276.657c-0.005,0-0.01,0-0.015,0c-4.149,0.008-7.508,3.378-7.5,7.528l0.317,168.303c0.008,4.146,3.37,7.5,7.514,7.5
	c0.005,0,0.01,0,0.015,0c4.15-0.008,7.508-3.378,7.5-7.528l-0.317-168.303C103.36,280.012,99.998,276.657,95.855,276.657z"/>
<path d="M135.928,276.582c-0.005,0-0.01,0-0.015,0c-4.15,0.008-7.508,3.378-7.5,7.528l0.317,168.303c0.008,4.145,3.37,7.5,7.514,7.5
	c0.005,0,0.01,0,0.015,0c4.15-0.008,7.508-3.378,7.5-7.528l-0.317-168.303C143.432,279.937,140.07,276.582,135.928,276.582z"/>
<path d="M176,276.507c-0.005,0-0.01,0-0.015,0c-4.15,0.008-7.508,3.378-7.5,7.528l0.317,168.303c0.008,4.146,3.37,7.5,7.514,7.5
	c0.005,0,0.01,0,0.015,0c4.15-0.008,7.508-3.378,7.5-7.528l-0.317-168.303C183.505,279.862,180.143,276.507,176,276.507z"/>
<g>
</g>
<g>
</g>
<g>
</g>
<g>
</g>
<g>
</g>
<g>
</g>
<g>
</g>
<g>
</g>
<g>
</g>
<g>
</g>
<g>
</g>
<g>
</g>
<g>
</g>
<g>
</g>
<g>
</g>
</svg>
