<?xml version="1.0" encoding="iso-8859-1"?>
<!-- Generator: Adobe Illustrator 19.0.0, SVG Export Plug-In . SVG Version: 6.00 Build 0)  -->
<svg version="1.1" id="Layer_1" xmlns="http://www.w3.org/2000/svg" xmlns:xlink="http://www.w3.org/1999/xlink" x="0px" y="0px"
	 viewBox="0 0 512.001 512.001" style="enable-background:new 0 0 512.001 512.001;" xml:space="preserve">
<path style="fill:#F0DCBE;" d="M504.499,495.58c0.008,4.401-3.586,8.009-7.987,8.017l-480.092,0.902
	c-4.401,0.008-8.009-3.586-8.017-7.987L7.502,16.42c-0.008-4.401,3.586-8.009,7.987-8.017L495.58,7.501
	c4.401-0.008,8.009,3.586,8.017,7.987L504.499,495.58z"/>
<rect x="55.967" y="55.956" transform="matrix(-1 0.0019 -0.0019 -1 512.4985 511.5035)" style="fill:#EBD2AF;" width="400.078" height="400.078"/>
<rect x="167.867" y="143.973" transform="matrix(-1 0.0019 -0.0019 -1 512.1337 383.4775)" style="fill:#D2B493;" width="176.034" height="96.019"/>
<path d="M511.098,15.474C511.082,6.941,504.127,0,495.566,0L15.475,0.902C11.343,0.91,7.455,2.532,4.527,5.471
	C1.601,8.409-0.008,12.302,0,16.434l0.902,480.092c0.016,8.533,6.971,15.475,15.503,15.475c0.004,0,0.023,0,0.028,0l480.092-0.902
	c4.133-0.008,8.021-1.63,10.948-4.568c2.927-2.939,4.535-6.831,4.527-10.963L511.098,15.474z M496.846,495.942
	c-0.101,0.102-0.217,0.153-0.346,0.153l-480.092,0.902v7.501l-0.001-7.032v-0.469c-0.257,0-0.5-0.243-0.5-0.499L15.003,16.406
	c0-0.129,0.051-0.245,0.153-0.348c0.101-0.102,0.217-0.153,0.346-0.153l480.092-0.902c0.257,0,0.5,0.243,0.501,0.499l0.902,480.092
	C496.998,495.723,496.947,495.839,496.846,495.942z"/>
<path d="M463.585,279.608l-0.166-88.005v-0.008l-0.165-88.011v-0.004l-0.09-48.007c-0.004-1.989-0.797-3.897-2.207-5.301
	c-1.406-1.4-3.311-2.187-5.294-2.187c-0.005,0-0.01,0-0.014,0l-47.998,0.09c-0.007,0-0.014,0-0.021,0l-88,0.165
	c-0.004,0-0.008,0-0.012,0l-88.004,0.166c-0.004,0-0.009,0-0.013,0l-87.988,0.165c-0.015,0-0.03,0-0.045,0l-87.984,0.166
	c-0.252,0-0.504,0.014-0.755,0.039c-0.091,0.009-0.179,0.027-0.268,0.039c-0.153,0.021-0.305,0.04-0.457,0.071
	c-0.113,0.023-0.222,0.054-0.333,0.082c-0.126,0.031-0.253,0.06-0.378,0.098c-0.111,0.034-0.218,0.076-0.327,0.115
	c-0.122,0.043-0.245,0.084-0.365,0.134c-0.103,0.043-0.201,0.094-0.302,0.141c-0.121,0.057-0.243,0.111-0.361,0.175
	c-0.098,0.053-0.192,0.114-0.288,0.171c-0.114,0.068-0.229,0.133-0.34,0.208c-0.109,0.073-0.211,0.154-0.315,0.232
	c-0.091,0.068-0.184,0.132-0.272,0.205c-0.382,0.314-0.732,0.666-1.045,1.049c-0.071,0.087-0.133,0.179-0.2,0.268
	c-0.079,0.106-0.162,0.211-0.235,0.322c-0.073,0.108-0.135,0.221-0.201,0.333c-0.059,0.098-0.12,0.195-0.174,0.296
	c-0.061,0.114-0.112,0.23-0.166,0.346c-0.05,0.106-0.103,0.211-0.148,0.32c-0.046,0.112-0.083,0.227-0.124,0.341
	c-0.042,0.117-0.086,0.232-0.122,0.352c-0.034,0.114-0.059,0.229-0.088,0.345c-0.031,0.122-0.065,0.243-0.089,0.368
	c-0.026,0.132-0.041,0.264-0.06,0.397c-0.015,0.11-0.036,0.218-0.047,0.329c-0.024,0.245-0.036,0.49-0.036,0.736v0.004l0,0l0,0
	l0.331,176.028c0,0.003,0,0.006,0,0.006l0.166,88.012v0.008l0.165,88.011v0.004l0.09,48.006c0.008,4.139,3.365,7.487,7.501,7.487
	c0.005,0,0.01,0,0.015,0l400.076-0.752c4.143-0.008,7.495-3.373,7.487-7.515l-0.331-176.028
	C463.585,279.616,463.585,279.612,463.585,279.608z M354.75,277.117l94.003,93.651l0.125,66.799L277.325,266.656
	c-2.936-2.924-7.685-2.916-10.609,0.021c-2.924,2.935-2.915,7.685,0.02,10.608l171.554,170.91l-67.271,0.126
	c-0.344-0.648-0.788-1.256-1.335-1.801L189.311,266.824c-2.936-2.925-7.684-2.916-10.609,0.021
	c-2.924,2.936-2.915,7.685,0.02,10.608L350.273,448.36l-67.272,0.127c-0.344-0.648-0.788-1.256-1.334-1.801L63.413,229.25
	l-0.125-66.799l67.354,67.102c1.464,1.458,3.379,2.187,5.294,2.187c1.924,0,3.849-0.736,5.314-2.207
	c2.924-2.935,2.915-7.684-0.02-10.608l-77.983-77.691l-0.125-66.8l67.343,67.09c1.464,1.458,3.379,2.187,5.294,2.187
	c1.924,0,3.849-0.736,5.314-2.207c2.924-2.936,2.915-7.684-0.02-10.608L73.712,63.805l66.799-0.126l53.918,53.716
	c1.464,1.458,3.379,2.187,5.294,2.187c1.924,0,3.849-0.736,5.314-2.207c2.924-2.935,2.915-7.684-0.02-10.608L161.728,63.64
	l66.799-0.126l53.933,53.731c1.464,1.458,3.379,2.187,5.294,2.187c1.924,0,3.849-0.736,5.314-2.207
	c2.924-2.935,2.915-7.684-0.02-10.608l-43.304-43.142l66.799-0.126l131.88,131.385l0.125,66.798l-67.329-67.076
	c-2.936-2.924-7.685-2.916-10.609,0.021c-2.924,2.936-2.915,7.684,0.02,10.608l77.958,77.665l0.125,66.8l-83.375-83.062
	c-2.936-2.925-7.684-2.916-10.609,0.021C351.807,269.443,351.816,274.192,354.75,277.117z M105.634,447.016l-41.89-41.733
	l-0.125-66.799L174.24,448.692l-67.271,0.127C106.625,448.17,106.181,447.562,105.634,447.016z M193.651,446.851L63.579,317.266
	l-0.125-66.799l198.803,198.058l-67.27,0.127C194.642,448.005,194.197,447.396,193.651,446.851z M404.56,63.183l43.697,43.533
	l0.125,66.799L337.761,63.309L404.56,63.183z M448.218,85.499l-22.439-22.355l22.397-0.042L448.218,85.499z M63.784,426.501
	l22.44,22.355l-22.398,0.042L63.784,426.501z"/>
<path d="M343.807,136.311c-0.005,0-0.01,0-0.015,0l-176.034,0.331c-1.989,0.004-3.896,0.798-5.3,2.207
	c-1.404,1.409-2.19,3.319-2.187,5.308l0.181,96.019c0.008,4.139,3.365,7.487,7.501,7.487c0.005,0,0.01,0,0.015,0l176.034-0.331
	c1.989-0.004,3.896-0.798,5.3-2.207c1.404-1.409,2.19-3.319,2.187-5.308l-0.181-96.019
	C351.3,139.661,347.944,136.311,343.807,136.311z M175.441,232.648l-0.152-81.016l161.031-0.304l0.152,81.016L175.441,232.648z"/>
<path d="M215.842,183.561c0.005,0,0.01,0,0.015,0l80.015-0.15c4.143-0.008,7.495-3.373,7.487-7.515
	c-0.008-4.139-3.365-7.487-7.501-7.487c-0.005,0-0.01,0-0.015,0l-80.015,0.15c-4.143,0.008-7.495,3.373-7.487,7.515
	C208.349,180.213,211.705,183.561,215.842,183.561z"/>
<path d="M311.922,200.385c-0.005,0-0.01,0-0.015,0l-112.022,0.21c-4.143,0.008-7.495,3.373-7.487,7.515
	c0.008,4.139,3.365,7.487,7.501,7.487c0.005,0,0.01,0,0.015,0l112.022-0.21c4.143-0.008,7.495-3.373,7.487-7.515
	C319.415,203.733,316.059,200.385,311.922,200.385z"/>
<g>
</g>
<g>
</g>
<g>
</g>
<g>
</g>
<g>
</g>
<g>
</g>
<g>
</g>
<g>
</g>
<g>
</g>
<g>
</g>
<g>
</g>
<g>
</g>
<g>
</g>
<g>
</g>
<g>
</g>
</svg>
