<?xml version="1.0" encoding="iso-8859-1"?>
<!-- Generator: Adobe Illustrator 19.0.0, SVG Export Plug-In . SVG Version: 6.00 Build 0)  -->
<svg version="1.1" id="Layer_1" xmlns="http://www.w3.org/2000/svg" xmlns:xlink="http://www.w3.org/1999/xlink" x="0px" y="0px"
	 viewBox="0 0 512 512" style="enable-background:new 0 0 512 512;" xml:space="preserve">
<path style="fill:#E1C3A0;" d="M488.474,135.364l0.557,296.527c0.025,13.224-10.774,24.063-23.998,24.088l-416.741,0.783
	c-13.224,0.025-24.063-10.774-24.088-23.998l-0.557-296.527"/>
<path style="fill:#F0DCBE;" d="M464.431,135.41l32.057-0.06c4.426-0.008,8.007-3.603,7.999-8.029l-0.09-48.086
	c-0.025-13.224-10.864-24.023-24.088-23.998L31.511,56.08C18.288,56.105,7.488,66.945,7.513,80.168l0.09,48.086
	c0.008,4.426,3.603,8.007,8.029,7.999l368.653-0.693"/>
<path style="fill:#B99678;" d="M312.251,183.782l-120.214,0.226c-22.13,0.042-40.037,18.016-39.996,40.146
	c0.041,22.13,18.016,40.037,40.146,39.996l120.214-0.226c22.13-0.042,40.037-18.016,39.996-40.146
	C352.356,201.647,334.381,183.739,312.251,183.782z"/>
<path d="M432.374,127.956c-0.005,0-0.01,0-0.015,0l-16.026,0.03c-4.149,0.008-7.507,3.378-7.499,7.527
	c0.008,4.144,3.37,7.499,7.513,7.499c0.005,0,0.01,0,0.015,0l16.026-0.03c4.149-0.008,7.507-3.378,7.499-7.527
	C439.88,131.311,436.518,127.956,432.374,127.956z"/>
<path d="M507.473,138.294c2.927-2.938,4.535-6.84,4.527-10.988l-0.09-48.086c-0.016-8.403-3.32-16.314-9.305-22.276
	c-5.971-5.949-13.87-9.221-22.25-9.221c-0.02,0-0.041,0-0.061,0L31.497,48.567c-8.403,0.016-16.313,3.32-22.276,9.306
	C3.259,63.856-0.016,71.78,0,80.182l0.09,48.086c0.016,8.552,6.978,15.5,15.528,15.499c0.009,0,0.021,0,0.03,0l0.501-0.001
	l0.543,289.014c0.033,17.381,14.182,31.498,31.556,31.497c0.019,0,0.04,0,0.059,0l416.742-0.783
	c17.4-0.033,31.529-14.215,31.496-31.615l-0.543-289.014l0.501-0.001C500.65,142.855,504.546,141.232,507.473,138.294z
	 M464.416,127.896c-4.149,0.008-7.507,3.378-7.499,7.527c0.008,4.144,3.37,7.499,7.513,7.499c0.005,0,0.01,0,0.015,0l16.529-0.031
	l0.543,289.014c0.017,9.114-7.384,16.543-16.498,16.56l-416.741,0.782c-0.011,0-0.021,0-0.031,0
	c-9.099,0-16.512-7.395-16.529-16.498l-0.543-289.013l353.125-0.664c4.149-0.008,7.507-3.378,7.499-7.527
	c-0.008-4.145-3.37-7.499-7.513-7.499c-0.005,0-0.01,0-0.015,0l-360.623,0.678h-0.001c-0.005,0-0.01,0-0.015,0
	c-0.001,0-0.001,0-0.001,0l-8.013,0.015l0,0c-0.276,0-0.501-0.224-0.501-0.5l-0.09-48.086c-0.008-4.389,1.711-8.535,4.841-11.677
	c3.13-3.141,7.27-4.876,11.659-4.884l448.798-0.844c0.011,0,0.021,0,0.031,0c4.377,0,8.512,1.718,11.646,4.841
	c3.142,3.13,4.876,7.27,4.884,11.659l0.09,48.086c0,0.051,0,0.207-0.146,0.355c-0.146,0.147-0.303,0.147-0.355,0.147
	L464.416,127.896z"/>
<path d="M312.237,176.267l-120.214,0.226c-26.238,0.049-47.545,21.436-47.495,47.674c0.049,26.187,21.394,47.493,47.583,47.496
	c0.005,0,0.087,0,0.092,0l120.214-0.226c26.238-0.049,47.545-21.436,47.496-47.674C359.861,197.574,338.515,176.267,312.237,176.267
	z M312.387,256.41l-120.214,0.226l-0.063,7.513v-7.513c-17.918-0.001-32.523-14.58-32.557-32.497
	c-0.034-17.952,14.545-32.585,32.497-32.619l120.276-0.226c17.918,0,32.523,14.578,32.557,32.497
	C344.918,241.744,330.34,256.377,312.387,256.41z"/>
<g>
</g>
<g>
</g>
<g>
</g>
<g>
</g>
<g>
</g>
<g>
</g>
<g>
</g>
<g>
</g>
<g>
</g>
<g>
</g>
<g>
</g>
<g>
</g>
<g>
</g>
<g>
</g>
<g>
</g>
</svg>
