<?xml version="1.0" encoding="iso-8859-1"?>
<!-- Generator: Adobe Illustrator 19.0.0, SVG Export Plug-In . SVG Version: 6.00 Build 0)  -->
<svg version="1.1" id="Layer_1" xmlns="http://www.w3.org/2000/svg" xmlns:xlink="http://www.w3.org/1999/xlink" x="0px" y="0px"
	 viewBox="0 0 512 512" style="enable-background:new 0 0 512 512;" xml:space="preserve">
<polygon style="fill:#D29B6E;" points="279.767,112.275 279.767,95.003 232.212,95.003 232.212,112.275 255.99,135.765 "/>
<path style="fill:#E1C3A0;" d="M398.871,186.99c3.952-5.288,0.168-12.818-6.433-12.806l-272.366,0.512
	c-6.602,0.012-10.355,7.556-6.385,12.83l62.643,83.198l0.377,200.28l-24.034,0.045c-4.424,0.008-8.004,3.602-7.996,8.026
	l0.045,24.034l224.299-0.422l-0.045-24.034c-0.008-4.424-3.602-8.004-8.026-7.996l-24.034,0.045l-0.377-200.28L398.871,186.99z
	 M181.698,471.005l160.211-0.301"/>
<path style="fill:#F0C087;" d="M295.865,48.032L295.788,7.51l-64.09,0.12c-8.812,0.017-16.009,7.24-15.992,16.052l0.027,14.1
	l0.034,17.945c0.042,22.122,18.008,40.022,40.131,39.981c22.123-0.041,40.022-18.009,39.981-40.131L295.865,48.032z"/>
<path style="fill:#707487;" d="M191.988,175.652l-0.033-40.03c-0.018-9.751,9.719-23.789,23.917-23.816l16.022-0.03
	c0.126,0.02,24.079,23.988,24.079,23.988s23.988-23.965,23.988-24.079l16.022-0.03c14.198-0.027,23.987,13.976,24.007,23.726
	l0.033,39.269"/>
<path style="fill:#694B4B;" d="M295.788,7.51l-64.09,0.12c-8.812,0.017-16.009,7.24-15.992,16.052l0.027,14.1l80.131,10.249
	L295.788,7.51z"/>
<path style="fill:#E1C3A0;" d="M349.03,256.766H165.497c-4.11,0-7.789-2.072-9.232-5.198l-40.809-67.015
	c-1.702-2.796,0.321-6.375,3.594-6.358l275.067,1.425c3.243,0.017,5.233,3.557,3.564,6.337l-39.419,65.611
	C356.818,254.694,353.139,256.766,349.03,256.766z"/>
<path style="fill:#FFF5C8;" d="M288.691,283.803h-62.857c-4.424,0-8.011-3.587-8.011-8.011V259.77c0-4.424,3.587-8.011,8.011-8.011
	h62.857c4.424,0,8.011,3.587,8.011,8.011v16.022C296.702,280.216,293.116,283.803,288.691,283.803z"/>
<path style="fill:#F0DCBE;" d="M360.356,509.118H150.781c-4.424,0-8.011-3.587-8.011-8.011v-24.034c0-4.424,3.587-8.011,8.011-8.011
	h209.575c4.424,0,8.011,3.587,8.011,8.011v24.034C368.368,505.531,364.781,509.118,360.356,509.118z"/>
<circle style="fill:#707487;" cx="151.722" cy="119.937" r="16.022"/>
<path d="M404.618,192.865c3.542-4.741,4.091-10.97,1.435-16.258c-2.652-5.278-7.963-8.554-13.868-8.554c-0.01,0-0.021,0-0.03,0
	l-256.86,0.483l-0.006-3.25c-0.012-6.553,2.529-12.72,7.153-17.362l4.86-4.878c1.434,0.274,2.912,0.424,4.424,0.424
	c0.005,0,0.04,0,0.045,0c6.286-0.012,12.191-2.47,16.627-6.924c4.436-4.453,6.873-10.367,6.862-16.653
	c-0.024-12.952-10.581-23.489-23.577-23.489c-6.286,0.012-12.191,2.47-16.627,6.924c-4.436,4.453-6.873,10.367-6.862,16.653
	c0.011,5.821,2.154,11.151,5.682,15.259l-2.075,2.083c-7.456,7.484-11.552,17.425-11.533,27.992l0.006,3.25l-0.486,0.001
	c-5.917,0.011-11.231,3.309-13.867,8.606s-2.064,11.525,1.496,16.252l61.138,81.198l0.357,190.266l-16.523,0.031
	c-4.146,0.008-8.041,1.629-10.967,4.566c-2.926,2.937-4.533,6.839-4.526,10.984l0.045,24.034c0.008,4.144,3.369,7.496,7.51,7.496
	c0.005,0,0.01,0,0.015,0l224.299-0.422c4.148-0.008,7.504-3.377,7.496-7.525l-0.045-24.034c-0.008-4.146-1.629-8.041-4.567-10.967
	c-2.937-2.926-6.85-4.49-10.984-4.526l-16.523,0.031l-0.357-190.266L404.618,192.865z M145.697,113.931
	c1.604-1.611,3.74-2.5,6.03-2.504c4.685,0,8.503,3.811,8.512,8.496c0.004,2.273-0.877,4.412-2.482,6.023
	c-1.604,1.611-3.74,2.5-6.014,2.505l-0.01,4.415c-0.002-0.007-0.005-0.013-0.007-0.02v-4.395c-4.685,0-8.502-3.811-8.511-8.496
	C143.21,117.68,144.092,115.541,145.697,113.931z M320.625,479.624c0.005,0,0.01,0,0.015,0l16.002-0.03c0.002,0,0.003,0,0.005,0
	c0.005,0,0.01,0,0.015,0c0.002,0,0.004,0,0.006,0l24.028-0.045c0.052,0,0.207,0,0.354,0.146s0.147,0.302,0.147,0.354l0.031,16.523
	l-209.278,0.394l-0.031-16.523c0-0.051,0-0.207,0.146-0.354c0.146-0.146,0.302-0.147,0.354-0.147l24.017-0.045
	c0.001,0,0.002,0,0.002,0c0.005,0,0.01,0,0.015,0c0.001,0,0.002,0,0.003,0l112.139-0.21c4.148-0.008,7.504-3.377,7.496-7.525
	c-0.008-4.143-3.369-7.496-7.51-7.496c-0.005,0-0.01,0-0.015,0l-104.631,0.196l-0.439-233.326l104.633-0.196
	c4.148-0.008,7.504-3.377,7.496-7.524c-0.008-4.143-3.369-7.496-7.51-7.496c-0.005,0-0.01,0-0.015,0l-112.144,0.21
	c-1.992,0.004-3.9,0.799-5.306,2.21c-1.406,1.411-2.193,3.323-2.19,5.314l0.048,25.536l-49.091-65.199
	c-0.083-0.11-0.186-0.247-0.048-0.525c0.138-0.277,0.309-0.277,0.448-0.277l272.367-0.512c0.13-0.005,0.309-0.001,0.448,0.275
	c0.138,0.276,0.036,0.415-0.046,0.525l-48.846,65.383l-0.048-25.536c-0.004-1.992-0.798-3.9-2.21-5.306
	c-1.408-1.403-3.314-2.19-5.3-2.19c-0.005,0-0.01,0-0.014,0l-16.027,0.03c-4.148,0.008-7.504,3.377-7.496,7.525
	c0.008,4.143,3.369,7.496,7.51,7.496c0.005,0,0.01,0,0.015,0l8.517-0.016l0.439,233.325l-8.512,0.016
	c-4.148,0.008-7.504,3.377-7.496,7.525C313.122,476.271,316.483,479.624,320.625,479.624z"/>
<path d="M191.988,160.485c0.005,0,0.01,0,0.015,0c4.148-0.008,7.504-3.377,7.496-7.525l-0.033-17.351
	c-0.01-5.583,6.377-16.273,16.421-16.292l12.951-0.024c3.966,3.931,12.838,12.793,19.631,19.588l0.024,12.658
	c0.008,4.143,3.369,7.496,7.51,7.496c0.005,0,0.01,0,0.015,0c4.148-0.008,7.504-3.377,7.496-7.525l-0.024-12.64
	c2.284-2.284,6.038-6.037,9.793-9.797c3.003-3.007,6.006-6.018,8.259-8.284c0.583-0.587,1.11-1.117,1.585-1.6l12.87-0.025
	c0.009,0,0.017,0,0.026,0c10.029,0,16.444,10.652,16.455,16.23l0.033,17.385c0.008,4.143,3.369,7.496,7.51,7.496
	c0.005,0,0.01,0,0.015,0c4.148-0.008,7.504-3.377,7.496-7.525l-0.033-17.386c-0.027-14.451-13.779-31.222-31.478-31.222
	c-0.018,0-0.035,0-0.053,0l-16.022,0.03c-2.235,0.004-4.241,0.984-5.614,2.538c-1.21,1.263-10.41,10.481-18.359,18.431
	c-1.988-1.987-4.336-4.334-6.687-6.681c-3.006-3.001-6.016-6.003-8.283-8.257c-5.388-5.355-5.491-5.459-7.927-5.847
	c-0.392-0.063-0.787-0.094-1.184-0.094c-0.005,0-0.01,0-0.014,0l-16.022,0.03c-17.724,0.033-31.44,16.875-31.414,31.341
	l0.033,17.352C184.486,157.131,187.846,160.485,191.988,160.485z"/>
<path d="M255.821,103.219c0.004,0,0.086,0,0.091,0c12.705-0.024,24.641-4.994,33.609-13.996
	c8.967-9.002,13.892-20.955,13.868-33.661l-0.015-7.947c0-0.001,0-0.003,0-0.004L303.3,7.496C303.292,3.353,299.931,0,295.788,0
	c-0.004,0-0.01,0-0.014,0l-64.09,0.12c-12.976,0.024-23.513,10.601-23.489,23.577l0.06,32.045
	C208.306,81.921,229.644,103.219,255.821,103.219z M278.88,78.623c-6.136,6.159-14.302,9.559-22.995,9.575l-0.063,7.51v-7.51
	c-17.911,0-32.51-14.572-32.544-32.484l-0.016-8.521l65.105,7.11l0.002,1.289C288.385,64.285,285.015,72.464,278.88,78.623z
	 M231.714,15.141l56.579-0.106l0.045,24.155l-63.774-6.965c-0.451-0.049-0.894-0.051-1.331-0.021l-0.016-8.534
	C223.209,18.975,227.02,15.15,231.714,15.141z"/>
<g>
</g>
<g>
</g>
<g>
</g>
<g>
</g>
<g>
</g>
<g>
</g>
<g>
</g>
<g>
</g>
<g>
</g>
<g>
</g>
<g>
</g>
<g>
</g>
<g>
</g>
<g>
</g>
<g>
</g>
</svg>
