<?xml version="1.0" encoding="iso-8859-1"?>
<!-- Generator: Adobe Illustrator 19.0.0, SVG Export Plug-In . SVG Version: 6.00 Build 0)  -->
<svg version="1.1" id="Layer_1" xmlns="http://www.w3.org/2000/svg" xmlns:xlink="http://www.w3.org/1999/xlink" x="0px" y="0px"
	 viewBox="0 0 512 512" style="enable-background:new 0 0 512 512;" xml:space="preserve">
<path style="fill:#D2555A;" d="M380.233,12.133c-7.814-7.801-16.752-5.501-19.841,5.103l-5.349,18.392
	c-3.088,10.619-12.01,25.692-19.811,33.522L239,165.761c-7.794,7.83-22.779,17.042-33.298,20.48l-55.661,18.19
	c-10.49,3.423-12.702,12.61-4.849,20.411l142.13,141.627c7.814,7.801,17.009,5.547,20.415-4.948l17.951-55.737
	c3.399-10.526,12.561-25.538,20.346-33.368l96.256-96.611c7.809-7.83,22.864-16.778,33.454-19.905l18.372-5.426
	c10.591-3.128,12.874-12.083,5.036-19.868L380.233,12.133z"/>
<polygon style="fill:#D7DEED;" points="203.973,283.434 118.479,369.227 8.185,504.495 143.053,393.685 228.539,307.876 "/>
<g>
	<path style="fill:#FF6464;" d="M303.354,246.912l-73.671-73.443c-7.617,5.426-16.829,10.434-23.98,12.771l-55.663,18.19
		c-10.49,3.423-12.702,12.61-4.849,20.411l142.13,141.627c7.814,7.801,17.009,5.547,20.415-4.948l17.951-55.737
		c2.307-7.148,7.275-16.358,12.661-23.989l-12.469-12.438L303.354,246.912z"/>
	<path style="fill:#FF6464;" d="M499.153,130.606L380.233,12.133c-7.814-7.801-16.752-5.501-19.841,5.103l-5.349,18.392
		c-1.931,6.642-6.146,15.027-10.94,22.291l109.285,109.057c7.278-4.843,15.699-9.111,22.358-11.077l18.372-5.426
		C504.708,147.345,506.991,138.39,499.153,130.606z"/>
</g>
<g>
	<path style="fill:#D2555A;" d="M221.646,178.683c0.377-0.223,0.752-0.448,1.128-0.675
		C222.399,178.234,222.023,178.46,221.646,178.683z"/>
	<path style="fill:#D2555A;" d="M219.006,180.201c0.596-0.331,1.193-0.671,1.788-1.017
		C220.199,179.529,219.603,179.869,219.006,180.201z"/>
	<path style="fill:#D2555A;" d="M226.253,175.811c0.317-0.208,0.631-0.417,0.945-0.627
		C226.884,175.394,226.569,175.603,226.253,175.811z"/>
	<path style="fill:#D2555A;" d="M216.951,181.31c0.453-0.239,0.907-0.483,1.361-0.731
		C217.858,180.827,217.404,181.071,216.951,181.31z"/>
	<path style="fill:#D2555A;" d="M345.731,55.367c0.156-0.253,0.308-0.508,0.463-0.762C346.04,54.858,345.888,55.114,345.731,55.367z
		"/>
	<path style="fill:#D2555A;" d="M207.987,185.425c0.552-0.21,1.111-0.43,1.679-0.665
		C209.099,184.995,208.54,185.215,207.987,185.425z"/>
	<path style="fill:#D2555A;" d="M209.879,184.675c0.621-0.259,1.254-0.537,1.891-0.824
		C211.133,184.137,210.5,184.415,209.879,184.675z"/>
	<path style="fill:#D2555A;" d="M214.359,182.634c0.623-0.306,1.251-0.624,1.881-0.951
		C215.611,182.01,214.983,182.328,214.359,182.634z"/>
	<path style="fill:#D2555A;" d="M212.344,183.588c0.519-0.239,1.042-0.485,1.569-0.74
		C213.387,183.103,212.863,183.35,212.344,183.588z"/>
	<path style="fill:#D2555A;" d="M354.008,38.742c0.093-0.256,0.19-0.513,0.278-0.765C354.199,38.228,354.101,38.487,354.008,38.742z
		"/>
	<path style="fill:#D2555A;" d="M365.369,9.317c0.589-0.439,1.209-0.8,1.853-1.081C366.577,8.517,365.958,8.879,365.369,9.317z"/>
	<path style="fill:#D2555A;" d="M353.002,41.341c0.121-0.294,0.239-0.586,0.354-0.878C353.241,40.755,353.123,41.047,353.002,41.341
		z"/>
	<path style="fill:#D2555A;" d="M367.222,8.237c0.86-0.374,1.762-0.606,2.695-0.693C368.983,7.63,368.08,7.863,367.222,8.237z"/>
	<path style="fill:#D2555A;" d="M347.302,52.745c0.173-0.297,0.343-0.594,0.513-0.893C347.646,52.15,347.475,52.447,347.302,52.745z
		"/>
	<path style="fill:#D2555A;" d="M348.851,49.987c0.146-0.269,0.295-0.537,0.438-0.808C349.146,49.448,348.997,49.718,348.851,49.987
		z"/>
	<path style="fill:#D2555A;" d="M350.644,46.547c0.001-0.003,0.003-0.006,0.004-0.009C350.646,46.541,350.645,46.544,350.644,46.547
		z"/>
	<path style="fill:#D2555A;" d="M351.883,43.926c0.121-0.265,0.232-0.526,0.349-0.79C352.116,43.4,352.004,43.661,351.883,43.926z"
		/>
	<path style="fill:#D2555A;" d="M223.659,177.467c0.555-0.343,1.107-0.691,1.655-1.044
		C224.766,176.776,224.215,177.124,223.659,177.467z"/>
	<path style="fill:#D2555A;" d="M373.529,7.908c-1.234-0.353-2.447-0.472-3.612-0.364C371.082,7.436,372.295,7.555,373.529,7.908z"
		/>
	<path style="fill:#D2555A;" d="M499.153,130.606L380.233,12.133c-2.197-2.194-4.485-3.589-6.705-4.225
		c2.22,0.635,4.507,2.031,6.705,4.225L499.153,130.606z"/>
	<polygon style="fill:#D2555A;" points="145.191,224.842 174.899,254.445 174.899,254.445 	"/>
</g>
<path style="fill:#BE4B50;" d="M260.686,204.376c3.564-2.543,6.779-5.175,9.261-7.67l96.232-96.611
	c2.93-2.941,6.018-6.904,8.896-11.269l-30.972-30.908c-2.871,4.35-5.949,8.298-8.871,11.231L239,165.761
	c-2.846,2.86-6.656,5.902-10.853,8.781c0.517-0.355,1.03-0.712,1.535-1.072L260.686,204.376z"/>
<path style="fill:#D2555A;" d="M205.705,186.239c0.583-0.191,1.185-0.405,1.794-0.63
	C206.891,185.833,206.288,186.048,205.705,186.239z"/>
<g>
	<path style="fill:#FF6464;" d="M209.667,184.76c0.071-0.029,0.14-0.056,0.212-0.086
		C209.808,184.705,209.738,184.731,209.667,184.76z"/>
	<path style="fill:#FF6464;" d="M140.724,217.34c-0.109-0.498-0.18-0.993-0.215-1.483
		C140.543,216.348,140.614,216.842,140.724,217.34z"/>
	<path style="fill:#FF6464;" d="M227.198,175.184c0.318-0.214,0.636-0.427,0.951-0.642
		C227.834,174.756,227.516,174.97,227.198,175.184z"/>
	<path style="fill:#FF6464;" d="M225.314,176.423c0.315-0.202,0.626-0.407,0.939-0.612
		C225.941,176.015,225.63,176.221,225.314,176.423z"/>
	<path style="fill:#FF6464;" d="M211.77,183.85c0.191-0.086,0.382-0.174,0.574-0.262C212.153,183.677,211.961,183.765,211.77,183.85
		z"/>
	<path style="fill:#FF6464;" d="M145.024,206.917c-0.686,0.5-1.298,1.039-1.831,1.611
		C143.726,207.955,144.338,207.417,145.024,206.917z"/>
	<path style="fill:#FF6464;" d="M207.499,185.608c0.162-0.06,0.325-0.121,0.488-0.183
		C207.824,185.487,207.661,185.548,207.499,185.608z"/>
	<path style="fill:#FF6464;" d="M213.913,182.848c0.149-0.072,0.297-0.141,0.446-0.214
		C214.21,182.707,214.062,182.776,213.913,182.848z"/>
	<path style="fill:#FF6464;" d="M205.703,186.24c0.001,0,0.002-0.001,0.003-0.001C205.705,186.24,205.704,186.24,205.703,186.24
		l-55.663,18.191c-0.984,0.321-1.894,0.692-2.731,1.109c0.837-0.416,1.747-0.788,2.731-1.109L205.703,186.24z"/>
	<path style="fill:#FF6464;" d="M140.598,213.694c-0.112,0.705-0.142,1.429-0.09,2.163
		C140.456,215.124,140.486,214.401,140.598,213.694z"/>
	<path style="fill:#FF6464;" d="M222.774,178.006c0.296-0.179,0.591-0.357,0.886-0.539
		C223.365,177.649,223.07,177.827,222.774,178.006z"/>
	<path style="fill:#FF6464;" d="M218.312,180.58c0.232-0.126,0.462-0.25,0.694-0.379
		C218.774,180.329,218.543,180.453,218.312,180.58z"/>
	<path style="fill:#FF6464;" d="M216.241,181.684c0.237-0.122,0.473-0.248,0.71-0.373
		C216.714,181.436,216.477,181.561,216.241,181.684z"/>
	<path style="fill:#FF6464;" d="M141.825,210.336c0.378-0.632,0.835-1.237,1.368-1.808
		C142.66,209.099,142.204,209.705,141.825,210.336z"/>
	<path style="fill:#FF6464;" d="M145.024,206.917c0.686-0.5,1.449-0.961,2.285-1.378
		C146.473,205.956,145.711,206.417,145.024,206.917z"/>
	<path style="fill:#FF6464;" d="M220.795,179.184c0.285-0.165,0.568-0.333,0.852-0.501
		C221.363,178.851,221.079,179.019,220.795,179.184z"/>
	<path style="fill:#FF6464;" d="M140.598,213.694c0.074-0.47,0.185-0.934,0.331-1.387
		C140.783,212.761,140.673,213.224,140.598,213.694z"/>
	<path style="fill:#FF6464;" d="M140.929,212.307c0.219-0.68,0.518-1.339,0.897-1.971
		C141.447,210.968,141.148,211.627,140.929,212.307z"/>
</g>
<path style="fill:#D2555A;" d="M180.986,235.377l55.662-18.191c7.17-2.343,16.409-7.369,24.037-12.81l-31.003-30.907
	c-0.504,0.359-1.017,0.716-1.535,1.072c-0.314,0.216-0.632,0.429-0.951,0.642c-0.313,0.21-0.628,0.419-0.945,0.627
	c-0.312,0.205-0.623,0.41-0.939,0.612c-0.547,0.352-1.1,0.7-1.655,1.044c-0.294,0.182-0.589,0.36-0.886,0.539
	c-0.375,0.228-0.75,0.453-1.128,0.675c-0.284,0.168-0.567,0.336-0.852,0.501c-0.595,0.345-1.192,0.684-1.788,1.017
	c-0.232,0.129-0.462,0.253-0.694,0.379c-0.454,0.248-0.908,0.492-1.361,0.731c-0.237,0.125-0.474,0.25-0.71,0.373
	c-0.63,0.326-1.258,0.644-1.881,0.951c-0.15,0.073-0.297,0.142-0.446,0.214c-0.526,0.255-1.05,0.501-1.569,0.74
	c-0.192,0.088-0.383,0.176-0.574,0.262c-0.637,0.287-1.27,0.564-1.891,0.824c-0.072,0.03-0.141,0.056-0.212,0.086
	c-0.568,0.235-1.128,0.455-1.679,0.665c-0.164,0.062-0.326,0.123-0.488,0.183c-0.609,0.225-1.21,0.439-1.794,0.63
	c-0.001,0-0.002,0.001-0.003,0.001l-55.662,18.19c-0.984,0.321-1.894,0.692-2.731,1.109c-0.837,0.416-1.599,0.878-2.285,1.378
	s-1.298,1.039-1.831,1.611c-0.533,0.572-0.991,1.177-1.368,1.808c-0.378,0.632-0.677,1.291-0.897,1.971
	c-0.146,0.453-0.256,0.917-0.331,1.387c-0.112,0.705-0.142,1.429-0.09,2.163c0.035,0.489,0.106,0.985,0.215,1.483
	c0.542,2.491,2.014,5.063,4.468,7.501l29.708,29.603C168.566,246.961,171.093,238.605,180.986,235.377z"/>
<g>
	<path style="fill:#FF6464;" d="M354.287,37.976c0.278-0.802,0.536-1.589,0.757-2.348C354.823,36.387,354.565,37.175,354.287,37.976
		z"/>
	<path style="fill:#FF6464;" d="M352.232,43.136c0.267-0.604,0.524-1.203,0.768-1.795C352.757,41.934,352.499,42.533,352.232,43.136
		z"/>
	<path style="fill:#FF6464;" d="M353.356,40.464c0.231-0.582,0.446-1.155,0.652-1.721C353.802,39.309,353.587,39.881,353.356,40.464
		z"/>
	<path style="fill:#FF6464;" d="M350.648,46.539c0.433-0.878,0.842-1.748,1.235-2.613C351.49,44.791,351.081,45.661,350.648,46.539z
		"/>
	<path style="fill:#FF6464;" d="M346.195,54.604c0.375-0.616,0.744-1.235,1.108-1.859C346.94,53.368,346.57,53.988,346.195,54.604z"
		/>
	<path style="fill:#FF6464;" d="M344.104,57.919L344.104,57.919c0.552-0.837,1.094-1.69,1.627-2.552
		C345.198,56.228,344.655,57.082,344.104,57.919z"/>
	<path style="fill:#FF6464;" d="M349.289,49.179c0.467-0.879,0.923-1.757,1.355-2.632C350.212,47.421,349.756,48.301,349.289,49.179
		z"/>
	<path style="fill:#FF6464;" d="M347.815,51.852c0.353-0.62,0.696-1.242,1.036-1.865C348.513,50.609,348.169,51.232,347.815,51.852z
		"/>
</g>
<g>
	<path style="fill:#D2555A;" d="M385.991,66.573l5.349-18.392c3.088-10.604,12.026-12.904,19.841-5.103l89.263,88.928
		c-0.395-0.47-0.824-0.938-1.29-1.401L380.233,12.133c-2.197-2.194-4.485-3.589-6.705-4.225c-1.234-0.353-2.447-0.472-3.612-0.364
		c-0.933,0.087-1.835,0.319-2.695,0.693c-0.644,0.281-1.264,0.641-1.853,1.081c-2.16,1.61-3.914,4.274-4.975,7.918l-5.349,18.392
		c-0.221,0.759-0.479,1.548-0.757,2.348c-0.087,0.252-0.185,0.51-0.278,0.765c-0.206,0.567-0.421,1.14-0.652,1.721
		c-0.115,0.291-0.233,0.583-0.354,0.878c-0.244,0.593-0.501,1.191-0.768,1.795c-0.117,0.264-0.228,0.524-0.349,0.79
		c-0.393,0.865-0.802,1.735-1.235,2.613c-0.001,0.003-0.003,0.006-0.004,0.009c-0.432,0.875-0.888,1.753-1.355,2.632
		c-0.143,0.27-0.292,0.538-0.438,0.808c-0.338,0.623-0.682,1.245-1.036,1.865c-0.17,0.299-0.34,0.595-0.513,0.893
		c-0.363,0.624-0.732,1.243-1.108,1.859c-0.155,0.254-0.307,0.509-0.463,0.762c-0.534,0.862-1.076,1.715-1.627,2.552l30.972,30.908
		C379.86,81.57,384.062,73.204,385.991,66.573z"/>
	<path style="fill:#D2555A;" d="M503.347,142.954c-0.15,0.441-0.336,0.872-0.557,1.291
		C503.011,143.826,503.197,143.395,503.347,142.954z"/>
	<path style="fill:#D2555A;" d="M500.475,147.144c-0.395,0.35-0.825,0.684-1.288,1.002
		C499.649,147.828,500.079,147.494,500.475,147.144z"/>
	<path style="fill:#D2555A;" d="M502.79,144.245c-0.221,0.419-0.478,0.827-0.77,1.221
		C502.312,145.071,502.568,144.664,502.79,144.245z"/>
	<path style="fill:#D2555A;" d="M503.722,138.764c0.068,0.485,0.099,0.966,0.094,1.439
		C503.822,139.73,503.791,139.25,503.722,138.764z"/>
	<path style="fill:#D2555A;" d="M497.696,149.041c-0.53,0.28-1.094,0.54-1.69,0.78C496.602,149.58,497.165,149.32,497.696,149.041z"
		/>
	<path style="fill:#D2555A;" d="M502.506,135.062c0.257,0.498,0.475,0.997,0.656,1.492
		C502.981,136.059,502.763,135.56,502.506,135.062z"/>
	<path style="fill:#D2555A;" d="M503.781,140.909c-0.042,0.467-0.12,0.927-0.234,1.377
		C503.661,141.835,503.739,141.376,503.781,140.909z"/>
	<path style="fill:#D2555A;" d="M328.054,299.712c-0.285,0.638-0.56,1.271-0.818,1.893
		C327.493,300.984,327.77,300.35,328.054,299.712z"/>
	<path style="fill:#D2555A;" d="M329.047,297.569c-0.252,0.526-0.497,1.05-0.733,1.569
		C328.55,298.618,328.794,298.096,329.047,297.569z"/>
	<path style="fill:#D2555A;" d="M327.156,301.807c-0.235,0.573-0.454,1.137-0.663,1.693
		C326.701,302.945,326.921,302.38,327.156,301.807z"/>
	<path style="fill:#D2555A;" d="M330.201,295.244c-0.322,0.627-0.636,1.253-0.939,1.874
		C329.564,296.497,329.879,295.871,330.201,295.244z"/>
	<path style="fill:#D2555A;" d="M336.639,284.294c-0.196,0.295-0.391,0.591-0.585,0.891
		C336.248,284.885,336.443,284.589,336.639,284.294z"/>
	<path style="fill:#D2555A;" d="M332.677,290.693c-0.338,0.588-0.671,1.178-0.997,1.768
		C332.005,291.871,332.339,291.281,332.677,290.693z"/>
	<path style="fill:#D2555A;" d="M331.291,293.181c-0.241,0.446-0.479,0.892-0.711,1.336
		C330.812,294.072,331.05,293.627,331.291,293.181z"/>
	<path style="fill:#D2555A;" d="M335.417,286.169c-0.343,0.539-0.683,1.082-1.019,1.628
		C334.733,287.251,335.073,286.709,335.417,286.169z"/>
	<path style="fill:#D2555A;" d="M333.836,288.726c-0.215,0.358-0.428,0.716-0.639,1.076
		C333.408,289.442,333.621,289.084,333.836,288.726z"/>
	<path style="fill:#D2555A;" d="M303.066,368.89c-0.79,0.646-1.636,1.154-2.524,1.521
		C301.43,370.044,302.275,369.535,303.066,368.89z"/>
	<path style="fill:#D2555A;" d="M305.744,365.829c-0.315,0.492-0.648,0.952-0.998,1.376
		C305.095,366.781,305.428,366.321,305.744,365.829z"/>
	<polygon style="fill:#D2555A;" points="475.742,155.9 475.745,155.899 494.118,150.473 475.745,155.899 	"/>
	<path style="fill:#D2555A;" d="M500.475,147.144c0.592-0.525,1.109-1.087,1.546-1.678
		C501.583,146.057,501.067,146.618,500.475,147.144z"/>
	<path style="fill:#D2555A;" d="M307.737,361.52c-0.532,1.64-1.206,3.079-1.993,4.309
		C306.531,364.599,307.205,363.16,307.737,361.52l17.951-55.737c0.189-0.585,0.402-1.19,0.625-1.801
		c-0.223,0.611-0.437,1.216-0.625,1.801L307.737,361.52z"/>
	<path style="fill:#D2555A;" d="M300.542,370.411c-0.443,0.183-0.898,0.332-1.36,0.444
		C299.645,370.743,300.099,370.595,300.542,370.411z"/>
	<path style="fill:#D2555A;" d="M291.058,369.396c-1.261-0.734-2.516-1.708-3.736-2.927L174.9,254.445l0,0l112.422,112.024
		C288.543,367.688,289.797,368.661,291.058,369.396z"/>
	<path style="fill:#D2555A;" d="M297.771,371.085c-0.239,0.02-0.48,0.032-0.722,0.034
		C297.29,371.117,297.531,371.106,297.771,371.085z"/>
	<path style="fill:#D2555A;" d="M303.066,368.89c0.395-0.323,0.776-0.68,1.143-1.072
		C303.843,368.209,303.461,368.567,303.066,368.89z"/>
	<path style="fill:#D2555A;" d="M294.083,370.705c-1.003-0.286-2.016-0.721-3.025-1.309
		C292.067,369.984,293.08,370.419,294.083,370.705z"/>
	<path style="fill:#D2555A;" d="M473.391,156.669c-0.248,0.087-0.502,0.184-0.754,0.277
		C472.888,156.853,473.143,156.756,473.391,156.669z"/>
	<path style="fill:#D2555A;" d="M456.535,164.968c-0.165,0.102-0.331,0.2-0.495,0.303
		C456.203,165.168,456.37,165.069,456.535,164.968z"/>
	<path style="fill:#D2555A;" d="M459.413,163.255c-0.247,0.142-0.492,0.283-0.738,0.427
		C458.921,163.539,459.167,163.397,459.413,163.255z"/>
	<path style="fill:#D2555A;" d="M468.17,158.772c-0.238,0.107-0.474,0.208-0.714,0.318
		C467.696,158.98,467.932,158.878,468.17,158.772z"/>
	<path style="fill:#D2555A;" d="M464.802,160.357c-0.01,0.005-0.021,0.011-0.031,0.016
		C464.782,160.368,464.792,160.362,464.802,160.357z"/>
	<path style="fill:#D2555A;" d="M462.134,161.742c-0.232,0.124-0.461,0.252-0.693,0.378
		C461.673,161.994,461.903,161.866,462.134,161.742z"/>
	<path style="fill:#D2555A;" d="M470.889,157.616c-0.281,0.113-0.563,0.227-0.848,0.346
		C470.324,157.844,470.608,157.729,470.889,157.616z"/>
	<path style="fill:#D2555A;" d="M338.346,281.797c-0.349,0.495-0.696,0.997-1.042,1.504
		C337.65,282.794,337.997,282.293,338.346,281.797z"/>
	<path style="fill:#D2555A;" d="M336.054,285.184c-0.213,0.327-0.427,0.654-0.637,0.985
		C335.627,285.838,335.841,285.511,336.054,285.184z"/>
	<path style="fill:#D2555A;" d="M326.492,303.501c-0.061,0.161-0.12,0.321-0.178,0.48
		C326.372,303.822,326.432,303.661,326.492,303.501z"/>
	<path style="fill:#D2555A;" d="M334.398,287.797c-0.189,0.308-0.374,0.618-0.561,0.929
		C334.023,288.416,334.209,288.105,334.398,287.797z"/>
	<path style="fill:#D2555A;" d="M297.048,371.119c-0.242,0.002-0.486-0.005-0.731-0.021
		C296.562,371.114,296.806,371.121,297.048,371.119z"/>
	<path style="fill:#D2555A;" d="M337.305,283.301c-0.223,0.328-0.443,0.659-0.664,0.993
		C336.86,283.962,337.082,283.629,337.305,283.301z"/>
	<path style="fill:#D2555A;" d="M328.314,299.137c-0.087,0.192-0.174,0.383-0.26,0.574
		C328.139,299.522,328.226,299.33,328.314,299.137z"/>
	<path style="fill:#D2555A;" d="M329.262,297.117c-0.074,0.151-0.142,0.3-0.215,0.451
		C329.12,297.418,329.189,297.269,329.262,297.117z"/>
	<polygon style="fill:#D2555A;" points="338.348,281.793 338.348,281.793 338.346,281.797 	"/>
	<path style="fill:#D2555A;" d="M330.578,294.517c-0.127,0.243-0.254,0.484-0.378,0.726
		C330.325,295.002,330.452,294.76,330.578,294.517z"/>
	<path style="fill:#D2555A;" d="M327.236,301.605c-0.028,0.068-0.053,0.134-0.081,0.202
		C327.183,301.739,327.208,301.674,327.236,301.605z"/>
	<path style="fill:#D2555A;" d="M331.681,292.46c-0.132,0.24-0.26,0.48-0.39,0.72C331.421,292.94,331.548,292.701,331.681,292.46z"
		/>
	<path style="fill:#D2555A;" d="M333.197,289.802c-0.174,0.297-0.348,0.593-0.519,0.891
		C332.849,290.395,333.023,290.099,333.197,289.802z"/>
	<path style="fill:#D2555A;" d="M475.742,155.9c-0.76,0.224-1.549,0.487-2.351,0.768C474.193,156.387,474.981,156.124,475.742,155.9
		z"/>
	<path style="fill:#D2555A;" d="M472.637,156.946c-0.575,0.211-1.157,0.433-1.749,0.67
		C471.479,157.379,472.061,157.157,472.637,156.946z"/>
	<path style="fill:#D2555A;" d="M467.457,159.09c-0.879,0.403-1.763,0.823-2.654,1.267
		C465.693,159.913,466.578,159.493,467.457,159.09z"/>
	<path style="fill:#D2555A;" d="M456.039,165.271c-0.897,0.559-1.782,1.127-2.652,1.705
		C454.256,166.398,455.143,165.83,456.039,165.271z"/>
	<path style="fill:#D2555A;" d="M458.675,163.682c-0.719,0.42-1.432,0.85-2.14,1.286
		C457.243,164.532,457.957,164.102,458.675,163.682z"/>
	<path style="fill:#D2555A;" d="M470.04,157.963c-0.617,0.257-1.241,0.527-1.87,0.81C468.799,158.49,469.424,158.22,470.04,157.963z
		"/>
	<path style="fill:#D2555A;" d="M464.771,160.373c-0.877,0.437-1.756,0.897-2.637,1.369
		C463.015,161.27,463.895,160.81,464.771,160.373z"/>
	<path style="fill:#D2555A;" d="M461.442,162.12c-0.678,0.37-1.354,0.747-2.027,1.135
		C460.088,162.869,460.763,162.49,461.442,162.12z"/>
</g>
<polygon style="fill:#C7CFE2;" points="203.973,283.434 184.537,302.904 209.228,327.26 228.539,307.876 "/>
<path d="M504.45,125.289L385.535,6.821C381.066,2.359,375.954,0,370.755,0c-8.116,0-14.847,5.8-17.568,15.14l-5.348,18.391
	c-2.746,9.442-10.953,23.327-17.921,30.322l-96.235,96.613c-6.983,7.017-20.864,15.553-30.31,18.64l-55.66,18.19
	c-7.549,2.464-12.754,7.556-14.278,13.971c-1.524,6.413,0.834,13.301,6.46,18.891l53.475,53.285l-80.205,80.486
	c-0.176,0.176-0.343,0.361-0.5,0.554L2.368,499.753c-2.438,2.988-2.212,7.338,0.519,10.058C4.345,511.263,6.262,512,8.186,512
	c1.684,0,3.373-0.563,4.763-1.706l134.869-110.811c0.192-0.158,0.376-0.325,0.552-0.501l80.18-80.482l53.469,53.28
	c4.485,4.477,9.651,6.843,14.941,6.844c0.001,0,0.001,0,0.002,0c8.088,0,14.952-5.667,17.917-14.803l17.949-55.732
	c3.045-9.432,11.529-23.346,18.521-30.377l96.253-96.609c6.948-6.967,20.809-15.214,30.267-18.006l18.372-5.426
	c7.663-2.263,12.977-7.205,14.582-13.558C512.428,137.766,510.102,130.902,504.45,125.289z M138,388.123l-76.485,62.842
	l62.544-76.706l79.942-80.222l13.917,13.868L138,388.123z M496.272,140.437c-0.213,0.847-1.62,2.052-4.281,2.838l-18.371,5.426
	c-5.792,1.71-12.599,4.879-19.063,8.688l-8.598-8.564c-2.937-2.925-7.689-2.917-10.614,0.021c-2.925,2.937-2.916,7.689,0.021,10.613
	l6.611,6.585c-1.836,1.49-3.531,2.988-5.002,4.463l-96.261,96.617c-1.015,1.021-2.044,2.148-3.077,3.349l-6.459-6.434
	c-2.937-2.925-7.689-2.917-10.613,0.021c-2.925,2.937-2.916,7.688,0.021,10.613l8.11,8.079c-4.374,6.956-8.125,14.459-10.15,20.73
	l-17.946,55.723c-0.691,2.132-2.01,4.411-3.636,4.411c-1.176,0-2.797-0.919-4.343-2.462l-58.605-58.398
	c-0.06-0.064-0.114-0.132-0.177-0.195c-0.063-0.062-0.131-0.116-0.195-0.175l-83.161-82.867c-2.135-2.121-2.663-3.86-2.444-4.78
	c0.219-0.922,1.472-2.239,4.335-3.173l55.663-18.191c6.269-2.049,13.753-5.823,20.684-10.217l69.339,69.072
	c1.464,1.459,3.38,2.188,5.296,2.188c1.925,0,3.85-0.736,5.316-2.208c2.925-2.937,2.916-7.688-0.021-10.613l-67.687-67.427
	c1.205-1.045,2.333-2.086,3.354-3.111l96.232-96.611c1.47-1.476,2.963-3.175,4.446-5.013l67.843,67.582
	c1.464,1.459,3.38,2.188,5.296,2.188c1.925,0,3.85-0.736,5.316-2.208c2.925-2.937,2.916-7.688-0.021-10.613l-69.816-69.552
	c3.798-6.487,6.95-13.313,8.637-19.11l5.347-18.389c0.753-2.587,2.022-4.325,3.156-4.325c0.841,0,2.379,0.639,4.182,2.44
	l118.928,118.482C495.823,137.876,496.485,139.595,496.272,140.437z"/>
<g>
</g>
<g>
</g>
<g>
</g>
<g>
</g>
<g>
</g>
<g>
</g>
<g>
</g>
<g>
</g>
<g>
</g>
<g>
</g>
<g>
</g>
<g>
</g>
<g>
</g>
<g>
</g>
<g>
</g>
</svg>
