<?xml version="1.0" encoding="iso-8859-1"?>
<!-- Generator: Adobe Illustrator 19.0.0, SVG Export Plug-In . SVG Version: 6.00 Build 0)  -->
<svg version="1.1" id="Layer_1" xmlns="http://www.w3.org/2000/svg" xmlns:xlink="http://www.w3.org/1999/xlink" x="0px" y="0px"
	 viewBox="0 0 512 512" style="enable-background:new 0 0 512 512;" xml:space="preserve">
<circle style="fill:#D7DEED;" cx="256" cy="296.079" r="208.407"/>
<circle style="fill:#FFFFFF;" cx="256" cy="296.079" r="178.369"/>
<path style="fill:#FFCDCD;" d="M255.728,151.796L256,296.078l102.214,101.831c26.061-26.159,42.142-62.261,42.067-102.102
	C400.131,216.122,335.413,151.646,255.728,151.796z"/>
<path d="M408.532,143.244c-11.532-11.508-24.138-21.552-37.589-30.042l14.906-25.931l16.626,9.558
	c1.18,0.679,2.468,1.001,3.738,1.001c2.602,0,5.132-1.354,6.522-3.771c2.068-3.598,0.828-8.191-2.77-10.259l-46.022-26.455
	c-3.598-2.07-8.191-0.828-10.26,2.77c-2.068,3.598-0.828,8.191,2.77,10.259l16.365,9.407l-14.86,25.852
	c-28.954-15.548-61.242-24.269-94.849-25.349l-0.003-1.858c7.705-1.488,14.789-5.234,20.45-10.916
	c7.462-7.49,11.56-17.436,11.54-28.007C295.054,17.722,277.3,0,255.442,0c-10.572,0.02-20.502,4.155-27.964,11.644
	c-7.461,7.49-11.56,17.435-11.54,28.007c0.036,19.239,13.893,35.3,32.136,38.791l0.003,1.872
	c-54.853,1.967-106.114,24.293-145.047,63.372c-40.705,40.859-63.062,95.124-62.954,152.798
	c0.108,57.607,22.62,111.739,63.39,152.429C144.231,489.595,198.399,512,255.992,512h0.415
	c57.675-0.108,111.856-22.67,152.561-63.529c40.706-40.858,63.063-95.124,62.955-152.798
	C471.812,238.066,449.3,183.933,408.532,143.244z M230.97,39.623c-0.012-6.558,2.529-12.726,7.157-17.372
	c4.628-4.645,10.788-7.209,17.392-7.222c13.509,0,24.521,10.991,24.547,24.501c0.02,10.915-7.125,20.198-16.989,23.399
	l-0.044-23.366c-0.008-4.151-3.376-7.485-7.529-7.501c-4.15,0.008-7.509,3.379-7.501,7.529l0.044,23.366
	C238.172,59.791,230.99,50.53,230.97,39.623z M398.319,437.864c-37.872,38.014-88.282,59.006-141.943,59.107h-0.386
	c-110.56,0-200.676-89.95-200.884-200.515C54.898,185.683,144.849,95.395,255.622,95.185h0.386
	c110.56,0,200.675,89.95,200.884,200.515C456.992,349.361,436.191,399.849,398.319,437.864z"/>
<path d="M412.47,199.485c-2.183-3.529-6.813-4.621-10.344-2.438c-3.53,2.183-4.621,6.814-2.438,10.343
	c16.388,26.493,25.082,57.051,25.14,88.369c0.174,93.094-75.419,168.973-168.512,169.148c-0.107,0-0.214,0-0.323,0
	c-92.946,0-168.65-75.528-168.825-168.512c-0.175-93.094,75.419-168.973,168.512-169.148c0.107,0,0.213,0,0.321,0
	c31.194,0,61.657,8.57,88.113,24.79c3.54,2.171,8.165,1.061,10.334-2.479c2.169-3.538,1.06-8.164-2.479-10.333
	c-28.824-17.674-61.999-27.008-95.971-27.008c-0.114,0-0.233,0-0.349,0C154.274,112.409,71.95,195.043,72.14,296.424
	c0.19,101.269,82.626,183.524,183.853,183.514c0.111,0,0.239,0,0.352,0c101.38-0.19,183.704-82.825,183.514-184.205
	C439.795,261.629,430.323,228.346,412.47,199.485z"/>
<path d="M368.31,170.02c4.665,4.159,9.146,8.623,13.319,13.269c1.484,1.651,3.534,2.492,5.593,2.492c1.788,0,3.584-0.635,5.02-1.925
	c3.088-2.773,3.342-7.525,0.568-10.613c-4.542-5.056-9.419-9.915-14.497-14.441c-3.098-2.763-7.847-2.491-10.61,0.607
	C364.94,162.509,365.213,167.26,368.31,170.02z"/>
<path d="M305.536,152.599c-15.534-5.384-32.199-8.318-49.532-8.318h-0.292c-4.15,0.008-7.509,3.379-7.501,7.529l0.105,56.107v0.006
	l0.09,48.09v0.002l0.077,40.077c0.004,1.993,0.799,3.904,2.211,5.31l76.291,76.005l0.001,0.001h0.001l25.922,25.824
	c1.409,1.403,3.315,2.191,5.303,2.191c0.004,0,0.009,0,0.014,0c1.993-0.004,3.903-0.8,5.309-2.211
	c28.617-28.724,44.335-66.874,44.259-107.419c-0.024-12.718-1.631-25.072-4.618-36.884c-0.064-0.375-0.157-0.744-0.278-1.108
	c-3.2-12.26-7.903-23.92-13.894-34.776c-0.237-0.599-0.559-1.169-0.956-1.703c-5.667-9.964-12.424-19.233-20.115-27.633
	c-0.257-0.372-0.545-0.727-0.877-1.058c-0.201-0.2-0.413-0.384-0.629-0.557c-16.353-17.352-36.731-30.863-59.621-39.027
	C306.395,152.859,305.97,152.71,305.536,152.599z M323.715,177.306l-60.31,60.537l-0.05-26.84l42.223-42.381
	C311.861,171.077,317.919,173.986,323.715,177.306z M351.146,197.956l-87.651,87.982l-0.05-26.839l73.151-73.427
	C341.727,189.43,346.589,193.535,351.146,197.956z M372.566,224.64l-88.479,88.813l-13.445-13.395l90.718-91.06
	C365.448,213.933,369.194,219.159,372.566,224.64z M387.352,257.983l-79.173,79.471l-13.445-13.395l85.281-85.602
	C382.94,244.723,385.395,251.248,387.352,257.983z M392.767,295.82c0.003,1.672-0.032,3.34-0.088,5.002l-60.406,60.634
	l-13.445-13.394l72.377-72.649C392.218,282.072,392.754,288.886,392.767,295.82z M289.501,163.465l-26.187,26.285l-0.057-30.249
	C272.26,159.974,281.035,161.323,289.501,163.465z M358.051,387.139l-15.132-15.074l46.769-46.946
	C384.748,348.077,373.96,369.353,358.051,387.139z"/>
<g>
</g>
<g>
</g>
<g>
</g>
<g>
</g>
<g>
</g>
<g>
</g>
<g>
</g>
<g>
</g>
<g>
</g>
<g>
</g>
<g>
</g>
<g>
</g>
<g>
</g>
<g>
</g>
<g>
</g>
</svg>
