<?xml version="1.0" encoding="iso-8859-1"?>
<!-- Generator: Adobe Illustrator 19.0.0, SVG Export Plug-In . SVG Version: 6.00 Build 0)  -->
<svg version="1.1" id="Layer_1" xmlns="http://www.w3.org/2000/svg" xmlns:xlink="http://www.w3.org/1999/xlink" x="0px" y="0px"
	 viewBox="0 0 512.001 512.001" style="enable-background:new 0 0 512.001 512.001;" xml:space="preserve">
<g>
	<path style="fill:#E4EAF6;" d="M127.941,320.403l-32.062,0.06c-30.988,0.058-56.155-25.015-56.213-56.003l-0.105-56.108
		c-0.017-8.854,7.147-16.044,16.001-16.061l160.309-0.302c8.854-0.017,16.044,7.147,16.061,16.001l0.015,8.015
		C232.055,273.555,185.49,320.295,127.941,320.403z"/>
	<path style="fill:#E4EAF6;" d="M384.435,319.921l32.062-0.06c30.988-0.058,56.061-25.226,56.003-56.213l-0.105-56.108
		c-0.017-8.854-7.208-16.018-16.061-16.001l-160.309,0.302c-8.854,0.017-16.018,7.208-16.001,16.061l0.015,8.015
		C280.148,273.465,326.887,320.029,384.435,319.921z"/>
</g>
<g>
	<path style="fill:#707487;" d="M39.561,208.353l-24.046,0.045c-4.427,0.008-8.008,3.604-8,8.03l0.015,8.015
		c0.017,8.854,7.207,16.017,16.061,16.001l16.031-0.03L39.561,208.353z"/>
	<path style="fill:#707487;" d="M472.394,207.54l24.046-0.045c4.427-0.008,8.022,3.574,8.03,8l0.015,8.015
		c0.017,8.854-7.147,16.044-16.001,16.061l-16.031,0.03L472.394,207.54z"/>
</g>
<path d="M511.985,215.48c-0.008-4.148-1.63-8.045-4.57-10.973c-2.939-2.928-6.793-4.533-10.989-4.528l-17.77,0.033
	c-3.16-9.285-11.969-15.989-22.337-15.989l-160.309,0.302c-6.289,0.012-12.198,2.472-16.636,6.927
	c-3.716,3.73-6.024,8.485-6.672,13.625c-5.048-2.858-10.761-4.447-16.677-4.447c-0.021,0-0.042,0-0.063,0
	c-5.939,0.011-11.67,1.624-16.726,4.511c-1.516-11.529-11.41-20.466-23.381-20.466l-160.309,0.302
	c-6.289,0.012-12.197,2.472-16.636,6.927c-2.607,2.617-4.518,5.74-5.654,9.145l-17.758,0.033C6.937,200.901-0.016,207.88,0,216.443
	l0.015,8.015c0.024,12.969,10.581,23.502,23.544,23.501c0.014,0,0.031,0,0.045,0l8.516-0.016l0.031,16.532
	c0.065,35.015,28.605,63.502,63.621,63.502l32.184-0.06c58.354-0.11,106.311-45.177,111.103-102.293
	c3.635-6.267,10.067-10.151,16.933-10.164c0.012,0,0.022,0,0.034,0c6.852,0,13.286,3.859,16.938,10.103
	c5.008,56.99,53.036,101.871,111.272,101.871l32.276-0.061c16.994-0.032,32.958-6.68,44.953-18.719
	c11.994-12.039,18.582-28.029,18.55-45.023l-0.031-16.532l8.516-0.016c6.289-0.012,12.197-2.472,16.636-6.927
	c4.439-4.456,6.876-10.373,6.865-16.662L511.985,215.48z M23.576,232.931c-0.005,0-0.011,0-0.017,0c-2.268,0-4.402-0.882-6.01-2.484
	c-1.611-1.606-2.502-3.742-2.506-6.018l-0.015-8.015c0-0.277,0.224-0.501,0.5-0.502l16.532-0.031l0.032,17.033L23.576,232.931z
	 M127.927,312.889l-32.062,0.06h-0.093c-26.743,0-48.54-21.758-48.592-48.502l-0.105-56.108c-0.004-2.275,0.878-4.415,2.483-6.027
	c1.606-1.611,3.743-2.502,6.018-2.506l160.325-0.302c4.687,0,8.506,3.813,8.515,8.5l0.015,8.015
	C224.532,269.334,181.24,312.788,127.927,312.889z M450.817,298.049c-9.162,9.195-21.354,14.272-34.334,14.298l-32.062,0.061h-0.186
	c-53.21,0-96.582-43.291-96.682-96.505l-0.015-8.015c-0.004-2.275,0.878-4.415,2.483-6.027c1.606-1.611,3.743-2.502,6.018-2.506
	l160.325-0.302c4.687,0,8.507,3.813,8.516,8.5l0.105,56.108C465.01,276.641,459.978,288.853,450.817,298.049z M494.488,229.55
	c-1.606,1.611-3.742,2.502-6.018,2.506l-8.516,0.016l-0.032-17.033l16.532-0.031c0.057,0.011,0.207,0,0.355,0.146
	c0.146,0.146,0.147,0.303,0.147,0.355l0.015,8.015C496.976,225.799,496.093,227.939,494.488,229.55z"/>
<path d="M154.485,210.839l-72.004,72.274c-2.929,2.941-2.92,7.698,0.02,10.627c1.467,1.461,3.385,2.191,5.303,2.191
	c1.928,0,3.855-0.737,5.323-2.211l72.004-72.274c2.929-2.941,2.92-7.698-0.02-10.627
	C162.171,207.889,157.413,207.898,154.485,210.839z"/>
<path d="M402.962,210.372l-64.003,64.244c-2.929,2.941-2.92,7.698,0.02,10.627c1.467,1.461,3.385,2.191,5.303,2.191
	c1.928,0,3.855-0.737,5.323-2.211l64.003-64.244c2.929-2.941,2.92-7.698-0.02-10.627
	C410.649,207.422,405.892,207.432,402.962,210.372z"/>
<g>
</g>
<g>
</g>
<g>
</g>
<g>
</g>
<g>
</g>
<g>
</g>
<g>
</g>
<g>
</g>
<g>
</g>
<g>
</g>
<g>
</g>
<g>
</g>
<g>
</g>
<g>
</g>
<g>
</g>
</svg>
