<?xml version="1.0" encoding="iso-8859-1"?>
<!-- Generator: Adobe Illustrator 19.0.0, SVG Export Plug-In . SVG Version: 6.00 Build 0)  -->
<svg version="1.1" id="Layer_1" xmlns="http://www.w3.org/2000/svg" xmlns:xlink="http://www.w3.org/1999/xlink" x="0px" y="0px"
	 viewBox="0 0 512 512" style="enable-background:new 0 0 512 512;" xml:space="preserve">
<path style="fill:#5B5D6E;" d="M504.492,375.663c0.033,17.619-14.355,32.061-31.974,32.094L40.054,408.57
	c-17.619,0.033-32.061-14.355-32.094-31.974L7.508,136.338c-0.033-17.619,14.355-32.061,31.974-32.094l432.464-0.813
	c17.619-0.033,32.061,14.355,32.094,31.974L504.492,375.663z"/>
<path style="fill:#FF6464;" d="M105.285,158.99c16.253,29.314-13.548,59.115-42.862,42.862c-3.776-2.093-6.91-5.228-9.004-9.004
	c-16.253-29.314,13.548-59.115,42.862-42.862C100.057,152.08,103.191,155.214,105.285,158.99z"/>
<path d="M511.55,135.391c-0.041-21.762-17.78-39.468-39.618-39.468L39.468,96.736C17.665,96.777-0.04,114.55,0,136.353L0.452,376.61
	c0.041,21.762,17.779,39.467,39.541,39.467c0.005,0,0.07,0,0.075,0l432.465-0.813c10.526-0.02,20.439-4.161,27.911-11.662
	c7.472-7.5,11.576-17.429,11.556-27.955L511.55,135.391z M489.805,393.007c-4.641,4.659-10.786,7.231-17.302,7.243l-432.465,0.813
	l-0.047,7.508v-7.508c-13.498,0-24.5-10.982-24.525-24.48l-0.45-240.257c-0.025-13.525,10.957-24.547,24.48-24.573l432.51-0.813
	c13.499,0,24.501,10.982,24.526,24.48l0.451,240.257C496.996,382.193,494.447,388.347,489.805,393.007z"/>
<path d="M119.203,176.172c-0.006-3.346-0.432-6.67-1.266-9.882c-1.041-4.013-5.14-6.422-9.154-5.381
	c-4.013,1.042-6.423,5.14-5.381,9.154c0.517,1.989,0.78,4.054,0.784,6.138c0.012,6.551-2.527,12.715-7.151,17.356
	c-4.624,4.641-10.779,7.204-17.33,7.216c-0.016,0-0.031,0-0.047,0c-6.533,0-12.679-2.539-17.309-7.151
	c-4.641-4.624-7.204-10.779-7.216-17.33c-0.012-6.551,2.527-12.715,7.151-17.356s10.779-7.204,17.329-7.216
	c2.081-0.002,4.159,0.253,6.156,0.765c4.018,1.028,8.108-1.393,9.136-5.411c1.028-4.017-1.394-8.108-5.411-9.136
	c-3.199-0.819-6.508-1.234-9.839-1.234c-0.023,0-0.047,0-0.07,0c-10.562,0.02-20.484,4.151-27.939,11.634
	c-7.454,7.482-11.549,17.42-11.529,27.982c0.02,10.562,4.151,20.484,11.634,27.939c7.465,7.437,17.372,11.529,27.905,11.529
	c0.025,0,0.051,0,0.077,0c10.562-0.02,20.484-4.151,27.939-11.634C115.129,196.672,119.223,186.734,119.203,176.172z"/>
<path d="M143.729,183.634c0.005,0,0.01,0,0.015,0l24.026-0.045c4.146-0.008,7.502-3.376,7.494-7.522
	c-0.008-4.141-3.368-7.494-7.508-7.494c-0.005,0-0.01,0-0.015,0l-24.026,0.045c-4.146,0.008-7.502,3.376-7.494,7.522
	C136.229,180.281,139.59,183.634,143.729,183.634z"/>
<path d="M199.79,183.529c0.005,0,0.01,0,0.015,0l104.111-0.195c4.146-0.008,7.502-3.376,7.494-7.522
	c-0.008-4.142-3.368-7.494-7.508-7.494c-0.005,0-0.01,0-0.015,0l-104.111,0.195c-4.146,0.008-7.502,3.376-7.494,7.522
	C192.29,180.176,195.649,183.529,199.79,183.529z"/>
<path d="M288.52,247.931c0.008,4.142,3.368,7.494,7.508,7.494c0.005,0,0.01,0,0.015,0l160.172-0.3
	c4.146-0.008,7.502-3.376,7.494-7.522c-0.008-4.142-3.368-7.494-7.508-7.494c-0.005,0-0.01,0-0.015,0l-160.172,0.3
	C291.868,240.417,288.512,243.784,288.52,247.931z"/>
<path d="M456.261,272.142c-0.005,0-0.01,0-0.015,0l-232.248,0.437c-4.146,0.008-7.502,3.376-7.494,7.522
	c0.008,4.141,3.368,7.494,7.508,7.494c0.005,0,0.01,0,0.015,0l232.248-0.438c4.146-0.008,7.502-3.376,7.494-7.522
	C463.76,275.495,460.401,272.142,456.261,272.142z"/>
<path d="M87.926,319.885c0.005,0,0.01,0,0.015,0l104.112-0.195c4.146-0.008,7.502-3.376,7.494-7.522
	c-0.008-4.142-3.368-7.494-7.508-7.494c-0.005,0-0.01,0-0.015,0l-104.112,0.195c-4.146,0.008-7.502,3.376-7.494,7.522
	C80.425,316.534,83.785,319.885,87.926,319.885z"/>
<path d="M55.887,319.943c1.982,0,3.914-0.801,5.316-2.192c1.391-1.401,2.192-3.334,2.192-5.316c0-1.972-0.801-3.914-2.192-5.306
	c-1.402-1.401-3.334-2.202-5.316-2.202c-1.972,0-3.904,0.801-5.306,2.202c-1.402,1.402-2.202,3.334-2.202,5.306
	c0,1.972,0.801,3.914,2.202,5.316C51.982,319.142,53.915,319.943,55.887,319.943z"/>
<path d="M55.957,336.962c-1.982,0-3.914,0.801-5.316,2.202c-1.391,1.401-2.192,3.334-2.192,5.306c0,1.982,0.801,3.914,2.192,5.306
	c1.402,1.401,3.334,2.202,5.316,2.202c1.972,0,3.904-0.801,5.306-2.202c1.391-1.392,2.192-3.324,2.192-5.306
	c0-1.972-0.801-3.914-2.192-5.306C59.86,337.762,57.929,336.962,55.957,336.962z"/>
<path d="M248.158,336.602c-0.005,0-0.01,0-0.015,0l-160.172,0.301c-4.146,0.008-7.502,3.376-7.494,7.522
	c0.008,4.142,3.368,7.494,7.508,7.494c0.005,0,0.01,0,0.015,0l160.172-0.301c4.146-0.008,7.502-3.376,7.494-7.522
	C255.658,339.954,252.298,336.602,248.158,336.602z"/>
<g>
</g>
<g>
</g>
<g>
</g>
<g>
</g>
<g>
</g>
<g>
</g>
<g>
</g>
<g>
</g>
<g>
</g>
<g>
</g>
<g>
</g>
<g>
</g>
<g>
</g>
<g>
</g>
<g>
</g>
</svg>
