<?xml version="1.0" encoding="iso-8859-1"?>
<!-- Generator: Adobe Illustrator 19.0.0, SVG Export Plug-In . SVG Version: 6.00 Build 0)  -->
<svg version="1.1" id="Layer_1" xmlns="http://www.w3.org/2000/svg" xmlns:xlink="http://www.w3.org/1999/xlink" x="0px" y="0px"
	 viewBox="0 0 512.001 512.001" style="enable-background:new 0 0 512.001 512.001;" xml:space="preserve">
<path style="fill:#AA6455;" d="M255.692,87.671c-92.966,0.174-168.187,75.68-168.012,168.645
	c0.174,92.966,75.68,168.187,168.645,168.013c92.966-0.174,168.187-75.68,168.012-168.645S348.658,87.496,255.692,87.671z
	 M256.266,393.223c-75.786,0.143-137.339-61.179-137.481-136.965c-0.142-75.786,61.179-137.339,136.965-137.481
	c75.786-0.142,137.339,61.179,137.481,136.965C393.374,331.528,332.052,393.081,256.266,393.223z"/>
<g>
	<path style="fill:#B9785F;" d="M239.887,207.937l-0.06-32.063c-0.017-8.853,7.148-16.044,16.001-16.061
		c8.853-0.017,16.044,7.148,16.061,16.001l0.06,32.063"/>
	<path style="fill:#B9785F;" d="M255.692,87.671c-8.853,0.017-16.044-7.148-16.061-16.001l-0.09-48.094
		c-0.017-8.853,7.148-16.044,16.001-16.061c8.853-0.017,16.044,7.148,16.061,16.001l0.09,48.094
		C271.71,80.463,264.545,87.654,255.692,87.671z"/>
	<path style="fill:#B9785F;" d="M240.067,304.125l0.06,32.063c0.017,8.853,7.208,16.018,16.061,16.001
		c8.853-0.017,16.017-7.208,16.001-16.061l-0.06-32.063"/>
	<path style="fill:#B9785F;" d="M256.325,424.329c-8.853,0.017-16.018,7.208-16.001,16.061l0.09,48.094
		c0.017,8.853,7.208,16.017,16.061,16.001s16.017-7.208,16.001-16.061l-0.09-48.094
		C272.369,431.477,265.178,424.313,256.325,424.329z"/>
</g>
<circle style="fill:#FFD782;" cx="256.011" cy="256.001" r="48.094"/>
<g>
	<circle style="fill:#FFC36E;" cx="256.011" cy="256.001" r="27.063"/>
	<circle style="fill:#FFC36E;" cx="256.011" cy="256.001" r="27.063"/>
</g>
<g>
	<path style="fill:#B9785F;" d="M206.323,245.93l-27.797-15.979c-7.675-4.413-10.321-14.213-5.909-21.888
		c4.413-7.675,14.213-10.321,21.888-5.909l27.797,15.979"/>
	<path style="fill:#B9785F;" d="M110.073,172.109c-4.413,7.675-14.213,10.321-21.888,5.909L46.49,154.049
		c-7.675-4.413-10.321-14.213-5.909-21.888s14.213-10.321,21.888-5.909l41.696,23.969
		C111.839,154.633,114.486,164.434,110.073,172.109z"/>
	<path style="fill:#B9785F;" d="M289.714,293.868l27.797,15.979c7.675,4.413,17.476,1.766,21.888-5.909
		c4.413-7.675,1.766-17.476-5.909-21.888l-27.797-15.979"/>
	<path style="fill:#B9785F;" d="M401.944,339.891c-4.413,7.675-1.766,17.476,5.909,21.888l41.696,23.969
		c7.675,4.413,17.476,1.766,21.888-5.909c4.413-7.675,1.766-17.476-5.909-21.888l-41.696-23.969
		C416.156,329.569,406.355,332.216,401.944,339.891z"/>
	<path style="fill:#B9785F;" d="M305.655,245.743l27.737-16.083c7.659-4.441,10.268-14.252,5.826-21.91
		c-4.442-7.658-14.252-10.268-21.91-5.826l-27.737,16.083"/>
	<path style="fill:#B9785F;" d="M401.627,171.561c4.441,7.659,14.252,10.268,21.91,5.826l41.605-24.125
		c7.659-4.441,10.268-14.252,5.826-21.91c-4.441-7.659-14.252-10.268-21.91-5.826l-41.605,24.125
		C399.795,154.092,397.186,163.902,401.627,171.561z"/>
	<path style="fill:#B9785F;" d="M222.445,293.994l-27.737,16.083c-7.659,4.441-17.469,1.832-21.91-5.826s-1.833-17.469,5.826-21.91
		l27.737-16.083"/>
	<path style="fill:#B9785F;" d="M110.39,340.439c4.441,7.659,1.833,17.469-5.826,21.91l-41.605,24.125
		c-7.659,4.441-17.469,1.832-21.91-5.826c-4.441-7.658-1.833-17.469,5.826-21.91l41.605-24.125
		C96.138,330.171,105.948,332.78,110.39,340.439z"/>
</g>
<path d="M382.775,188.097c-0.407-0.758-0.93-1.412-1.528-1.964c-0.159-0.774-0.438-1.536-0.856-2.256
	c-2.083-3.59-6.681-4.815-10.27-2.731l-29.246,16.959c-2.694-2.369-5.905-4.118-9.473-5.067c-6.079-1.619-12.421-0.77-17.863,2.386
	l-25.799,14.96c-2.607-1.82-5.375-3.423-8.28-4.781l-0.056-29.801c-0.019-10.357-6.759-19.153-16.073-22.28l-0.049-26.058
	c18.565,1.052,36.792,6.109,53.124,14.801c3.662,1.946,8.213,0.561,10.164-3.104c1.95-3.663,0.561-8.214-3.103-10.165
	c-20.628-10.977-43.946-16.776-67.457-16.776c-0.084,0-0.171,0-0.257,0c-0.005,0-0.01,0-0.015,0
	c-38.405,0.071-74.484,15.096-101.59,42.304c-27.105,27.207-41.993,63.342-41.921,101.747c0.058,30.643,9.622,59.875,27.659,84.533
	c1.472,2.013,3.755,3.079,6.071,3.079c1.54,0,3.093-0.472,4.431-1.45c3.35-2.45,4.079-7.153,1.628-10.502
	c-1.19-1.627-2.326-3.282-3.433-4.953l22.558-13.081c2.694,2.369,5.905,4.118,9.473,5.067c2.015,0.536,4.059,0.802,6.09,0.802
	c4.095,0,8.136-1.078,11.773-3.187l25.799-14.96c2.607,1.82,5.375,3.423,8.28,4.781l0.056,29.801
	c0.019,10.357,6.758,19.153,16.073,22.28l0.049,26.058c-27.67-1.569-54.238-12.047-75.513-29.926
	c-3.176-2.67-7.917-2.258-10.588,0.918c-2.67,3.177-2.259,7.917,0.918,10.587c25.839,21.715,58.658,33.666,92.453,33.664
	c0.084,0,0.173,0,0.258,0c0.005,0,0.01,0,0.015,0c38.405-0.071,74.484-15.096,101.59-42.304
	c27.106-27.208,41.993-63.342,41.921-101.747C399.744,232.141,393.862,208.753,382.775,188.097z M384.76,255.758
	c0.038,20.403-4.639,40.09-13.517,57.817l-22.645-13.018c0.705-3.519,0.599-7.179-0.364-10.746
	c-1.639-6.073-5.545-11.142-10.998-14.276l-25.829-14.848c0.132-1.581,0.214-3.175,0.211-4.79c-0.003-1.615-0.09-3.21-0.229-4.79
	l25.773-14.945c5.441-3.155,9.327-8.24,10.943-14.318c0.95-3.57,1.042-7.23,0.324-10.747l22.557-13.081
	C379.963,215.802,384.722,235.693,384.76,255.758z M256.084,296.579l-0.078,7.515v-7.515c-22.333,0-40.535-18.17-40.577-40.502
	c-0.021-10.839,4.181-21.038,11.831-28.716c7.65-7.679,17.833-11.919,28.75-11.939c22.333,0,40.535,18.17,40.577,40.502
	C296.63,278.299,278.46,296.537,256.084,296.579z M179.131,211.809L179.131,211.809L179.131,211.809
	c1.134-1.973,2.968-3.386,5.164-3.979c2.197-0.595,4.492-0.295,6.464,0.839l21.882,12.579c-3.548,4.419-6.431,9.387-8.508,14.757
	l-21.864-12.568c-1.972-1.134-3.384-2.968-3.977-5.164C177.7,216.076,177.998,213.781,179.131,211.809z M307.883,275.997
	l21.863,12.568c1.972,1.134,3.385,2.968,3.978,5.164c0.593,2.195,0.296,4.49-0.838,6.463l0,0l-0.001,0.001
	c-1.133,1.972-2.968,3.385-5.164,3.978c-2.196,0.593-4.492,0.295-6.464-0.839l-21.882-12.579
	C302.923,286.335,305.806,281.365,307.883,275.997z M321.079,208.424c1.968-1.141,4.262-1.447,6.461-0.863
	c2.197,0.584,4.035,1.989,5.177,3.955c0.001,0.001,0.001,0.003,0.002,0.004c0,0,0.001,0.002,0.002,0.003
	c1.139,1.967,1.445,4.259,0.861,6.457c-0.584,2.198-1.991,4.038-3.959,5.179l-21.82,12.652c-2.098-5.359-5-10.317-8.565-14.723
	L321.079,208.424z M264.422,201.028c-2.744-0.419-5.553-0.636-8.411-0.636c-0.005,0-0.102,0-0.106,0
	c-2.896,0.005-5.739,0.234-8.516,0.668l-0.047-25.2c-0.004-2.275,0.878-4.415,2.484-6.027s3.742-2.502,6.017-2.506
	c0.005,0,0.011,0,0.017,0c2.268,0,4.403,0.882,6.011,2.484c1.611,1.606,2.502,3.742,2.506,6.017L264.422,201.028z M164.796,165.13
	c22.496-22.58,51.895-35.779,83.456-37.644l0.049,26.052c-3.401,1.148-6.517,3.071-9.124,5.687
	c-4.44,4.456-6.877,10.373-6.865,16.662l0.056,29.796c-2.903,1.37-5.666,2.985-8.268,4.815l-25.849-14.859
	c-5.452-3.137-11.8-3.962-17.872-2.319c-3.565,0.962-6.768,2.724-9.453,5.102l-22.635-13.012
	C153.043,178.19,158.555,171.394,164.796,165.13z M127.257,256.242c-0.038-20.403,4.639-40.09,13.517-57.817l22.645,13.018
	c-0.705,3.519-0.599,7.179,0.364,10.746c1.639,6.073,5.545,11.142,10.997,14.276l25.83,14.848c-0.132,1.581-0.214,3.175-0.211,4.79
	c0.003,1.615,0.09,3.209,0.229,4.789l-25.774,14.946c-8.959,5.196-13.206,15.43-11.257,25.059l-22.576,13.092
	C132.016,296.202,127.295,276.573,127.257,256.242z M190.938,303.576c-1.967,1.141-4.262,1.449-6.461,0.863
	c-2.197-0.584-4.036-1.988-5.177-3.954c-0.001-0.002-0.002-0.003-0.002-0.005c-0.001-0.001-0.002-0.002-0.002-0.004
	c-2.352-4.062-0.963-9.281,3.098-11.635l21.82-12.652c2.098,5.359,5,10.317,8.566,14.723L190.938,303.576z M247.595,310.972
	c2.744,0.419,5.553,0.636,8.411,0.636c0.005,0,0.102,0,0.106,0c2.896-0.005,5.739-0.234,8.516-0.668l0.047,25.2
	c0.004,2.275-0.878,4.415-2.484,6.027c-1.606,1.612-3.742,2.502-6.018,2.506c-0.005,0-0.011,0-0.017,0
	c-2.268,0-4.403-0.882-6.01-2.484c-1.611-1.606-2.502-3.742-2.506-6.017L247.595,310.972z M347.221,346.87
	c-22.495,22.58-51.894,35.779-83.456,37.644l-0.049-26.051c3.401-1.148,6.517-3.07,9.124-5.688
	c4.44-4.455,6.877-10.373,6.866-16.662l-0.056-29.796c2.903-1.37,5.666-2.985,8.268-4.815l25.849,14.859
	c3.619,2.081,7.632,3.143,11.697,3.143c2.059,0,4.133-0.272,6.175-0.824c3.564-0.962,6.768-2.723,9.453-5.103l22.634,13.011
	C358.974,333.81,353.462,340.606,347.221,346.87z"/>
<path d="M338.782,157.378c5.584,4.692,10.808,9.895,15.526,15.467c1.486,1.754,3.605,2.657,5.738,2.657
	c1.715,0,3.441-0.584,4.852-1.779c3.167-2.683,3.56-7.425,0.878-10.592c-5.265-6.216-11.096-12.023-17.328-17.26
	c-3.177-2.671-7.916-2.257-10.588,0.92C335.192,149.968,335.604,154.708,338.782,157.378z"/>
<path d="M469.272,351.435l-41.696-23.969c-2.923-1.68-6.172-2.699-9.504-3.017c9.074-21.476,13.824-44.763,13.779-68.779
	c-0.045-24.015-4.884-47.284-14.039-68.728c3.332-0.331,6.576-1.36,9.494-3.052l41.606-24.125
	c11.231-6.514,15.069-20.95,8.558-32.181c-4.198-7.24-12.008-11.737-20.384-11.737c-4.131,0-8.209,1.099-11.796,3.179
	l-41.605,24.124c-3.026,1.754-5.51,4.088-7.404,6.775c-4.887-6.435-10.236-12.584-16.054-18.389
	c-28.177-28.121-64.216-45.511-103.147-50.132c1.369-2.99,2.135-6.31,2.128-9.809l-0.09-48.094C279.093,10.543,268.531,0,255.527,0
	c-12.983,0.024-23.526,10.607-23.502,23.59l0.09,48.094c0.007,3.496,0.786,6.812,2.166,9.797
	c-38.859,4.759-74.785,22.244-102.848,50.412c-5.838,5.86-11.203,12.066-16.095,18.559c-1.905-2.68-4.398-5.004-7.43-6.746
	l-41.696-23.969c-3.568-2.051-7.62-3.135-11.719-3.135c-8.412,0-16.24,4.527-20.43,11.814c-3.134,5.452-3.958,11.798-2.318,17.871
	s5.546,11.143,10.998,14.277l41.696,23.969c2.923,1.68,6.171,2.699,9.504,3.017c-9.074,21.476-13.824,44.763-13.779,68.779
	c0.045,24.015,4.884,47.284,14.039,68.728c-3.332,0.331-6.577,1.36-9.495,3.052l-41.604,24.127
	c-5.441,3.154-9.328,8.239-10.944,14.317c-1.616,6.078-0.77,12.421,2.386,17.864c4.198,7.239,12.009,11.736,20.385,11.736
	c4.13,0,8.208-1.099,11.795-3.178l41.605-24.125c3.026-1.754,5.51-4.088,7.404-6.775c4.887,6.435,10.236,12.584,16.053,18.389
	c28.177,28.121,64.216,45.511,103.147,50.132c-1.369,2.99-2.135,6.31-2.128,9.809l0.09,48.094
	c0.024,12.959,10.587,23.502,23.545,23.502c0.005,0,0.04,0,0.045,0c12.983-0.024,23.526-10.607,23.502-23.59l-0.09-48.094
	c-0.007-3.496-0.786-6.812-2.167-9.797c38.859-4.758,74.786-22.243,102.848-50.412c5.84-5.862,11.206-12.07,16.099-18.564
	c1.94,2.723,4.44,5.035,7.426,6.751l41.695,23.969c3.568,2.051,7.62,3.135,11.719,3.135l0,0c8.412,0,16.24-4.527,20.429-11.813
	C484.422,372.329,480.529,357.907,469.272,351.435z M411.224,156.152l41.605-24.124c1.3-0.753,2.771-1.151,4.257-1.151
	c3.035,0,5.863,1.627,7.382,4.245c2.356,4.064,0.967,9.286-3.095,11.641l-41.605,24.125c-1.318,0.764-2.749,1.15-4.255,1.15h-0.001
	c-2.704,0-5.239-1.297-6.835-3.43c-0.323-0.561-0.652-1.118-0.981-1.676C405.982,163.019,407.442,158.345,411.224,156.152z
	 M247.145,71.657l-0.09-48.094c-0.004-2.275,0.878-4.416,2.484-6.028c1.606-1.612,3.742-2.502,6.034-2.506
	c4.687,0,8.508,3.813,8.517,8.5l0.09,48.094c0.004,2.275-0.878,4.416-2.484,6.028c-1.606,1.612-3.742,2.502-6.017,2.506
	c-0.006,0-0.011,0-0.017,0l0,0C250.975,80.157,247.154,76.343,247.145,71.657z M96.159,172.64c-1.495,0-2.918-0.382-4.228-1.135
	l-41.696-23.969c-1.972-1.134-3.385-2.968-3.978-5.164c-0.593-2.196-0.295-4.492,0.838-6.464c1.516-2.637,4.352-4.275,7.399-4.275
	c1.496,0,2.919,0.382,4.229,1.135l41.696,23.969c3.788,2.177,5.266,6.843,3.57,10.761c-0.333,0.569-0.667,1.137-0.993,1.71
	C101.399,171.343,98.866,172.64,96.159,172.64z M100.793,355.848l-41.604,24.125c-1.299,0.754-2.771,1.15-4.257,1.15
	c-3.035,0-5.865-1.627-7.383-4.245c-1.141-1.969-1.448-4.263-0.863-6.462c0.584-2.198,1.99-4.037,3.958-5.178l41.605-24.125
	c1.3-0.754,2.771-1.151,4.257-1.151c2.702,0,5.235,1.296,6.831,3.427c0.324,0.563,0.654,1.122,0.984,1.681
	C106.034,348.981,104.573,353.656,100.793,355.848z M256.461,496.971l-0.017,7.515v-7.515c-4.687,0-8.507-3.813-8.516-8.5
	l-0.09-48.094c-0.004-2.275,0.878-4.415,2.484-6.028c1.606-1.611,3.743-2.502,6.034-2.506c4.687,0,8.507,3.813,8.516,8.5
	l0.09,48.094C264.971,493.134,261.157,496.962,256.461,496.971z M369.935,369.499c-30.316,30.431-70.669,47.234-113.624,47.315
	h-0.31c-88.503,0-160.64-72.005-160.807-160.511c-0.053-28.135,7.074-55.179,20.515-79.043c0.308-0.457,0.602-0.925,0.879-1.406
	c0.247-0.431,0.475-0.868,0.692-1.307c6.803-11.542,15.099-22.308,24.802-32.047c30.317-30.432,70.669-47.235,113.624-47.316h0.31
	c88.503,0,160.64,72.005,160.806,160.511c0.053,28.135-7.074,55.18-20.516,79.044c-0.308,0.457-0.602,0.924-0.879,1.405
	c-0.247,0.43-0.475,0.868-0.693,1.308C387.932,348.994,379.637,359.76,369.935,369.499z M464.921,376.093
	c-1.516,2.636-4.35,4.274-7.398,4.274c-1.475,0-2.937-0.393-4.229-1.135l-41.695-23.969c-1.972-1.134-3.385-2.968-3.978-5.164
	c-0.508-1.883-0.358-3.837,0.409-5.6c0.332-0.567,0.665-1.133,0.99-1.703c1.595-2.137,4.13-3.435,6.839-3.435
	c1.474,0,2.937,0.393,4.228,1.135l41.696,23.969C465.854,366.805,467.262,372.022,464.921,376.093z"/>
<g>
</g>
<g>
</g>
<g>
</g>
<g>
</g>
<g>
</g>
<g>
</g>
<g>
</g>
<g>
</g>
<g>
</g>
<g>
</g>
<g>
</g>
<g>
</g>
<g>
</g>
<g>
</g>
<g>
</g>
</svg>
