<?xml version="1.0" encoding="iso-8859-1"?>
<!-- Generator: Adobe Illustrator 19.0.0, SVG Export Plug-In . SVG Version: 6.00 Build 0)  -->
<svg version="1.1" id="Layer_1" xmlns="http://www.w3.org/2000/svg" xmlns:xlink="http://www.w3.org/1999/xlink" x="0px" y="0px"
	 viewBox="0 0 512.002 512.002" style="enable-background:new 0 0 512.002 512.002;" xml:space="preserve">
<path style="fill:#A0D2F0;" d="M152.078,344.27l0.12,64.054c0.017,8.807,7.236,15.999,16.043,15.983l320.267-0.602
	c8.807-0.017,15.999-7.236,15.983-16.043l-0.361-192.161c-0.017-8.807-7.236-15.999-16.043-15.983l-96.081,0.18H167.956
	c-9.156,0-16.564,7.446-16.519,16.602L152.078,344.27z"/>
<polygon style="fill:#707487;" points="151.517,232.174 151.677,264.203 504.222,263.54 504.162,231.512 "/>
<path style="fill:#87BEE1;" d="M383.518,318.893l-0.205-119.195H167.956c-9.156,0-16.564,7.446-16.519,16.602l0.545,119.023
	l215.553-0.385C376.342,334.92,383.534,327.7,383.518,318.893z"/>
<polygon style="fill:#5B5D6E;" points="151.677,264.203 383.548,263.787 383.488,231.758 151.517,232.174 "/>
<path style="fill:#B4E1FA;" d="M360.162,295.838c0.017,8.807-7.176,16.026-15.983,16.043l-320.267,0.602
	C15.104,312.5,7.884,305.307,7.868,296.5L7.506,104.339c-0.017-8.807,7.176-16.027,15.983-16.043l320.268-0.602
	c8.807-0.017,16.027,7.176,16.043,15.983L360.162,295.838z"/>
<g>
	<path style="fill:#FFD782;" d="M103.677,152.199c0.017,8.807-7.176,16.027-15.983,16.043l-24.02,0.045
		c-8.807,0.017-16.027-7.176-16.043-15.983l-0.015-8.007c-0.017-8.807,7.176-16.027,15.983-16.043l24.02-0.045
		c8.807-0.017,16.027,7.176,16.043,15.983L103.677,152.199z"/>
	<circle style="fill:#FFD782;" cx="295.838" cy="151.838" r="24.02"/>
</g>
<circle style="fill:#FF6464;" cx="247.798" cy="151.928" r="24.02"/>
<path d="M367.668,295.824l-0.361-192.161c-0.024-12.945-10.575-23.476-23.564-23.476L23.475,80.79
	C10.507,80.814-0.024,91.386,0,104.354l0.361,192.16c0.024,12.945,10.575,23.476,23.52,23.476c0.004,0,0.04,0,0.044,0l320.268-0.603
	C357.162,319.363,367.693,308.792,367.668,295.824z M23.897,304.977l-0.016,7.506v-7.506c-4.682,0-8.498-3.809-8.507-8.49
	l-0.361-192.16c-0.009-4.692,3.8-8.515,8.491-8.524L343.788,95.2c4.682,0,8.498,3.809,8.507,8.49l0.361,192.161
	c0.009,4.691-3.8,8.514-8.491,8.523L23.897,304.977z"/>
<path d="M511.639,215.487c-0.024-12.955-10.571-23.477-23.522-23.477c-0.014,0-0.029,0-0.042,0l-96.081,0.181
	c-4.145,0.008-7.5,3.375-7.492,7.52c0.008,4.141,3.367,7.492,7.506,7.492c0.005,0,0.01,0,0.015,0l96.079-0.181
	c0.005,0,0.01,0,0.016,0c4.684,0,8.5,3.806,8.508,8.491l0.076,40.534l-104.588,0.196c-4.145,0.008-7.5,3.375-7.492,7.52
	c0.008,4.141,3.367,7.492,7.506,7.492c0.005,0,0.01,0,0.015,0l104.588-0.196l0.257,136.613c0.004,2.255-0.882,4.389-2.494,6.007
	c-1.612,1.618-3.742,2.513-5.997,2.517l-320.267,0.603c-0.006,0-0.011,0-0.016,0c-4.683,0-8.498-3.806-8.507-8.49l-0.12-64.054
	c-0.008-4.141-3.367-7.492-7.506-7.492c-0.005,0-0.01,0-0.015,0c-4.145,0.008-7.5,3.375-7.492,7.52l0.12,64.055
	c0.024,12.954,10.57,23.476,23.52,23.475c0.014,0,0.031,0,0.045,0l320.267-0.603c6.264-0.012,12.161-2.475,16.604-6.934
	c4.443-4.46,6.883-10.366,6.872-16.63L511.639,215.487z"/>
<path d="M167.927,248.659c-0.005,0-0.01,0-0.015,0l-40.034,0.075c-4.145,0.008-7.5,3.375-7.492,7.52
	c0.008,4.141,3.367,7.492,7.506,7.492c0.005,0,0.01,0,0.015,0l40.034-0.075c4.145-0.008,7.5-3.375,7.492-7.52
	C175.425,252.011,172.066,248.659,167.927,248.659z"/>
<path d="M95.866,248.795c-0.005,0-0.01,0-0.015,0l-40.034,0.075c-4.145,0.008-7.5,3.375-7.492,7.52
	c0.008,4.141,3.367,7.492,7.506,7.492c0.005,0,0.01,0,0.015,0l40.034-0.075c4.145-0.008,7.5-3.375,7.492-7.52
	C103.365,252.147,100.006,248.795,95.866,248.795z"/>
<path d="M312.047,248.389c-0.005,0-0.01,0-0.015,0l-40.034,0.075c-4.145,0.008-7.5,3.375-7.492,7.52
	c0.008,4.141,3.367,7.492,7.506,7.492c0.005,0,0.01,0,0.015,0l40.034-0.075c4.145-0.008,7.5-3.375,7.492-7.52
	C319.545,251.74,316.186,248.389,312.047,248.389z"/>
<path d="M239.987,248.525c-0.005,0-0.01,0-0.015,0l-40.034,0.075c-4.145,0.008-7.5,3.375-7.492,7.52
	c0.008,4.141,3.367,7.492,7.506,7.492c0.005,0,0.01,0,0.015,0l40.034-0.075c4.145-0.008,7.5-3.375,7.492-7.52
	C247.485,251.876,244.127,248.525,239.987,248.525z"/>
<path d="M87.604,120.703l-24.02,0.046c-12.969,0.024-23.5,10.595-23.476,23.564l0.015,8.006
	c0.024,12.946,10.575,23.477,23.52,23.477c0.004,0,0.04,0,0.044,0l24.02-0.046c12.969-0.024,23.5-10.595,23.476-23.564l-0.015-8.006
	C111.144,131.233,100.592,120.703,87.604,120.703z M87.68,160.736l-24.02,0.046l-0.016,7.506v-7.506
	c-4.682,0-8.498-3.81-8.507-8.492l-0.015-8.006c-0.009-4.691,3.8-8.514,8.491-8.523l24.034-0.046c4.683,0,8.5,3.81,8.508,8.492
	l0.015,8.006C96.18,156.904,92.37,160.727,87.68,160.736z"/>
<path d="M295.779,120.311c-9.618,0.018-18.23,4.369-24.005,11.192c-5.796-6.786-14.413-11.101-24.034-11.101
	c-8.421,0.016-16.332,3.31-22.276,9.276c-5.944,5.966-9.208,13.889-9.193,22.31c0.033,17.35,14.175,31.465,31.524,31.466
	c0.005,0,0.057,0,0.061,0c8.421-0.016,16.332-3.31,22.276-9.276c0.61-0.613,1.185-1.25,1.737-1.903
	c5.789,6.777,14.385,11.087,23.966,11.087c0.005,0,0.057,0,0.061,0c8.421-0.016,16.332-3.31,22.276-9.276
	c5.944-5.966,9.208-13.889,9.193-22.31C327.331,134.428,313.189,120.311,295.779,120.311z M259.496,163.584
	c-3.114,3.125-7.256,4.851-11.668,4.858l-0.033,7.506v-7.506c-9.089-0.001-16.496-7.394-16.513-16.482
	c-0.008-4.412,1.701-8.562,4.815-11.687c3.113-3.125,7.256-4.851,11.701-4.858c9.088,0,16.495,7.394,16.512,16.482
	C264.319,156.309,262.61,160.459,259.496,163.584z M307.537,163.494c-3.113,3.125-7.256,4.851-11.668,4.858l-0.033,7.506v-7.506
	c-9.089-0.001-16.495-7.395-16.513-16.483c-0.017-9.106,7.377-16.528,16.514-16.545c9.089,0,16.496,7.394,16.514,16.483
	C312.36,156.218,310.65,160.369,307.537,163.494z"/>
<path d="M392.069,239.231c0.005,0,0.01,0,0.015,0l88.074-0.165c4.145-0.008,7.5-3.375,7.492-7.52
	c-0.008-4.141-3.367-7.492-7.506-7.492c-0.005,0-0.01,0-0.015,0l-88.074,0.165c-4.145,0.008-7.5,3.375-7.492,7.52
	C384.57,235.879,387.929,239.231,392.069,239.231z"/>
<path d="M456.333,336.191c-0.005,0-0.01,0-0.015,0l-152.127,0.285c-4.145,0.008-7.5,3.375-7.492,7.52
	c0.008,4.141,3.367,7.492,7.506,7.492c0.005,0,0.01,0,0.015,0l152.127-0.285c4.145-0.008,7.5-3.375,7.492-7.52
	C463.832,339.543,460.473,336.191,456.333,336.191z"/>
<path d="M456.379,368.218l-96.081,0.181c-4.145,0.008-7.5,3.375-7.492,7.52c0.008,4.141,3.367,7.492,7.506,7.492
	c0.005,0,0.01,0,0.015,0l96.08-0.181c4.145-0.008,7.5-3.375,7.492-7.52c-0.008-4.141-3.367-7.492-7.506-7.492
	C456.388,368.218,456.383,368.218,456.379,368.218z"/>
<g>
</g>
<g>
</g>
<g>
</g>
<g>
</g>
<g>
</g>
<g>
</g>
<g>
</g>
<g>
</g>
<g>
</g>
<g>
</g>
<g>
</g>
<g>
</g>
<g>
</g>
<g>
</g>
<g>
</g>
</svg>
