<?xml version="1.0" encoding="iso-8859-1"?>
<!-- Generator: Adobe Illustrator 19.0.0, SVG Export Plug-In . SVG Version: 6.00 Build 0)  -->
<svg version="1.1" id="Layer_1" xmlns="http://www.w3.org/2000/svg" xmlns:xlink="http://www.w3.org/1999/xlink" x="0px" y="0px"
	 viewBox="0 0 512 512" style="enable-background:new 0 0 512 512;" xml:space="preserve">
<polygon style="fill:#E6AF78;" points="238.758,394.833 238.758,352.352 129.521,352.352 129.521,394.833 184.14,443.383 "/>
<path style="fill:#D29B6E;" d="M129.521,352.352v44.821c68.804,24.789,109.236-37.252,109.236-37.252v-7.569H129.521z"/>
<path style="fill:#B4E1FA;" d="M360.123,472.873c-0.044-23.382-14.831-48.317-40.277-55.394l-50.881-10.543l-14.45-21.82
	c-2.077-2.758-6.032-3.23-8.7-1.04l-61.758,53.364l0,0l0,0l-61.959-53.132c-2.676-2.181-6.63-1.693-8.696,1.073l-14.368,21.875
	L48.195,417.99c-25.42,7.173-40.113,32.163-40.069,55.545l0.028,15.052c0.017,8.804,8.181,15.927,18.236,15.908l139.585-0.262
	l36.414-0.068l139.585-0.262c10.055-0.019,18.193-7.171,18.176-15.976L360.123,472.873z"/>
<g>
	<path style="fill:#A0D2F0;" d="M52.425,461.869l-32.414-24.15c-7.742,10.435-11.907,23.352-11.884,35.815l0.028,15.052
		c0.017,8.804,8.181,15.927,18.236,15.908l37.599-0.071v-17.065C63.991,477.635,59.786,468.368,52.425,461.869z"/>
	<path style="fill:#A0D2F0;" d="M360.151,487.925l-0.028-15.052c-0.028-14.934-6.078-30.493-17.071-41.637l-30.408,30.634
		c-7.361,6.499-11.567,15.766-11.567,25.491v16.618l40.897-0.077C352.03,503.883,360.168,496.73,360.151,487.925z"/>
</g>
<path style="fill:#785550;" d="M96.522,270.918c0.993-24.475,13.877-55.246,17.062-61.958c0.406-0.856,0.633-1.316,0.633-1.316
	c9.833-1.246,19.252-2.002,28.23-2.362c2.565-0.103,5.094-0.173,7.587-0.213c68.54-1.103,109.362,20.677,109.362,20.677
	l12.827,29.457c18.149-55.534,11.748-102.461,5.938-115.206c-44.162,6.203-109.958-30.199-151.092,0.234l0,0
	c-26.137,0.048-44.151,21.791-44.098,48.749c0.05,26.023,12.232,78.03,12.232,78.03l1.32,8.499c-0.002-0.872-0.034-2.171,0-3.061
	C96.523,272.406,96.52,270.962,96.522,270.918z"/>
<path style="fill:#F0C087;" d="M271.555,290.137c0.064-0.484,0.125-0.967,0.183-1.449c1.528-12.711,3.001-28.8-2.606-40.579
	c-3.491-7.332-6.496-14.919-9.736-22.36c0,0-40.822-21.78-109.362-20.677c-2.492,0.04-5.022,0.11-7.587,0.213
	c-8.978,0.36-18.397,1.116-28.23,2.362c0,0-0.228,0.46-0.634,1.316c-23.641,49.831-27.392,111.755,15.956,152.895
	c9.94,9.434,22.016,16.912,35.452,20.622c1.668,0.461,3.353,0.864,5.055,1.205c0.33,0.066,0.66,0.132,0.992,0.193
	c4.25,0.79,8.591,1.203,13.003,1.196C235.189,384.98,265.747,334.084,271.555,290.137z"/>
<path style="fill:#E6AF78;" d="M126.496,289.368c-1.481-68.495,10.255-65.049,10.255-65.049
	c28.951-6.482,76.885-1.906,125.355,7.772c-0.896-2.12-1.793-4.237-2.71-6.343c0,0-40.822-21.78-109.362-20.677
	c-2.492,0.04-5.022,0.11-7.587,0.213c-8.978,0.36-18.397,1.116-28.23,2.362c0,0-0.228,0.46-0.634,1.316
	c-23.641,49.831-27.392,111.756,15.956,152.895c9.94,9.434,22.015,16.912,35.452,20.622c1.668,0.461,3.353,0.864,5.055,1.205
	c0.33,0.066,0.66,0.132,0.992,0.193c4.239,0.789,8.569,1.201,12.97,1.195C168.102,379.659,127.594,340.156,126.496,289.368z"/>
<path style="fill:#694B4B;" d="M278.161,139.999c-44.162,6.203-109.958-30.199-151.092,0.234c0,0-32.228,37.047-12.85,67.413
	c9.833-1.246,19.252-2.002,28.23-2.362c0.054-0.002,0.107-0.003,0.161-0.006c2.51-0.099,4.986-0.168,7.425-0.207
	c68.54-1.103,109.362,20.677,109.362,20.677l12.827,29.457C290.372,199.671,283.97,152.743,278.161,139.999z"/>
<path style="fill:#A0D2F0;" d="M165.885,455.682l18.172-18.241l-61.959-53.132c-2.676-2.181-6.63-1.693-8.696,1.073l-14.368,21.875
	l48.677,66.667L165.885,455.682z"/>
<path style="fill:#E4EAF6;" d="M220.54,473.785l48.426-66.849l-14.45-21.82c-2.077-2.758-6.032-3.23-8.7-1.04l-61.758,53.364
	l18.241,18.172L220.54,473.785z"/>
<path style="fill:#A0D2F0;" d="M220.54,473.785l48.426-66.849l-14.45-21.82c-2.077-2.758-6.032-3.23-8.7-1.04l-61.758,53.364
	l18.241,18.172L220.54,473.785z"/>
<polyline style="fill:#5B5D6E;" points="195.43,472.209 172.672,471.45 165.977,504.232 202.39,504.164 195.43,472.209 "/>
<path style="fill:#515262;" d="M165.897,461.75c0.013,6.676,5.485,12.128,12.161,12.115l12.138-0.023
	c6.676-0.013,12.128-5.485,12.115-12.161l-0.011-6.068l-18.241-18.172l-18.172,18.241L165.897,461.75z"/>
<path style="fill:#FFD782;" d="M231.8,137.749C234.852,65.416,294.406,7.644,367.52,7.504c75.165-0.14,136.21,60.685,136.35,135.85
	c0.14,75.165-60.675,136.21-135.84,136.35c-37.337,0.07-71.192-14.901-95.831-39.209c-5.144-5.064-9.877-10.538-14.16-16.362
	c-1.131-1.541-2.232-3.102-3.302-4.693c-14.521-21.596-23.017-47.595-23.067-75.576C231.67,141.812,231.71,139.781,231.8,137.749z"
	/>
<path style="fill:#FFC36E;" d="M431.446,234.563c-75.151,0-136.294-61.143-136.294-136.294c0-31.458,10.817-60.379,28.787-83.471
	c-53.65,18.33-92.391,69.125-92.391,128.903c0,75.151,61.143,136.294,136.294,136.294c43.693,0,82.548-20.749,107.507-52.823
	C461.551,231.885,446.819,234.563,431.446,234.563z"/>
<path d="M88.145,267.291l0.024,13.036c0.052,27.734,10.208,55.803,27.862,77.007c18.51,22.232,42.616,34.468,67.901,34.467
	c0.048,0,0.1,0,0.147,0c25.333-0.047,49.424-12.372,67.836-34.704c17.516-21.245,27.532-49.339,27.479-77.092v-0.144
	c-0.014-4.136-3.371-7.479-7.506-7.479c-0.009,0-0.018,0-0.026,0c-4.145,0.014-7.495,3.385-7.481,7.532v0.131
	c0.045,24.306-8.72,48.91-24.051,67.503c-15.515,18.818-35.504,29.203-56.282,29.243c-0.039,0-0.078,0-0.118,0
	c-20.747,0-40.761-10.318-56.367-29.061c-15.452-18.56-24.341-43.137-24.387-67.43l-0.018-9.597c0-0.001,0-0.003,0-0.005
	c-0.038-20.086,13.48-47.411,18.423-56.729c32.278-3.791,63.414-2.494,92.6,3.89c0.54,0.118,1.08,0.175,1.611,0.175
	c3.451,0,6.557-2.395,7.324-5.903c0.886-4.05-1.679-8.05-5.728-8.937c-31.82-6.961-65.759-8.214-100.877-3.738
	c-2.47,0.118-4.831,1.447-6.155,3.75c-0.529,0.92-7.993,14.017-14.124,30.418c-2.94-15.248-5.739-32.844-5.761-44.656
	c-0.045-24.23,15.003-41.182,36.595-41.229c0.001,0,0.002,0,0.003,0c0.002,0,0.003,0,0.005,0c0.001,0,0.003,0,0.004,0
	c0.356,0,0.705-0.035,1.048-0.083c0.081-0.012,0.161-0.023,0.242-0.038c0.347-0.061,0.688-0.141,1.016-0.248
	c0.046-0.015,0.091-0.035,0.137-0.05c0.328-0.114,0.646-0.249,0.953-0.405c0.037-0.019,0.074-0.035,0.111-0.054
	c0.33-0.176,0.642-0.379,0.941-0.601c0.029-0.021,0.061-0.035,0.089-0.057c18.528-14.128,46.979-11.341,66.766-8.016
	c4.095,0.689,7.959-2.07,8.646-6.158c0.688-4.087-2.07-7.958-6.158-8.645c-21.894-3.68-53.318-6.606-76.331,9.412
	c-28.646,1.337-49.137,24.571-49.078,56.201l0,0l0,0C75.511,213.995,86.409,260.101,88.145,267.291z"/>
<path d="M321.858,410.248c-0.161-0.044-0.324-0.084-0.488-0.118l-47.853-9.915l-12.742-19.243c-0.083-0.126-0.171-0.25-0.262-0.371
	c-2.551-3.388-6.606-5.409-10.849-5.409c-3.13,0-6.189,1.096-8.61,3.085c-0.048,0.04-0.096,0.08-0.144,0.121l-56.87,49.14
	l-57.054-48.926c-0.047-0.041-0.095-0.081-0.144-0.12c-2.416-1.968-5.46-3.052-8.571-3.052c-4.263,0-8.33,2.038-10.88,5.451
	c-0.09,0.121-0.177,0.245-0.26,0.371l-12.67,19.29l-47.814,10.094c-0.164,0.034-0.327,0.074-0.488,0.12
	c-29.955,8.453-45.581,37.982-45.535,62.782l0.028,15.052c0.024,12.913,11.549,23.4,25.703,23.399c0.018,0,0.036,0,0.054,0
	l139.55-0.262c0.009,0,0.019,0.001,0.028,0.001c0.011,0,0.023-0.001,0.034-0.001l36.332-0.068c0.011,0,0.021,0.001,0.032,0.001
	c0.01,0,0.02-0.001,0.03-0.001l139.577-0.262c6.683-0.012,13.007-2.343,17.806-6.562c5.083-4.466,7.875-10.481,7.862-16.934
	l-0.028-15.052C367.583,448.059,351.845,418.588,321.858,410.248z M249.365,390.93l10.472,15.815l-40.223,55.525l-24.529-24.438
	L249.365,390.93z M178.478,479.739c0.097,0.001,0.193,0.016,0.29,0.016c0.01,0,0.021,0,0.031,0l10.675-0.02
	c0.108,0,0.213-0.017,0.321-0.019l3.425,16.958l-18.103,0.034L178.478,479.739z M192.607,459.833c0.005,2.752-1.694,4.89-3.16,4.893
	l-10.675,0.02c-0.001,0-0.002,0-0.003,0c-0.836,0-1.518-0.645-1.851-1.029c-0.839-0.97-1.321-2.374-1.324-3.851l-0.006-3.288
	l8.49-8.522l8.522,8.49L192.607,459.833z M118.577,391.175l54.455,46.697l-24.437,24.529l-40.431-55.373L118.577,391.175z
	 M26.377,496.989c-0.008,0-0.016,0-0.024,0c-5.789,0-10.684-3.85-10.693-8.416l-0.028-15.052
	c-0.036-19.078,11.758-41.729,34.368-48.242l45.836-9.677l45.815,62.746c1.294,1.772,3.299,2.89,5.488,3.057
	c0.191,0.015,0.383,0.022,0.573,0.022c1.987,0,3.903-0.79,5.317-2.209l9.792-9.829c0.521,1.042,1.126,2.036,1.818,2.971
	c-0.004,0.02-0.01,0.038-0.014,0.057l-4.817,24.32L26.377,496.989z M349.886,493.57c-2.066,1.816-4.881,2.82-7.925,2.825
	l-133.431,0.251l-4.908-24.302c-0.004-0.021-0.011-0.04-0.016-0.061c0.68-0.927,1.292-1.916,1.814-2.967l9.822,9.785
	c1.413,1.407,3.319,2.189,5.297,2.189c0.2,0,0.4-0.008,0.601-0.024c2.189-0.176,4.19-1.301,5.477-3.078l45.578-62.917l45.873,9.505
	c22.636,6.428,34.513,29.033,34.548,48.111l0.028,15.052C352.652,490.722,350.919,492.663,349.886,493.57z"/>
<path d="M367.779,0h-0.275C288.319,0.149,224.02,64.692,224.168,143.876c0.148,79.028,64.567,143.329,143.599,143.336h0.276
	c79.184-0.149,143.484-64.692,143.336-143.876C511.229,64.3,446.811,0,367.779,0z M368.015,272.2h-0.247
	c-70.771-0.007-128.457-57.585-128.59-128.354c-0.133-70.906,57.446-128.702,128.354-128.836h0.247
	c70.771,0,128.456,57.579,128.589,128.354C496.501,214.271,438.922,272.067,368.015,272.2z"/>
<path d="M455.217,79.392c0-0.247-0.014-0.493-0.039-0.739c-0.011-0.114-0.033-0.225-0.049-0.337
	c-0.019-0.129-0.034-0.259-0.06-0.388c-0.026-0.128-0.061-0.253-0.093-0.379c-0.028-0.111-0.052-0.222-0.086-0.332
	c-0.038-0.124-0.084-0.244-0.128-0.365c-0.039-0.109-0.076-0.219-0.12-0.327c-0.047-0.114-0.103-0.222-0.155-0.333
	c-0.053-0.111-0.102-0.223-0.16-0.332c-0.057-0.106-0.122-0.207-0.184-0.31c-0.064-0.106-0.124-0.215-0.194-0.318
	c-0.078-0.116-0.164-0.225-0.248-0.336c-0.063-0.084-0.122-0.17-0.189-0.252c-0.157-0.191-0.324-0.375-0.499-0.55l-0.001-0.001
	c-0.012-0.012-0.026-0.022-0.038-0.034c-0.164-0.161-0.334-0.315-0.511-0.46c-0.082-0.067-0.168-0.125-0.251-0.188
	c-0.112-0.084-0.222-0.17-0.338-0.248c-0.102-0.067-0.207-0.126-0.311-0.188c-0.106-0.063-0.21-0.129-0.319-0.188
	c-0.107-0.057-0.217-0.105-0.326-0.157c-0.112-0.053-0.223-0.108-0.338-0.156c-0.108-0.045-0.219-0.081-0.329-0.121
	c-0.121-0.043-0.24-0.089-0.363-0.126c-0.112-0.034-0.226-0.059-0.339-0.087c-0.123-0.031-0.245-0.065-0.371-0.09
	c-0.132-0.026-0.266-0.042-0.399-0.061c-0.108-0.015-0.215-0.036-0.325-0.046c-0.212-0.021-0.424-0.029-0.637-0.032
	c-0.033,0-0.064-0.005-0.097-0.005c-0.003,0-0.006,0-0.01,0c-0.003,0-0.007,0-0.01,0l-48.03,0.09c-4.145,0.008-7.5,3.374-7.492,7.52
	c0.008,4.141,3.366,7.492,7.506,7.492c0.005,0,0.01,0,0.015,0l29.915-0.056l-61.823,62.056l-18.746-18.676
	c-2.937-2.925-7.69-2.917-10.615,0.02l-63.927,64.167c-2.925,2.937-2.916,7.689,0.02,10.614c1.465,1.459,3.38,2.189,5.297,2.189
	c1.925,0,3.851-0.736,5.317-2.208l58.629-58.85l18.745,18.676c1.465,1.459,3.38,2.189,5.297,2.189c1.925,0,3.851-0.737,5.317-2.209
	l67.119-67.372l0.056,29.916c0.008,4.14,3.366,7.491,7.506,7.491c0.005,0,0.01,0,0.015,0c4.145-0.008,7.5-3.374,7.491-7.52
	l-0.09-48.035C455.217,79.393,455.217,79.393,455.217,79.392z"/>
<g>
</g>
<g>
</g>
<g>
</g>
<g>
</g>
<g>
</g>
<g>
</g>
<g>
</g>
<g>
</g>
<g>
</g>
<g>
</g>
<g>
</g>
<g>
</g>
<g>
</g>
<g>
</g>
<g>
</g>
</svg>
