<?xml version="1.0" encoding="iso-8859-1"?>
<!-- Generator: Adobe Illustrator 19.0.0, SVG Export Plug-In . SVG Version: 6.00 Build 0)  -->
<svg version="1.1" id="Layer_1" xmlns="http://www.w3.org/2000/svg" xmlns:xlink="http://www.w3.org/1999/xlink" x="0px" y="0px"
	 viewBox="0 0 512 512" style="enable-background:new 0 0 512 512;" xml:space="preserve">
<path style="fill:#464655;" d="M193.128,152.435h123.273l-55.466-87.642c-2.866-4.529-9.475-4.529-12.34,0L193.128,152.435z"/>
<path style="fill:#EFF2FA;" d="M497.098,437.953l-39.858-62.978H52.29l-39.858,62.978c-3.076,4.859,0.418,11.202,6.171,11.202
	h472.325C496.681,449.154,500.174,442.812,497.098,437.953z"/>
<polygon style="fill:#D7DEED;" points="52.29,374.973 457.24,374.973 410.294,300.793 99.236,300.793 "/>
<polygon style="fill:#C7CFE2;" points="99.236,300.793 410.294,300.793 363.348,226.614 146.182,226.614 "/>
<polygon style="fill:#AFB9D2;" points="146.182,226.614 363.348,226.614 316.402,152.435 193.128,152.435 "/>
<path d="M510.829,447.654l-95.835-150.853c-0.351-0.885-0.864-1.684-1.503-2.367L277.114,79.766c-0.003-0.005-0.006-0.01-0.01-0.015
	l-15.499-24.397c-1.379-2.171-3.772-3.486-6.343-3.486c-0.005,0-0.009,0-0.014,0c-2.576,0.005-4.971,1.329-6.344,3.509
	L97.918,295.029c-0.636,0.684-1.146,1.485-1.493,2.371L1.157,448.611c-1.46,2.318-1.544,5.246-0.217,7.643
	c1.324,2.394,3.842,3.878,6.576,3.878c0.004,0,0.01,0,0.014,0l496.971-0.934c2.739-0.005,5.258-1.5,6.576-3.903
	C512.392,452.894,512.297,449.966,510.829,447.654z M276.849,107.376l-40.563,40.716l-18.824,0.035l52.071-52.267L276.849,107.376z
	 M285.109,120.379l7.316,11.517l-16.062,16.123l-18.824,0.035L285.109,120.379z M300.685,144.898l1.951,3.07l-5.019,0.01
	L300.685,144.898z M255.289,73.439l5.984,9.418l-32.418,32.541L255.289,73.439z M21.147,445.077l41.145-65.309
	c0.386,0.061,0.778,0.102,1.18,0.102c0.005,0,0.01,0,0.015,0l288.564-0.542c4.15-0.008,7.509-3.379,7.501-7.529
	c-0.008-4.146-3.371-7.501-7.515-7.501c-0.005,0-0.01,0-0.015,0l-280.315,0.527l36.024-57.18l196.089-0.369
	c4.15-0.008,7.509-3.379,7.501-7.529c-0.008-4.146-3.371-7.501-7.515-7.501c-0.005,0-0.01,0-0.015,0l-186.581,0.351l36.024-57.179
	l102.355-0.192c4.15-0.008,7.509-3.379,7.501-7.529c-0.008-4.146-3.371-7.501-7.515-7.501c-0.005,0-0.01,0-0.015,0l-92.848,0.174
	l36.043-57.209c0.188,0.014,0.376,0.027,0.565,0.027c0.003,0,0.005,0,0.008,0c0.005,0,0.01,0,0.015,0l112.219-0.21
	c0.198,0,0.393-0.015,0.587-0.031l36.258,57.074l-12.691,0.024c-4.15,0.008-7.509,3.379-7.501,7.53c0.008,4.145,3.371,7.5,7.515,7.5
	c0.005,0,0.01,0,0.015,0l22.199-0.042l36.239,57.045l-10.237,0.019c-4.15,0.008-7.509,3.379-7.501,7.529
	c0.008,4.146,3.371,7.501,7.515,7.501c0.005,0,0.01,0,0.015,0l19.746-0.037l36.24,57.044l-7.783,0.015
	c-4.15,0.008-7.509,3.379-7.501,7.53c0.008,4.145,3.371,7.5,7.515,7.5c0.005,0,0.01,0,0.015,0l16.031-0.03
	c0.408-0.001,0.805-0.043,1.194-0.106l41.391,65.153L21.147,445.077z"/>
<path d="M400.132,364.208c-0.005,0-0.01,0-0.015,0l-16.031,0.03c-4.15,0.008-7.509,3.379-7.501,7.53
	c0.008,4.145,3.371,7.5,7.515,7.5c0.005,0,0.01,0,0.015,0l16.031-0.03c4.15-0.008,7.509-3.379,7.501-7.53
	C407.638,367.563,404.275,364.208,400.132,364.208z"/>
<path d="M351.902,292.157c-0.005,0-0.01,0-0.014,0l-16.031,0.029c-4.15,0.008-7.509,3.379-7.501,7.529
	c0.008,4.146,3.371,7.501,7.515,7.501c0.005,0,0.01,0,0.014,0l16.031-0.029c4.15-0.008,7.509-3.379,7.501-7.529
	C359.409,295.513,356.047,292.157,351.902,292.157z"/>
<path d="M303.673,220.107c-0.005,0-0.01,0-0.015,0l-16.031,0.03c-4.15,0.008-7.509,3.379-7.501,7.53
	c0.008,4.145,3.371,7.5,7.515,7.5c0.005,0,0.01,0,0.015,0l16.031-0.03c4.15-0.008,7.509-3.379,7.501-7.53
	C311.179,223.462,307.816,220.107,303.673,220.107z"/>
<g>
</g>
<g>
</g>
<g>
</g>
<g>
</g>
<g>
</g>
<g>
</g>
<g>
</g>
<g>
</g>
<g>
</g>
<g>
</g>
<g>
</g>
<g>
</g>
<g>
</g>
<g>
</g>
<g>
</g>
</svg>
