<?xml version="1.0" encoding="iso-8859-1"?>
<!-- Generator: Adobe Illustrator 19.0.0, SVG Export Plug-In . SVG Version: 6.00 Build 0)  -->
<svg version="1.1" id="Layer_1" xmlns="http://www.w3.org/2000/svg" xmlns:xlink="http://www.w3.org/1999/xlink" x="0px" y="0px"
	 viewBox="0 0 512.002 512.002" style="enable-background:new 0 0 512.002 512.002;" xml:space="preserve">
<polygon style="fill:#EBD2AF;" points="184.048,420.249 39.859,420.384 39.566,276.358 183.755,276.086 "/>
<path style="fill:#C7CFE2;" d="M239.647,179.855l0.015,8.01c0.025,13.217,10.859,24.011,24.077,23.986l160.21-0.301
	c13.217-0.025,24.011-10.859,23.986-24.077l-0.015-8.01L239.647,179.855z"/>
<path style="fill:#464655;" d="M447.754,91.349c-0.025-13.217-10.859-24.01-24.077-23.986l-160.21,0.301
	c-13.217,0.025-24.011,10.859-23.986,24.076l0.165,88.115l208.273-0.392L447.754,91.349z"/>
<rect x="327.861" y="203.689" transform="matrix(-0.0019 -1 1 -0.0019 116.8152 572.0338)" style="fill:#C7CFE2;" width="32.042" height="48.063"/>
<path d="M511.668,267.459c-0.016-8.425-3.311-16.339-9.28-22.285c-5.954-5.932-13.857-9.197-22.259-9.197c-0.02,0-0.041,0-0.061,0
	l-104.637,0.197l-0.032-17.022l48.564-0.091c17.392-0.033,31.514-14.209,31.482-31.6l-0.181-96.126
	c-0.033-17.359-14.182-31.481-31.6-31.481l-160.21,0.3c-17.392,0.033-31.514,14.209-31.481,31.601l0.18,96.126
	c0.033,17.359,14.183,31.482,31.541,31.482c0.004,0,0.055,0,0.06,0l48.564-0.091l0.032,17.022l-280.867,0.528
	c-8.425,0.016-16.339,3.311-22.285,9.28C3.251,252.07-0.015,259.997,0,268.422l0.331,176.231c0.008,4.142,3.368,7.496,7.51,7.496
	c0.005,0,0.01,0,0.015,0c4.147-0.008,7.504-3.376,7.496-7.524l-0.331-176.231c-0.008-4.413,1.702-8.565,4.817-11.691
	c3.114-3.126,7.26-4.852,11.673-4.86l448.586-0.843c0.011,0,0.021,0,0.032,0c4.401,0,8.541,1.71,11.66,4.817
	c3.126,3.114,4.852,7.26,4.86,11.673l0.331,176.231c0.008,4.142,3.368,7.496,7.51,7.496c0.005,0,0.01,0,0.015,0
	c4.147-0.008,7.504-3.376,7.496-7.524L511.668,267.459z M263.482,75.173l160.241-0.3c9.093,0,16.504,7.398,16.522,16.491
	l0.151,80.605l-193.253,0.362l-0.151-80.605C246.974,82.616,254.372,75.19,263.482,75.173z M263.724,204.342l-0.031,7.51v-7.51
	c-9.093,0-16.505-7.398-16.522-16.491l-0.001-0.501l193.253-0.362l0.001,0.501c0.017,9.11-7.381,16.536-16.491,16.553
	l-104.118,0.196c-0.001,0-0.002,0-0.003,0c-0.005,0-0.01,0-0.015,0c-0.001,0-0.003,0-0.004,0L263.724,204.342z M327.335,219.242
	l33.043-0.062l0.032,17.022l-33.043,0.062L327.335,219.242z"/>
<path d="M191.536,420.26c0-0.001,0-0.003,0-0.004l-0.09-48.056c0-0.001,0-0.002,0-0.003c0-0.001,0-0.002,0-0.003l-0.09-48.059
	v-0.001v-0.001l-0.09-48.061c-0.008-4.143-3.368-7.496-7.51-7.496c-0.005,0-0.01,0-0.015,0l-144.189,0.271
	c-1.992,0.004-3.9,0.798-5.306,2.21c-1.406,1.411-2.193,3.322-2.19,5.315l0.181,96.119c0,0.002,0,0.005,0,0.007s0,0.005,0,0.007
	l0.09,48.05c0,0.002,0,0.004,0,0.005s0,0.004,0,0.006l0.045,24.025c0.008,4.142,3.368,7.496,7.51,7.496c0.005,0,0.01,0,0.015,0
	c4.147-0.008,7.504-3.376,7.496-7.524l-0.031-16.522l129.169-0.242l0.031,16.522c0.008,4.142,3.368,7.496,7.51,7.496
	c0.005,0,0.01,0,0.015,0c4.147-0.008,7.504-3.376,7.496-7.524l-0.045-24.027C191.536,420.263,191.536,420.262,191.536,420.26z
	 M47.181,331.915l129.168-0.243l0.062,33.043l-129.168,0.243L47.181,331.915z M176.259,283.61l0.062,33.043l-129.169,0.243
	l-0.062-33.043L176.259,283.61z M47.333,413.022l-0.062-33.043l129.169-0.243l0.062,33.043L47.333,413.022z"/>
<path d="M103.695,307.778c0.005,0,0.01,0,0.015,0l16.021-0.03c4.147-0.008,7.504-3.376,7.496-7.524
	c-0.008-4.142-3.368-7.496-7.51-7.496c-0.005,0-0.01,0-0.015,0l-16.021,0.03c-4.147,0.008-7.504,3.376-7.496,7.524
	C96.193,304.424,99.553,307.778,103.695,307.778z"/>
<path d="M119.807,340.791c-0.005,0-0.01,0-0.015,0l-16.021,0.03c-4.147,0.008-7.504,3.376-7.496,7.524
	c0.008,4.142,3.368,7.496,7.51,7.496c0.005,0,0.01,0,0.015,0l16.021-0.03c4.147-0.008,7.504-3.376,7.496-7.524
	C127.309,344.144,123.948,340.791,119.807,340.791z"/>
<path d="M119.897,388.854c-0.005,0-0.01,0-0.015,0l-16.021,0.03c-4.147,0.008-7.504,3.376-7.496,7.524
	c0.008,4.142,3.368,7.496,7.51,7.496c0.005,0,0.01,0,0.015,0l16.021-0.03c4.147-0.008,7.504-3.376,7.496-7.524
	C127.398,392.207,124.038,388.854,119.897,388.854z"/>
<path d="M135.587,212.593c-0.005,0-0.01,0-0.015,0l-72.094,0.135c-4.147,0.008-7.504,3.376-7.496,7.524
	c0.008,4.143,3.368,7.496,7.51,7.496c0.005,0,0.01,0,0.015,0l72.094-0.135c4.147-0.008,7.504-3.376,7.496-7.524
	C143.088,215.947,139.728,212.593,135.587,212.593z"/>
<path d="M63.446,203.718c0.005,0,0.01,0,0.015,0l72.094-0.135c4.147-0.008,7.504-3.376,7.496-7.524
	c-0.008-4.143-3.368-7.496-7.51-7.496c-0.005,0-0.01,0-0.015,0l-72.094,0.135c-4.147,0.008-7.504,3.376-7.496,7.524
	C55.945,200.365,59.306,203.718,63.446,203.718z"/>
<path d="M79.422,179.655c0.005,0,0.01,0,0.015,0l56.073-0.105c4.147-0.008,7.504-3.376,7.496-7.524
	c-0.008-4.143-3.368-7.496-7.51-7.496c-0.005,0-0.01,0-0.015,0l-56.073,0.105c-4.147,0.008-7.504,3.376-7.496,7.524
	C71.92,176.303,75.281,179.655,79.422,179.655z"/>
<path d="M311.696,163.198c1.927,0,3.853-0.737,5.32-2.21l63.963-64.204c2.927-2.939,2.918-7.693-0.02-10.621
	c-2.939-2.927-7.694-2.919-10.621,0.02l-63.963,64.204c-2.927,2.939-2.918,7.693,0.02,10.621
	C307.862,162.469,309.778,163.198,311.696,163.198z"/>
<g>
</g>
<g>
</g>
<g>
</g>
<g>
</g>
<g>
</g>
<g>
</g>
<g>
</g>
<g>
</g>
<g>
</g>
<g>
</g>
<g>
</g>
<g>
</g>
<g>
</g>
<g>
</g>
<g>
</g>
</svg>
