<?xml version="1.0" encoding="iso-8859-1"?>
<!-- Generator: Adobe Illustrator 19.0.0, SVG Export Plug-In . SVG Version: 6.00 Build 0)  -->
<svg version="1.1" id="Layer_1" xmlns="http://www.w3.org/2000/svg" xmlns:xlink="http://www.w3.org/1999/xlink" x="0px" y="0px"
	 viewBox="0 0 511.999 511.999" style="enable-background:new 0 0 511.999 511.999;" xml:space="preserve">
<path style="fill:#C7CFE2;" d="M267.77,118.726l-0.089-47.225c-0.066-35.406-28.823-64.054-64.229-63.988
	c-35.406,0.066-64.054,28.823-63.988,64.229l0.089,47.225c-47.408,23.708-79.999,72.62-79.893,129.223l288.487-0.542
	C348.042,191.044,315.267,142.254,267.77,118.726z"/>
<path style="fill:#AFB9D2;" d="M182.042,122.145l-1.847-47.189c-1.159-29.61,17.961-55.302,44.967-63.71
	c-6.782-2.426-14.09-3.748-21.709-3.733c-35.406,0.066-64.054,28.823-63.988,64.229l0.089,47.226
	c-47.408,23.706-79.999,72.618-79.893,129.222l47.258-0.089C107.078,194.079,137.244,146.675,182.042,122.145z"/>
<path style="fill:#C7CFE2;" d="M404.725,503.974l-272.46,0.512l-0.045-24.041c-0.017-8.852,7.145-16.04,15.997-16.057l240.406-0.452
	c8.852-0.017,16.04,7.145,16.057,15.997L404.725,503.974z"/>
<path style="fill:#AFB9D2;" d="M188.376,504.381l-0.045-24.041c-0.017-8.846,7.136-16.03,15.98-16.056l-56.095,0.105
	c-8.852,0.017-16.014,7.205-15.997,16.057l0.045,24.041l272.46-0.512v-0.001L188.376,504.381z"/>
<path style="fill:#C7CFE2;" d="M404.68,479.934l0.045,24.04l0,0L404.68,479.934c-0.017-8.852-7.205-16.014-16.057-15.998
	l-184.294,0.347c-0.006,0-0.011,0.001-0.017,0.001l184.311-0.347C397.474,463.921,404.663,471.083,404.68,479.934z"/>
<polygon style="fill:#AFB9D2;" points="325.77,457.81 406.585,265.787 405.664,247.559 326.337,102.775 313.976,95.454 
	267.726,95.541 267.666,63.487 313.918,63.4 354.455,87.376 433.726,232.059 435.573,279.539 357.943,463.995 "/>
<g>
	<circle style="fill:#707487;" cx="331.801" cy="79.394" r="24.041"/>
	<circle style="fill:#707487;" cx="428.294" cy="255.512" r="24.041"/>
</g>
<path d="M263.61,144.149c-3.592-2.071-8.188-0.838-10.261,2.756c-2.072,3.594-0.838,8.189,2.756,10.261
	c23.308,13.438,40.382,34.97,48.078,60.63c0.977,3.254,3.962,5.356,7.193,5.356c0.714,0,1.441-0.103,2.162-0.319
	c3.974-1.192,6.229-5.38,5.037-9.355C309.774,184.132,290.254,159.509,263.61,144.149z"/>
<path d="M203.574,32.054c-0.024,0-0.052,0-0.076,0c-4.149,0.008-7.507,3.378-7.499,7.527c0.008,4.145,3.37,7.499,7.513,7.499
	c0.023,0.001,0.042,0,0.062,0c13.511,0,24.515,10.979,24.541,24.495c0.008,4.144,3.37,7.499,7.513,7.499c0.005,0,0.01,0,0.015,0
	c4.149-0.008,7.507-3.378,7.499-7.527C243.099,49.753,225.359,32.054,203.574,32.054z"/>
<path d="M459.852,255.452c-0.026-13.653-8.782-25.3-20.992-29.658L362.542,86.499c0.533-2.304,0.821-4.701,0.816-7.165
	c-0.033-17.365-14.187-31.494-31.612-31.494c-8.05,0.015-15.395,3.063-20.966,8.054l-37.332,0.07
	C266.277,23.988,237.661,0,203.576,0h-0.137c-19.13,0.036-37.103,7.52-50.604,21.073c-13.502,13.553-20.917,31.552-20.882,50.684
	l0.08,42.653c-23.076,12.439-42.577,30.623-56.596,52.822c-15.29,24.214-23.343,52.213-23.289,80.973
	c0.008,4.145,3.37,7.499,7.513,7.499c0.005,0,0.01,0,0.015,0l288.487-0.543c1.992-0.004,3.902-0.798,5.308-2.211
	c1.406-1.411,2.194-3.324,2.191-5.317c-0.054-28.76-8.213-56.729-23.593-80.885c-14.102-22.146-33.671-40.256-56.794-52.609
	l-0.021-11.1l35.622-0.067c3.004,2.67,6.517,4.775,10.375,6.15l76.312,139.282c-0.533,2.304-0.821,4.701-0.816,7.165
	c0.007,3.556,0.614,6.973,1.712,10.164l-79.611,189.163c-0.229,0.545-0.382,1.102-0.477,1.66l-170.166,0.32
	c-12.98,0.024-23.52,10.604-23.496,23.584l0.045,24.041c0.008,4.144,3.37,7.499,7.513,7.499c0.005,0,0.01,0,0.015,0l272.46-0.512
	c4.149-0.008,7.507-3.378,7.499-7.527l-0.045-24.041c-0.025-12.956-10.585-23.496-23.584-23.496l-19.344,0.036L441.85,284
	C452.503,278.912,459.875,268.024,459.852,255.452z M428.33,272.039l-0.023,5.4l-0.009,0.021v-5.422
	c-9.096,0-16.51-7.401-16.528-16.497c-0.003-1.698,0.252-3.336,0.727-4.879c0.168-0.371,0.309-0.753,0.415-1.146
	c2.404-6.145,8.376-10.521,15.387-10.535c9.096,0,16.51,7.4,16.527,16.497C444.844,264.593,437.443,272.022,428.33,272.039z
	 M353.861,101.927l67.31,122.852c-5.729,1.328-10.862,4.217-14.928,8.198l-67.31-122.852
	C344.661,108.797,349.795,105.908,353.861,101.927z M331.806,62.865c9.096,0,16.51,7.4,16.527,16.497
	c0.003,1.77-0.281,3.493-0.811,5.129c-0.108,0.26-0.204,0.525-0.283,0.796c-0.815,2.137-2.063,4.102-3.725,5.771
	c-3.115,3.127-7.263,4.854-11.678,4.862l-0.007,1.736c-0.008-0.009-0.016-0.017-0.024-0.026v-1.71c-1.12,0-2.214-0.114-3.273-0.329
	c-0.262-0.08-0.528-0.149-0.797-0.2c-3.074-0.783-5.804-2.424-7.92-4.663c-0.183-0.226-0.38-0.442-0.588-0.646
	c-2.45-2.878-3.941-6.596-3.949-10.66c-0.008-4.053,1.457-7.767,3.885-10.65c0.221-0.216,0.43-0.446,0.623-0.687
	C322.798,64.889,327.062,62.874,331.806,62.865z M340.419,240.15l-273.057,0.513c2.496-47.929,29.656-90.592,72.385-113.327
	l79.957-0.15c4.149-0.008,7.507-3.378,7.499-7.527c-0.008-4.145-3.37-7.499-7.513-7.499c-0.005,0-0.01,0-0.015,0l-72.623,0.136
	l-0.076-40.569c-0.028-15.118,5.832-29.341,16.501-40.051c10.669-10.709,24.871-16.623,39.988-16.652h0.109
	c31.147,0,56.534,25.341,56.593,56.489l0.076,40.569l-8.514,0.016c-4.149,0.008-7.507,3.378-7.499,7.527
	c0.008,4.144,3.37,7.499,7.513,7.499c0.005,0,0.01,0,0.015,0l15.849-0.03C310.423,149.669,337.743,192.229,340.419,240.15z
	 M275.194,71.487c0-0.168-0.012-0.334-0.014-0.501l26.232-0.049c-0.756,2.713-1.166,5.566-1.161,8.516
	c0.006,2.95,0.428,5.803,1.194,8.512l-26.221,0.049L275.194,71.487z M388.653,471.449c4.686,0,8.504,3.812,8.514,8.498l0.031,16.528
	l-257.435,0.484l-0.031-16.528c-0.009-4.695,3.803-8.521,8.498-8.53l209.67-0.395c0.013,0,0.025,0.002,0.038,0.002
	c0.009,0,0.018-0.002,0.027-0.002L388.653,471.449z M334.461,456.526l74.214-176.339c4.422,3.525,9.807,5.886,15.688,6.622
	l-71.414,169.682L334.461,456.526z"/>
<g>
</g>
<g>
</g>
<g>
</g>
<g>
</g>
<g>
</g>
<g>
</g>
<g>
</g>
<g>
</g>
<g>
</g>
<g>
</g>
<g>
</g>
<g>
</g>
<g>
</g>
<g>
</g>
<g>
</g>
</svg>
