<?xml version="1.0" encoding="iso-8859-1"?>
<!-- Generator: Adobe Illustrator 19.0.0, SVG Export Plug-In . SVG Version: 6.00 Build 0)  -->
<svg version="1.1" id="Layer_1" xmlns="http://www.w3.org/2000/svg" xmlns:xlink="http://www.w3.org/1999/xlink" x="0px" y="0px"
	 viewBox="0 0 512 512" style="enable-background:new 0 0 512 512;" xml:space="preserve">
<path style="fill:#EFF2FA;" d="M408.786,503.375H103.215c-17.327,0-31.374-14.046-31.374-31.374V55.332
	c0-17.327,14.046-31.374,31.374-31.374h305.572c17.327,0,31.374,14.046,31.374,31.374V472
	C440.161,489.328,426.113,503.375,408.786,503.375z"/>
<rect x="71.842" y="63.495" style="fill:#D7DEED;" width="368.32" height="14.513"/>
<path style="fill:#8F96AC;" d="M440.161,64.494H71.84v-9.787c0-16.982,13.767-30.749,30.749-30.749h306.823
	c16.982,0,30.749,13.767,30.749,30.749V64.494z"/>
<path d="M447.306,71.476c0-0.001,0-0.003,0-0.004s0-0.003,0-0.004l-0.03-16.009c-0.041-21.758-17.775-39.46-39.608-39.46l-0.5,0.001
	l-0.016-8.507C407.143,3.351,403.784,0,399.644,0c-0.005,0-0.01,0-0.015,0c-4.146,0.008-7.501,3.375-7.492,7.521l0.016,8.507
	l-17.015,0.032l-0.016-8.507c-0.008-4.142-3.367-7.493-7.507-7.493c-0.005,0-0.01,0-0.015,0c-4.146,0.008-7.501,3.375-7.493,7.521
	l0.016,8.507l-17.015,0.032l-0.016-8.507c-0.008-4.142-3.367-7.493-7.507-7.493c-0.005,0-0.01,0-0.015,0
	c-4.146,0.008-7.501,3.375-7.493,7.521l0.016,8.507L311.08,16.18l-0.016-8.507c-0.008-4.142-3.367-7.493-7.507-7.493
	c-0.005,0-0.01,0-0.015,0c-4.146,0.008-7.5,3.375-7.492,7.521l0.016,8.507l-17.015,0.032l-0.016-8.507
	c-0.008-4.142-3.367-7.493-7.507-7.493c-0.005,0-0.01,0-0.015,0c-4.146,0.008-7.5,3.375-7.492,7.521l0.016,8.507L247.023,16.3
	l-0.016-8.507C246.999,3.651,243.64,0.3,239.5,0.3c-0.005,0-0.01,0-0.015,0c-4.146,0.008-7.501,3.375-7.492,7.521l0.016,8.507
	l-17.015,0.032l-0.016-8.507c-0.008-4.142-3.367-7.493-7.507-7.493c-0.005,0-0.01,0-0.015,0c-4.146,0.008-7.501,3.375-7.493,7.521
	l0.016,8.507l-17.015,0.032l-0.016-8.507c-0.008-4.142-3.367-7.493-7.507-7.493c-0.005,0-0.01,0-0.015,0
	c-4.146,0.008-7.501,3.375-7.493,7.521l0.016,8.507l-17.015,0.032l-0.016-8.507c-0.008-4.141-3.367-7.493-7.507-7.493
	c-0.005,0-0.01,0-0.015,0c-4.146,0.008-7.501,3.375-7.493,7.521l0.016,8.507l-17.015,0.032l-0.016-8.507
	c-0.008-4.142-3.367-7.493-7.507-7.493c-0.005,0-0.01,0-0.015,0c-4.146,0.008-7.501,3.375-7.493,7.521l0.016,8.507l-0.5,0.001
	c-21.789,0.042-39.491,17.81-39.45,39.609l0.783,416.362C64.766,494.299,82.501,512,104.259,512c0.005,0,0.07,0,0.075,0
	l304.264-0.572c10.525-0.02,20.435-4.161,27.905-11.659c7.47-7.499,11.574-17.425,11.554-27.949L447.306,71.476z M425.868,489.173
	c-4.64,4.658-10.783,7.23-17.298,7.242l-304.264,0.572l-0.047,7.507v-7.507c-13.495,0-24.495-10.98-24.52-24.475L79,79.671
	l256.723-0.482c4.146-0.008,7.501-3.375,7.492-7.521c-0.008-4.142-3.367-7.493-7.507-7.493c-0.004,0-0.01,0-0.014,0L78.972,64.658
	l-0.016-8.507C78.931,42.63,89.91,31.608,103.431,31.583l0.5-0.001l0.016,8.507c0.008,4.142,3.367,7.493,7.507,7.493
	c0.005,0,0.01,0,0.015,0c4.146-0.008,7.501-3.375,7.493-7.521l-0.016-8.507l17.015-0.032l0.016,8.507
	c0.008,4.141,3.367,7.493,7.507,7.493c0.005,0,0.01,0,0.015,0c4.146-0.008,7.501-3.375,7.493-7.521l-0.016-8.507l17.015-0.032
	l0.016,8.507c0.008,4.142,3.367,7.493,7.507,7.493c0.005,0,0.01,0,0.015,0c4.146-0.008,7.501-3.375,7.493-7.521l-0.016-8.507
	l17.015-0.032l0.016,8.507c0.008,4.142,3.367,7.493,7.507,7.493c0.005,0,0.01,0,0.015,0c4.146-0.008,7.501-3.375,7.493-7.521
	l-0.016-8.507l17.015-0.032l0.016,8.507c0.008,4.142,3.367,7.493,7.507,7.493c0.005,0,0.01,0,0.015,0
	c4.146-0.008,7.501-3.375,7.493-7.521l-0.016-8.507l17.015-0.032l0.016,8.507c0.008,4.142,3.367,7.493,7.507,7.493
	c0.005,0,0.01,0,0.015,0c4.146-0.008,7.501-3.375,7.493-7.521l-0.016-8.507l17.015-0.032l0.016,8.507
	c0.008,4.142,3.367,7.493,7.507,7.493c0.005,0,0.01,0,0.015,0c4.146-0.008,7.501-3.375,7.493-7.521l-0.016-8.507l17.015-0.032
	l0.016,8.507c0.008,4.142,3.367,7.493,7.507,7.493c0.005,0,0.01,0,0.015,0c4.146-0.008,7.501-3.375,7.493-7.521l-0.016-8.507
	l17.015-0.032l0.016,8.507c0.008,4.142,3.367,7.493,7.507,7.493c0.005,0,0.01,0,0.015,0c4.146-0.008,7.5-3.375,7.492-7.521
	l-0.016-8.507l17.015-0.032l0.016,8.507c0.008,4.142,3.367,7.493,7.507,7.493c0.005,0,0.01,0,0.015,0
	c4.146-0.008,7.5-3.375,7.492-7.521l-0.016-8.507l0.547-0.001c13.495,0,24.495,10.98,24.52,24.475l0.016,8.507l-16.514,0.031
	c-4.146,0.008-7.501,3.375-7.493,7.521c0.008,4.141,3.367,7.493,7.507,7.493c0.005,0,0.01,0,0.015,0l16.514-0.031l0.739,392.84
	C433.056,478.363,430.508,484.515,425.868,489.173z"/>
<path d="M367.736,79.129c0.005,0,0.01,0,0.015,0l16.014-0.03c4.146-0.008,7.501-3.375,7.493-7.521
	c-0.008-4.141-3.367-7.493-7.507-7.493c-0.005,0-0.01,0-0.015,0l-16.014,0.03c-4.146,0.008-7.5,3.375-7.492,7.521
	C360.238,75.777,363.597,79.129,367.736,79.129z"/>
<path d="M119.626,135.644c0.005,0,0.01,0,0.015,0l16.014-0.03c4.146-0.008,7.501-3.375,7.493-7.521
	c-0.008-4.141-3.367-7.493-7.507-7.493c-0.005,0-0.01,0-0.015,0l-16.014,0.03c-4.146,0.008-7.501,3.375-7.493,7.521
	C112.127,132.292,115.486,135.644,119.626,135.644z"/>
<path d="M167.668,135.554c0.005,0,0.01,0,0.015,0l224.195-0.421c4.146-0.008,7.501-3.375,7.493-7.521
	c-0.008-4.142-3.367-7.493-7.507-7.493c-0.005,0-0.01,0-0.015,0l-224.195,0.421c-4.146,0.008-7.501,3.375-7.493,7.521
	C160.169,132.202,163.528,135.554,167.668,135.554z"/>
<path d="M119.701,175.679c0.005,0,0.01,0,0.015,0l16.014-0.03c4.146-0.008,7.501-3.375,7.492-7.521
	c-0.008-4.141-3.367-7.492-7.507-7.492c-0.005,0-0.01,0-0.015,0l-16.014,0.03c-4.146,0.008-7.501,3.375-7.493,7.521
	C112.203,172.327,115.562,175.679,119.701,175.679z"/>
<path d="M167.743,175.589c0.005,0,0.01,0,0.015,0l224.195-0.421c4.146-0.008,7.501-3.375,7.493-7.521
	c-0.008-4.142-3.367-7.493-7.507-7.493c-0.005,0-0.01,0-0.015,0l-224.195,0.421c-4.146,0.008-7.501,3.375-7.493,7.521
	C160.244,172.237,163.603,175.589,167.743,175.589z"/>
<path d="M119.776,215.713c0.005,0,0.01,0,0.015,0l16.014-0.03c4.146-0.008,7.501-3.375,7.493-7.521
	c-0.008-4.141-3.367-7.493-7.507-7.493c-0.005,0-0.01,0-0.015,0l-16.014,0.03c-4.146,0.008-7.501,3.375-7.493,7.521
	C112.278,212.362,115.637,215.713,119.776,215.713z"/>
<path d="M167.818,215.623c0.005,0,0.01,0,0.015,0l224.195-0.421c4.146-0.008,7.501-3.375,7.493-7.521
	c-0.008-4.142-3.367-7.493-7.507-7.493c-0.005,0-0.01,0-0.015,0l-224.195,0.421c-4.146,0.008-7.501,3.375-7.493,7.521
	C160.319,212.271,163.678,215.623,167.818,215.623z"/>
<path d="M119.851,255.748c0.005,0,0.01,0,0.015,0l16.014-0.03c4.146-0.008,7.501-3.375,7.493-7.521
	c-0.008-4.141-3.367-7.493-7.507-7.493c-0.005,0-0.01,0-0.015,0l-16.014,0.03c-4.146,0.008-7.501,3.375-7.493,7.521
	C112.354,252.396,115.713,255.748,119.851,255.748z"/>
<path d="M167.893,255.658c0.005,0,0.01,0,0.015,0l224.195-0.421c4.146-0.008,7.5-3.375,7.492-7.521
	c-0.008-4.142-3.367-7.492-7.507-7.492c-0.005,0-0.01,0-0.015,0l-224.195,0.421c-4.146,0.008-7.501,3.375-7.493,7.521
	C160.395,252.306,163.754,255.658,167.893,255.658z"/>
<path d="M119.927,295.782c0.005,0,0.01,0,0.015,0l16.014-0.03c4.146-0.008,7.501-3.375,7.493-7.521
	c-0.008-4.141-3.367-7.493-7.507-7.493c-0.005,0-0.01,0-0.015,0l-16.014,0.03c-4.146,0.008-7.501,3.375-7.493,7.521
	C112.429,292.431,115.788,295.782,119.927,295.782z"/>
<path d="M167.969,295.693c0.005,0,0.01,0,0.015,0l224.195-0.421c4.146-0.008,7.5-3.375,7.492-7.521
	c-0.008-4.142-3.367-7.492-7.507-7.492c-0.005,0-0.01,0-0.015,0l-224.195,0.421c-4.146,0.008-7.501,3.375-7.493,7.521
	C160.47,292.341,163.829,295.693,167.969,295.693z"/>
<path d="M120.002,335.817c0.005,0,0.01,0,0.015,0l16.014-0.03c4.146-0.008,7.501-3.375,7.493-7.521
	c-0.008-4.141-3.367-7.493-7.507-7.493c-0.005,0-0.01,0-0.015,0l-16.014,0.03c-4.146,0.008-7.501,3.375-7.493,7.521
	C112.504,332.466,115.863,335.817,120.002,335.817z"/>
<path d="M168.044,335.728c0.005,0,0.01,0,0.015,0l224.195-0.421c4.146-0.008,7.501-3.375,7.492-7.521
	c-0.008-4.142-3.367-7.492-7.507-7.492c-0.005,0-0.01,0-0.015,0l-224.195,0.421c-4.146,0.008-7.501,3.375-7.492,7.521
	C160.546,332.376,163.904,335.728,168.044,335.728z"/>
<path d="M120.077,375.852c0.005,0,0.01,0,0.015,0l16.014-0.03c4.146-0.008,7.501-3.375,7.493-7.521
	c-0.008-4.141-3.367-7.492-7.507-7.492c-0.005,0-0.01,0-0.015,0l-16.014,0.03c-4.146,0.008-7.501,3.375-7.493,7.521
	C112.579,372.501,115.938,375.852,120.077,375.852z"/>
<path d="M168.119,375.762c0.005,0,0.01,0,0.015,0l224.195-0.421c4.146-0.008,7.501-3.375,7.492-7.521
	c-0.008-4.142-3.367-7.492-7.507-7.492c-0.005,0-0.01,0-0.015,0l-224.195,0.421c-4.146,0.008-7.501,3.375-7.493,7.521
	C160.621,372.411,163.98,375.762,168.119,375.762z"/>
<path d="M120.152,415.886c0.005,0,0.01,0,0.015,0l16.014-0.03c4.146-0.008,7.501-3.375,7.493-7.521
	c-0.008-4.141-3.367-7.492-7.507-7.492c-0.005,0-0.01,0-0.015,0l-16.014,0.03c-4.146,0.008-7.501,3.375-7.493,7.521
	C112.654,412.536,116.014,415.886,120.152,415.886z"/>
<path d="M168.194,415.796c0.005,0,0.01,0,0.015,0l224.195-0.421c4.146-0.008,7.501-3.375,7.493-7.521
	c-0.008-4.142-3.367-7.492-7.507-7.492c-0.005,0-0.01,0-0.015,0l-224.195,0.421c-4.146,0.008-7.501,3.375-7.493,7.521
	C160.696,412.445,164.055,415.796,168.194,415.796z"/>
<path d="M136.242,440.878c-0.005,0-0.01,0-0.015,0l-16.014,0.03c-4.146,0.008-7.501,3.375-7.493,7.521
	c0.008,4.141,3.367,7.492,7.507,7.492c0.005,0,0.01,0,0.015,0l16.014-0.03c4.146-0.008,7.501-3.375,7.492-7.521
	C143.741,444.23,140.382,440.878,136.242,440.878z"/>
<path d="M392.465,440.397c-0.005,0-0.01,0-0.015,0l-224.195,0.421c-4.146,0.008-7.501,3.375-7.493,7.521
	c0.008,4.142,3.367,7.493,7.507,7.493c0.005,0,0.01,0,0.015,0l224.195-0.421c4.146-0.008,7.501-3.375,7.493-7.521
	C399.963,443.748,396.605,440.397,392.465,440.397z"/>
<g>
</g>
<g>
</g>
<g>
</g>
<g>
</g>
<g>
</g>
<g>
</g>
<g>
</g>
<g>
</g>
<g>
</g>
<g>
</g>
<g>
</g>
<g>
</g>
<g>
</g>
<g>
</g>
<g>
</g>
</svg>
