<?xml version="1.0" encoding="iso-8859-1"?>
<!-- Generator: Adobe Illustrator 19.0.0, SVG Export Plug-In . SVG Version: 6.00 Build 0)  -->
<svg version="1.1" id="Layer_1" xmlns="http://www.w3.org/2000/svg" xmlns:xlink="http://www.w3.org/1999/xlink" x="0px" y="0px"
	 viewBox="0 0 511.999 511.999" style="enable-background:new 0 0 511.999 511.999;" xml:space="preserve">
<path style="fill:#AFB9D2;" d="M504.492,419.556c0.05,26.427-21.532,48.09-47.959,48.139l-400.405,0.753
	c-26.427,0.05-48.09-21.532-48.139-47.959L7.508,164.23c-0.05-26.427,21.532-48.09,47.959-48.139l400.405-0.753
	c26.427-0.05,48.09,21.532,48.139,47.959L504.492,419.556z"/>
<path style="fill:#D7DEED;" d="M504.01,163.297c-0.05-26.427-21.712-48.008-48.139-47.959l-400.405,0.754
	c-6.166,0.011-12.061,1.212-17.487,3.363c-2.172,5.48-3.375,11.439-3.364,17.668l0.481,256.259
	c0.05,26.427,21.712,48.008,48.139,47.959l400.405-0.753c6.166-0.011,12.061-1.212,17.487-3.363
	c2.172-5.48,3.375-11.439,3.364-17.668L504.01,163.297z"/>
<path d="M399.98,211.041c0.005,0,0.01,0,0.015,0l32.032-0.061c4.146-0.008,7.502-3.375,7.494-7.523
	c-0.008-4.141-3.367-7.493-7.508-7.493c-0.005,0-0.01,0-0.015,0l-32.032,0.061c-4.146,0.008-7.502,3.375-7.494,7.523
	C392.481,207.69,395.84,211.041,399.98,211.041z"/>
<path d="M79.656,211.643c0.005,0,0.01,0,0.015,0l288.292-0.542c4.146-0.008,7.502-3.375,7.494-7.522
	c-0.008-4.142-3.367-7.494-7.508-7.494c-0.005,0-0.01,0-0.015,0l-288.292,0.542c-4.146,0.008-7.502,3.375-7.494,7.522
	C72.156,208.29,75.516,211.643,79.656,211.643z"/>
<path d="M432.344,372.144c-0.005,0-0.01,0-0.015,0l-32.032,0.06c-4.146,0.008-7.502,3.375-7.494,7.522
	c0.008,4.142,3.367,7.494,7.508,7.494c0.005,0,0.01,0,0.015,0l32.032-0.06c4.146-0.008,7.502-3.375,7.494-7.522
	C439.844,375.496,436.485,372.144,432.344,372.144z"/>
<path d="M368.279,372.264c-0.005,0-0.01,0-0.015,0l-288.292,0.542c-4.146,0.008-7.502,3.375-7.494,7.522
	c0.008,4.142,3.367,7.494,7.508,7.494c0.005,0,0.01,0,0.015,0l288.292-0.542c4.146-0.008,7.502-3.375,7.494-7.522
	C375.779,375.616,372.42,372.264,368.279,372.264z"/>
<path d="M511.518,163.283c-0.057-30.577-24.979-55.452-55.555-55.452c-0.005,0-0.101,0-0.105,0l-96.598,0.182l-0.031-16.518
	c-0.058-30.597-24.969-55.451-55.554-55.451c-0.035,0-0.071,0-0.106,0l-96.097,0.18c-30.634,0.058-55.509,25.027-55.452,55.661
	l0.031,16.516l-96.598,0.182C24.818,108.641-0.058,133.612,0,164.244l0.481,256.261c0.058,30.576,24.98,55.451,55.555,55.451
	c0.005,0,0.101,0,0.105,0l400.405-0.753c14.787-0.027,28.713-5.847,39.213-16.387c10.5-10.539,16.267-24.487,16.239-39.273
	L511.518,163.283z M167.033,91.858c-0.042-22.355,18.11-40.576,40.465-40.618l96.097-0.18c0.026,0,0.052,0,0.078,0
	c22.319,0,40.498,18.135,40.54,40.464l0.031,16.517l-177.18,0.333L167.033,91.858z M485.123,448.219
	c-7.67,7.698-17.827,11.949-28.603,11.968L56.114,460.94l-0.077,7.508v-7.508c-22.312,0-40.498-18.152-40.54-40.464l-0.481-256.26
	c-0.042-22.355,18.11-40.575,40.465-40.617l104.089-0.195c0.001,0,0.002,0,0.003,0c0.005,0,0.01,0,0.015,0c0.001,0,0.002,0,0.003,0
	l296.374-0.558c22.313,0,40.498,18.152,40.54,40.464l0.481,256.26C497.005,430.346,492.793,440.521,485.123,448.219z"/>
<path d="M79.821,299.732c0.005,0,0.01,0,0.015,0l32.032-0.06c4.146-0.008,7.502-3.375,7.494-7.522
	c-0.008-4.142-3.367-7.494-7.508-7.494c-0.005,0-0.01,0-0.015,0l-32.032,0.06c-4.146,0.008-7.502,3.375-7.494,7.522
	C72.321,296.38,75.681,299.732,79.821,299.732z"/>
<path d="M432.164,284.055l-288.292,0.542c-4.146,0.008-7.502,3.375-7.494,7.522c0.008,4.142,3.367,7.494,7.508,7.494
	c0.005,0,0.01,0,0.015,0l288.292-0.542c4.146-0.008,7.502-3.375,7.494-7.522c-0.008-4.142-3.367-7.494-7.508-7.494
	C432.173,284.055,432.169,284.055,432.164,284.055z"/>
<path d="M472.503,146.784c-4.481-4.464-10.353-6.92-16.541-6.92c-0.015,0.001-0.061,0.024-0.044,0l-48.049,0.09
	c-4.146,0.008-7.502,3.375-7.494,7.522c0.008,4.142,3.367,7.494,7.508,7.494c0.005,0,0.01,0,0.015,0l48.048-0.09
	c0.004-0.007,0.011-0.001,0.016,0c2.188,0,4.298,0.902,5.944,2.542c1.65,1.645,2.561,3.757,2.565,5.951l0.015,8.008
	c0.008,4.141,3.367,7.493,7.508,7.493c0.005,0,0.01,0,0.015,0c4.146-0.008,7.502-3.375,7.494-7.523l-0.015-8.007
	C479.473,157.139,476.994,151.258,472.503,146.784z"/>
<path d="M359.834,155.059c0.005,0,0.01,0,0.015,0l16.016-0.03c4.146-0.008,7.502-3.375,7.494-7.523
	c-0.008-4.141-3.367-7.493-7.508-7.493c-0.005,0-0.01,0-0.015,0l-16.016,0.03c-4.146,0.008-7.502,3.375-7.494,7.523
	C352.334,151.708,355.695,155.059,359.834,155.059z"/>
<g>
</g>
<g>
</g>
<g>
</g>
<g>
</g>
<g>
</g>
<g>
</g>
<g>
</g>
<g>
</g>
<g>
</g>
<g>
</g>
<g>
</g>
<g>
</g>
<g>
</g>
<g>
</g>
<g>
</g>
</svg>
